<?xml version="1.0" encoding="utf-8"?><svg xmlns:xlink="http://www.w3.org/1999/xlink" id="Scene_1" image-rendering="optimizeQuality" baseProfile="basic" version="1.1" x="0px" y="0px" width="201" height="43" viewBox="0 0 201 43" xmlns="http://www.w3.org/2000/svg"><g id="Scene 1_1.0"><path fill="#FFF" d="M191.05,14.7Q190.8,14.8 190.2,14.8L183.25,14.8 182.6,14.7 182.5,14.7 181.85,16.75 181.95,16.75Q182.65,16.05 184.05,16.05L185.6,16.05 185.6,23.9Q185.6,24.95 185.55,25.25 185.4,26.05 184.85,26.25L184.85,26.3 188.25,26.3 188.25,26.25Q187.65,25.9 187.5,25.35 187.35,25 187.35,24.05L187.35,16.05 188.95,16.05Q190.15,16.05 190.45,16.75L190.5,16.75 191.1,14.7 191.05,14.7"/><path fill="#FFF" d="M200,16.85L200,14.9Q198.85,14.5 197.4,14.5 195.6,14.5 194.4,15.2 193,16.05 193,17.55 193,19.6 196,20.95 199,22.3 199,23.55 199,24.35 198.1,24.9 197.4,25.35 196.55,25.35 194.35,25.35 192.7,23.9L193.15,26.05Q194.7,26.6 196.3,26.6 198.3,26.6 199.7,25.5 201,24.4 201,23 201,21.3 198,19.85 195,18.45 195,17.35 195,15.8 197.25,15.8 198.95,15.8 200,16.85"/><path fill="#FFF" d="M169.4,20.4Q169.4,18 167.65,16.25 165.85,14.5 163.15,14.5 160.35,14.45 158.4,16.2 156.5,18 156.5,20.5 156.5,23.2 158.4,24.9 160.3,26.6 162.95,26.6 165.6,26.6 167.5,24.85 169.4,23.05 169.4,20.4 M167.4,20.75Q167.4,22.75 166.2,24.05 164.95,25.35 163,25.35 161.05,25.35 159.75,23.75 158.55,22.3 158.55,20.35 158.55,18.35 159.75,17.05 161,15.75 163,15.75 165.05,15.75 166.25,17.25 167.4,18.75 167.4,20.75"/><path fill="#FFF" d="M171.6,14.8L171.6,14.85Q172.2,15.05 172.3,15.85 172.35,16.15 172.35,17.25L172.35,23.9Q172.35,24.95 172.3,25.25 172.2,26.05 171.6,26.25L171.6,26.3 174.9,26.3 174.9,26.25Q174.3,26.05 174.2,25.25 174.15,24.95 174.15,23.9L174.15,16.05 175.3,15.85Q176.25,15.8 176.9,16.35 177.55,16.9 177.55,17.8 177.55,19.85 174.55,20.35L176.15,22.8 178.35,25.4Q179.05,26.3 180.35,26.3L181.95,26.3Q180.3,25.25 179.1,23.9L176.6,20.7Q177.75,20.4 178.55,19.65 179.4,18.75 179.4,17.65 179.4,16.4 178.45,15.6 177.45,14.8 175.75,14.8L171.6,14.8"/><path fill="#FFF" d="M168.9,32.15Q167.7,32.15 167.7,33.45L167.7,34.85Q167.7,36.2 168.9,36.2 169.2,36.2 169.65,35.8L169.75,36.15 170.1,36.15 170.1,34.15 168.85,34.15 168.85,34.75 169.4,34.75 169.4,35Q169.4,35.55 168.9,35.55 168.45,35.55 168.45,35L168.45,33.4Q168.45,32.8 168.9,32.8 169.4,32.8 169.4,33.5L170.1,33.5Q170.1,32.15 168.9,32.15"/><path fill="#FFF" d="M198.9,32.2L197.9,32.2 196.95,36.15 197.65,36.15 197.9,35.35 198.9,35.35 199.1,36.15 199.85,36.15 198.9,32.2 M198,34.7L198.35,33.05 198.75,34.7 198,34.7"/><path fill="#FFF" d="M184.1,33.35L184.75,33.1Q184.5,32.15 183.5,32.15 182.35,32.15 182.35,33.25 182.35,33.85 183.2,34.35 184.05,34.8 184.05,35.1 184.05,35.55 183.6,35.55 183.05,35.55 183,34.9L182.2,35.1Q182.55,36.2 183.5,36.2 184.8,36.2 184.8,35.1 184.8,34.4 184,33.9 183.1,33.45 183.1,33.2 183.1,32.8 183.5,32.8 183.85,32.8 184.1,33.35"/><path fill="#FFF" d="M148.15,17.35Q148.15,15.8 150.45,15.8 152.2,15.8 153.15,16.85L153.15,14.9Q151.95,14.5 150.55,14.5 148.7,14.5 147.55,15.2 146.1,16.05 146.1,17.55 146.1,19.6 149.2,20.95 152.2,22.3 152.2,23.55 152.2,24.35 151.3,24.9 150.55,25.35 149.65,25.35 147.6,25.35 145.8,23.9L146.35,26.05Q147.9,26.6 149.5,26.6 151.5,26.6 152.85,25.5 154.15,24.4 154.15,23 154.15,21.3 151.15,19.85 148.15,18.45 148.15,17.35"/><path fill="#FFF" d="M141.85,16.75L141.9,16.75 141.9,14.7 141.85,14.7Q141.7,14.8 141.1,14.8L135.4,14.8 135.4,14.85Q136,15.05 136.2,15.85 136.25,16.15 136.25,17.25L136.25,23.9Q136.25,24.95 136.2,25.25 136,26.05 135.4,26.25L135.4,26.3 142.75,26.3 143.6,24 143.5,24Q142.1,25.25 140.25,25.05L138,24.85 138,20.7 139.3,20.7Q140.6,20.7 140.9,21.15L140.9,19.35 138,19.4 138,16.15 139.8,16.05Q141.25,16.05 141.85,16.75"/><path fill="#FFF" d="M126.65,15.85Q127.6,15.8 128.25,16.35 128.9,16.9 128.9,17.8 128.9,19.85 125.9,20.35L127.5,22.8 129.7,25.4Q130.35,26.3 131.7,26.3L133.3,26.3Q131.65,25.25 130.45,23.9L127.9,20.7Q129.1,20.4 129.85,19.65 130.75,18.75 130.75,17.65 130.75,16.4 129.8,15.6 128.8,14.8 127.1,14.8L122.95,14.8 122.95,14.85Q123.55,15.05 123.65,15.85 123.7,16.15 123.7,17.25L123.7,23.9Q123.7,24.95 123.65,25.25 123.55,26.05 122.95,26.25L122.95,26.3 126.25,26.3 126.25,26.25Q125.65,26.05 125.55,25.25 125.5,24.95 125.5,23.9L125.5,16.05 126.65,15.85"/><path fill="#FFF" d="M140.85,33.45Q140.85,32.15 139.6,32.15 138.35,32.15 138.35,33.45L138.35,34.85Q138.35,36.2 139.6,36.2 140.85,36.2 140.85,34.85L140.85,33.45 M140.1,33.4L140.1,35Q140.1,35.55 139.6,35.55 139.15,35.55 139.15,35L139.15,33.4Q139.15,32.8 139.6,32.8 140.1,32.8 140.1,33.4"/><path fill="#FFF" d="M126.25,32.2L125.55,32.2 125.55,34.55 124.5,32.2 123.65,32.2 123.65,36.15 124.35,36.15 124.35,33.65 125.55,36.15 126.25,36.15 126.25,32.2"/><path fill="#FFF" d="M155.55,32.2L154.85,32.2 154.85,34.55 153.8,32.2 152.95,32.2 152.95,36.15 153.65,36.15 153.65,33.65 154.8,36.15 155.55,36.15 155.55,32.2"/><path fill="#FFF" d="M112.75,3.2Q112.8,2 111.9,1.15 111.05,0.25 109.85,0.25 108.65,0.25 107.8,1.15 106.95,1.95 106.95,3.2 106.95,4.4 107.8,5.25 108.65,6.1 109.85,6.1 111.05,6.1 111.9,5.25 112.75,4.4 112.75,3.2"/><path fill="#FFF" d="M106.15,20.05Q107.65,21.6 109.85,21.6 112.05,21.6 113.6,20.05 115.1,18.55 115.1,16.35 115.1,14.15 113.6,12.65 112.05,11.1 109.85,11.1 107.65,11.1 106.15,12.65 104.6,14.15 104.6,16.35 104.6,18.55 106.15,20.05"/><path fill="#FFF" d="M84.7,16.25Q82.8,18 82.8,20.5 82.8,23.15 84.7,24.9 86.5,26.6 89.2,26.6 91.9,26.6 93.8,24.85 95.7,23.1 95.7,20.4 95.7,18 93.9,16.3 92.1,14.45 89.4,14.45 86.65,14.4 84.7,16.25 M86,17.05Q87.25,15.75 89.25,15.75 91.25,15.75 92.55,17.3 93.65,18.75 93.65,20.8 93.65,22.8 92.5,24 91.25,25.3 89.3,25.3 87.3,25.3 86,23.75 84.8,22.3 84.8,20.35 84.8,18.35 86,17.05"/><path fill="#FFF" d="M115.2,28.85Q112.95,26.65 109.8,26.65 106.7,26.6 104.45,28.85 102.25,31.1 102.25,34.2 102.25,37.35 104.45,39.6 106.7,41.75 109.8,41.75 112.95,41.75 115.2,39.6 117.45,37.35 117.45,34.2 117.45,31.1 115.2,28.85"/><path fill="#FFF" d="M63.7,17.25Q63.7,15.1 64.55,14.8L64.55,14.75 61.15,14.75 61.15,14.8Q61.75,15 61.9,15.8 61.95,16.1 61.95,17.25L61.95,23.85Q61.95,24.9 61.9,25.2 61.75,26.05 61.15,26.2L61.15,26.25 64.5,26.25 64.5,26.2Q63.9,26.05 63.75,25.2 63.7,24.9 63.7,23.85L63.7,17.25"/><path fill="#FFF" d="M70.25,16.1Q68.2,17.8 68.2,20.6 68.15,23.3 70.05,24.9 72,26.55 75.3,26.55 76.7,26.55 79.55,26.1 79.45,25.8 79.45,25.25L79.45,21.25Q79.45,20.7 79.55,20.5L79.55,20.4 76.85,20.4 76.85,20.5Q77.65,20.8 77.65,22.5L77.65,24.95Q76.4,25.3 75.15,25.3 73.05,25.3 71.65,23.9 70.15,22.5 70.2,20.35 70.2,18.3 71.55,17 72.95,15.75 75,15.75 77.25,15.75 78.15,16.8L78.2,16.8 78.2,14.75Q76.7,14.45 75.45,14.45 72.2,14.45 70.25,16.1"/><path fill="#FFF" d="M48.05,16.7L48.1,16.7Q48.8,16 50.25,16L51.75,16 51.75,23.8Q51.75,25.85 50.95,26.2L50.95,26.25 54.45,26.25 54.45,26.2Q53.85,25.85 53.65,25.25 53.55,24.9 53.55,23.95L53.55,16 55.15,16Q56.45,16 56.6,16.7L56.7,16.7 57.25,14.6 57.2,14.6Q56.95,14.7 56.4,14.7L49.4,14.7Q48.95,14.7 48.75,14.6L48.7,14.6 48.05,16.7"/><path fill="#FFF" d="M41.85,14.7L41.85,14.75Q42.5,15.1 42.65,15.7 42.75,16 42.75,17L42.75,23.6 36.05,15.15 35.8,14.7 33.2,14.7 33.2,14.75Q33.85,15.1 34.05,15.7 34.15,16.05 34.15,16.95L34.15,23.95Q34.15,25.55 33.2,26.2L36.3,26.25 36.3,26.2Q35.7,25.8 35.5,25.2 35.4,24.85 35.4,23.95L35.4,17.15 41.45,24.8Q42.6,26.3 43.95,26.8L44.05,17Q44.05,16.05 44.15,15.7 44.3,15.1 44.9,14.75L44.9,14.7 41.85,14.7 M27.65,17.15Q28.8,18.65 28.8,20.65 28.8,22.65 27.6,23.95 26.35,25.25 24.4,25.25 22.4,25.2 21.1,23.65 19.9,22.2 19.9,20.25 19.9,18.25 21.15,16.95 22.4,15.65 24.4,15.65 26.4,15.65 27.65,17.15"/><path fill="#FFF" d="M29,16.15Q27.2,14.35 24.55,14.4 21.75,14.35 19.8,16.1 17.9,17.9 17.9,20.4 17.9,23.1 19.8,24.8 21.7,26.5 24.35,26.5 27,26.5 28.9,24.8 30.8,22.95 30.8,20.35 30.8,17.9 29,16.15 M27.65,17.15Q28.8,18.65 28.8,20.65 28.8,22.65 27.6,23.95 26.35,25.25 24.4,25.25 22.4,25.2 21.1,23.65 19.9,22.2 19.9,20.25 19.9,18.25 21.15,16.95 22.4,15.65 24.4,15.65 26.4,15.65 27.65,17.15"/><path fill="#FFF" d="M4.75,15.45Q4.5,14.95 4.5,14.65L1.4,14.65 1.4,14.7Q2.25,15.1 1.95,16.35L0.95,23.65Q0.7,25.5 0,26.15L0,26.2 2.85,26.2 2.85,26.15Q2.3,25.9 2.2,25.3 2.15,24.9 2.25,23.9L3.3,16.35 6.6,24.3Q7.2,25.7 8.15,26.45L12.1,16.35 13.1,24.85Q13.1,25.9 12.35,26.15L12.35,26.2 15.8,26.2 15.8,26.15Q15,25.6 14.9,24.4L13.7,15.75Q13.7,14.85 14.3,14.7L14.3,14.65 11.25,14.65 11.25,14.7Q11.25,15.05 11,15.75L8.05,23.2 4.75,15.45"/></g><g id="Scene 1_0.0"><path fill="#85736A" d="M187.35,16L188.95,16Q190.1,16 190.4,16.7L190.45,16.7 191.1,14.65 191,14.65Q190.8,14.8 190.15,14.8L183.2,14.8 182.55,14.65 182.5,14.65 181.85,16.7 181.9,16.7Q182.6,16 184.05,16L185.55,16 185.55,23.9Q185.55,24.9 185.5,25.2 185.4,26 184.8,26.25L184.8,26.3 188.25,26.3 188.25,26.25Q187.65,25.85 187.45,25.3 187.35,24.95 187.35,24.05L187.35,16"/><path fill="#85736A" d="M200,16.8L200,14.9Q198.8,14.45 197.35,14.45 195.55,14.45 194.35,15.2 192.95,16 192.95,17.55 192.95,19.55 196,20.9 198.95,22.25 198.95,23.5 198.95,24.35 198.1,24.85 197.35,25.3 196.5,25.3 194.3,25.3 192.65,23.9L193.15,26Q194.65,26.6 196.25,26.6 198.3,26.6 199.65,25.45 201,24.4 201,22.95 201,21.25 198,19.85 194.95,18.4 194.95,17.3 194.95,15.75 197.2,15.75 198.9,15.75 200,16.8"/><path fill="#85736A" d="M171.55,14.8L171.55,14.85Q172.15,15 172.25,15.85 172.3,16.1 172.3,17.25L172.3,23.9Q172.3,24.9 172.25,25.2 172.15,26 171.55,26.25L171.55,26.3 174.85,26.3 174.85,26.25Q174.25,26 174.15,25.2 174.1,24.9 174.1,23.9L174.1,16 175.3,15.85Q176.2,15.75 176.85,16.3 177.55,16.85 177.55,17.8 177.55,19.85 174.5,20.3L176.1,22.8 178.3,25.4Q179,26.3 180.3,26.3L181.9,26.3Q180.45,25.4 179.05,23.9L176.55,20.65Q177.7,20.35 178.55,19.6 179.35,18.7 179.35,17.6 179.35,16.35 178.4,15.6 177.45,14.8 175.7,14.8L171.55,14.8"/><path fill="#85736A" d="M169.35,20.35Q169.35,17.95 167.6,16.25 165.8,14.45 163.1,14.45 160.35,14.4 158.35,16.15 156.45,17.95 156.45,20.5 156.45,23.15 158.35,24.85 160.25,26.6 162.9,26.6 165.55,26.6 167.45,24.8 169.35,23 169.35,20.35 M167.35,20.7Q167.35,22.75 166.2,24.05 164.95,25.3 163,25.3 161,25.3 159.75,23.7 158.5,22.25 158.5,20.3 158.5,18.3 159.75,17.05 160.95,15.7 163,15.7 165,15.7 166.25,17.25 167.35,18.7 167.35,20.7"/><path fill="#85736A" d="M168.9,32.75Q169.4,32.75 169.4,33.5L170.15,33.5Q170,32.1 168.9,32.1 167.65,32.1 167.65,33.4L167.65,34.8Q167.65,36.2 168.9,36.2 169.2,36.2 169.6,35.8L169.7,36.15 170.15,36.15 170.15,34.1 168.85,34.1 168.85,34.7 169.4,34.7 169.4,34.9Q169.4,35.55 168.9,35.55 168.45,35.55 168.45,34.9L168.45,33.35Q168.45,32.75 168.9,32.75"/><path fill="#85736A" d="M198.85,32.15L197.9,32.15 196.9,36.15 197.65,36.15 197.9,35.25 198.85,35.25 199.1,36.15 199.85,36.15 198.85,32.15 M198,34.65L198.35,32.95 198.75,34.65 198,34.65"/><path fill="#85736A" d="M183.95,33.9Q183.1,33.4 183.1,33.2 183.1,32.75 183.5,32.75 183.85,32.75 184.1,33.3L184.75,33Q184.5,32.1 183.5,32.1 182.35,32.1 182.35,33.25 182.35,33.8 183.2,34.3 184.05,34.75 184.05,35.05 184.05,35.55 183.55,35.55 183.1,35.55 182.95,34.85L182.2,35.05Q182.55,36.2 183.5,36.2 184.8,36.2 184.8,35.05 184.8,34.35 183.95,33.9"/><path fill="#85736A" d="M148.1,17.3Q148.1,15.75 150.4,15.75 152.15,15.75 153.15,16.8L153.15,14.9Q151.9,14.45 150.55,14.45 148.7,14.45 147.5,15.2 146.1,16 146.1,17.55 146.1,19.55 149.15,20.9 152.15,22.25 152.15,23.5 152.15,24.35 151.3,24.85 150.55,25.3 149.6,25.3 147.55,25.3 145.8,23.9L146.35,26Q147.9,26.6 149.45,26.6 151.45,26.6 152.85,25.45 154.1,24.4 154.1,22.95 154.1,21.25 151.1,19.85 148.1,18.4 148.1,17.3"/><path fill="#85736A" d="M141.9,16.7L141.9,14.65 141.85,14.65Q141.65,14.8 141.05,14.8L135.45,14.8 135.45,14.85Q136.05,15 136.15,15.85 136.2,16.1 136.2,17.25L136.2,23.9Q136.2,24.9 136.15,25.2 136.05,26 135.45,26.25L135.45,26.3 142.7,26.3 143.55,24 143.5,24Q142.05,25.2 140.25,25.05L138,24.8 138,20.65 139.3,20.65Q140.6,20.65 140.85,21.1L140.85,19.35Q140.65,19.45 140.05,19.45L138,19.45 138,16.1 139.75,16Q141.25,16 141.85,16.7L141.9,16.7"/><path fill="#85736A" d="M128.25,16.3Q128.9,16.85 128.9,17.8 128.9,19.85 125.9,20.3L127.45,22.8 129.65,25.4Q130.3,26.3 131.65,26.3L133.25,26.3Q131.75,25.4 130.45,23.9L127.9,20.65Q129.05,20.35 129.85,19.6 130.75,18.7 130.75,17.6 130.75,16.35 129.75,15.6 128.75,14.8 127.05,14.8L122.9,14.8 122.9,14.85Q123.55,15 123.65,15.85 123.7,16.1 123.7,17.25L123.7,23.9Q123.7,24.9 123.65,25.2 123.55,26 122.9,26.25L122.9,26.3 126.25,26.3 126.25,26.25Q125.65,26 125.55,25.2 125.5,24.9 125.5,23.9L125.5,16 126.65,15.85Q127.6,15.75 128.25,16.3"/><path fill="#85736A" d="M140.8,33.4Q140.8,32.1 139.6,32.1 138.35,32.1 138.35,33.4L138.35,34.8Q138.35,36.2 139.6,36.2 140.8,36.2 140.8,34.8L140.8,33.4 M140.05,33.35L140.05,34.9Q140.05,35.55 139.6,35.55 139.15,35.55 139.15,34.9L139.15,33.35Q139.15,32.75 139.6,32.75 140.05,32.75 140.05,33.35"/><path fill="#85736A" d="M126.25,32.15L125.55,32.15 125.55,34.5 124.45,32.15 123.65,32.15 123.65,36.15 124.35,36.15 124.35,33.6 125.55,36.15 126.25,36.15 126.25,32.15"/><path fill="#85736A" d="M155.55,32.15L154.85,32.15 154.85,34.5 153.75,32.15 152.95,32.15 152.95,36.15 153.65,36.15 153.65,33.6 154.85,36.15 155.55,36.15 155.55,32.15"/><path fill="#B0CCEB" d="M111.95,5.25Q112.75,4.4 112.75,3.25 112.8,2.05 111.95,1.15 111.05,0.25 109.9,0.25 108.7,0.25 107.8,1.15 106.95,1.95 106.95,3.25 106.95,4.4 107.8,5.25 108.7,6.1 109.9,6.1 111.05,6.1 111.95,5.25"/><path fill="#7DAFDD" d="M106.15,12.65Q104.6,14.15 104.6,16.35 104.6,18.5 106.15,20.05 107.7,21.6 109.9,21.6 112.1,21.6 113.6,20.05 115.15,18.5 115.15,16.35 115.15,14.15 113.6,12.65 112.1,11.1 109.9,11.1 107.7,11.1 106.15,12.65"/><path fill="#57443B" d="M89.45,14.45Q86.6,14.4 84.7,16.25 82.8,18 82.8,20.5 82.8,23.15 84.7,24.9 86.5,26.65 89.2,26.65 91.9,26.65 93.8,24.85 95.65,23.1 95.65,20.45 95.65,18 93.95,16.3 92.1,14.45 89.45,14.45 M89.25,15.8Q91.2,15.8 92.55,17.35 93.7,18.75 93.7,20.8 93.7,22.8 92.5,24.05 91.2,25.35 89.3,25.35 87.3,25.35 86,23.7 84.85,22.35 84.85,20.4 84.85,18.35 86,17.1 87.25,15.8 89.25,15.8"/><path fill="#3F98D2" d="M117.4,34.2Q117.4,31.1 115.15,28.85 112.9,26.65 109.8,26.65 106.7,26.6 104.45,28.85 102.2,31.1 102.2,34.2 102.2,37.3 104.4,39.55 106.65,41.75 109.8,41.75 112.9,41.75 115.15,39.55 117.4,37.3 117.4,34.2"/><path fill="#57443B" d="M61.85,15.85Q61.9,16.1 61.9,17.25L61.9,23.9Q61.9,24.9 61.85,25.2 61.75,26 61.15,26.25L61.15,26.3 64.5,26.3 64.5,26.25Q63.85,26 63.75,25.2 63.7,24.9 63.7,23.9L63.7,17.25Q63.7,15.15 64.55,14.85L64.55,14.8 61.15,14.8 61.15,14.85Q61.75,15.05 61.85,15.85"/><path fill="#57443B" d="M70.25,16.1Q68.2,17.85 68.2,20.6 68.15,23.3 70.05,24.9 72,26.6 75.25,26.6 76.7,26.6 79.55,26.1 79.4,25.8 79.4,25.25L79.4,21.25Q79.4,20.75 79.55,20.5L79.55,20.45 76.8,20.45 76.8,20.5Q77.65,20.8 77.65,22.5L77.65,25Q76.4,25.35 75.15,25.35 73.05,25.35 71.65,23.95 70.15,22.5 70.2,20.4 70.2,18.3 71.6,17.05 72.9,15.8 75,15.8 77.25,15.8 78.15,16.8L78.2,16.8 78.2,14.8Q76.7,14.45 75.45,14.45 72.2,14.45 70.25,16.1"/><path fill="#57443B" d="M48.8,14.55L48.7,14.55 48.05,16.7 48.1,16.7Q48.85,16 50.2,16L51.75,16 51.75,23.8Q51.75,25.85 50.95,26.25L50.95,26.3 54.4,26.3 54.4,26.25Q53.85,25.85 53.65,25.25 53.55,24.9 53.55,24L53.55,16 55.1,16Q56.45,16 56.6,16.7L56.65,16.7 57.25,14.55 57.2,14.55Q56.95,14.75 56.4,14.75L49.4,14.75Q48.95,14.75 48.8,14.55"/><path fill="#57443B" d="M44.9,14.8L44.9,14.75 41.85,14.75 41.85,14.8Q42.5,15.15 42.65,15.7 42.75,16 42.75,17.05L42.75,23.6 36.05,15.2 35.8,14.75 33.25,14.75 33.25,14.8Q33.85,15.15 34.05,15.7 34.15,16.05 34.15,17L34.15,24Q34.15,25.55 33.25,26.25L33.25,26.3 36.3,26.3 36.3,26.25Q35.7,25.8 35.55,25.2 35.4,24.85 35.4,24L35.4,17.2 41.4,24.8Q42.6,26.35 43.95,26.8L44.05,17.05Q44.05,16.05 44.15,15.7 44.35,15.15 44.9,14.8"/><path fill="#57443B" d="M29,16.2Q27.2,14.35 24.55,14.4 21.75,14.35 19.8,16.1 17.9,17.9 17.9,20.45 17.9,23.1 19.8,24.8 21.7,26.55 24.35,26.55 27,26.55 28.9,24.8 30.8,22.95 30.8,20.4 30.8,17.9 29,16.2 M24.4,15.65Q26.45,15.65 27.65,17.2 28.8,18.65 28.8,20.65 28.8,22.7 27.6,24 26.35,25.25 24.4,25.25 22.4,25.25 21.1,23.65 19.9,22.2 19.9,20.25 19.9,18.25 21.15,17 22.4,15.65 24.4,15.65"/><path fill="#57443B" d="M1.45,14.7L1.45,14.75Q2.25,15.15 1.95,16.35L0.9,23.65Q0.7,25.5 0,26.2L0,26.25 2.8,26.25 2.8,26.2Q2.3,25.9 2.2,25.35 2.15,24.9 2.25,23.95L3.3,16.35 6.6,24.35Q7.2,25.65 8.15,26.5L12.1,16.35 13.15,24.85Q13.15,25.9 12.35,26.2L12.35,26.25 15.8,26.25 15.8,26.2Q15.05,25.6 14.9,24.4L13.7,15.8Q13.7,14.9 14.3,14.75L14.3,14.7 11.25,14.7 11.25,14.75Q11.25,15.1 11,15.8L8.05,23.2 4.7,15.5Q4.5,14.95 4.5,14.7L1.45,14.7"/></g><defs/></svg>