<?xml version="1.0" encoding="utf-8"?><svg xmlns:xlink="http://www.w3.org/1999/xlink" id="Scene_1" image-rendering="optimizeQuality" baseProfile="basic" version="1.1" x="0px" y="0px" width="201" height="46" viewBox="0 0 201 46" xmlns="http://www.w3.org/2000/svg"><g id="Scene 1_0.0"><path fill="#57443B" d="M95.8,22.65Q95.8,20.25 94.1,18.6 92.3,16.8 89.7,16.8 86.95,16.75 85.05,18.55 83.2,20.25 83.2,22.7 83.2,25.3 85.05,27 86.85,28.7 89.45,28.7 92.1,28.7 93.95,26.95 95.8,25.25 95.8,22.65 M93.85,23Q93.85,24.95 92.7,26.15 91.45,27.45 89.55,27.45 87.6,27.45 86.35,25.85 85.2,24.5 85.2,22.6 85.2,20.6 86.35,19.35 87.55,18.1 89.5,18.1 91.45,18.1 92.75,19.6 93.85,21 93.85,23"/><path fill="#57443B" d="M64.55,19.5Q64.55,17.45 65.35,17.15L65.35,17.1 62.05,17.1 62.05,17.15Q62.65,17.35 62.75,18.15 62.8,18.4 62.8,19.5L62.8,26Q62.8,27 62.75,27.3 62.65,28.1 62.05,28.3L62.05,28.35 65.3,28.35 65.3,28.3Q64.7,28.1 64.6,27.3 64.55,27 64.55,26L64.55,19.5"/><path fill="#57443B" d="M78.7,17.1Q77.25,16.8 76.05,16.8 72.85,16.8 70.95,18.4 68.95,20.1 68.95,22.8 68.9,25.45 70.75,27 72.65,28.65 75.85,28.65 77.25,28.65 80.05,28.2 79.9,27.9 79.9,27.35L79.9,23.45Q79.9,22.95 80.05,22.7L80.05,22.65 77.35,22.65 77.35,22.7Q78.2,23 78.2,24.65L78.2,27.1Q76.95,27.45 75.75,27.45 73.7,27.45 72.3,26.05 70.85,24.65 70.9,22.6 70.9,20.55 72.25,19.3 73.55,18.1 75.6,18.1 77.8,18.1 78.65,19.1L78.7,19.1 78.7,17.1"/><path fill="#57443B" d="M46.15,17.1L46.15,17.05 43.15,17.05 43.15,17.1Q43.8,17.45 43.95,18 44.05,18.3 44.05,19.3L44.05,25.75 37.5,17.5 37.25,17.05 34.75,17.05 34.75,17.1Q35.35,17.45 35.55,18 35.65,18.35 35.65,19.25L35.65,26.1Q35.65,27.65 34.75,28.3L34.75,28.35 37.75,28.35 37.75,28.3Q37.15,27.9 37,27.3 36.85,26.95 36.85,26.1L36.85,19.45 42.75,26.9Q43.9,28.4 45.25,28.85L45.3,19.3Q45.3,18.35 45.4,18 45.6,17.45 46.15,17.1"/><path fill="#57443B" d="M49.95,16.9L49.85,16.9 49.25,19 49.3,19Q50,18.3 51.35,18.3L52.85,18.3 52.85,25.95Q52.85,27.95 52.05,28.3L52.05,28.35 55.45,28.35 55.45,28.3Q54.9,27.95 54.7,27.35 54.6,27 54.6,26.1L54.6,18.3 56.15,18.3Q57.45,18.3 57.6,19L57.65,19 58.25,16.9 58.2,16.9Q57.95,17.05 57.4,17.05L50.55,17.05Q50.1,17.05 49.95,16.9"/><path fill="#57443B" d="M26.25,16.75Q23.5,16.7 21.6,18.4 19.75,20.15 19.75,22.65 19.75,25.25 21.6,26.9 23.45,28.6 26.05,28.6 28.65,28.6 30.5,26.9 32.35,25.1 32.35,22.6 32.35,20.15 30.6,18.5 28.85,16.7 26.25,16.75 M26.1,17.95Q28.1,17.95 29.3,19.45 30.4,20.9 30.4,22.85 30.4,24.85 29.25,26.1 28,27.35 26.1,27.35 24.15,27.35 22.9,25.8 21.7,24.35 21.7,22.45 21.7,20.5 22.95,19.25 24.15,17.95 26.1,17.95"/><path fill="#57443B" d="M6.85,17.8Q6.65,17.25 6.65,17L3.65,17 3.65,17.05Q4.45,17.45 4.15,18.65L3.15,25.8Q2.95,27.6 2.25,28.25L2.25,28.3 5,28.3 5,28.25Q4.5,28 4.4,27.45 4.35,27 4.45,26.05L5.5,18.65 8.7,26.45Q9.3,27.75 10.2,28.55L14.1,18.65 15.1,26.95Q15.1,28 14.35,28.25L14.35,28.3 17.7,28.3 17.7,28.25Q16.95,27.7 16.8,26.5L15.65,18.1Q15.65,17.2 16.25,17.05L16.25,17 13.25,17 13.25,17.05Q13.25,17.4 13,18.1L10.1,25.35 6.85,17.8"/><path fill="#3F98D2" d="M109.6,28.7Q106.6,28.65 104.4,30.85 102.2,33.05 102.2,36.1 102.2,39.15 104.35,41.35 106.55,43.5 109.6,43.5 112.65,43.5 114.85,41.35 117.05,39.15 117.05,36.1 117.05,33.05 114.85,30.85 112.65,28.7 109.6,28.7"/><path fill="#B0CCEB" d="M111.7,7.8Q112.5,6.95 112.5,5.8 112.55,4.65 111.7,3.75 110.85,2.9 109.7,2.9 108.55,2.9 107.65,3.75 106.85,4.55 106.85,5.8 106.85,6.95 107.65,7.8 108.55,8.6 109.7,8.6 110.85,8.6 111.7,7.8"/><path fill="#7DAFDD" d="M109.7,13.5Q107.55,13.5 106.05,15 104.55,16.5 104.55,18.65 104.55,20.75 106.05,22.25 107.55,23.75 109.7,23.75 111.85,23.75 113.35,22.25 114.85,20.75 114.85,18.65 114.85,16.5 113.35,15 111.85,13.5 109.7,13.5"/><path fill="#85736A" d="M181.4,36.2Q182.2,36.65 182.2,36.95 182.2,37.4 181.75,37.4 181.3,37.4 181.15,36.75L180.4,36.95Q180.75,38.05 181.7,38.05 182.95,38.05 182.95,36.95 182.95,36.25 182.15,35.8 181.3,35.3 181.3,35.1 181.3,34.7 181.7,34.7 182.05,34.7 182.25,35.2L182.9,34.95Q182.65,34.05 181.7,34.05 180.55,34.05 180.55,35.15 180.55,35.7 181.4,36.2"/><path fill="#85736A" d="M166.2,35.3L166.2,36.7Q166.2,38.05 167.4,38.05 167.7,38.05 168.1,37.65L168.2,38 168.65,38 168.65,36 167.35,36 167.35,36.6 167.9,36.6 167.9,36.8Q167.9,37.4 167.4,37.4 166.95,37.4 166.95,36.8L166.95,35.25Q166.95,34.7 167.4,34.7 167.9,34.7 167.9,35.4L168.65,35.4Q168.5,34.05 167.4,34.05 166.2,34.05 166.2,35.3"/><path fill="#85736A" d="M196.7,34.1L195.75,34.1 194.8,38 195.5,38 195.75,37.15 196.7,37.15 196.95,38 197.65,38 196.7,34.1 M196.2,34.9L196.6,36.55 195.85,36.55 196.2,34.9"/><path fill="#85736A" d="M138.75,34.05Q137.55,34.05 137.55,35.3L137.55,36.7Q137.55,38.05 138.75,38.05 139.95,38.05 139.95,36.7L139.95,35.3Q139.95,34.05 138.75,34.05 M139.2,36.8Q139.2,37.4 138.75,37.4 138.3,37.4 138.3,36.8L138.3,35.25Q138.3,34.7 138.75,34.7 139.2,34.7 139.2,35.25L139.2,36.8"/><path fill="#85736A" d="M123.95,34.1L123.15,34.1 123.15,38 123.85,38 123.85,35.5 125,38 125.7,38 125.7,34.1 125,34.1 125,36.4 123.95,34.1"/><path fill="#85736A" d="M153.65,36.4L152.6,34.1 151.8,34.1 151.8,38 152.5,38 152.5,35.5 153.65,38 154.35,38 154.35,34.1 153.65,34.1 153.65,36.4"/><path fill="#85736A" d="M185.45,18.3L187,18.3Q188.15,18.3 188.45,19L188.5,19 189.1,16.95 189,16.95Q188.8,17.1 188.2,17.1L181.4,17.1 180.75,16.95 180.7,16.95 180.05,19 180.1,19Q180.8,18.3 182.2,18.3L183.7,18.3 183.7,26Q183.7,27 183.65,27.3 183.55,28.1 182.95,28.3L182.95,28.35 186.35,28.35 186.35,28.3Q185.75,27.95 185.55,27.4 185.45,27.05 185.45,26.15L185.45,18.3"/><path fill="#85736A" d="M192.3,17.5Q190.95,18.3 190.95,19.8 190.95,21.75 193.9,23.1 196.8,24.4 196.8,25.65 196.8,26.45 195.95,26.95 195.25,27.4 194.4,27.4 192.25,27.4 190.65,26L191.1,28.1Q192.6,28.65 194.15,28.65 196.15,28.65 197.5,27.55 198.8,26.5 198.8,25.1 198.8,23.45 195.85,22.05 192.9,20.65 192.9,19.55 192.9,18.05 195.1,18.05 196.75,18.05 197.8,19.1L197.8,17.2Q196.65,16.8 195.25,16.8 193.45,16.8 192.3,17.5"/><path fill="#85736A" d="M170,17.1L170,17.15Q170.6,17.3 170.7,18.15 170.75,18.4 170.75,19.5L170.75,26Q170.75,27 170.7,27.3 170.6,28.1 170,28.3L170,28.35 173.25,28.35 173.25,28.3Q172.65,28.1 172.55,27.3 172.5,27 172.5,26L172.5,18.3 173.65,18.15Q174.55,18.05 175.2,18.6 175.85,19.15 175.85,20.05 175.85,22.05 172.9,22.5L174.45,24.95 176.6,27.5Q177.3,28.35 178.55,28.35L180.1,28.35Q178.7,27.5 177.35,26L174.9,22.85Q176,22.55 176.85,21.8 177.65,20.95 177.65,19.85 177.65,18.65 176.7,17.9 175.75,17.1 174.05,17.1L170,17.1"/><path fill="#85736A" d="M167.85,22.55Q167.85,20.2 166.15,18.55 164.4,16.8 161.75,16.8 159.05,16.75 157.1,18.45 155.25,20.2 155.25,22.7 155.25,25.3 157.1,26.95 158.95,28.65 161.55,28.65 164.15,28.65 166,26.9 167.85,25.15 167.85,22.55 M165.9,22.9Q165.9,24.9 164.75,26.15 163.55,27.4 161.65,27.4 159.7,27.4 158.45,25.85 157.25,24.4 157.25,22.5 157.25,20.55 158.45,19.3 159.65,18 161.65,18 163.6,18 164.8,19.5 165.9,20.95 165.9,22.9"/><path fill="#85736A" d="M145.1,19.8Q145.1,21.75 148.1,23.1 151.05,24.4 151.05,25.65 151.05,26.45 150.2,26.95 149.45,27.4 148.55,27.4 146.55,27.4 144.8,26L145.35,28.1Q146.85,28.65 148.4,28.65 150.35,28.65 151.7,27.55 152.95,26.5 152.95,25.1 152.95,23.45 150,22.05 147.05,20.65 147.05,19.55 147.05,18.05 149.3,18.05 151.05,18.05 152,19.1L152,17.2Q150.8,16.8 149.45,16.8 147.65,16.8 146.5,17.5 145.1,18.3 145.1,19.8"/><path fill="#85736A" d="M124.95,18.3L126.1,18.15Q127,18.05 127.65,18.6 128.3,19.15 128.3,20.05 128.3,22.05 125.35,22.5L126.9,24.95 129.05,27.5Q129.65,28.35 131,28.35L132.55,28.35Q131.1,27.5 129.8,26L127.3,22.85Q128.45,22.55 129.2,21.8 130.1,20.95 130.1,19.85 130.1,18.65 129.15,17.9 128.15,17.1 126.5,17.1L122.45,17.1 122.45,17.15Q123.05,17.3 123.15,18.15 123.2,18.4 123.2,19.5L123.2,26Q123.2,27 123.15,27.3 123.05,28.1 122.45,28.3L122.45,28.35 125.7,28.35 125.7,28.3Q125.1,28.1 125,27.3 124.95,27 124.95,26L124.95,18.3"/><path fill="#85736A" d="M140.95,16.95Q140.75,17.1 140.2,17.1L134.7,17.1 134.7,17.15Q135.3,17.3 135.4,18.15 135.45,18.4 135.45,19.5L135.45,26Q135.45,27 135.4,27.3 135.3,28.1 134.7,28.3L134.7,28.35 141.8,28.35 142.6,26.1 142.55,26.1Q141.15,27.3 139.4,27.15L137.2,26.9 137.2,22.85 138.45,22.85Q139.75,22.85 140,23.3L140,21.55Q139.8,21.65 139.2,21.65L137.2,21.65 137.2,18.4 138.9,18.3Q140.35,18.3 140.95,19L141,19 141,16.95 140.95,16.95"/></g><defs/></svg>