<?xml version="1.0" encoding="utf-8"?><svg xmlns:xlink="http://www.w3.org/1999/xlink" id="Scene_1" image-rendering="optimizeQuality" baseProfile="basic" version="1.1" x="0px" y="0px" width="201" height="43" viewBox="0 0 201 43" xmlns="http://www.w3.org/2000/svg"><g id="Scene 1_0.0"><path fill="#FFF" d="M89.4,14.45Q86.65,14.4 84.7,16.25 82.8,18 82.8,20.5 82.8,23.15 84.7,24.9 86.5,26.6 89.2,26.6 91.9,26.6 93.8,24.85 95.7,23.1 95.7,20.4 95.7,18 93.9,16.3 92.1,14.45 89.4,14.45 M86,17.05Q87.25,15.75 89.25,15.75 91.25,15.75 92.55,17.3 93.65,18.75 93.65,20.8 93.65,22.8 92.5,24 91.25,25.3 89.3,25.3 87.3,25.3 86,23.75 84.8,22.3 84.8,20.35 84.8,18.35 86,17.05"/><path fill="#FFF" d="M63.7,17.25Q63.7,15.1 64.55,14.8L64.55,14.75 61.15,14.75 61.15,14.8Q61.75,15 61.9,15.8 61.95,16.1 61.95,17.25L61.95,23.85Q61.95,24.9 61.9,25.2 61.75,26.05 61.15,26.2L61.15,26.25 64.5,26.25 64.5,26.2Q63.9,26.05 63.75,25.2 63.7,24.9 63.7,23.85L63.7,17.25"/><path fill="#FFF" d="M70.25,16.1Q68.2,17.8 68.2,20.6 68.15,23.3 70.05,24.9 72,26.55 75.3,26.55 76.7,26.55 79.55,26.1 79.45,25.8 79.45,25.25L79.45,21.25Q79.45,20.7 79.55,20.5L79.55,20.4 76.85,20.4 76.85,20.5Q77.65,20.8 77.65,22.5L77.65,24.95Q76.4,25.3 75.15,25.3 73.05,25.3 71.65,23.9 70.15,22.5 70.2,20.35 70.2,18.3 71.55,17 72.95,15.75 75,15.75 77.25,15.75 78.15,16.8L78.2,16.8 78.2,14.75Q76.7,14.45 75.45,14.45 72.2,14.45 70.25,16.1"/><path fill="#FFF" d="M48.05,16.7L48.1,16.7Q48.8,16 50.25,16L51.75,16 51.75,23.8Q51.75,25.85 50.95,26.2L50.95,26.25 54.45,26.25 54.45,26.2Q53.85,25.85 53.65,25.25 53.55,24.9 53.55,23.95L53.55,16 55.15,16Q56.45,16 56.6,16.7L56.7,16.7 57.25,14.6 57.2,14.6Q56.95,14.7 56.4,14.7L49.4,14.7Q48.95,14.7 48.75,14.6L48.7,14.6 48.05,16.7"/><path fill="#FFF" d="M44.05,17Q44.05,16.05 44.15,15.7 44.3,15.1 44.9,14.75L44.9,14.7 41.85,14.7 41.85,14.75Q42.5,15.1 42.65,15.7 42.75,16 42.75,17L42.75,23.6 36.05,15.15 35.8,14.7 33.2,14.7 33.2,14.75Q33.85,15.1 34.05,15.7 34.15,16.05 34.15,16.95L34.15,23.95Q34.15,25.55 33.2,26.2L36.3,26.25 36.3,26.2Q35.7,25.8 35.5,25.2 35.4,24.85 35.4,23.95L35.4,17.15 41.45,24.8Q42.6,26.3 43.95,26.8L44.05,17"/><path fill="#FFF" d="M29,16.15Q27.2,14.35 24.55,14.4 21.75,14.35 19.8,16.1 17.9,17.9 17.9,20.4 17.9,23.1 19.8,24.8 21.7,26.5 24.35,26.5 27,26.5 28.9,24.8 30.8,22.95 30.8,20.35 30.8,17.9 29,16.15 M24.4,15.65Q26.4,15.65 27.65,17.15 28.8,18.65 28.8,20.65 28.8,22.65 27.6,23.95 26.35,25.25 24.4,25.25 22.4,25.2 21.1,23.65 19.9,22.2 19.9,20.25 19.9,18.25 21.15,16.95 22.4,15.65 24.4,15.65"/><path fill="#FFF" d="M4.75,15.45Q4.5,14.95 4.5,14.65L1.4,14.65 1.4,14.7Q2.25,15.1 1.95,16.35L0.95,23.65Q0.7,25.5 0,26.15L0,26.2 2.85,26.2 2.85,26.15Q2.3,25.9 2.2,25.3 2.15,24.9 2.25,23.9L3.3,16.35 6.6,24.3Q7.2,25.7 8.15,26.45L12.1,16.35 13.1,24.85Q13.1,25.9 12.35,26.15L12.35,26.2 15.8,26.2 15.8,26.15Q15,25.6 14.9,24.4L13.7,15.75Q13.7,14.85 14.3,14.7L14.3,14.65 11.25,14.65 11.25,14.7Q11.25,15.05 11,15.75L8.05,23.2 4.75,15.45"/><path fill="#FFF" d="M191.05,14.7Q190.8,14.8 190.2,14.8L183.25,14.8 182.6,14.7 182.5,14.7 181.85,16.75 181.95,16.75Q182.65,16.05 184.05,16.05L185.6,16.05 185.6,23.9Q185.6,24.95 185.55,25.25 185.4,26.05 184.85,26.25L184.85,26.3 188.25,26.3 188.25,26.25Q187.65,25.9 187.5,25.35 187.35,25 187.35,24.05L187.35,16.05 188.95,16.05Q190.15,16.05 190.45,16.75L190.5,16.75 191.1,14.7 191.05,14.7"/><path fill="#FFF" d="M200,16.85L200,14.9Q198.85,14.5 197.4,14.5 195.6,14.5 194.4,15.2 193,16.05 193,17.55 193,19.6 196,20.95 199,22.3 199,23.55 199,24.35 198.1,24.9 197.4,25.35 196.55,25.35 194.35,25.35 192.7,23.9L193.15,26.05Q194.7,26.6 196.3,26.6 198.3,26.6 199.7,25.5 201,24.4 201,23 201,21.3 198,19.85 195,18.45 195,17.35 195,15.8 197.25,15.8 198.95,15.8 200,16.85"/><path fill="#FFF" d="M171.6,14.8L171.6,14.85Q172.2,15.05 172.3,15.85 172.35,16.15 172.35,17.25L172.35,23.9Q172.35,24.95 172.3,25.25 172.2,26.05 171.6,26.25L171.6,26.3 174.9,26.3 174.9,26.25Q174.3,26.05 174.2,25.25 174.15,24.95 174.15,23.9L174.15,16.05 175.3,15.85Q176.25,15.8 176.9,16.35 177.55,16.9 177.55,17.8 177.55,19.85 174.55,20.35L176.15,22.8 178.35,25.4Q179.05,26.3 180.35,26.3L181.95,26.3Q180.3,25.25 179.1,23.9L176.6,20.7Q177.75,20.4 178.55,19.65 179.4,18.75 179.4,17.65 179.4,16.4 178.45,15.6 177.45,14.8 175.75,14.8L171.6,14.8"/><path fill="#FFF" d="M169.4,20.4Q169.4,18 167.65,16.25 165.85,14.5 163.15,14.5 160.35,14.45 158.4,16.2 156.5,18 156.5,20.5 156.5,23.2 158.4,24.9 160.3,26.6 162.95,26.6 165.6,26.6 167.5,24.85 169.4,23.05 169.4,20.4 M167.4,20.75Q167.4,22.75 166.2,24.05 164.95,25.35 163,25.35 161.05,25.35 159.75,23.75 158.55,22.3 158.55,20.35 158.55,18.35 159.75,17.05 161,15.75 163,15.75 165.05,15.75 166.25,17.25 167.4,18.75 167.4,20.75"/><path fill="#FFF" d="M150.55,14.5Q148.7,14.5 147.55,15.2 146.1,16.05 146.1,17.55 146.1,19.6 149.2,20.95 152.2,22.3 152.2,23.55 152.2,24.35 151.3,24.9 150.55,25.35 149.65,25.35 147.6,25.35 145.8,23.9L146.35,26.05Q147.9,26.6 149.5,26.6 151.5,26.6 152.85,25.5 154.15,24.4 154.15,23 154.15,21.3 151.15,19.85 148.15,18.45 148.15,17.35 148.15,15.8 150.45,15.8 152.2,15.8 153.15,16.85L153.15,14.9Q151.95,14.5 150.55,14.5"/><path fill="#FFF" d="M141.9,14.7L141.85,14.7Q141.7,14.8 141.1,14.8L135.4,14.8 135.4,14.85Q136,15.05 136.2,15.85 136.25,16.15 136.25,17.25L136.25,23.9Q136.25,24.95 136.2,25.25 136,26.05 135.4,26.25L135.4,26.3 142.75,26.3 143.6,24 143.5,24Q142.1,25.25 140.25,25.05L138,24.85 138,20.7 139.3,20.7Q140.6,20.7 140.9,21.15L140.9,19.35 138,19.4 138,16.15 139.8,16.05Q141.25,16.05 141.85,16.75L141.9,16.75 141.9,14.7"/><path fill="#FFF" d="M129.8,15.6Q128.8,14.8 127.1,14.8L122.95,14.8 122.95,14.85Q123.55,15.05 123.65,15.85 123.7,16.15 123.7,17.25L123.7,23.9Q123.7,24.95 123.65,25.25 123.55,26.05 122.95,26.25L122.95,26.3 126.25,26.3 126.25,26.25Q125.65,26.05 125.55,25.25 125.5,24.95 125.5,23.9L125.5,16.05 126.65,15.85Q127.6,15.8 128.25,16.35 128.9,16.9 128.9,17.8 128.9,19.85 125.9,20.35L127.5,22.8 129.7,25.4Q130.35,26.3 131.7,26.3L133.3,26.3Q131.65,25.25 130.45,23.9L127.9,20.7Q129.1,20.4 129.85,19.65 130.75,18.75 130.75,17.65 130.75,16.4 129.8,15.6"/><path fill="#FFF" d="M168.9,32.15Q167.7,32.15 167.7,33.45L167.7,34.85Q167.7,36.2 168.9,36.2 169.2,36.2 169.65,35.8L169.75,36.15 170.1,36.15 170.1,34.15 168.85,34.15 168.85,34.75 169.4,34.75 169.4,35Q169.4,35.55 168.9,35.55 168.45,35.55 168.45,35L168.45,33.4Q168.45,32.8 168.9,32.8 169.4,32.8 169.4,33.5L170.1,33.5Q170.1,32.15 168.9,32.15"/><path fill="#FFF" d="M198.9,32.2L197.9,32.2 196.95,36.15 197.65,36.15 197.9,35.35 198.9,35.35 199.1,36.15 199.85,36.15 198.9,32.2 M198,34.7L198.35,33.05 198.75,34.7 198,34.7"/><path fill="#FFF" d="M183.1,33.2Q183.1,32.8 183.5,32.8 183.85,32.8 184.1,33.35L184.75,33.1Q184.5,32.15 183.5,32.15 182.35,32.15 182.35,33.25 182.35,33.85 183.2,34.35 184.05,34.8 184.05,35.1 184.05,35.55 183.6,35.55 183.05,35.55 183,34.9L182.2,35.1Q182.55,36.2 183.5,36.2 184.8,36.2 184.8,35.1 184.8,34.4 184,33.9 183.1,33.45 183.1,33.2"/><path fill="#FFF" d="M140.85,33.45Q140.85,32.15 139.6,32.15 138.35,32.15 138.35,33.45L138.35,34.85Q138.35,36.2 139.6,36.2 140.85,36.2 140.85,34.85L140.85,33.45 M140.1,33.4L140.1,35Q140.1,35.55 139.6,35.55 139.15,35.55 139.15,35L139.15,33.4Q139.15,32.8 139.6,32.8 140.1,32.8 140.1,33.4"/><path fill="#FFF" d="M126.25,32.2L125.55,32.2 125.55,34.55 124.5,32.2 123.65,32.2 123.65,36.15 124.35,36.15 124.35,33.65 125.55,36.15 126.25,36.15 126.25,32.2"/><path fill="#FFF" d="M155.55,32.2L154.85,32.2 154.85,34.55 153.8,32.2 152.95,32.2 152.95,36.15 153.65,36.15 153.65,33.65 154.8,36.15 155.55,36.15 155.55,32.2"/><path fill="#FFF" d="M111.9,5.25Q112.75,4.4 112.75,3.2 112.8,2 111.9,1.15 111.05,0.25 109.85,0.25 108.65,0.25 107.8,1.15 106.95,1.95 106.95,3.2 106.95,4.4 107.8,5.25 108.65,6.1 109.85,6.1 111.05,6.1 111.9,5.25"/><path fill="#FFF" d="M106.15,12.65Q104.6,14.15 104.6,16.35 104.6,18.55 106.15,20.05 107.65,21.6 109.85,21.6 112.05,21.6 113.6,20.05 115.1,18.55 115.1,16.35 115.1,14.15 113.6,12.65 112.05,11.1 109.85,11.1 107.65,11.1 106.15,12.65"/><path fill="#FFF" d="M109.8,26.65Q106.7,26.6 104.45,28.85 102.25,31.1 102.25,34.2 102.25,37.35 104.45,39.6 106.7,41.75 109.8,41.75 112.95,41.75 115.2,39.6 117.45,37.35 117.45,34.2 117.45,31.1 115.2,28.85 112.95,26.65 109.8,26.65"/></g><defs/></svg>