<?xml version="1.0" encoding="utf-8"?><svg xmlns:xlink="http://www.w3.org/1999/xlink" id="Scene_1" image-rendering="optimizeQuality" baseProfile="basic" version="1.1" x="0px" y="0px" width="452" height="96" viewBox="0 0 452 96" xmlns="http://www.w3.org/2000/svg"><g id="Scene 1_0.0"><path fill="#85736A" d="M446.6,38.9L446.6,34.6Q444,33.7 440.8,33.7 436.75,33.7 434.1,35.3 431.05,37.1 431.05,40.5 431.05,44.9 437.75,48 444.35,50.95 444.35,53.75 444.35,55.6 442.4,56.7 440.8,57.75 438.9,57.75 434,57.75 430.35,54.55L431.4,59.35Q434.8,60.55 438.3,60.55 442.85,60.55 445.9,58.1 448.85,55.7 448.85,52.5 448.85,48.8 442.15,45.6 435.5,42.4 435.5,39.95 435.5,36.5 440.45,36.5 444.2,36.5 446.6,38.9"/><path fill="#85736A" d="M418.55,37.1L422.1,37.1Q424.7,37.1 425.4,38.7L425.5,38.7 426.85,34.05 426.65,34.05Q426.2,34.35 424.8,34.35L409.4,34.35 407.9,34.05 407.8,34.05 406.3,38.7 406.45,38.7Q408,37.1 411.2,37.1L414.6,37.1 414.6,54.55Q414.6,56.85 414.5,57.5 414.25,59.35 412.9,59.8L412.9,59.9 420.6,59.9 420.6,59.8Q419.25,59 418.8,57.75 418.55,56.95 418.55,54.9L418.55,37.1"/><path fill="#85736A" d="M444.1,72.95L441.95,72.95 439.8,81.8 441.4,81.8 441.95,79.85 444.1,79.85 444.65,81.8 446.25,81.8 444.1,72.95 M442.95,74.75L443.85,78.5 442.15,78.5 442.95,74.75"/><path fill="#85736A" d="M412.9,79.4Q412.9,77.8 411.1,76.8 409.15,75.65 409.15,75.2 409.15,74.3 410.05,74.3 410.85,74.3 411.3,75.45L412.8,74.85Q412.2,72.85 410.05,72.85 407.45,72.85 407.45,75.3 407.45,76.55 409.4,77.7 411.2,78.75 411.2,79.4 411.2,80.45 410.2,80.45 409.15,80.45 408.8,78.95L407.1,79.4Q407.9,81.9 410.05,81.9 412.9,81.9 412.9,79.4"/><path fill="#85736A" d="M374.8,37.65Q370.8,33.7 364.8,33.7 358.7,33.55 354.25,37.45 350.05,41.4 350.05,47.05 350.05,52.95 354.25,56.7 358.45,60.55 364.35,60.55 370.25,60.55 374.45,56.6 378.65,52.65 378.65,46.75 378.65,41.4 374.8,37.65 M371.7,39.8Q374.2,43.1 374.2,47.55 374.2,52.05 371.6,54.9 368.9,57.75 364.55,57.75 360.15,57.75 357.3,54.2 354.6,50.95 354.6,46.6 354.6,42.2 357.3,39.35 360.05,36.4 364.55,36.4 369,36.4 371.7,39.8"/><path fill="#85736A" d="M383.5,34.35L383.5,34.5Q384.9,34.8 385.1,36.75 385.2,37.3 385.2,39.8L385.2,54.55Q385.2,56.85 385.1,57.5 384.9,59.35 383.5,59.8L383.5,59.9 390.9,59.9 390.9,59.8Q389.55,59.35 389.3,57.5 389.2,56.85 389.2,54.55L389.2,37.1 391.8,36.75Q393.85,36.5 395.3,37.75 396.8,39 396.8,41.05 396.8,45.6 390.1,46.6L393.6,52.2 398.5,57.95Q400.1,59.9 402.9,59.9L406.45,59.9Q403.25,57.95 400.2,54.55L394.65,47.4Q397.15,46.75 399.05,45.05 400.9,43.1 400.9,40.6 400.9,37.9 398.7,36.2 396.55,34.35 392.7,34.35L383.5,34.35"/><path fill="#85736A" d="M330.2,35.3Q327,37.1 327,40.5 327,44.9 333.85,48 340.5,50.95 340.5,53.75 340.5,55.6 338.6,56.7 336.9,57.75 334.85,57.75 330.3,57.75 326.35,54.55L327.6,59.35Q331,60.55 334.5,60.55 338.95,60.55 342,58.1 344.85,55.7 344.85,52.5 344.85,48.8 338.15,45.6 331.45,42.4 331.45,39.95 331.45,36.5 336.55,36.5 340.5,36.5 342.7,38.9L342.7,34.6Q339.95,33.7 336.9,33.7 332.8,33.7 330.2,35.3"/><path fill="#85736A" d="M348,72.95L346.4,72.95 346.4,78.15 344.05,72.95 342.25,72.95 342.25,81.8 343.8,81.8 343.8,76.1 346.4,81.8 348,81.8 348,72.95"/><path fill="#85736A" d="M377.6,74.3Q378.75,74.3 378.75,75.9L380.45,75.9Q380.1,72.85 377.6,72.85 374.9,72.85 374.9,75.65L374.9,78.85Q374.9,81.9 377.6,81.9 378.3,81.9 379.2,81L379.45,81.8 380.45,81.8 380.45,77.25 377.5,77.25 377.5,78.6 378.75,78.6 378.75,79.05Q378.75,80.45 377.6,80.45 376.6,80.45 376.6,79.05L376.6,75.55Q376.6,74.3 377.6,74.3"/><path fill="#85736A" d="M303.45,34.35L303.45,34.5Q304.8,34.8 305,36.75 305.15,37.3 305.15,39.8L305.15,54.55Q305.15,56.85 305,57.5 304.8,59.35 303.45,59.8L303.45,59.9 319.55,59.9 321.35,54.8 321.25,54.8Q318.05,57.5 314.1,57.15L309.1,56.6 309.1,47.4 311.95,47.4Q314.9,47.4 315.45,48.45L315.45,44.45Q315,44.7 313.65,44.7L309.1,44.7 309.1,37.3 312.95,37.1Q316.25,37.1 317.6,38.7L317.7,38.7 317.7,34.05 317.6,34.05Q317.15,34.35 315.9,34.35L303.45,34.35"/><path fill="#85736A" d="M290.85,36.2Q288.55,34.35 284.8,34.35L275.65,34.35 275.65,34.5Q277,34.8 277.2,36.75 277.35,37.3 277.35,39.8L277.35,54.55Q277.35,56.85 277.2,57.5 277,59.35 275.65,59.8L275.65,59.9 283,59.9 283,59.8Q281.65,59.35 281.4,57.5 281.3,56.85 281.3,54.55L281.3,37.1 283.9,36.75Q285.95,36.5 287.45,37.75 288.9,39 288.9,41.05 288.9,45.6 282.2,46.6L285.75,52.2 290.6,57.95Q291.95,59.9 295.05,59.9L298.55,59.9Q295.25,57.95 292.3,54.55L286.65,47.4Q289.25,46.75 290.95,45.05 293,43.1 293,40.6 293,37.9 290.85,36.2"/><path fill="#B0CCEB" d="M253.05,8.75Q253.15,6.1 251.25,4.1 249.3,2.15 246.7,2.15 244.1,2.15 242.05,4.1 240.25,5.9 240.25,8.75 240.25,11.35 242.05,13.25 244.1,15.1 246.7,15.1 249.3,15.1 251.25,13.25 253.05,11.35 253.05,8.75"/><path fill="#7DAFDD" d="M255,46.05Q258.4,42.65 258.4,37.9 258.4,33 255,29.6 251.6,26.2 246.7,26.2 241.85,26.2 238.4,29.6 235,33 235,37.9 235,42.65 238.4,46.05 241.85,49.45 246.7,49.45 251.6,49.45 255,46.05"/><path fill="#85736A" d="M283,72.95L281.4,72.95 281.4,78.15 279.05,72.95 277.2,72.95 277.2,81.8 278.8,81.8 278.8,76.1 281.4,81.8 283,81.8 283,72.95"/><path fill="#3F98D2" d="M258.4,65.55Q253.4,60.7 246.5,60.7 239.65,60.55 234.7,65.55 229.7,70.55 229.7,77.5 229.7,84.4 234.55,89.4 239.55,94.25 246.5,94.25 253.4,94.25 258.4,89.4 263.4,84.4 263.4,77.5 263.4,70.55 258.4,65.55"/><path fill="#85736A" d="M315.35,78.85L315.35,75.65Q315.35,72.85 312.6,72.85 309.9,72.85 309.9,75.65L309.9,78.85Q309.9,81.9 312.6,81.9 315.35,81.9 315.35,78.85 M311.6,79.05L311.6,75.55Q311.6,74.3 312.6,74.3 313.65,74.3 313.65,75.55L313.65,79.05Q313.65,80.45 312.6,80.45 311.6,80.45 311.6,79.05"/><path fill="#57443B" d="M215.15,46.95Q215.15,41.5 211.3,37.75 207.2,33.7 201.35,33.7 195.1,33.55 190.8,37.65 186.6,41.5 186.6,47.05 186.6,52.95 190.8,56.85 194.85,60.7 200.75,60.7 206.75,60.7 210.95,56.7 215.15,52.85 215.15,46.95 M210.75,47.75Q210.75,52.2 208.15,54.9 205.3,57.85 201,57.85 196.55,57.85 193.7,54.2 191.1,51.15 191.1,46.85 191.1,42.3 193.7,39.45 196.45,36.65 200.85,36.65 205.3,36.65 208.25,40.05 210.75,43.2 210.75,47.75"/><path fill="#57443B" d="M173.3,46.95L173.3,47.05Q175.25,47.75 175.25,51.5L175.25,57.05Q172.4,57.85 169.65,57.85 165,57.85 161.85,54.65 158.55,51.5 158.65,46.85 158.65,42.2 161.75,39.35 164.7,36.65 169.35,36.65 174.35,36.65 176.25,38.9L176.35,38.9 176.35,34.35Q173.1,33.7 170.35,33.7 163.1,33.7 158.8,37.3 154.25,41.15 154.25,47.3 154.15,53.3 158.35,56.85 162.65,60.55 169.9,60.55 173.1,60.55 179.45,59.55 179.1,58.85 179.1,57.6L179.1,48.8Q179.1,47.65 179.45,47.05L179.45,46.95 173.3,46.95"/><path fill="#57443B" d="M138.6,34.35L138.6,34.5Q139.95,34.95 140.2,36.75 140.3,37.3 140.3,39.8L140.3,54.55Q140.3,56.85 140.2,57.5 139.95,59.35 138.6,59.8L138.6,59.9 145.95,59.9 145.95,59.8Q144.6,59.35 144.4,57.5 144.25,56.85 144.25,54.55L144.25,39.8Q144.25,35.15 146.1,34.5L146.1,34.35 138.6,34.35"/><path fill="#57443B" d="M121.7,37.1L125.2,37.1Q128.15,37.1 128.5,38.7L128.6,38.7 129.95,33.9 129.85,33.9Q129.3,34.25 128.05,34.25L112.5,34.25Q111.5,34.25 111.15,33.9L110.9,33.9 109.55,38.7 109.65,38.7Q111.25,37.1 114.3,37.1L117.7,37.1 117.7,54.45Q117.7,59 115.9,59.8L115.9,59.9 123.6,59.9 123.6,59.8Q122.35,59 121.9,57.6 121.7,56.85 121.7,54.8L121.7,37.1"/><path fill="#57443B" d="M82.9,35.3L82.3,34.25 76.65,34.25 76.65,34.35Q78,35.15 78.45,36.4 78.7,37.2 78.7,39.25L78.7,54.8Q78.7,58.3 76.65,59.8L76.65,59.9 83.45,59.9 83.45,59.8Q82.1,58.85 81.75,57.5 81.4,56.7 81.4,54.8L81.4,39.7 94.8,56.6Q97.4,60 100.45,61.05L100.6,39.35Q100.6,37.2 100.8,36.4 101.25,35.15 102.5,34.35L102.5,34.25 95.7,34.25 95.7,34.35Q97.2,35.15 97.5,36.4 97.75,37.1 97.75,39.35L97.75,54 82.9,35.3"/><path fill="#57443B" d="M57.35,33.55Q51.1,33.45 46.8,37.3 42.6,41.3 42.6,46.95 42.6,52.85 46.8,56.6 51,60.45 56.9,60.45 62.8,60.45 67,56.6 71.2,52.5 71.2,46.85 71.2,41.3 67.25,37.55 63.25,33.45 57.35,33.55 M57,36.3Q61.55,36.3 64.3,39.7 66.8,43 66.8,47.4 66.8,51.95 64.15,54.8 61.35,57.6 57,57.6 52.6,57.6 49.75,54.1 47.05,50.8 47.05,46.5 47.05,42.1 49.9,39.25 52.6,36.3 57,36.3"/><path fill="#57443B" d="M12.9,34.15L6.1,34.15 6.1,34.25Q7.9,35.15 7.2,37.9L4.95,54.1Q4.5,58.2 2.9,59.65L2.9,59.8 9.15,59.8 9.15,59.65Q8,59.1 7.8,57.85 7.65,56.85 7.9,54.65L10.3,37.9 17.55,55.6Q18.9,58.55 20.95,60.35L29.8,37.9 32.05,56.7Q32.05,59.1 30.35,59.65L30.35,59.8 37.95,59.8 37.95,59.65Q36.25,58.4 35.9,55.7L33.3,36.65Q33.3,34.6 34.65,34.25L34.65,34.15 27.85,34.15 27.85,34.25Q27.85,35.05 27.3,36.65L20.7,53.1 13.35,35.95Q12.9,34.7 12.9,34.15"/></g><defs/></svg>