<?xml version="1.0" standalone="no"?>
<!DOCTYPE svg PUBLIC "-//W3C//DTD SVG 1.1//EN" "http://www.w3.org/Graphics/SVG/1.1/DTD/svg11.dtd" >
<svg xmlns="http://www.w3.org/2000/svg" xmlns:xlink="http://www.w3.org/1999/xlink" version="1.1">
<metadata></metadata>
<defs>
<font id="dearjoe4regular" horiz-adv-x="989" >
<font-face units-per-em="2048" ascent="1638" descent="-410" />
<missing-glyph horiz-adv-x="937" />
<glyph horiz-adv-x="0" />
<glyph horiz-adv-x="682" />
<glyph unicode=" "  horiz-adv-x="937" />
<glyph unicode="&#x09;" horiz-adv-x="937" />
<glyph unicode="&#xa0;" horiz-adv-x="937" />
<glyph unicode="!" horiz-adv-x="1083" d="M580 635q-2 4 -23 16q-2 -4 -2 -14q0 -4 2 -19.5t2 -19.5l-18 -18q-23 8 -74 34q3 13 31 62q28 48 28 63q0 4 -2 20.5t-2 20.5q0 24 21 70q24 53 26 65q17 0 47 23q3 44 25 141q9 17 96 203q15 63 68 188q16 25 72 25q27 0 58.5 -17.5t31.5 -39.5q0 -5 -387 -803zM434 31 q0 -12 -23 -33t-36 -21q-4 0 -17 7.5t-18 7.5q-39 0 -53 20q-12 19 -17 58q59 41 103 41q17 0 37 -33q24 -30 24 -47z" />
<glyph unicode="&#x22;" horiz-adv-x="1003" d="M719 1526q-17 -58 -17 -60q-4 -7 -30 -22q-12 -22 -45 -125q-25 -77 -56 -123q3 -8 9 -14q-5 0 -45 -37q-20 20 -31 20q-17 0 -17 -14q-8 8 -24 8v6l6 33q1 8 2 12l-4 4q-4 3 -8 9t-4 12q0 17 8 41q2 7 4 17.5t3.5 14.5t5 9.5t10 10t18.5 9.5q-4 16 -4 25q0 5 3 23t3 22 h8q13 0 25 6l-21 19q1 4 17 51q6 23 49 49q50 29 69 29q28 0 66 -35zM510 1536q0 -50 -162 -387q-53 -115 -63 -115h-21q-17 0 -38 22.5t-21 39.5q0 36 69 237q71 211 88 236q17 26 87 26q14 0 37.5 -23t23.5 -36z" />
<glyph unicode="#" horiz-adv-x="1212" d="M1100 809q-49 -9 -70 -14q-38 -8 -55 -39q-22 14 -47 14q-17 0 -17 -22q-20 14 -55 14q-18 0 -18 -8q0 -2 6 -11q-4 2 -13 2q-31 0 -55 -47q-22 -50 -20 -77v-5q18 -18 133 -18q9 0 46 14.5t46 14.5q4 0 19.5 -11.5t23.5 -11.5q22 0 68 6q-8 -14 -15 -47q-5 0 -24.5 6 t-24.5 6t-14.5 -10t-14.5 -10q-26 0 -67 14q-6 -9 -6 -28q-25 14 -52 14q-4 0 -37 -18.5t-42 -18.5q-26 0 -50 8q-10 -10 -24 -53q-15 -43 -43 -59q20 -41 20 -52q0 -5 -5 -18.5t-5 -17.5l-8 14q-10 0 -10 -27l-8 3q-7 3 -13 3q-5 0 -11 -7t-11 -7q-15 0 -25 11t-10 32 q0 16 16 66q19 49 19 59q0 12 -11.5 25.5t-23.5 13.5q-5 0 -43 -23q-33 -20 -43 -20q-5 0 -11.5 3t-11.5 3q-47 0 -71 -37q-13 -23 -25 -80q-9 -53 -22 -73q-7 -12 -35 -52v9q0 12 -15 12q-6 0 -14 -3l-8 -3q-17 17 -17 43q0 -10 27 104q16 15 16 31q0 29 -32 29 q-7 0 -40 -10.5t-42 -10.5q-18 0 -45 41t-27 60q0 8 37 20q38 14 53 14q11 0 51.5 -4t53.5 -4q30 0 57 27v76q-9 12 -33 12q-16 0 -66 -7t-63 -7q-12 0 -32.5 28.5t-20.5 42.5q0 31 78 49q70 17 106 17q5 0 10 -4t9 -4q56 0 80 53q2 8 7.5 29t8 31.5t8 28t11 26.5t13 19 t17.5 14.5t21 4.5q40 0 75 -23.5t35 -58.5q0 -16 -16 -38q-25 -32 -27 -39q26 -11 45 -11q67 0 97 113q35 115 94 115q22 0 50 -15.5t28 -33.5q0 -9 -64 -134v-32h88q38 0 66 -4q0 -17 26 -17q23 0 47 6q0 -13 17 -16zM662 666v67q-11 -6 -21 -6q-5 0 -9 7t-9 7 q-42 0 -101 -53q-3 -7 -35 -61q-9 6 -16 6v-49q41 -6 111 -15q8 7 24.5 22.5t24.5 22.5q31 31 31 52z" />
<glyph unicode="$" horiz-adv-x="1570" d="M1319 2079q0 -32 -39 -123q-22 -55 -23 -58q45 5 50 5q229 0 229 -203q0 -74 -182 -268q-181 -193 -250 -193h-82q0 20 -10 33q40 40 243 227q35 28 103 96q4 4 4 13q0 16 -8 32q45 71 45 91q0 51 -74 51q-7 0 -32 -9.5t-33 -9.5q-34 0 -78 27q-54 -136 -135 -352 q-104 -274 -127 -434q-35 -18 -50 -117q-10 -127 -12 -152q-22 -3 -22 -10q0 -4 4 -16q-9 -15 -9 -68l-4 -2q10 -44 15 -64l92 -77q-62 -17 -107 -56q0 -22 15 -69q10 11 8 28q5 -13 41 -49v-252q-19 -22 -19 -84q0 -52 -55 -55q2 -14 2 -31q0 -32 -12 -53q-4 0 -19 4t-20 4 q-25 0 -31 -41q-6 -49 -16 -59q-20 -17 -74 -45q-56 -29 -80 -29q-33 0 -88 -8q-3 -1 -8 -2t-8 -2q-67 -163 -96 -330q-50 -89 -50 -106q0 -15 7 -39q-5 8 -15 8q-15 0 -35 -20q-14 23 -24 26v68q0 55 82 305q4 12 14 40.5t14 43.5q-103 6 -208 63q-144 76 -144 179 q0 7 5 13t11 10l5 3q-2 6 -2 19q0 100 86 227q17 -25 20 -29q47 21 57 36q9 11 9 26q0 8 -4 28q2 -2 10 -2q15 0 18 21q32 25 92 39q63 15 91 39q80 62 167 102q6 3 52 20q47 136 86 234q-3 13 -6 37q-1 23 -11 119q0 4 -7 29.5t-7 29.5v268q0 38 20 105q23 77 23 108 q29 64 70 140q9 80 125 165q122 90 157 125q11 32 133 373q29 0 70 -47t41 -96zM309 231q-31 -47 -71 -100q-45 -68 -45 -106q0 -26 12 -70q4 -16 7.5 -31t6 -25t2.5 -12q34 -9 101 -49q44 -27 77 -33q31 80 45 99q21 78 144 473q-139 -55 -279 -146zM901 1571q-7 0 -11 4 t-11 4q-9 0 -27 -27q-3 -6 -12 -18.5t-11 -15.5q-2 -2 -2 -31q0 -34 -16 -60q2 -10 2 -30q0 -168 -86 -209q55 -55 55 -74q0 -47 -37 -74q56 -53 56 -102v-4q9 -3 12 -12q2 6 2 18q0 8 -10 53q43 96 63 144q1 5 88 348q15 59 56 174q-82 -88 -111 -88zM791 276 q-11 18 -50 152l-36 -12q-9 -25 -27 -76.5t-27 -77.5q23 -41 23 -61q0 -25 -18 -63t-31 -38q-5 0 -11.5 5.5t-11.5 5.5q-26 0 -35 -88q-9 -68 -6 -127q-17 -25 -35 -58q48 25 99 70q120 102 135 184q3 9 6 96q3 60 25 88zM850 410v-9v9z" />
<glyph unicode="%" horiz-adv-x="1470" d="M694 1303q0 -129 -102 -293q-111 -181 -234 -181q-78 0 -131 74q-47 65 -47 148q0 109 62 198q42 63 137 168q115 127 149 127q61 0 117 -92q49 -82 49 -149zM1268 502q0 -7 -10.5 -48.5t-10.5 -58.5q0 -51 -37 -69v-11q-3 -12 13 -28q-12 -21 -35 -101q-18 -72 -88 -133 q-22 -22 -82 -53q-56 -33 -82 -33q-69 0 -121 82q-45 68 -45 146q0 36 45 127q35 67 72 122v23q-6 2 -15 2q-55 0 -120 -74q-9 -10 -43 -49.5t-52 -62.5q-72 -63 -151 -164q-65 -81 -137 -176q-33 6 -74 90q3 47 47 119q52 85 59 102q21 73 64 209q7 24 20.5 71t20.5 70 q27 84 78 125q7 43 63 174q8 14 36 60.5t48 80.5q71 131 195 320q169 254 217 254q32 0 47 -37q18 -48 43 -63v-88q-5 0 -21 -19q-14 33 -24 33q-7 0 -33 -23q-29 -29 -35 -32q-48 -19 -135 -76q-14 -14 -35 -66q-23 -55 -35 -73q-32 -38 -94 -125q-51 -89 -168 -326 q-133 -269 -133 -303v-39q50 14 135 53q11 11 58 51q79 55 166 101q23 12 96 24q39 9 39 41q26 3 63 43q33 41 43 70q43 0 64 -12q7 -17 26.5 -57.5t29.5 -63t19 -59t9 -70.5zM594 1352h-47q-49 -49 -80 -49q-10 0 -10 4h2q0 4 -10 4q-53 0 -127 -123q-68 -115 -68 -174 q0 -33 29 -76q125 64 192 180l60 117t59 117zM1167 526q0 27 -12 39q-12 -7 -88 -53q-58 -38 -80 -66q-34 -41 -88 -137q-55 -101 -55 -147q0 -16 16 -46.5t29 -41.5q89 63 180 205q98 154 98 247z" />
<glyph unicode="&#x26;" horiz-adv-x="1280" d="M1149 1245v-71q-16 -11 -90 -70q-2 -3 -39 -82q-28 -66 -45 -66q12 0 -4 5q-4 1 -10 2l-13 -11q0 -3 21 -24q14 -14 14 -27q0 -7 -4 -30.5t-4 -30.5q-94 -29 -144 -70v12q-3 6 13 19q-3 4 -16 24t-23 35q-2 -1 -10 -4.5t-23 -10.5t-31 -14q-44 -20 -57 -20l-22 6 q-10 -10 -7 -26l-21 6h1q-20 0 -170 -105q-153 -104 -164 -123q-20 -36 -20 -73q0 -36 33 -62t71 -26q92 0 178 45q89 45 121 45q36 0 50 -7.5t34 -37.5q-16 -43 -119 -109q-96 -62 -96 -117q0 -28 18 -55q5 1 86 31q65 24 76 24q32 0 55 -10q-37 -47 -90 -141 q-40 -43 -96 -125q-34 -89 -37 -96q-28 -78 -45 -78q-6 0 -6 2q0 4 -6 4q-5 0 -12.5 -10.5t-12.5 -10.5q-22 0 -38.5 22t-16.5 44q0 30 27 100q26 67 49 97v45l-4 4q-4 0 -14 -3t-13 -3q-15 0 -55 61q-39 62 -39 82q0 26 27 96q-8 8 -39 8q-7 0 -35.5 -2t-36.5 -2 q-29 0 -102 43q-50 30 -50 138q0 4 2 22t2 23q37 67 95 116q32 14 82 47q65 59 202 138h25l-6 -17l12 -10q26 14 23 53q47 11 86 31q59 30 65 33q48 18 72 20q24 0 63 8q16 32 49 88l-2 15v28q0 9 19 31q28 31 29 31q4 8 18 38t22 46q27 49 72 49h12q24 3 64 -37z" />
<glyph unicode="'" horiz-adv-x="782" d="M590 1370q0 -16 -68 -184q-5 -3 -14 -8.5t-14 -8.5q-3 -9 -9.5 -33t-11 -37.5t-13.5 -29.5t-20 -25q-15 21 -24 21q-10 -2 -33 -6q0 1 -14.5 23t-14.5 28q0 4 12 29.5t13 34.5q6 52 41 133q42 96 53 129q15 8 66 24q2 -4 30 -43q21 -24 21 -47z" />
<glyph unicode="(" horiz-adv-x="1349" d="M1155 1647v-29q-151 -89 -289 -215q-8 8 -32 8q-16 -36 -72 -92q-76 -79 -82 -88q-53 -78 -121 -172q-76 -102 -141 -156q-13 -29 -40.5 -87.5t-41.5 -88.5q-55 -110 -100 -166q16 -16 16 -35q0 -9 -14 -36t-15 -33q-12 -49 -12 -131q0 -22 37 -123q42 -106 53 -117 q29 -32 98 -66q68 -33 82 -51q-1 -2 -2 -6q-12 -46 -26 -47q-17 0 -70 12q-48 11 -72 15q-14 39 -30 39q-9 0 -9 -2v-3q0 -4 -8 -4q-9 0 -17 14.5t-9 14.5q-63 9 -115 125q-45 99 -45 176q0 9 9 38.5t9 37.5q0 1 -6 5t-12 11t-6 13q0 44 37 96q-5 15 -5 28q0 73 48 95 q-7 17 -7 30q0 33 45 113q63 120 64 121q8 18 57 61q50 44 62 62q5 19 24 67q81 112 138 172q4 3 53 41q1 1 10 12.5t31.5 39t46.5 57.5q2 -5 22 -8q2 2 2 12q0 4 -2 17.5t-2 17.5q61 43 174 135q14 28 17 35q31 45 91.5 78.5t113.5 33.5q10 0 34 -34q5 -7 14.5 -21.5 t14.5 -21.5z" />
<glyph unicode=")" horiz-adv-x="1083" d="M952 815q0 -40 -16 -115q-5 -20 -14.5 -58.5t-14.5 -57.5q-39 -178 -76 -254q-55 -113 -174 -195q-28 -22 -34 -43q-27 -12 -80 -53q-47 -36 -80 -51q-8 -3 -24.5 -9.5t-46 -18t-54.5 -21.5q-109 -41 -119 -41q-14 0 -117 53q27 20 76 39q95 25 156 53q164 77 299 244 q135 170 174 346q35 155 35 164q0 5 -9.5 29.5t-9.5 29.5q0 71 -16 252q-3 13 -21 59q-12 38 -12 56q0 10 4 22q-3 5 -127 207q-104 168 -104 186q0 12 14.5 25.5t26.5 13.5q34 0 110 -98q73 -95 84 -135q18 -50 92 -260q56 -157 56 -266q0 -13 11 -52.5t11 -50.5z" />
<glyph unicode="*" horiz-adv-x="1204" d="M1071 694q-16 -16 -29 -16q-12 0 -55 3t-55 3q-28 0 -133 -31q-102 -27 -146 -30l-6 -20v1q0 -11 39 -96q4 -12 10 -70q6 -41 35 -61l-20 -41q0 -5 20 -41q25 -45 27 -47l-8 -4q-7 -4 -13 -4q-5 0 -22.5 10t-22.5 10t-19 -6t-18 -6q-3 23 -53 133q-46 108 -59 108 q-17 0 -51 -34q-47 -43 -52 -47q-3 -26 -51 -99q-46 -69 -67 -69h-39l-25 24q4 8 51 101q31 15 37 43q1 2 4 59q23 19 49 57h19v23l-12 12q-3 -1 -80 -35q-67 -28 -74 -28q-68 0 -96 -7q0 2 -14.5 30t-14.5 36q0 39 145 74q32 7 95 20.5t94 20.5l2 -2q4 0 4 12q0 33 -45 72 q-62 56 -64 61q-13 31 -36 70q20 28 26.5 32.5t30.5 4.5l72 -11q31 -35 104 -135q18 0 53 41q11 5 84 103q74 92 121 92q5 0 14.5 -6.5t14.5 -6.5t8.5 6.5t7.5 6.5q23 0 60 -37q-10 -30 -97 -107q-82 -70 -112 -129l12 -12q122 35 190 35q5 0 42 -4.5t51 -3.5q26 -33 43 -33 q-12 0 6 4q4 1 10 2q0 -23 8 -31z" />
<glyph unicode="+" horiz-adv-x="1110" d="M965 461v-39q-2 0 -64 -23q-35 -14 -63 -14q-195 0 -242 -2q-54 -66 -80 -182q0 -12 -4 -82q-3 -23 -35 -51q-37 -29 -53 -29q-18 0 -33.5 24t-15.5 46q0 24 57 243q-10 2 -31 2q-29 0 -73 -20q-49 -19 -74 -19q-4 0 -14 4.5t-15 4.5q-8 -2 -14 -9q-2 5 -31 27 q-26 20 -26 29q0 74 229 92q48 4 96 14q9 3 4 8q26 141 68 295q5 0 27 4t30 4q30 0 66 -22v-66q-41 -130 -70 -213q14 -2 144 -2q152 0 217 -24z" />
<glyph unicode="," horiz-adv-x="868" d="M715 121q0 -30 -43 -82q-63 -79 -64 -82q-24 -6 -76 -49q-51 -45 -81 -45q-22 0 -45 51l184 266q58 -9 76 -10q49 -12 49 -49z" />
<glyph unicode="-" d="M844 539v-35q0 -50 -258 -96q-220 -41 -320 -41q-33 0 -60.5 26t-27.5 58q0 61 504 88q40 3 74 0h88z" />
<glyph unicode="." horiz-adv-x="833" d="M659 70q0 -37 -37 -65t-77 -28q-27 0 -56.5 25t-29.5 49v90q21 6 54 15l60 18q18 0 52 -43t34 -61z" />
<glyph unicode="/" horiz-adv-x="1335" d="M1239 1618q0 -19 -39 -72q-41 -57 -55 -69l-15 14q-9 -18 -159 -246q-102 -156 -127 -254q-35 -9 -47 -67q-2 -17 -6.5 -46.5t-6.5 -41.5q-22 -3 -22 -7q0 -2 4 -10q-8 -8 -8 -39q-51 -9 -105 -94q-13 -22 -36.5 -64t-36.5 -63q22 -22 22 -35q0 -14 -18 -36.5t-31 -22.5 q-5 0 -11.5 3t-11.5 3q-25 0 -34 -51q-10 -43 -7 -74q-140 -140 -192 -307q-47 -53 -47 -62q0 -10 6 -22q-8 4 -14 4q-14 0 -35 -12q-11 11 -25 16v39q0 33 82 176q82 146 111 172q54 114 176 338q2 4 36 59.5t52 83.5q71 121 82 121q15 0 18 -8q2 2 2 10t-10 31 q53 68 64 84q25 66 86 203q49 100 249 430q24 0 68 -29q41 -27 41 -55z" />
<glyph unicode="0" horiz-adv-x="675" d="M655 641q-20 -30 -43 -98q-20 -9 -20 -56q-22 3 -31 -6q3 -17 23 -20q-32 -38 -146 -219q-90 -140 -170 -197l-47 -47q-27 -27 -59 -27q-60 0 -101 35q-47 35 -47 92q0 72 33 148q41 96 96 104l-9 14q-9 15 -9 23q0 41 172 231q175 193 235 193q12 0 46 -8t45 -8 q6 -21 6 -39q0 -7 -2 -26.5t-2 -24.5q0 -29 30 -64zM537 596l10 20l-10 5l-11 -19zM506 565h-29q-31 -19 -174 -139q-21 -66 -55 -86q-2 -4 -9 -16.5t-11 -18.5t-11.5 -15t-16.5 -13.5t-20 -6.5q15 -10 25 -16q-17 -14 -17 -33q-6 0 -25 -8.5t-22 -13.5q22 -31 45 -54 q25 25 39 25q17 0 25 -8q1 2 37.5 64.5t64.5 109.5l13 -14h28q0 56 41 127q27 46 72 116z" />
<glyph unicode="1" horiz-adv-x="458" d="M375 772q0 -14 -18.5 -68t-18.5 -75q0 -70 -31 -168q0 -2 -55 -162q-9 -35 -12 -109q-3 -76 -17 -108q-5 -13 -39 -64q-34 -49 -51 -49q-19 0 -70 45q-53 47 -53 64q0 10 74 155q27 52 90 177q56 169 156 446q1 -13 23 -45t22 -39z" />
<glyph unicode="2" horiz-adv-x="749" d="M686 815q0 -55 -102 -225q-81 -137 -146 -221q-17 0 -26 -9q-3 -45 -58 -106q-76 -85 -82 -98q23 -13 97 -13q16 0 61 11.5t57 11.5q7 0 36 -11.5t36 -11.5t26 11.5t23 11.5q0 -2 4 -14t4 -17q0 -31 -34 -37h-58q-4 -4 -4 -12q0 -12 12 -33q-12 4 -63 4q-23 0 -31 2 q0 -15 -6 -45q-15 9 -33 9h-12q-124 -48 -289 -48q-17 0 -39 31t-22 45q0 25 10 45q7 8 56 58.5t81 85.5q2 2 41 24q13 30 94 146q69 97 72 137h4q15 0 45 59q25 45 39 76q-4 4 -24 20q-9 -9 -6 -38q-47 3 -127 -115q-80 -115 -99 -115q-20 0 -55 41q-33 39 -33 62 q0 7 9.5 32t9.5 33l16 -8q44 54 207 182q168 131 221 131q35 0 61.5 -27.5t26.5 -64.5z" />
<glyph unicode="3" horiz-adv-x="735" d="M698 758q-160 -139 -194 -168q-120 -105 -170 -189q3 -12 53 -30q11 -3 33 -10.5t33 -10.5q39 -17 77 -74q39 -51 39 -96q0 -11 -14 -49q-5 -15 -9 -30t-5 -17q-14 -82 -66 -143q-55 -54 -110 -113q-165 -171 -248 -186q-3 46 -41 55q6 3 41 41q26 33 39 33q-5 0 4 -3 q5 -2 18 -6l12 13l-22 26l11 -2h26q38 0 41 90q20 22 57 66t57 65q66 87 66 156q0 72 -96 72q-27 0 -86 -33q-62 -32 -70 -51h-24q-22 0 -64 31q-39 33 -39 57q0 10 123 166q26 34 74 49q10 45 45 94q17 22 32 43.5t21.5 30.5t7.5 10q-3 19 -31 19t-94 -29q-61 -27 -67 -53 h-39q-11 0 -45 34q-35 38 -35 48q0 55 154 102q130 43 206 43q5 0 9.5 -4t9.5 -4q29 0 88 26q62 27 90 27q21 0 55 -37q35 -35 47 -59z" />
<glyph unicode="4" horiz-adv-x="1019" d="M1006 324q-25 -25 -73.5 -45.5t-80.5 -20.5q-5 0 -19 4t-18 4q-9 0 -61 -22q-51 -23 -58 -23q-5 0 -13 4t-13 4q-16 0 -27.5 -5.5t-20 -18.5t-13 -22t-11 -28.5l-8.5 -25.5q2 -8 2 -25q0 -133 -100 -133q-6 0 -76 52q0 14 14.5 62t13.5 65q-3 -1 -90 -19q-58 -12 -90 -12 q-8 0 -13 7t-9 7q-11 0 -39 -14q-27 -15 -39 -15q-7 0 -30 10.5t-30 10.5q-8 0 -8 -2q4 -4 4 -8q0 -1 -6 -4q-13 0 -71 82q171 175 327 346q4 4 47 36q27 21 27 52q29 29 98 88q60 52 88 96q13 24 52.5 40.5t72.5 14.5q27 65 51 84t84 19q13 0 37.5 -27t24.5 -41 q0 -18 -7 -36t-14.5 -30t-26.5 -29.5t-27.5 -24.5t-34 -25.5t-31.5 -22.5v-6q0 -12 6 -27q-26 -40 -90 -184q-64 -143 -64 -186q0 -27 27 -27q26 0 100 23q74 22 102 22q20 0 35 -31q18 2 76 23q3 -13 23 -16zM598 590q-85 -39 -182 -156q-26 -31 -78 -93.5t-78 -94.5h84 q25 0 72 12q22 5 69 21q10 6 50 108q4 5 32 45q11 25 19 76q9 66 12 82z" />
<glyph unicode="5" horiz-adv-x="876" d="M981 893q-9 -27 -35 -27q-5 0 -17 3t-16 3q-1 -3 -14 -34l-74 12q-13 0 -53 -29q-39 -28 -70 -28q-8 0 -35.5 4t-35.5 4q-33 0 -121 -58q-89 -59 -98 -86q-9 -15 -15 -49q-2 -2 -2 -73q0 -75 -22 -103q0 -1 3.5 -4.5t7 -9.5t3.5 -12v-183q0 -67 -51 -172 q-59 -121 -113 -121q-5 0 -22 -7t-25 -7q-15 0 -41 33h-14q-82 0 -82 119q0 40 67 122q2 0 12.5 -7t18.5 -7q6 0 13.5 3.5t12.5 6.5l5 4v-12q0 -39 14 -110q32 25 54 92q18 58 18 106q0 7 8 30t8 30v225q0 51 -2 86q-6 67 -6 86q-20 23 -20 31q0 52 135 98q116 43 184 43 q4 0 12.5 -4t12.5 -4q22 0 108 24q86 27 131 27q30 0 80 -16q29 -11 76 -29z" />
<glyph unicode="6" horiz-adv-x="757" d="M793 1184q0 -65 -21 -92q-26 -33 -108 -107q-95 -86 -113 -86q-10 0 -10 2q4 4 4 8t-2 6q-40 -89 -178 -260q87 -62 122 -88q76 -58 76 -125q0 -16 -14.5 -40.5t-28.5 -36.5q3 -16 27 -37q-7 -11 -45 -43q-39 -33 -39 -39q0 -15 33 -35q-13 -15 -41 -45t-41 -45 q-54 -67 -68 -94h-12q-23 0 -60.5 -21.5t-52.5 -21.5q-13 0 -71 24q-43 18 -72 35q-3 56 -60 205q0 69 68 158q70 88 70 126q0 53 37 68q-8 8 -33 4q0 16 -10 29q82 27 129 98q47 75 69 84q0 12 -16 12q15 13 55 62q32 43 57 57q-2 2 -2 10q0 48 224 293q20 4 61 4 q10 0 37 -30q29 -29 29 -39zM422 367q0 74 -29 101.5t-108 35.5q-1 -1 -7 -11t-19.5 -31.5t-27.5 -45.5q-39 -63 -65 -72q12 -9 12 -29q0 -9 -10 -42t-10 -42q0 -19 10 -57q14 -53 18 -57q73 25 148 100q88 85 88 150z" />
<glyph unicode="7" horiz-adv-x="915" d="M860 854q0 -45 -49 -72q-38 -13 -125 -59q-20 -25 -96 -88q-7 -15 -22.5 -47t-22.5 -47q-25 -61 -25 -103q78 -4 96 -4q14 0 65 3t64 3q16 0 23.5 -10t9.5 -10q6 0 6 2q0 4 7 4q1 0 43 -31l-9 -16q-21 6 -75 6q-11 0 -18 -3t-14.5 -8.5t-12.5 -8.5q-3 -1 -11 -4t-21 -8 t-26 -9q-41 -14 -53 -14q-29 0 -43 14q-8 -3 -14 -18q-10 -1 -66 -13q-22 -57 -63 -135q-18 -110 -64 -186q-25 -20 -68 -94l23 6q-3 0 -33 -68q-18 -40 -47 -53q-30 -111 -69 -195q-35 -45 -62 -84q-19 7 -108 62q0 11 2 21.5t6.5 21.5t7.5 19.5t10.5 20.5t11.5 18.5 t14 19.5t13.5 17.5t15 18.5t13.5 17q6 9 15.5 24t25 39.5t28.5 44.5q22 19 50 56q0 7 36 119q24 78 68 96q14 32 29 100q-44 25 -47 27q-43 27 -43 63q0 29 61 56q52 25 86 28l43 105q29 74 23 102q9 9 36 92q-7 13 -20 13q-59 0 -133 -39q-94 -46 -131 -58q23 -37 28 -61 l-8 -15l-76 -2q-7 0 -59 52q-51 51 -51 63q0 57 117 92q85 19 231 35q135 15 160 29q13 9 46 53t46 53q35 27 90 27q43 0 84 -21q51 -20 51 -59z" />
<glyph unicode="8" horiz-adv-x="770" d="M795 1036q0 -67 -258 -301q-46 0 -86 -55q-37 -55 -31 -102q-43 -21 -43 -39q0 -9 11 -45t11 -45q0 -8 -6 -38t-6 -38q0 -7 10.5 -23.5t10.5 -23.5q0 -101 -33 -213q-44 -154 -113 -154h-47q-12 0 -20 8q-18 12 -21 15q-137 61 -137 335q0 11 31 93q24 63 34 104 q36 44 129 137q11 61 11 70q0 24 -17 104q-14 66 -14 105q0 3 2.5 8t6.5 9.5t9 9.5l8.5 8.5l6.5 6.5l4 3q17 33 67 86q115 74 342 74q37 0 88 -31q50 -30 50 -68zM635 987v45h-64q-21 0 -45.5 -23.5t-25.5 -23.5q-21 1 -19 6q0 -25 -61 -55q-60 -31 -60 -96q0 -12 5.5 -57 t5.5 -58q95 85 137 127q65 63 127 135zM291 338q0 26 -19 119q-100 -81 -100 -201q0 -56 33 -154q52 34 59 58q27 114 27 178z" />
<glyph unicode="9" horiz-adv-x="956" d="M909 623q0 -87 -114 -181q-9 -50 -95 -270l-30 -117q-21 -83 -56 -92q0 -3 6 -16l5 -13q0 -21 -31 -63q-76 -421 -207 -543q-36 28 -88 64q3 47 57 159q77 156 78 162q36 84 78 215q49 237 102 346l-20 21q-8 0 -8 -10l6 -13q-1 0 -66 -53q-141 -111 -159 -123 q-70 -49 -181 -90q-9 -20 -22 -20q-33 0 -84 39t-51 69q0 60 47 113q17 17 84 69q45 34 39 56h8q10 0 16 -6q15 30 62 65q47 38 84 47q-3 12 -17 15l-6 -4q40 61 64 61q7 0 12 -4t12 -4q254 248 359 248q43 0 79.5 -41t36.5 -86zM653 508q-18 -4 -65 -29q-18 18 -33 23 q-3 -16 -43 -62q-39 -45 -55 -45q-5 0 -10.5 3t-10.5 3q-44 -27 -47 -63q-11 -4 -41 -41q-30 -35 -35 -35q-8 0 -8 4h2q0 4 -8 4q-11 0 -41 -49l-37 -63q5 0 21.5 -5.5t21.5 -5.5q8 0 37 19q26 20 35 20q7 0 12 -8t12 -8q33 0 109 98q78 100 115 113q-2 2 -2 10q0 18 28 60 q7 9 21.5 28.5t21.5 28.5z" />
<glyph unicode=":" horiz-adv-x="712" d="M571 598q0 -65 -55 -102l-22 24q-15 -12 -15 -24h-26q-1 2 -17 33.5t-30 54.5q55 67 79 67q7 0 25 -12t25 -12q6 0 14 4l8 4l3 -6q4 -6 7.5 -15t3.5 -16zM391 59q0 -33 -28.5 -55t-63.5 -22q-21 0 -44.5 20.5t-23.5 42.5v76q17 5 34 9.5t27 7.5t18 5t10.5 3t1.5 1 q14 0 40 -36q29 -37 29 -52z" />
<glyph unicode=";" horiz-adv-x="825" d="M727 575q0 -1 -1 -7t-3.5 -20t-5.5 -30q-8 -4 -37 -33q-31 -28 -39 -28q-32 0 -47 -6q-41 35 -41 51q0 48 25 112h88q22 0 61 -39zM565 121q0 -30 -43 -82q-61 -77 -63 -82q-24 -6 -76 -49q-51 -45 -82 -45q-22 0 -45 51l184 266q58 -9 76 -10q49 -12 49 -49z" />
<glyph unicode="&#x3c;" horiz-adv-x="800" d="M743 809q0 -34 -32 -53q-33 -20 -33 -43l-16 12q-5 -1 -22 -21t-22 -20q-8 0 -8 2l2 2q0 2 -8 2t-49 -53q-38 -49 -78 -59q-41 -60 -176 -136q-9 -49 -27 -49q-3 0 -6.5 2t-5.5 4.5t-4 5.5l-2 3q-6 -6 -25 -37q-22 -31 -22 -41q0 -19 182 -154q61 -43 219 -160v-32 q-16 -23 -30 -23q-54 0 -301 168q-250 170 -250 211l10 35q38 14 121 88q68 63 121 69q44 55 186 191q163 156 180 156q19 0 58 -25q38 -23 38 -45z" />
<glyph unicode="=" horiz-adv-x="1015" d="M881 592q-6 -48 -64 -57h-94q-75 0 -201 -15q-44 -3 -137 -6q-18 0 -70 -25q-47 -24 -55 -24q-49 0 -65 -8q-33 59 -33 104q36 36 78 45q278 56 426 56q98 0 157 -27q26 -22 58 -43zM866 326q-7 -12 -32 -64q-305 -9 -486 -57q-33 -11 -82 -29q-68 -22 -76 -22 q-81 0 -81 67t65 82l117 12q363 52 473 52q46 0 102 -41z" />
<glyph unicode="&#x3e;" horiz-adv-x="794" d="M766 346q-15 -24 -27 -24q-5 0 -9 4t-9 4q-9 0 -107 -70t-108 -70q-5 0 -10.5 3.5t-10.5 3.5q-15 0 -100 -70q-86 -70 -100 -90q-8 8 -39 8q-126 -99 -193 -119q0 15 -16 68q12 15 57 24q49 56 139 113q33 22 70.5 46t55.5 36l24 16q10 31 113 103q104 73 104 94 q0 31 -149 162q-124 110 -189 153q-18 10 -37.5 45t-19.5 56q0 35 35 35q76 0 438 -392q20 -20 72 -82q8 -12 16 -57z" />
<glyph unicode="?" horiz-adv-x="1247" d="M1087 1434q0 -30 -38 -99q-37 -73 -56 -73q-5 0 -9 3t-9 3q-6 0 -45 -51q-41 -54 -51 -60q-46 -96 -91 -137q-9 -4 -32 -21l-23 -22q-37 0 -63 -33q-7 -7 -39 -63q-30 -13 -72 -86q-38 -64 -45 -109q-57 -3 -106 -113q-12 -27 -35.5 -80t-34.5 -79q-23 30 -23 57 q0 3 13.5 29t13.5 39q0 7 -9 27.5t-9 27.5q0 16 170 201q0 5 -2.5 23t-2.5 22v6q23 23 41 33q0 -3 23 -23q25 0 43 62q20 69 29 83q46 65 112 146q19 8 56 37q4 6 21.5 34t25.5 44q37 50 65 57q16 64 47 113v12q-43 16 -82 16q-64 0 -221 -65q-156 -65 -205 -107 q-76 -66 -137 -121q13 -10 31 -14q-12 -8 -29 -25q0 -43 10 -163q-35 -41 -45 -41q-30 0 -88 61q-59 65 -59 92q0 93 55 154q118 127 148 127q8 3 8 -2q0 -7 8 -4l146 104q3 0 10.5 -7t15.5 -7q7 0 35.5 18.5t36.5 18.5q5 0 9 -4.5t9 -4.5q4 0 33 15.5t37 15.5q5 0 10 -4 t10 -4q28 0 31 33q7 5 88 14q71 6 94 6q45 0 109 -37q67 -37 67 -75zM510 53q0 -14 -15 -40.5t-26 -26.5h-49q-40 0 -58 24q-24 35 -38 45v49q36 25 73 25q28 0 70 -25q43 -24 43 -51z" />
<glyph unicode="@" horiz-adv-x="2504" d="M2464 1047v-27q0 -8 -9.5 -40.5t-9.5 -41.5q0 -10 4 -18l-41 -35q-12 -9 -12 -70q0 -34 -31 -65q3 -14 6.5 -27t5 -18.5t1.5 -6.5q0 -34 -74 -137q-3 -8 -6 -31q-3 -20 -96 -98q-84 -75 -84 -151q0 -16 6 -19q-5 -8 -74 -49q-49 -34 -49 -70q0 -13 6 -22q-3 -1 -14 -8 t-39.5 -24.5t-55.5 -33.5q-89 -53 -96 -53q-4 0 -15 3t-15 3q-5 0 -17.5 -11t-17.5 -11q-8 0 -8 2v2q0 4 -9 4q-29 0 -32 -19l10 -8q-1 0 -14 5t-36 13t-49 17q-57 22 -86 55q-45 51 -45 166q0 19 -12 19q-27 0 -47 -21t-14 -47q-43 -46 -70 -55q-60 -23 -76 -31 q-11 -37 -73 -72q-62 -30 -107 -30q-56 0 -121 47l-6 18q8 8 8 23q0 25 -28 47q0 34 127 194q22 26 53 50q56 43 59 47q16 28 56 55q11 39 96 106q113 84 121 97q51 56 149 121q109 71 172 71q31 0 78 -20q51 -20 51 -45q0 -17 -24 -88q-19 -55 -35 -93q-10 -22 -58 -41 q-41 -70 -51 -90q-38 -60 -63 -79q-2 -15 -19 -82q-14 -52 -14 -86q0 -50 14 -91q18 -61 56 -61q8 0 59 23q43 18 66 32l18 -16q6 6 26.5 24t28.5 25t25 23.5t26 28.5t20 29t19 34q16 -4 25 -4q20 0 51 8q-22 22 -22 31q0 29 61 63q3 9 -22 31q4 0 12 8q10 10 20 10 q11 0 45 58q2 4 43 71q19 52 27 78q18 52 55 49l8 15q-2 7 -16 10q5 27 25 86q31 19 55 106q18 77 18 127q0 105 -77 176q-49 43 -175 97q-59 26 -270 26q-41 0 -127 -24q-90 -23 -125 -23q-7 0 -12 8.5t-12 8.5t-34.5 -8.5t-35.5 -8.5q-22 0 -35 8q-14 -14 -14 -47 q-5 8 -39 8q-37 0 -80.5 -17.5t-60.5 -41.5q-136 -21 -154 -78q-37 -12 -213 -96q-8 0 -16.5 5t-10.5 5q-3 -12 -8.5 -22.5t-16 -21t-18 -17.5t-24 -16.5t-23.5 -14t-26.5 -14.5t-24.5 -13q-8 -25 -63 -71q-52 -43 -80 -43q-6 0 -12 2t-9 4t-4 2q-10 -23 -55 -68 q-40 -40 -37 -65q-16 4 -25 4q-67 0 -67 -55q0 -13 6 -25q-7 1 -15 2l-12 1.5t-6 0.5q-18 0 -28 -2q17 -22 24 -31q-52 -59 -108 -157q-67 -119 -101 -162q-2 -6 -2 -21q0 -20 6 -41q-20 -3 -20 -18q0 -28 147 -342q65 -45 127 -96q23 -21 152 -82q127 -59 156 -62 q4 0 21 -4t22 -4q43 0 249 -16q9 -9 9 -33q6 -6 8 -6q18 0 55 29q33 26 43 26q5 0 11.5 -8t11.5 -8q26 0 88 16q70 17 90 17q4 0 15 -4.5t15 -4.5q23 0 87 23q61 22 86 22q7 0 30.5 -3t30.5 -3q32 0 106 23q78 28 95 53q13 0 58.5 8t57.5 8l4 3q4 2 12 5t18 6.5t25 6t32 2.5 q-89 -39 -332 -121q-283 -96 -316 -96q-5 0 -20 4t-19 4q-7 0 -36.5 -11t-36.5 -11t-23.5 11t-23.5 11q-5 0 -27 -22l-16 16q-8 -1 -29 -2t-31 -2q-7 0 -28 -10.5t-29 -10.5q-4 0 -19 8.5t-20 8.5q-21 0 -78 -13q-52 -12 -76 -12q-37 0 -102 27q-75 27 -86 53q-17 0 -39 -25 q0 10 12 19q-2 2 -10 2q-4 0 -17.5 -3t-17.5 -3q-28 0 -137 59q-106 57 -125 86q-60 0 -160 139q-85 126 -106 201l10 66q10 -10 25 -31l12 14v52q-17 4 -35 12q-8 -8 -8 -35q0 2 -9 16.5t-9 22.5q0 82 16 119q13 23 67 45q0 12 -22 12q7 25 22.5 48.5t27 34.5t11.5 9 q0 7 -14 27q13 8 76 55q-12 12 -23 12q57 60 74 60q8 3 8 -2q0 -4 8 -4q10 0 37 37q18 25 35 45q25 31 70 55q-6 -12 -6 -23q0 -2 4 -14q9 9 28 6q9 9 9 25q0 21 -19 37q22 0 55 39q34 40 72 43q5 4 11.5 24.5t11.5 24.5q3 1 11 3.5t12 3.5t11 4t9.5 5t7 6.5t3.5 8.5t-1 10 q12 -4 18 -4q92 0 107 79q40 12 76 45q26 10 102 68q60 45 111 45q7 0 11 -8t9 -8q24 0 44 25.5t20 52.5q54 0 63 -9q70 70 109 70q7 0 29.5 -3t29.5 -3q6 0 15 11t24.5 21.5t36.5 10.5q11 0 51 -4l6 16l-6 10q41 0 70 19q11 0 26 -31q32 3 88 29t72 26q5 0 10 -4t10 -4 q7 0 35 15.5t35 15.5q23 0 66 -12q65 -19 67 -19q16 31 37 31q121 0 137 -31q0 2 2 2q2 -2 2 -10t-2 -18q10 -13 21 -13q27 0 37 23q6 -12 18 -39q32 16 37 16q104 0 190 -221q-5 -2 -30 -16v-23q11 -11 45 -28zM1634 649q-16 16 -37 19q-14 -14 -61 -68q-16 0 -61 -10 q-28 -81 -109 -111q-1 -1 -17 -18.5t-54.5 -58.5t-82.5 -87q-104 -110 -104 -182q82 47 246 135q11 19 39 41q12 10 23 18.5t16 12t6 4.5q2 6 9.5 26.5t10.5 28t10.5 24.5t14.5 24.5t17 18.5t23 17t29 9q25 55 82 157z" />
<glyph unicode="A" horiz-adv-x="1116" d="M1083 621q-10 0 -10 2l2 2q0 6 -10 6q-6 0 -109 -53v2q2 0 2 -41q0 -13 -9 -32t-9 -32q0 -8 7 -35.5t7 -36.5q0 -27 -34 -45q18 -58 18 -92q0 -13 -37 -47q31 -15 31 -49q0 -7 -5 -32t-5 -32q9 -12 39 -38q-3 -6 -3 -15q0 -12 7.5 -47t7.5 -43q0 -43 -34 -95t-65 -52 q-26 0 -51.5 19.5t-25.5 43.5q0 33 22 49q0 13 -2 59.5t-2 59.5q0 31 27 84q-13 23 -13 57q0 18 16.5 97.5t16.5 99.5q0 29 -12 47q24 21 24 39q0 56 -22.5 76t-95.5 20q-2 0 -67.5 -24t-138 -48t-89.5 -24t-33 16q-91 -87 -169.5 -202t-78.5 -148q0 -19 21 -28 q-34 -119 -144 -203q-62 36 -65 37q6 21 18.5 67t21 69.5t25 60.5t42 69t61.5 65v58q-54 22 -54 55q0 22 23.5 38.5t57 30.5t78 54t77.5 100q35 62 88 107v12q0 39 29 91t79.5 128t79.5 137q24 50 31 50q15 0 15 -7l2 -4q8 8 8 23q0 14 -19 20h37q6 9 6 27t-6 33 q169 291 275 495q1 6 5 26.5t7 29t9.5 21.5t18 18.5t27.5 5.5q10 0 46 -13t36 -16t-1 -22t8 -41.5t26 -22.5v-121q0 -16 -18 -55.5t-38 -77.5t-22 -43q-9 -127 -24 -170q-11 -33 -29 -51q4 -16 4 -37q0 -38 -28.5 -213t-28.5 -213q0 -20 17 -26t62.5 -10t83.5 -15 q-2 0 -19 -27.5t-26 -27.5zM973 1225q-12 46 -15 118l-6 117q-61 -72 -179.5 -267t-230.5 -386t-143 -234v-30h47q4 0 78.5 25.5t77.5 25.5q8 0 8 -2v-2q0 -4 8 -4q11 0 135 43.5t167 64.5v58q-35 15 -35 24q0 55 57 166q-14 123 -14 148q0 90 45 135z" />
<glyph unicode="B" horiz-adv-x="1593" d="M1724 788q-4 -8 -4 -28q0 -9 -16 -15q-41 -15 -166 -45q-100 -23 -166 -55q-1 -21 -2 -65t-2 -66q-9 -72 -39 -125q-24 -24 -49 -67q-134 -140 -215 -205q-133 -111 -254 -150q-29 -10 -70 -37l-65 -45l-19 19q-13 -13 -104 -58q-92 -47 -107 -47q-10 0 -10 2v2 q0 4 -10 4q-7 0 -14 -14t-15 -14q-10 0 -10 4q2 0 2 2q0 4 -10 4q-12 0 -43 -22q-31 -25 -43 -25q-36 0 -103 -18q-64 -21 -100 -21q-46 0 -104 49q-62 47 -62 90q0 32 74 150q70 114 98 114q10 0 10 -4q-2 0 -2 -2q0 -4 11 -4q22 0 57 103q40 118 51 133q0 61 35 145l37 84 q0 5 -5 24.5t-5 24.5q0 12 6 21q36 64 96 190q12 29 33 86.5t33 85.5q45 105 86 162q-2 2 -2 12q0 33 43 140q45 105 45 129v61q-4 0 -22 4t-23 4q-22 0 -107 -39q-85 -36 -104 -36q-11 -4 -11 2q2 0 2 2q0 4 -10 4q-8 0 -51 -29q-37 -27 -37 -41q3 -6 19 -6q-6 -5 -52 -45 q13 -26 39 -96q-69 0 -143 32q-96 41 -96 95q0 26 51 65q46 37 76 49q59 24 116 27q27 27 39 27q11 0 11 -5q0 -6 8 -6q9 0 27 17t20 18q55 20 127 33q81 14 123 31q4 2 31 23.5t36 21.5q36 0 103 -15q66 -14 104 -14q9 0 43 5t43 5q197 0 316 -90q0 -6 -58 -168 q-17 -3 -33 29q-9 -41 -36 -111q-7 -16 -76 -82q-14 -12 -28.5 -26t-32 -30.5t-27.5 -25.5q-48 -36 -140 -112q-97 -78 -106 -123q79 20 131 20q157 0 270 -49q16 -7 107 -69q79 -54 90 -54q10 0 19 -10t16 -10q23 0 35 35q161 26 290 34zM1141 1487q0 19 -13 29 q-28 5 -81 22q-49 14 -84 14q-6 0 -20.5 -9t-27.5 -9q-7 0 -23.5 9t-23.5 9q-9 0 -32 -9.5t-29 -10.5q6 -15 6 -31q0 -6 -4 -14q1 -3 2 1v15q0 2 -10 2q-15 0 -41 -51q-28 -54 -19 -68q-27 -51 -217 -503q182 123 357 280q260 230 260 324zM1217 694q-27 63 -132 101 q-83 30 -170 30q-53 0 -194 -63q-145 -62 -227 -62q-6 0 -18 1.5t-26 4t-18 3.5v-4q3 -47 -33 -154q-34 -109 -34 -145v-89q51 7 151 41l57 58q41 35 70 35q10 0 10 -2l-2 -3q0 -6 11 -6q9 0 26.5 27.5t18.5 28.5q39 22 202 90q177 76 199 76q7 0 14 -5.5t15 -5.5 q13 0 41 19q34 19 39 24zM1247 543q0 8 -6 35t-6 34q-263 -60 -586 -235q-132 -76 -284 -150q3 -69 -115 -121h-14q-9 3 -13 3q-5 0 -12 -7q-3 -30 -49 -112q-47 -83 -47 -121v-70h43q44 0 209 56q152 54 206 82q367 191 553 362l-4 39q25 23 82 70q3 24 23 73q20 50 20 62z " />
<glyph unicode="C" horiz-adv-x="1067" d="M1323 1815q0 -63 -190 -355q-22 -28 -56 -86q-42 -119 -131 -327l-28 -19v-8q3 -58 -72 -174q-71 -115 -68 -184q-8 31 -8 67t6 45q1 3 8.5 9t15 11.5t7.5 6.5q0 7 -8 27.5t-8 27.5q0 22 28 47q15 15 43 39q-2 4 -8 11.5t-9 12.5t-6 13.5t-3 17.5q0 30 75 193 q76 165 76 229q0 12 -3 20.5t-13 16.5t-13.5 10t-19.5 11q-80 -18 -174 -123q-75 -78 -170 -183q-84 -98 -148 -180q-333 -443 -292 -706q0 -107 53 -199q63 -106 164 -106q59 0 254 71q132 80 241 125q21 10 35 43q14 -8 14 -26q0 -44 -274 -220q-164 -69 -229 -69 q-4 0 -26 -2t-30 -2q-161 0 -254 161q-82 137 -82 308q0 80 39 190l27 4v6q0 -7 -7 7q-5 9 -5 14q0 63 182 346q5 8 43 65q7 7 27.5 30.5t35.5 39.5q80 112 113 156q331 418 533 418q9 0 38 -8.5t37 -8.5q6 0 76 119q71 121 119 121q45 0 45 -53z" />
<glyph unicode="D" horiz-adv-x="1599" d="M1829 782l22 -10q-1 0 -57 -22q-53 -17 -57 -17t-20 4t-21 4q-30 0 -74 -20t-57 -43q-47 24 -64 24q-1 0 -13 -8t-22 -8q-8 0 -36 -13.5t-37 -13.5q-11 0 -11 3l2 2q0 4 -10 4q1 0 -34 -29t-110 -90t-181 -148q-327 -266 -381 -266q-11 0 -11 2v2q0 6 -8 6 q-364 -239 -413 -239q-11 0 -11 2l2 2q0 6 -10 6q-25 -14 -74 -45q-74 -47 -106 -47q-5 0 -45 18q-43 19 -68 19q-10 23 -10 59q0 52 66 109q65 56 65 57q6 26 29 64q38 55 39 57q13 24 73 203q44 127 111 182l-2 10q11 47 16 117q66 90 117 219q21 54 88 233q36 87 115 154 q-9 9 -27 6q14 98 35 187q-8 14 -23 14q-62 0 -163 -39q-111 -44 -164 -51q0 -49 -56 -99q-53 -50 -53 -55q0 -28 15 -71q18 -49 41 -56q-2 -3 -5.5 -10.5t-5.5 -11.5t-7 -7.5t-11 -3.5q-7 0 -51 29q-55 36 -56 37q-3 16 -49 59q-37 34 -37 97q0 47 172 135q166 84 215 84 q5 0 24 -9.5t24 -9.5l12 17l-4 8q37 16 84 29q61 20 86 20q7 0 17.5 -9t17.5 -9q8 0 14.5 9t13.5 9t25.5 -9t25.5 -9q326 0 562 -66q356 -105 356 -352q0 -54 -25 -76q1 7 2 -4v-39q0 -16 -53 -111q-55 -98 -65 -112q-13 -23 -52 -37v-39h148q36 0 106 6q74 6 109 6z M1532 1217q0 131 -150 210q-46 24 -139 58q-104 39 -139 39q-11 0 -50.5 -5.5t-52.5 -5.5q-10 0 -39 12t-34 13q-58 -3 -144 2q-3 -71 -63 -182q-55 -102 -96 -172q-57 -142 -222 -494q-11 -66 -34 -127q-36 -87 -66 -110v-11q0 -13 -11 -50t-11 -48q0 -9 5 -15.5t5 -8.5h43 q30 61 43 61q10 3 10 -2v-2q0 -7 8 -4q61 45 178 117q209 104 246 104q5 0 17 -5t20 -5q21 0 43 14q20 23 156 78q137 55 172 55q8 0 22 -9t21 -9t32.5 9t32.5 9q83 141 131 225q66 117 66 259zM1190 631h-43v-25h33q0 8 10 25zM1116 532l2 28v38q0 2 -4 14q-80 -9 -215 -49 q-6 -2 -35 -28q-30 -23 -33 -23q-5 0 -17 5t-17 5q-21 0 -254 -139q-228 -138 -260 -170q-32 -37 -58 -107q-42 -111 -45 -116q130 50 504 233v8q0 24 61 58q21 11 42.5 22t30 15.5t9.5 5.5q41 44 123 114q29 6 82 33q37 29 84 53z" />
<glyph unicode="E" horiz-adv-x="1095" d="M1587 1552l-26 -22q-6 14 -27 14l-88 -13l-21 -3q-163 -21 -260 -21q-39 0 -63 4q-4 0 -17.5 7.5t-17.5 7.5q-8 0 -35 -8.5t-35 -8.5q-3 0 -12 1.5t-27.5 4.5t-35.5 5q22 25 22 41q0 4 -2 10l-22 -21q-47 -3 -64 -8q-31 -8 -53 -33h-19q-121 3 -209 -110 q-48 -74 -137 -211q-21 -31 -71 -146q-54 -123 -54 -143q0 -12 13 -22q138 21 262 24q108 4 248 14l-7 -43q-4 -1 -16 -2t-27 -3t-30 -5q-44 -8 -76 -8q-45 0 -193 -43q-155 -44 -215 -51q-22 -26 -39 -54t-30.5 -64t-20.5 -56t-20 -66.5t-17 -60.5q-34 -21 -34 -80 q0 -21 6 -64q15 -145 41 -190q46 -76 174 -76q186 0 545 184q362 184 464 334l9 -10q-15 -35 -27 -72q-17 -38 -45 -63q-331 -284 -500 -379q-60 -31 -123 -31q-138 -78 -301 -78q-122 0 -211 127q-82 113 -82 242q0 98 39 258q17 77 23 113l-4 8q-15 0 -62 -20 q-52 -19 -67 -19q-24 0 -45 55q-21 46 -21 74q116 33 285 94q17 7 37 49q23 45 45 48v10q0 50 22 108q51 15 64 58q6 43 12 84q34 6 64 67l43 92l36 -6q12 24 39 39q-3 33 -18 98q-112 -92 -379 -92q-64 0 -76 41q-17 57 -30 66l4 33q284 19 534 38q12 20 17 48q2 12 5 25.5 t4 19t1 6.5q20 -39 86 -105l407 13q41 0 56 -15v-2q0 -7 6 -16q3 2 26 31q12 0 29.5 -1t44 -2t45.5 -2q72 -8 254 -47zM354 1057l15 22l-13 6l-14 -20z" />
<glyph unicode="F" horiz-adv-x="1150" d="M1804 1714q0 -37 -65 -96q-63 -57 -103 -57h-65v41q0 14 14 34q6 8 11.5 15.5t8 11t3.5 4.5q-3 3 -185 12q-68 3 -63 7l-664 -146q-4 -12 -4 -18q0 -12 13 -49q2 2 6 2q2 -2 4 -4.5t5 -7l5 -7.5q-52 -45 -109 -151q-16 -29 -45.5 -86.5t-44.5 -85.5q-18 -42 -34 -93 q-19 -65 -31 -94q-3 -12 -43 -49q-25 -25 -25 -88q0 -14 13 -14q20 0 108 39q86 38 109 38q7 0 13 -5t13 -5q10 0 101 39q99 42 133 45q111 12 235 12q49 0 49 -18q-2 -6 -8 -12q-33 -11 -217 -58q-69 -15 -262 -82q-140 -51 -174 -51q-8 0 -22 -10t-19 -10q-7 0 -11.5 5 t-11.5 5q-6 0 -34 -22q-4 -3 -11.5 -9t-13.5 -11t-10 -9q-51 -36 -78 -103l-37 -122q-5 -15 -16.5 -45t-16.5 -46q-18 -52 -18 -94q0 -16 3 -71t3 -70q0 -268 -121 -268q-32 0 -59 67q0 37 28 129q27 87 54 111q0 4 -9.5 24t-9.5 27q0 26 25 135q27 106 39 131q54 86 61 97 l-12 14q-23 -29 -45 -29q-8 0 -13 4t-10 4q-8 0 -22.5 -19.5t-22.5 -19.5q-9 4 -27 4.5t-30.5 6.5t-20.5 26q-20 33 -20 35v35q10 4 111 40t176 64q-12 15 -27 15q17 44 59 114q17 27 64 113q7 19 31 148q15 86 86 124q1 6 6.5 43.5t9 51.5t12.5 38.5t21 39.5v34v2 q0 7 -15 7q-47 0 -180 -89q-124 -83 -166 -131q9 -9 45 -6q-63 -63 -63 -84q0 -23 45 -114q1 -6 -5 -9.5t-18 -3.5q-57 0 -137 51q-92 56 -92 105q0 104 389 291q75 37 84 37q8 0 8 -2v-2q0 -8 9 -5q145 86 184 86q7 0 12 -5t10 -5q40 37 72 45q390 129 1008 129 q67 0 67 -47z" />
<glyph unicode="G" horiz-adv-x="1751" d="M1982 799l7 -15q-154 -34 -209 -34q-7 0 -12.5 5t-12.5 5q-36 0 -340 -90q-22 -52 -43 -103q-11 -7 -80 -82q-41 3 -57 -45q-3 -12 -10.5 -33t-10.5 -32q-31 -18 -92 -88q-54 -115 -182 -480q-137 -390 -137 -460q0 -48 31 -90q16 -21 30 -40.5t20 -28t7 -9.5 q-14 -73 -33 -232l-19.5 -19.5t-21 -20t-19.5 -14t-26 -12t-29 -3.5q-11 0 -34 -13q-18 11 -37 48q-19 43 -19 57q10 45 33 137q-22 39 -22 80q0 60 73 307q70 238 105 299q-23 26 -23 55q0 38 37 105q49 87 55 106q-21 10 -37 47q-56 -38 -223 -122q-192 -97 -209 -97 q-16 0 -65 -5t-62 -5q-8 0 -34.5 15.5t-34.5 15.5q-7 0 -14 -10.5t-15 -10.5q-74 0 -145 103q-64 94 -64 176q0 56 78 209q66 130 125 192q28 28 82 37q57 9 72 33q-12 5 -50 18q15 20 60.5 77t73.5 93q61 65 309 289q266 242 286 242q8 0 10 -4.5t9 -5.5q6 6 6 16 q0 18 -8 31q52 19 90 45q40 51 68 51q6 0 34 -4q10 10 7 47q1 1 170 94q99 57 182 57q91 0 133 -45q-40 -58 -43 -102q-77 -47 -176 -131q-125 -104 -172 -137h-35q27 46 70 151q-21 27 -56 27q-11 0 -102 -66q-86 -63 -101 -63q-12 0 -12 2q2 0 2 2q0 6 -10 6q-7 0 -86 -98 q-78 -97 -145 -94l-15 -15q-14 -15 -44.5 -47t-70.5 -73.5t-102 -105t-129 -132.5q-237 -243 -307 -395q-25 -14 -64 -93q0 -95 46 -186q55 -113 137 -113q91 0 403 160q37 23 101 51q27 72 118 90q46 66 178 271q-8 5 -45 14q-42 10 -49 10q-24 0 -147 -147h-35 q-2 7 -66 74q-45 51 -45 80q0 26 215 88q201 57 553 131q123 22 125 22q8 3 11 0l-5 -2q2 -2 11 -2q8 0 82 4q78 4 86 4q123 0 161 -24z" />
<glyph unicode="H" horiz-adv-x="1564" d="M1802 750l23 -48q-8 -3 -117 -32q-74 -21 -119 -21l-20 19q-42 -2 -170 -19q-118 -16 -180 -16q-84 -38 -113 -113q-44 -113 -64 -133q-18 -97 -86 -287q-70 -196 -84 -288q-4 -20 -20 -72q-16 -46 -16 -74q0 -16 26 -55v-14q3 -42 -37 -91q-39 -51 -77 -51l-54 4 q-1 1 -3.5 6t-7.5 16.5t-11 22.5q-15 30 -15 45q0 62 76 254q2 8 35 131q10 30 152 351q120 270 120 311q0 21 -22 37q-24 -17 -68 -17q-9 0 -39.5 8.5t-38.5 8.5q-40 0 -104 -12q-60 -12 -102 -17q-63 -8 -158 -8q-8 0 -29 4t-28 4q-51 0 -156 -254q-122 -303 -139 -323 q2 -6 2 -17q0 -45 -35 -155q-40 -119 -74 -119q-18 0 -42.5 16t-24.5 29q0 43 51 162q52 119 84 151q9 77 43 160q40 112 88 137q-3 27 -35 21q0 8 51 59l-16 6q0 18 26 92q-209 -24 -223 -30q-115 -41 -127 -172q-39 17 -94 55q-13 15 -31 49t-18 47q0 65 121 100 q93 26 239 39q144 12 162 23q58 27 49 88q2 2 88 172q55 107 105 154q-3 122 51 204q24 15 68 56q-2 4 -2 18q0 38 20 75.5t49 43.5q-6 18 -6 33q0 71 96 71q82 0 82 -30q-205 -413 -291 -463l17 -8q-21 -64 -68 -160q-9 -26 -69 -103q-46 -61 -46 -116q0 -17 17 -27h252 q43 0 106 8q86 11 105 11q82 0 153 -11q43 73 133 277q55 199 113 205q6 6 6 10q0 12 -4 15t-4 14q0 10 3 20.5t6.5 18t11.5 19t12 16.5t14.5 17.5t13.5 16.5q1 9 7.5 24t14 27t16.5 26.5t10 16.5q6 29 41 137q17 19 55 74q18 77 33 131q21 76 92 76q13 0 47 -18 q23 -10 41 -19q0 -33 -17 -166q-5 0 -57 -14q-101 -156 -160 -252q-115 -179 -112 -254h-29q-22 -48 -152 -346v-25q50 -16 78 -16q67 0 199 12q143 13 199 13q75 0 112 -2z" />
<glyph unicode="I" horiz-adv-x="2004" d="M891 1237q-18 6 -49 6q-27 0 -54 -6q33 23 52 23zM2349 1767q0 -54 -106 -106q-90 -44 -160 -53q-9 -12 -78 -43q-52 -27 -49 -54q-95 -61 -164 -227q-83 -192 -141 -250q12 -24 12 -45q0 -30 -27 -76q-31 -54 -34 -75q-12 -62 -54 -176q-53 -139 -88 -142q-2 -2 -2 -10 q0 -4 6 -20t6 -21q-21 -18 -81 -154q-48 -110 -113 -145q-4 -21 -14 -43q-1 -1 -8.5 -7.5t-26.5 -22t-39 -31.5q-212 -179 -301 -179q-9 0 -42 -4t-42 -4h-94q-7 0 -15.5 17.5t-15.5 17.5q-5 0 -14.5 -5t-14.5 -5q-8 0 -30.5 17.5t-30.5 17.5q-4 0 -11 -4.5t-14 -4.5 q-13 0 -47 27q-36 25 -47 25q-8 0 -11 -2.5t-5 -2.5q14 0 14 31h-29q-14 -2 -28 -2q-9 0 -68 41q-62 43 -72 47q-3 26 6 35q-47 29 -104 107q-40 54 -88 124q2 10 2 33q0 15 -2 66.5t-2 68.5q0 13 -17.5 36.5t-17.5 31.5q0 9 10.5 22t10.5 15q0 -16 10 -39q10 5 27 22t20 19 q-42 39 -86 74v43q0 34 43 61l-19 16q11 11 52 43q-7 11 -21 19h23q21 162 188 268q156 98 322 101q-9 -18 -21 -41q-34 3 -102 24q-9 -15 -6 -49h-9q-87 0 -270 -154q-3 -82 -55 -125q-49 -43 -49 -110v-213q1 -3 5.5 -24t7 -28t8 -22.5t13 -26.5t17.5 -20q-8 -8 -8 -27 q0 -18 18 -65q20 -51 17 -76q52 -28 106 -110q0 -25 18 -74q28 -6 127 -31q31 -12 99 -63q58 -43 119 -43q18 0 81 -4.5t80 -4.5q83 0 242 111q155 112 199 184q22 41 39 70q28 48 47 51q2 15 26 68l25 47q0 4 -3 17.5t-3 17.5q0 7 26 49q29 47 31 55q9 26 43 125.5 t59 173.5q35 104 76 145q24 212 148 392q-6 3 -15 39l-32 6q-15 0 -78 -17q-52 -18 -82 -22q-94 -12 -154 -12q-17 0 -71.5 7t-69.5 7q-33 -1 -43 -12q-15 0 -76 24l-24 -16q-3 11 -17 24q-12 -3 -12 -32l-55 8q-10 0 -48 -56q21 -24 39 -67l29 -72h-6q-39 0 -180 84 q-126 74 -187 111v57q5 8 43 23q40 15 49 12l572 -25q106 -3 250 17q240 37 248 37q42 53 75 90q45 51 88 73q148 74 197 74q30 0 80 -24q51 -20 51 -50zM772 1264q-41 -15 -55 -15q-15 5 -39 27q43 -3 94 -12z" />
<glyph unicode="J" horiz-adv-x="1794" d="M2298 1686q0 -24 -45 -66q-46 -43 -68 -43q-8 0 -12.5 5t-11.5 5q-22 0 -52 -55q-10 -1 -49.5 -17t-52.5 -16q-7 0 -14.5 4t-14.5 4q-9 0 -40 -24.5t-40 -24.5q-7 0 -12 5t-12 5q-46 0 -135 -133q-79 -115 -105 -182q-24 21 -59 21q-7 0 -53 -27v-8q2 -20 -31 -78l14 -17 q27 21 86 80q-21 -44 -57.5 -124.5t-42.5 -94.5q-71 -148 -117 -200v-15q3 -117 -121 -223q0 -5 10.5 -19.5t10.5 -21.5q0 -24 -21 -68q-7 -1 -15 7.5t-19 29.5q-35 -15 -35 -69q0 -12 2 -46t2 -42q0 -52 -19 -88v10q0 16 -10 39l-137 -138q6 47 31 115q7 19 22.5 56 t22.5 55q41 112 59 176q4 0 33 -29q13 32 45 68v35q-6 6 -21 6q-18 0 -26 -8q6 12 23.5 50t54 117.5t71.5 155.5q17 -10 80 -10q43 0 43 45q0 47 -47 65q0 8 12.5 34t12.5 34q0 45 -25 76h70q10 56 20 100q12 -4 19 -4q5 0 21.5 2t21.5 2q44 190 84 187q-3 6 -12 22 t-13.5 23.5t-14 20t-17 18.5t-19 11t-23.5 5q-8 0 -27.5 -19.5t-27.5 -19.5q-7 0 -12.5 9t-12.5 9t-18.5 -9t-19.5 -9q-9 0 -47.5 19.5t-47.5 19.5q-6 0 -28 -16t-27 -23q-65 8 -258 8q-8 0 -29.5 15.5t-29.5 15.5q-13 0 -53 -15.5t-52 -15.5q-7 0 -24.5 10.5t-24.5 10.5 q-15 0 -86 -41q-16 -9 -45.5 -27t-44.5 -27q41 -78 176 -247q-20 -3 -27 8l-12 -17l29 -26l-10 -55h-37q-2 5 -23 40q-16 26 -16 48h-6q-41 0 -166 116q-125 119 -125 154q0 197 276 197q18 0 77 -2.5t75 -2.5q8 0 15.5 -15t15.5 -15q3 0 28 15t39 15q25 0 100 -10 q60 -8 101 -8q15 0 121 4q110 4 120 4q8 0 40 -15.5t40 -15.5q68 0 117 11q3 1 31 12q16 8 28 8q8 0 30 -15.5t30 -15.5q78 0 121 58l86 117q33 6 100 49t96 43t111 -58q82 -55 82 -79zM-393 823l4 -14l-29 -12v14zM-676 737q-69 -54 -104 -51h-2q15 21 51 49q10 -2 55 2z M-803 668q-25 -8 -84 -45q-22 22 -22 36q13 0 54 4.5t52 4.5zM1135 70q-35 -127 -58 -127q-11 0 -16 6t-6 6q-18 -67 -88 -229t-88 -234q-5 0 -26 4t-28 4q-38 0 -41 -39q-9 -51 -32 -65l8 -35q12 12 51 39q-38 -59 -82 -127q-42 -52 -51 -64q-31 -46 -35 -71h-14 q-14 0 -31 -17q2 -2 2 -6q0 -31 -70 -104q-69 -79 -104 -98q-48 -28 -57 -37q-28 -22 -43 -56q-11 11 -35 11q-36 0 -45 -33q-9 -35 -21 -35q-7 0 -11.5 4t-12.5 4q-26 0 -41 -37q-16 20 -33 37q-69 -69 -160 -69h-47q-23 2 -59 2q-9 0 -47 -21q-39 -20 -52 -20q-9 0 -14 13 t-6 13q-58 11 -137 19q1 12 -14 23.5t-29 11.5q-7 0 -15 -5.5t-16 -5.5q-18 0 -143 58q-124 57 -150 73q-21 15 -59 56q-44 47 -35 63q-97 45 -186 189q-9 18 -134 239q8 -8 25 -8q6 0 14 4q-26 26 -47 64q-30 46 -30 67q0 4 3 17.5t3 17.5l-2 10q-12 4 -33 19q-1 4 -4 15 l-9 33t-12 42q-16 62 -16 90q0 9 19 28.5t20 20.5q-60 82 -60 137q9 29 23 86q18 77 18 154v39q9 0 17 2h16q23 0 127 174q7 13 76 59q-5 3 -22 15.5t-27 19.5v45q17 3 20 21q14 0 33 -19q21 13 57 49q24 -14 66 -22q-71 -47 -113 -121q-9 -12 -98 -145q-58 -91 -55 -162 q-9 -6 -9 -68q0 -23 7 -307h-9q-20 3 -39 -16q27 -34 60 -37q-10 -16 -29 -41q30 -17 51 -109l29 -127q16 -41 92 -162q97 -154 105 -169q56 -37 176 -130q82 -64 172 -126l18 20q266 -78 316 -78q12 0 114 4q98 4 113 4q18 0 18 25q94 31 195 57q50 77 125 111 q11 5 21.5 12.5t21.5 19t17 18t18.5 22.5t15.5 20q39 26 111 98l45 76q30 52 53 62q7 26 51 88q45 62 45 86l-4 12q4 0 17 -3t18 -3q37 0 37 45q0 30 -33 33q22 8 72 18q10 10 14 18q0 2 -8 10t-8 17q0 82 84 160q1 5 4.5 24.5t5.5 27t7 22.5t10.5 22t14.5 14t21 9 q-3 5 -14 20t-17 25q0 26 31 26q6 0 11.5 4.5t8 9.5t5.5 10l2 5q0 -2 37 -39q35 32 82 68zM-86 -1325v-16l-45 12v16zM1384 797l29 12l-6 14l-23 -12v-14z" />
<glyph unicode="K" horiz-adv-x="2215" d="M2320 1622q0 -26 -53 -100t-74 -74q-60 0 -100 -37q-101 -106 -371 -360q-17 -20 -96 -84h-31q-47 0 -59 -60q-63 -29 -102 -96q-97 -22 -170 -123q-67 -37 -269 -141q15 -143 224 -328q167 -148 346 -235q66 -30 194 -72q161 -53 193 -53q11 0 50 2t52 2q120 0 176 -39 q1 1 5.5 4t14 9t19.5 13l17 -22q-28 -9 -37 -47q-56 16 -95 16q-41 0 -139 -16q-97 -19 -137 -19q-20 0 -78 23q-51 21 -65 41q-13 -3 -13 -19q-76 45 -118 68q-58 16 -193 66q-28 17 -82 71q-52 49 -96 43l18 19q-35 21 -114 51q2 2 26 20q-45 25 -121 86q-23 28 -71 84.5 t-72 83.5q-115 127 -154 127q-59 0 -112 -215q-32 -14 -70 -145l-28 18q-8 -8 -23 -8q0 -40 10 -57q-28 -22 -73 -90q-34 -92 -177 -217q-148 -127 -241 -127q-17 0 -76 -5.5t-76 -5.5q-108 0 -135 37q-36 -8 -33 -10q-15 0 -28 25q-70 3 -166 84q-12 9 -142 133q-1 6 3.5 9 t13.5 3v55q-53 17 -78 17q-6 32 -76 204q-57 134 -57 199q0 46 20 119q24 92 54 92q7 0 13 -5t11 -5l-4 24v-4q0 2 4 6q9 21 74 86q64 64 82 64q7 0 15 -4t14 -9t8 -6l12 17l-6 8q130 37 188 37q8 0 14 -8t13 -8q13 0 47 34q-4 -12 -4 -18q0 -17 6 -41q-65 -25 -162 -31 l-8 -8l-7.5 -7.5t-8 -7.5t-8.5 -7t-8.5 -6t-8.5 -5t-9 -3.5t-10 -1.5t-10 1q-21 -34 -86 -84q-64 -47 -67 -49q-45 -96 -45 -197q0 -206 184 -405q183 -201 385 -201q88 0 215 39q24 7 109 92q29 16 82 54q47 52 139 145q-17 31 -17 57q13 0 21 -8q22 13 43 76q21 55 39 55 q19 0 22 -8l15 14q-11 25 -54 33q29 6 80 21q-5 8 -16 45q11 -11 35 -19l24 76q-12 6 -35 29q29 0 56 65q12 25 22.5 47.5t15 33t5.5 11.5l-10 17q62 106 194 360q14 36 72 103q56 69 71 108q24 62 136 201q0 26 -50 29q27 -2 -13 -3h-56q-8 0 -35 10.5t-35 10.5 q-12 0 -52.5 -8t-53.5 -8q-69 0 -176 8t-179 8q-8 0 -69 -18q-60 -15 -66 -21q-2 -2 -2 -4l4 -16l-67 -25q-37 -18 -37 -55q0 -38 76 -129q70 -83 108 -113q-26 -57 -61 -57q-25 0 -49 24l-43 43l-74 43q-51 34 -60 54q-1 3 -6.5 13t-18.5 34.5t-26 48.5q-30 53 -30 94 q0 117 161 166q103 33 260 33q11 0 11 -7q-2 0 -2 -2q0 -10 8 -10q12 0 53 5t53 5q23 0 72 -22q51 -23 63 -23q9 0 42 9.5t42 9.5q7 0 28.5 -13.5t29.5 -13.5q7 0 15.5 8.5t15.5 8.5t41.5 -12.5t46.5 -12.5q54 0 307 55q31 6 56 12t35 8.5t9 2.5q7 0 49 -25q46 -28 51 -33 q-11 -4 -26 -53q-15 -47 -57 -47q-9 0 -9 2v2q0 4 -8 4q-18 0 -78 -45q-66 -49 -78 -61q-152 -165 -301 -434q-8 -21 -63 -95q-39 -53 -51 -100q-13 -5 -39 -31q41 -41 61 -41q19 0 121 31q80 23 119 41q14 11 55 57q35 6 144 80q130 86 159 97q-3 14 -18 14q51 22 119 78 q68 57 84 102h12q54 -3 63 6l45 45q0 8 -26 25q33 6 80 74q46 66 100 88q2 -2 14.5 -17t20.5 -26q22 58 43 143l110 117q87 90 115 90q32 0 64 -25t32 -55zM-70 872q-15 -30 -34 -30q-47 0 -138 39q8 4 17 4q19 0 32 -8q6 10 37 34q33 -42 86 -39z" />
<glyph unicode="L" horiz-adv-x="1130" d="M975 360q-10 0 -10 2v3q0 6 -9 6q-12 0 -65 -39q-18 -13 -35.5 -26t-25 -18.5t-9.5 -6.5q-5 -2 -42 -19t-101 -45.5t-137 -60.5q-160 -66 -269 -166q-76 -70 -231 -150q-24 1 -51 34.5t-27 59.5q0 5 80 150q7 15 45 37q3 56 55 129q82 116 82 119q10 48 43 127 q5 5 27.5 26t40.5 39q3 3 33 86q21 62 63 62q4 8 4 12t-3 19t-3 20q0 11 43 90q42 77 39 123q60 9 82 41q-15 15 -37 18q32 19 41 60l6 73h31q9 9 12 47q3 27 35 27l16 -10q4 16 4 18q0 19 -24 31v41q48 86 74 164q18 79 22 102q18 57 76 57q36 0 74 -18q45 -20 45 -55 q0 -49 -58 -131q-58 -79 -104 -113v-10q0 -19 -27 -68t-24 -67q-5 -9 -36 -35.5t-38 -38.5q4 -20 4 -33q0 -38 -184 -397q-154 -293 -228 -422v-51q-2 0 -2 -2q0 -7 15 -4q10 0 141 41q116 36 150 51q217 105 456 211q57 28 230 92l53 12l-27 -41q-12 -21 -155 -112 q-145 -91 -160 -91z" />
<glyph unicode="M" horiz-adv-x="2209" d="M2392 434h37q-17 -24 -41 -37q-37 -16 -45 -24q-21 -68 -98 -148l-66 -63t-65 -64q-103 -103 -142 -129q-84 -63 -172 -63q-116 0 -198 102q-78 96 -78 215q0 9 9.5 40t10.5 36q-8 21 -8 53q0 78 51 170q61 113 70 154q18 3 45 37q24 30 45 41q-12 12 -23 12 q3 96 191 364q0 16 -12 25q-143 -134 -490 -481q-27 -21 -88 -92q-18 -29 -55 -74q-21 -11 -60 -55q-64 -91 -168 -254v-15q0 -23 -36 -65q-51 -57 -54 -64q-20 -20 -43 -20q-5 0 -14 12t-16 12q-5 0 -9.5 -4t-9.5 -4q-13 0 -24 19t-11 34q0 33 72 134q88 121 96 139 q15 9 21 53q10 58 22 70l29 12l86 141q60 105 63 140q9 17 29 49t29 49q29 57 26 108q80 133 80 138q0 13 -12 34q-1 -1 -25 -23t-88.5 -80t-130.5 -118q-156 -143 -252 -211q-7 -5 -4 -26q-96 -97 -293 -275q-39 -22 -139 -102q0 -15 -10 -45q-8 -12 -51 -45t-51 -47 q-40 -74 -177 -291q3 -133 -120 -133q-66 0 -66 73q0 65 66 162q58 82 125 131q11 26 114 176q74 109 80 193q23 10 47 84q22 67 76 70v8q0 8 -16 8q-17 0 -23 -6q20 46 43 119q3 32 37 61q9 31 31 53v6q0 3 14.5 27t15.5 29q7 45 21 121q25 22 67 61q-16 22 -16 37 q0 13 19 41.5t20 36.5q-11 6 -41 16q-34 12 -43 12q-12 0 -68 -24q-61 -23 -67 -23q-5 0 -22.5 4t-22.5 4q-14 0 -121 -61q-111 -63 -121 -76q-31 -36 -31 -92q0 -28 15 -43q-35 -49 -72 -49t-72 47q-32 43 -32 86q0 55 57 115q57 57 106 78q149 67 254 77q209 15 361 74 q23 8 74 45q33 23 100 23q20 0 84 -49q-20 -36 -33 -89q-25 4 -23 6q0 1 3 1q-12 0 -88 -54q-76 -58 -89 -69q-9 -12 -53 -60q-23 -101 -98 -254q-114 -228 -123 -243q-21 -9 -63 -37q0 -4 22 -13q12 -6 12 -18t-12 -12l-18 8l-1 -2q0 -2 -1 -7.5t-2 -12.5t-3 -18.5 t-4 -22.5t-4.5 -28.5t-5.5 -33.5q4 -4 10 -4q36 0 52 12.5t12 36.5q2 1 59 45q47 35 56 35q5 0 17 -4t17 -4q5 5 5 12q0 13 -13 23l4 8l4.5 9t5.5 6t9 3q8 0 8 -2v-2q0 -4 8 -4q58 64 103 135q12 6 53 31q14 5 49 14q37 12 37 25q0 15 -8 28q39 9 79 72q43 64 58 64 q7 0 11 -7.5t9 -7.5q28 0 25 37l16 -6q49 46 154 180q13 19 16 19q12 -2 37 -8q0 24 16 67q44 47 80 47q8 0 13 -4t6 -4q94 154 96 156q71 86 152 86q9 0 63 -60q-5 -24 -35 -86q-21 -27 -92 -80q-52 -40 -86 -104q-100 -198 -276 -565l10 -13q6 3 133 142q110 119 121 119 q5 0 7 -4t7 -5q4 8 4 13q0 10 -6 16q21 3 62 47q39 45 63 45q14 0 23 -6v12q0 9 -11 31q45 35 80 66q16 15 129 116q24 28 68 76q47 53 80 53q19 0 22 -8q12 9 15 35q37 37 69 72q63 69 86 69q30 0 59 -24t29 -52q0 -7 -12.5 -44t-13.5 -44q-65 -50 -181 -157 q-5 -10 -51 -88q-43 -51 -94 -125q-21 -36 -63.5 -107.5t-63.5 -107.5q-76 -139 -100 -230q-15 -63 -31 -63q-4 0 -9 2l-5 2q-5 0 -7 -2l3 -6l-12 -49q-2 -6 -3 -13q-1 -14 -3 -41t-3 -41q-3 -49 -35 -65q26 -151 47 -191q43 -73 168 -73q29 0 109 57q87 59 84 80 q11 11 39 8q-3 25 53 66q13 9 38.5 26.5t39.5 26.5q25 30 45 55q48 35 63 47q19 6 76 41zM1702 1038l22 11l-4 10l-18 -10v-11z" />
<glyph unicode="N" horiz-adv-x="1536" d="M1974 381q-23 -41 -164 -191q-2 -5 15 -22q-47 -22 -127 -92q-97 -84 -125 -101q-34 -19 -130.5 -69.5t-154.5 -81.5q-9 0 -44 -9.5t-44 -9.5q-5 0 -14.5 4.5t-14.5 4.5q-7 0 -25.5 -12.5t-25.5 -12.5q-25 0 -80 25q-50 24 -57 24t-11 -4t-9 -4q-14 0 -115 84 q-107 91 -107 266q0 40 35 180q35 139 53 183l12 26t9.5 21t5.5 12q18 28 41 49q-6 9 -6 25q0 36 41 104q42 64 45 99q8 6 19 15.5t28 24t31 25.5v12q0 9 2 37.5t2 36.5h43q7 9 10 55q3 47 21 68l-13 12q-8 -14 -65 -20q-5 -5 -11 -27q-34 -9 -92 -67q-61 -58 -121 -72 q-9 -52 -129 -160q-28 -23 -83.5 -71t-83.5 -72l-7 -33q-36 -26 -108 -133q-100 -149 -103 -152q0 -43 -36 -96q-34 -54 -74 -69q16 -10 16 -25q0 -7 -55 -111q-56 -106 -64 -114q-27 -37 -75 -37q-31 0 -55.5 20t-24.5 49q0 21 59 121q60 99 80 109q16 38 31 112 q41 25 51 56l18 73q61 54 109 154q44 89 57 180q-3 -15 6 -24q31 43 52 100q38 98 41 105q28 6 49 59q17 59 26 82q28 9 37 63q13 57 19 76q6 9 43 49q30 34 30 45q0 31 -14 56q-123 -60 -493 -273v-10q3 -25 -21 -64q-7 -9 -20.5 -27.5t-20.5 -27.5q-34 17 -68 17 q-14 0 -28 36q-19 40 -19 52q0 45 193 174q184 123 225 123q8 0 8 -2v-3q0 -4 9 -4q8 0 21.5 18.5t14.5 18.5q55 41 353 154q7 -5 20.5 -14.5t20.5 -14.5q28 -22 28 -33q0 -45 -63 -153l-92 -154q-1 -2 -31 -69q-8 -8 -35 -27q-22 -89 -153 -305l12 -15q42 20 237 203 q181 166 205 166q8 0 14.5 -4.5t8.5 -5.5q15 40 133 127q18 18 182 170q23 20 57 20q9 0 41 -8t41 -8q19 -10 19 -25q0 -84 -99 -213q-146 -199 -147 -200q-44 -72 -160 -291q-29 -15 -49 -31q-19 -16 -22 -49l14 8l20 -10q-30 -33 -84 -213q-49 -174 -49 -236 q0 -290 305 -290q41 0 115 26q65 22 107 49q13 9 48.5 34t74 51.5t77.5 52.5q29 0 76 20q58 49 160 154q54 8 145 96z" />
<glyph unicode="O" horiz-adv-x="1654" d="M1718 930l31 -45h-80q-47 0 -139 24q-92 27 -141 27q-28 0 -41 -8q3 -32 -43 -105q-45 -71 -45 -90q0 -6 2 -8q-33 -33 -134 -195q-81 -130 -157 -170q-7 -28 -47 -90q-9 -9 -60 -39q-45 -26 -45 -47q-181 -141 -227 -168q-137 -82 -266 -82q-100 0 -185 58 q-92 65 -104 158q-49 21 -49 147q0 35 20 96q23 71 23 101q0 23 -8 34q20 15 34 27q-3 14 -26 14q9 19 28 31q27 15 31 23q-11 14 -24 14q9 14 88 166q54 101 102 155q8 10 45 56t57 71l56 66q82 103 116 137q21 12 76 45l-6 27q21 14 58 40.5t42 29.5q75 54 91 77 q23 8 73 68q37 43 103 43q46 0 104 -10q4 -1 27 -21t32 -20t9 4q0 6 8 6q190 -91 190 -182q44 3 54 -21q8 -11 8 -55t24 -53q0 -8 -24 -29q20 -26 20 -109q0 -48 -12 -86l154 -67q84 -39 157 -45zM1321 1143v133q-26 -3 -57 63t-74 66q-45 12 -96 -2q-53 -12 -62 -111 q-21 -70 109 -151l162 -82l2 35q-2 4 -2 12q0 19 18 37zM1253 973q-319 130 -346 309q0 17 2 25q-1 1 -16 10q-6 3 -6 16q0 7 24 78q-13 0 -42.5 -11t-32.5 -11q-11 0 -11 2l2 2q0 4 -10 4q-23 0 -117 -82q-116 -98 -127 -103q-57 -89 -137 -163q-3 -21 -39 -60 q-35 -38 -55 -41q-11 -18 -27 -26q-3 -40 -51 -113q-31 -47 -69 -111q-7 -12 -23 -106q-9 -62 -55 -96v-267q0 -48 69 -120q72 -72 119 -72q4 0 19 4t20 4q96 0 358 188q3 -3 3 -8q0 -7 -3.5 -9t-3.5 -9q0 -6 2 -8q12 9 39 18q0 3 -24 21q2 6 14 18q10 3 29 16q31 31 47 45 q34 30 53 27q194 281 229 334q9 -6 17 -6h4q-10 10 -10 22q0 18 30 45q34 27 37 35q21 41 39 90q25 79 49 109z" />
<glyph unicode="P" horiz-adv-x="1544" d="M1642 719l13 -21l-344 -14q-18 -22 -26 -26.5t-28 -4.5q-50 4 -57 4t-19.5 12.5t-19.5 12.5q-3 0 -31 -16q-8 -8 -22 -15q-8 -5 -83 -19.5t-83 -19.5q-87 -54 -168 -96.5t-92 -42.5q-8 0 -8 2v2q0 4 -8 4q-175 -94 -322 -137q-35 -46 -70.5 -147t-61 -189t-36.5 -102 q-28 -16 -121 -37q-37 52 -37 80q105 201 121 217q-2 2 -2 8t30 55t30 62q-11 14 -27 14q-7 0 -30.5 -16.5t-30.5 -16.5q-14 0 -82.5 -5t-85.5 -5q-72 0 -72 98q0 20 56.5 66.5t121 84.5t86.5 38q4 0 20.5 -4t20.5 -4q110 41 154 75t69 97q15 47 15 55v4v8q39 46 67.5 116 t28.5 128v16q23 26 51 29q18 64 31 93t31 40q4 38 47 123v23q0 75 41 178l-15 22q-28 -3 -94.5 -10.5t-96.5 -11.5t-84 -12t-84 -18t-67 -24t-62.5 -34t-43.5 -45q2 -4 15 -18t23.5 -34t10.5 -45v-16q-79 52 -234 119q0 35 -16 51q12 44 52 64t182 59q118 33 174 33 q8 0 8 -2q-4 -4 -4 -9q0 -3 8 -6q7 0 10 13.5t10 13.5q9 0 44 -13.5t44 -13.5q5 0 18 13.5t21 13.5q4 0 9 -5t12 -5t12 9t12 9q13 0 57 8t56 8q9 0 78.5 -21.5t77.5 -21.5q56 27 88 27q2 0 57 -20.5t60 -20.5q57 0 81.5 -2t95 -27t175.5 -79l37 -18.5t34.5 -18t29 -17 t27.5 -18.5t21 -20t18 -25.5t12 -29.5t9 -37t2 -44q0 -93 -26 -144.5t-93 -94.5q-3 -3 -24 -47q-3 1 -12 2t-19 3t-20 5q2 -2 2 -13q0 -36 -64 -94t-147 -94q6 -26 22 -29zM1473 1257q0 161 -642 281q0 -67 -80 -233t-133 -207q0 -5 5.5 -20t5.5 -19q-2 0 -2 -2q0 -1 -1 -4 t-1 -4l-21 -45q-24 -54 -35.5 -79.5t-31 -62.5t-34.5 -55.5t-30 -24.5q-12 -61 -24 -133h45q60 0 108 25l19 -17q17 17 41 17q5 0 23.5 -4t23.5 -4q2 0 65.5 23.5t65.5 23.5q53 11 116 14q23 23 33 23q7 0 12 -4.5t9 -4.5q3 0 12 6.5t28 20.5t31 23q51 40 68 51q18 0 18 -6 v-2q9 31 60 53q57 64 166 151v15q-2 4 -2 14q0 6 4 18h-2q0 4 53 13q-10 10 -10 26q0 14 18.5 68t18.5 65zM723 614q-27 -7 -70 -17t-70.5 -16.5t-63.5 -17t-59 -22.5t-45 -28.5t-34.5 -38.5t-15.5 -50q1 1 10 5.5t33.5 16t48.5 23.5q75 37 84 37q5 0 10 -4t10 -4 q137 73 162 116zM268 506q-44 -24 -62 -34.5t-45 -28t-37.5 -28.5t-10.5 -20v-4q52 -18 69 -18q39 0 62.5 39.5t23.5 93.5z" />
<glyph unicode="Q" horiz-adv-x="1492" d="M1620 440q-13 -40 -29 -141q-67 -72 -188 -262q-33 -7 -49 -8q-4 -4 -4 -9q0 -13 14 -24h-4q-8 0 -17 6q-8 -8 -12.5 -24.5t-5.5 -18.5q-3 -8 -68 -43q-60 -34 -69 -72q-3 -3 -25.5 -19t-82 -58.5t-115.5 -83.5q-189 -136 -197 -136q-10 0 -10 2l2 2q0 5 -10 5 q-2 0 -45 -29q-39 -31 -54 -31t-68 -9t-69 -9q-73 0 -162 71q-88 70 -94 140v26q0 17 2 74t2 74q0 52 -45 67q-17 5 -46 17t-42 16q-24 13 -53 62q-26 42 -47 49q-49 110 -49 133q0 29 14 67q15 51 18 68q-14 14 -14 20q0 26 35 82q40 59 61 72q-10 22 -43 31l12 22l9 -16 q12 12 30 47q0 9 -6 12q-3 -3 -13 -16t-13 -16q38 52 104 178l10 -17q86 53 86 136q43 34 58 75q77 36 176 150q25 30 75 90.5t76 89.5l9 -16q46 37 174.5 139.5t199.5 159.5h-2q-7 0 -10 -17q-7 10 -4 23v20q21 -13 37 -24l14 20q-12 15 -26 25q34 49 73 49q15 0 66 -23 q50 -21 61 -24q9 -15 51 -43q51 -36 60 -49q11 -16 16 -45q2 -14 4.5 -29.5t3.5 -22t2 -8.5q17 -17 29 -35q21 -56 21 -139q0 -75 -56 -164q4 -16 4 -24q0 -61 -36 -64q0 -4 18 -22q-50 -101 -135 -234q0 -56 -37 -102q-12 -15 -78 -78q0 -7 10 -14q-8 -4 -41 -60 q-32 -55 -53 -65q-26 -69 -121 -154q-26 -21 -76 -64t-75 -65q-29 -26 -78 -51q-75 -42 -82 -47q-14 -21 -47 -47q-105 -34 -141 -47q-41 -56 -41 -84q0 -7 11 -25t11 -22q0 -17 -2 -29v-31q0 -50 49 -108q51 -60 97 -60q63 0 139 43q22 13 63.5 37.5t63.5 36.5 q97 44 217 141q165 143 199 170q0 -21 14 -24q4 4 4 10q0 13 -8 29q25 17 88 36q8 8 8 19q0 12 -18 12l79 74q65 59 78 59q5 0 21 -4t20 -4q18 48 10 80q36 36 107 143zM1313 1223q0 9 -13 82q-11 62 -16 77q-13 32 -98 41q-64 7 -119 15q-21 -43 -33 -43q-7 0 -13 4t-13 4 q-48 0 -113 -62q-66 -60 -111 -63q-99 -114 -100 -115q-68 -68 -123 -82q-15 -37 -98 -114q-77 -71 -92 -140l-17 9q-19 0 -39 -39q-25 -48 -41 -58v-6q0 -29 -53 -88q-51 -57 -51 -63q0 -5 6 -17q0 -4 -4 -4h-8q-22 0 -45 -10q-1 5 -2 -4v-53q0 -29 18 -50q-59 -59 -59 -71 q0 -8 4.5 -15t9.5 -12l4 -4q5 -17 5 -73.5t5 -73.5q12 -41 68 -97q59 -53 96 -53q63 0 66 61q6 81 33 105v12q0 39 39 78q20 23 61 64q1 2 3 13.5t4 18t7.5 20.5t14 26t23 29.5t34.5 35.5q59 56 94 74q-10 17 -10 30q0 23 23.5 37.5t50.5 14.5q52 0 73 -21q34 -43 47 -61 q-16 -26 -53 -29q-48 -3 -53 -8q-70 -40 -139 -170q-84 -154 -109 -203q-5 -7 -16.5 -21.5t-16.5 -21.5q-24 -34 -24 -45q0 -21 10 -21q6 0 47 21q103 47 232 149q128 102 190 189q16 4 35 4q-6 12 -6 25q0 34 55 86q65 59 78 77q3 32 37 72q42 55 45 68q1 2 8.5 23.5 t13.5 39.5q16 8 54 41q44 36 51 43q-12 4 -17 4q-3 0 -36 -10v47q17 8 26.5 23t12 24t5 35t3.5 31q8 31 28 86q21 61 21 82zM317 -135l11 33h-13l-10 -29z" />
<glyph unicode="R" horiz-adv-x="1908" d="M2114 -287q-49 -49 -86 -49q-5 0 -18 4t-17 4q-24 0 -113 -51q-89 -53 -145 -53q-7 0 -34.5 13t-35.5 13q-7 0 -19.5 -13t-19.5 -13q-188 0 -225 61l-25 -26q-279 134 -389 274l10 35q-9 6 -22 6q-16 0 -47 -8l-6 14q0 3 4 23q-52 21 -52 45l11 10q-3 11 -43 14 q-142 148 -236 228q-171 145 -270 145q-58 0 -78 -51l-18 16q-25 -9 -25 -49q0 -22 6 -31q-14 -25 -14 -41q0 -4 6 -11t6 -11v-55q-6 -2 -53 -25q1 -1 3.5 -4.5t7 -10.5t9.5 -14q15 -15 15 -30v-109q-34 -18 -56 -18q-7 0 -18 8t-18 8q-10 0 -23 -10q-18 -15 -20 -17 q-39 39 -39 76q0 12 22 51q25 48 27 64q28 36 49 117q19 78 47 118q60 281 158 498q3 13 -23 23q29 29 58 65q3 5 26 78q0 5 -6 14t-6 13q27 37 55 53v6q1 6 -1.5 22.5t-2.5 18.5q0 24 45 98q47 80 47 131q0 26 10 43q-9 15 -20 15q-31 0 -174 -58q-143 -55 -168 -55 q-8 -3 -8 2v2q0 4 -8 4q-41 0 -117 -49q-74 -47 -94 -47q-8 0 -31 -8.5t-29 -9.5v-31q0 -6 -10 -25t-10 -28q0 -13 6 -25q-20 -23 -31 -23q-8 0 -12 9.5t-8 9.5q-8 0 -17 -4t-14 -4q-36 0 -94 43q-60 45 -60 78q0 36 115 71q141 33 150 35q70 34 184 80q149 51 207 51 q4 0 17.5 -5t17.5 -5q8 0 27 15.5t20 15.5q15 11 80 34q64 23 77 23q11 0 11 -2l-2 -2q0 -4 10 -4q28 0 49 78q21 77 51 77q38 0 80 -39q41 -38 64 -38q90 0 225 30q27 6 55.5 12t40 8.5t14.5 2.5q7 0 22.5 -9.5t22.5 -9.5q37 0 107 9q78 10 106 10q99 0 273 -49 q213 -56 213 -117q0 -25 -39 -78q-38 -57 -57 -70q-18 -14 -101 -86q-23 -18 -182 -102q-24 -12 -45 -55q-51 -19 -193 -121q-138 -100 -147 -100q-10 0 -10 2q2 0 2 2q0 4 -11 4q-10 0 -65 -43q-11 -9 -34.5 -28t-35.5 -28q-22 -37 -143 -96q-10 -3 -31 -30t-30 -27 q-7 0 -15.5 8t-15.5 8t-19.5 -13t-19.5 -13q-9 0 -19 10q-6 -11 -8 -25q-92 -57 -127 -94l619 -647q8 -8 67 -47q260 -166 402 -166q52 0 131 8t131 8q10 0 80 31t82 31q8 0 25 -13.5t22 -13.5t17 3t14 3zM1686 1458v31q-19 6 -65.5 21.5t-72.5 23.5q-110 35 -125 35 q-7 0 -23.5 -9.5t-23.5 -9.5q-8 0 -23 9.5t-20 9.5q-350 0 -631 -92q-2 -7 -26 -47q-9 9 -29 6l2 -9q3 -62 -55 -178q-61 -126 -115 -135q-24 -30 -41 -113q24 -3 27 -20h-37q18 -15 18 -41q0 -48 -59 -57q-22 -32 -31 -95q-8 -66 -20 -98q-2 -2 -2 -16v-23q2 -10 2 -24 q0 -41 -37 -47v-31q11 -15 31 -29q22 15 76 31q46 12 79 33q42 28 115 92q39 6 115 55q74 51 80 51q10 0 10 -2q-2 0 -2 -2q0 -4 10 -4q28 0 84 53q-2 -8 -3 3l-1 22l6 6q1 0 28.5 10.5t33.5 10.5q10 0 10 -2l-2 -3q0 -4 10 -4q12 0 82 52q65 49 80 65q4 4 27 34t33 39.5 t32 25.5t45 22q43 38 213 166q136 105 195 184z" />
<glyph unicode="S" horiz-adv-x="1492" d="M1690 760l-41 -43q-37 -8 -142 -51q-107 -43 -114 -43q-4 0 -18 4t-19 4q-7 0 -45 -23q-36 -22 -45 -22q-7 0 -14.5 4t-14.5 4t-11.5 -9.5t-11.5 -9.5q-8 0 -13.5 7t-7 13t-1.5 9q-28 -28 -25 -45q-31 8 -102 8h-18q-5 -5 -5 -10q0 -18 7 -25q-27 -7 -115 -34 q-62 -17 -107 -56q0 -22 15 -69q11 8 8 37q0 -17 41 -58v-252q-19 -22 -19 -84q0 -52 -55 -55q2 -14 2 -31q0 -32 -12 -53q-4 0 -19 4t-20 4q-25 0 -31 -41q-6 -49 -16 -59q-20 -17 -74 -45q-56 -29 -80 -29q-33 0 -88 -8q-65 -10 -88 -10q-112 0 -239 65q-144 76 -144 179 q0 7 5 13t11 10l5 3q-2 6 -2 19q0 100 86 227q17 -25 20 -29q47 21 57 36q9 11 9 26q0 8 -4 28q2 -2 10 -2q15 0 18 21q32 25 92 39q63 15 91 39q80 62 167 102q29 13 181 68q0 12 -27 12v22q0 45 18 82q-28 25 -40 107q-1 23 -11 119q0 4 -7 29.5t-7 29.5v268q0 38 20 105 q23 77 23 108q29 64 70 140q9 80 125 165q150 112 169 140q144 39 220 39q229 0 229 -203q0 -74 -182 -268q-181 -193 -250 -193h-82q0 20 -10 33q40 40 243 227q35 28 103 96q4 4 4 13q0 16 -8 32q45 71 45 91q0 51 -74 51q-7 0 -32 -9.5t-33 -9.5q-31 0 -78 29 q-44 -47 -60 -47q-7 0 -14 5t-14 5q-150 -184 -193 -184q-7 0 -11 4t-11 4q-9 0 -27 -27q-3 -6 -12 -18.5t-11 -15.5q-2 -2 -2 -31q0 -34 -16 -60q2 -10 2 -30q0 -168 -86 -209q55 -55 55 -74q0 -47 -37 -74q56 -53 56 -102q0 -8 -6.5 -37t-6.5 -37q0 -22 15 -43l-2 -10 q0 -20 22 -119q5 -66 11 -125q174 64 247 64q14 0 54 -19q4 4 4 11q0 3 -3 13t-3 13q17 0 71 23q50 24 62 24q7 0 13 -9t13 -9q8 0 46 18.5t46 18.5q7 0 13.5 -9.5t13.5 -9.5q2 0 23.5 16t29.5 17q44 15 111 21q80 8 115 10zM791 276q-11 18 -50 152q-230 -63 -432 -197 q-31 -47 -71 -100q-45 -68 -45 -106q0 -26 12 -70q4 -16 7.5 -31t6 -25t2.5 -12q34 -9 101 -49q59 -35 100 -35q83 0 203 105q120 102 135 184q3 9 6 96q3 60 25 88z" />
<glyph unicode="T" horiz-adv-x="1415" d="M2054 1642q-3 -13 -31 -28v-6q0 -35 -51 -86q-56 -59 -67 -84q-31 5 -64 12q-37 9 -37 43q0 9 10.5 43t10.5 43q-17 0 -80 -9t-80 -9q-7 0 -17.5 8t-15.5 8q-1 0 -47 -16q-46 -17 -61 -17h-90q-4 0 -9 -8t-12 -8q-8 3 -8 6v2q0 8 -8 8q-12 0 -23 -8q-21 -15 -22 -16 l-45 14q5 0 22 -3t21 -3q3 3 22 37h2q0 4 -14 4q-44 0 -64 -14t-14 -42q-9 0 -41 -9t-41 -9q-7 0 -14.5 8t-14.5 8q-8 0 -34.5 -12t-34.5 -12q-5 0 -19 4t-18 4q-8 0 -39 -12.5t-39 -12.5q-7 0 -11 4.5t-9 4.5q-8 0 -29.5 -24.5t-28.5 -24.5t-11 4t-9 4q-11 0 -21 -29 q-38 -25 -47 -82q-12 -77 -18 -92q-9 -17 -45 -59q-33 -36 -33 -58q0 -13 12 -28q-4 -11 -82 -254q-45 -148 -65 -258q-7 -5 -29 -23q2 -8 2 -25q0 -35 -16 -104q-6 -23 -12.5 -46.5t-10 -36.5t-4.5 -17q-8 -141 -10 -209q-15 -158 -86 -158q-4 0 -16.5 4t-16.5 4 q-13 0 -16 -10l-6 -20q-19 0 -45.5 30.5t-26.5 50.5q0 45 41 179q47 140 74 155q0 4 -12.5 18t-12.5 21q0 10 31 64q29 50 43 61q-17 39 -17 43q0 55 64 232q68 189 100 192l-16 14v76q7 13 20.5 37t20.5 37q26 51 26 76q0 15 -8 28q46 112 66 189q-33 0 -125 10q14 8 14 18 q-2 5 -4 11q-34 -12 -37 -39q-28 14 -55 14q-12 0 -12 -12q-8 -1 -64.5 -6.5t-75.5 -5.5q-5 0 -26.5 4t-26.5 4t-29.5 -19t-31.5 -20q-34 -3 -111 -31q17 -17 17 -37q0 -36 -29 -65q-56 43 -101 80q-69 57 -69 96q0 67 262 82q89 6 336 6q135 0 194 24q14 7 17 35 q1 7 4 21.5t4 21.5q3 15 39 29q32 16 49 16q13 0 43 -18q34 -18 40.5 -28.5t6.5 -55.5q3 -12 33 -12q38 0 98 14q69 16 99 16q9 1 10 -2v-8q0 -4 2 -6q2 3 10 10t14 12q55 7 175 24.5t184 25.5q219 28 360 28q33 0 123 -35zM1108 1513q0 23 -23 23q-5 0 -21 -5t-20 -5 q15 -2 64 -13z" />
<glyph unicode="U" horiz-adv-x="1622" d="M1780 459h24q-23 -51 -96 -127q-77 -80 -98 -133q-34 -5 -48 -17t-10 -32l-28 8q-21 -35 -92 -103q-73 -70 -91 -100q-21 -3 -94 -49q-71 -45 -106 -45q-5 0 -26 8t-28 8q-84 0 -112 78q-17 49 -17 147q10 41 33 125q78 289 156 437q-2 33 23 75.5t55 55.5v22 q-9 12 -33 12q-47 0 -100 -65q-10 -15 -72 -102q-52 -60 -160 -168q-139 -139 -162 -164h-1l-1 1h-1h-1h-1l-1 1h-1h-2l-21 6q-12 0 -39 -55q-6 -14 -78 -62q-67 -44 -84 -78h-10q-34 3 -37 -34l-25 6q-152 -131 -215 -131q-8 0 -34.5 8t-34.5 8q-5 0 -14.5 -8t-14.5 -8 q-38 0 -68 71q-24 62 -24 107q0 69 41 194q40 126 86 183q-2 4 -2 10q0 56 47 74q-2 3 -15 12q3 15 35 59q23 26 31 78t18 70q40 70 95 207q60 140 100 206q31 54 31 127l-13 15q-57 -11 -122 -27q-80 -22 -111 -53q8 -24 8 -27q0 -8 -10 -8q-3 0 -11 4t-16 4q-4 0 -14.5 -8 t-15.5 -8q-7 0 -33 16.5t-33 16.5q-5 0 -10 -4.5t-10 -4.5q-18 0 -40 32.5t-22 53.5q0 37 80 64q71 22 113 22q7 0 14 -8t12 -8q4 0 35.5 16.5t40.5 16.5q6 0 6 -2v-2q0 -4 8 -4q43 0 189 57t174 57q10 0 35 -14q9 -5 19 -10t14.5 -7t5.5 -3q-16 -77 -66 -138 q-47 -61 -51 -82q-11 7 -19 7q-22 0 -57 -60q-40 -71 -51 -78l-266 -622q-107 -250 -107 -359q0 -112 35 -112q52 0 192 94q97 72 187 133q26 13 65 39q10 7 13 27q71 40 141 120q97 111 123 134q27 24 145 151q87 93 156 133q8 20 34.5 51t39.5 31q8 0 8 -4h-2q0 -4 8 -4 q22 0 102 127l21 16q3 20 33 78q37 72 39 86q30 119 57 166q50 92 129 92q21 0 55 -43q35 -44 35 -67q0 -50 -39 -101q-35 -134 -256 -321q-5 -1 -7.5 0t-3.5 2.5l-2 3t-3 2.5q-2 -2 -11 -43q-6 -31 -12 -31q-10 1 -10 4l-2 4q-8 -41 -10 -47q-21 -17 -56 -35 q0 -1 11.5 -13.5t11.5 -20.5q0 -20 -53 -97q-61 -86 -66 -112q-11 -47 -98 -275q-62 -171 -62 -280q0 -140 49 -140q7 0 105 48q109 50 121 53q62 67 190 196q40 25 96 68l2 8q1 9 5 16t10 7q8 0 8 -2l-2 -2q0 -5 8 -5t51 46q40 43 56 51zM1149 868l55 54l-6 10l-55 -53z M1057 770l18 21l-8 8l-16 -19z" />
<glyph unicode="V" horiz-adv-x="1708" d="M745 623h-12l-10 -29l12 -4zM1976 1796q-69 -128 -204 -240q-47 -40 -256 -186q-3 -22 -11.5 -39.5t-26 -32.5t-28.5 -22.5t-37 -22t-33 -18.5q-30 -26 -53 -66q-11 -18 -23 -38t-16.5 -27t-5.5 -8q-2 -6 -57 -45q-39 -26 -35 -54h-6q-29 0 -64 -47q-2 -3 -20.5 -30.5 t-26.5 -42.5q-18 -18 -72 -62q-46 -40 -55 -74q-57 -29 -192 -192q-189 -226 -328 -344q-3 -42 -37 -105q-49 -93 -51 -102q-19 0 -37 -53q-9 0 -44 -9.5t-44 -9.5q-24 0 -45 41q-21 40 -21 68q0 25 31 149q33 115 33 168q0 11 -2 19v18q0 96 20 219q7 42 20 117t17 102 q-6 6 -20 9q1 5 11.5 37t10.5 45q0 7 -4 25.5t-4 25.5q13 7 32 38.5t19 45.5q0 7 -17.5 25t-17.5 26q0 5 19 57q20 50 20 80l19 19q-10 23 -10 45q0 33 26 92q28 65 31 94q-36 31 -78 31q-4 0 -23 -12.5t-28 -12.5q-8 0 -27 8t-24 8q-15 0 -31 -8q-6 -2 -16 -5t-11 -3h-123 q-89 0 -114 -14q11 -11 26 -45q-28 3 -94 63q-29 27 -86 84v47q8 -2 31 -2q8 0 38 2t38 2q9 0 47 -18q43 -17 49 -17h283q102 0 233 52q133 53 143 53q51 0 103 -37q0 -33 -21 -74q-8 -14 -41 -28q-10 -5 -51 -25q-39 -29 -84 -94q-10 -16 -45 -113q-27 -77 -51 -84 q6 -21 6 -49q0 -42 -24 -121q-25 -83 -25 -116q0 -12 2 -46.5t2 -42.5q0 -20 -2 -28q-15 -21 -18 -98q-3 -72 -35 -86q12 -27 12 -62q0 -16 -10 -65t-10 -62l16 -151q1 -1 2 -4.5t2 -4.5q31 0 90 68q58 67 88 74q18 30 62 80q14 2 59 22q63 58 219 262q84 24 131 113 q78 12 148 125q69 112 84 112q5 0 12 -5t12 -5q46 0 43 76q21 15 21 25q0 6 -6 18q23 13 63 72q25 -8 78 -43q41 21 41 51q0 23 -27 41q9 -3 29 -23q2 2 18 31q13 23 25 23q5 0 8 -3l23 25q3 21 -25 21q15 18 18 40h31q3 -12 15 -24q39 23 116 82q-5 8 -22 28l-29 -4l59 31 q7 0 15.5 -8t15.5 -8q23 0 35 39q10 26 78 59q72 38 72 78q0 12 -7 29q5 0 41 -19zM385 1204q-15 -3 -39 -12l12 -84q3 13 13 46.5t14 49.5zM348 1016l10 39h-14l-10 -39h14z" />
<glyph unicode="W" horiz-adv-x="2023" d="M2195 1753q0 -52 -163 -276q-9 -12 -211 -283q-178 -283 -310 -406q0 -1 2.5 -4.5t4.5 -9.5t2 -12q0 -23 -41 -53q-39 -29 -39 -56q0 -8 4 -20q-37 -14 -80 -76q-35 -51 -64 -98q-90 -125 -135 -183l-80 -159q-59 -123 -106 -123h-45q-68 0 -68 104q0 86 27 256 q26 181 57 242q15 24 15 33q0 4 -3.5 11t-7.5 12.5t-4 6.5q0 28 47 93q3 61 9 88q12 55 43 67q-17 34 -17 62q0 23 43 139q21 58 55 145l-20 13q-29 -23 -100 -64q-3 -12 0 -31q-178 -169 -277 -286q-41 -57 -84 -111q-39 -48 -137 -108q2 -4 2 -15q0 -53 -92 -168 q-81 -96 -133 -155q0 -15 16 -15q-70 -79 -110 -241q-40 -158 -72 -201q-2 0 -10.5 -4t-16.5 -4q-10 0 -10 4l2 4q0 8 -8 8q-4 0 -51 -24q-45 62 -45 86q0 56 43 163t43 156q11 19 26 94q12 60 70 115q-4 9 -21 31q-12 18 -12 30q0 8 9.5 33.5t9.5 32.5q8 -8 24 -16 q47 146 47 178q0 28 -33 22q44 69 62 99q9 -6 35 -35q3 12 18 30q-21 37 -45 37q-5 0 -9 -2.5t-6 -5t-5 -9t-4 -7.5q-6 -1 -9.5 4t-3.5 16q0 14 29 43t29 51l-2 11l-17 10q3 28 60 125q45 80 36 160l17 -17q12 35 88 203v47q-3 1 -29 14q-29 -26 -180 -67 q-118 -34 -152 -119q-4 -8 -4 -18q0 -12 6 -21q9 -15 9 -18q-8 -4 -29 -4q-8 0 -39 4t-43 4q-17 0 -41 37q-27 38 -27 59q0 92 148 154q56 25 227 65q226 58 336 58q46 0 98 -43q0 -52 -45 -91q-69 -55 -77 -63q-53 -70 -205 -344q6 -9 6 -19q0 -13 -19.5 -40t-19.5 -33 q-7 -47 -37 -189q-23 -54 -55 -149l2 -26v-36q0 -22 -39 -149q33 33 59 33q5 0 10.5 -1.5t8.5 -3t5 -3t3 -1.5q26 104 180 189q-4 13 -41 47q16 19 19 37q7 0 29.5 -4t29.5 -4l14 14q3 20 -32 20q12 51 86 101q76 51 90 110q11 29 65 54q60 31 66 61q11 3 55 27v8q0 2 -4 10 q-6 -6 -12 -6l-15 2q16 0 31 5t24.5 9t24.5 17.5t19 17t21 22.5t18 21q-3 12 -25 12q11 11 133 107q29 49 51 80q29 38 90 88q12 4 31 4q44 0 83.5 -19t39.5 -51l-6 -23q-6 -22 -2 -30q-5 5 -25 17v-37q0 -52 -71 -111q-4 -16 -29 -57q-30 -44 -35 -58q-7 -19 -55 -206 q-63 -6 -66 -62l13 -22q7 7 26 49q-1 -14 -88 -346q-33 -115 -33 -136v-98l13 -14q61 50 71 59q45 45 52 72q4 -4 12 -4q10 0 18 2q-2 6 -2 18q0 40 33 74.5t70 24.5q5 10 43 65q24 37 24 70q0 14 -2 22h76l14 15q0 6 -32 20v27q0 12 22 43q28 40 29 43q3 0 14 -3t16 -3 q25 0 25 14q0 3 -2 13.5t-2 13.5q0 4 2 6q21 15 43 43q24 35 16 55h11q12 3 18 -6q17 14 51 78q7 12 109 120q71 77 65 138q20 27 60 102q36 67 69 96q-3 24 39 60q11 11 33 30t25 21q8 8 15 37t11 35q35 18 51 18q20 0 37 -10q0 -2 4 -14t4 -17zM215 1247q0 -7 -5 -25 t-5 -22q-24 17 -64 35q14 39 37 39q10 0 37 -27zM1485 860l12 4l-10 21h-12z" />
<glyph unicode="X" horiz-adv-x="1824" d="M1980 614q-86 -75 -112 -118q-75 -22 -115 -45q0 -1 -74 -54q-61 -43 -65 -43q-8 0 -15.5 4t-9.5 4l-10 -14q-1 -6 1.5 -23t2.5 -18q-57 -13 -164 -55q-123 -45 -147 -76l-25 2q-15 0 -80 -47q-78 -53 -92 -59q-92 -44 -92 -58q0 -10 4 -26q-13 0 -57 -8.5t-56 -8.5 q-40 0 -49 60q-2 6 -2 88l-4 44l-4 56q-31 57 -45 162q-14 101 -8 170q-2 0 -12 4t-15 4q-6 0 -26.5 -26.5t-24.5 -28.5q-10 -1 -55 -21q-8 -18 -27 -55q-14 -17 -123 -94q-93 -66 -96 -103q-9 9 -23 9q-8 0 -51 -58q-39 -57 -51 -57q-8 0 -8 2v2q0 4 -8 4q-22 0 -60 -53 q2 -6 2 -23q0 -53 -55 -129q-56 -80 -102 -80q-8 0 -33.5 -4t-32.5 -4q-21 0 -49 66q0 28 33 61q30 35 59 35q2 2 2 6l-2 9q-2 9 -2 14q0 20 64 75q24 21 45.5 38.5t30.5 25t10 8.5q27 34 96 90q23 3 57 6q8 5 23 43q10 29 32 29q5 0 12.5 -4t12.5 -4q27 0 27 22 q0 4 -2 12.5t-5 17.5t-4 11q4 0 14 -3t15 -3q81 100 201 156q16 50 47 74q2 1 11.5 6.5t26.5 16t36 22.5q-19 43 -19 123q0 11 0.5 34.5t1.5 67.5t2 84q1 7 2 19t2.5 32t3.5 37q7 65 7 86q0 8 9 29t9 24v17q-2 6 -2 14q0 40 29 109q28 67 28 86q0 11 -17 21.5t-32 10.5 q-102 0 -409 -43q-18 -15 -56 -30q-36 -13 -57 -29q17 -18 76.5 -83.5t103.5 -113.5q-3 -1 -21 -6.5t-24 -5.5q-48 0 -190 121t-142 170q0 25 62 49q50 20 82 20q5 0 20.5 -8t20.5 -8q14 0 62 12.5t61 12.5q8 0 38 -8.5t39 -8.5q13 0 62 13.5t65 13.5q151 3 324 43 q17 2 63 31q39 22 70 22q24 0 92 -35v-18q0 -13 10 -33q-18 -30 -100 -102q-76 -64 -113 -80q-7 -21 -26 -119q-14 -61 -64 -108q25 -36 25 -68q0 -16 -16 -53q-4 -10 -8.5 -19l-6.5 -13t-2 -5q0 -29 12 -90q13 -63 13 -92q10 -5 18 -5q6 1 17.5 2t18.5 2.5t15 3t10.5 4.5 t0.5 7q0 10 -7 24l62 37q43 24 43 50q0 5 -6 14q4 -2 14 -2q4 0 18.5 2t18.5 2l14 14q-3 18 -24 21q41 11 100 39q14 11 49 51q28 36 56 39q64 96 141 207q48 18 69 38t17 46q64 30 125 124q73 112 108 140l17 -17q6 9 18 9q35 0 58.5 -32t23.5 -71q0 -18 -33 -47 q-36 -31 -49 -31q-5 0 -9 4.5t-11 4.5q-27 0 -47 -39q-51 -84 -119 -138q-116 -92 -133 -112q-37 -39 -166 -168l-8 2v2q0 4 -9 4q-27 0 -30 -53q-381 -231 -381 -398q0 -66 10 -124q0 -1 20.5 -28t20.5 -42q0 -21 -19 -37q36 -36 39 -53l-10 8q-4 -4 -4 -12q0 -9 25 -45 q26 -34 30 -41h21q69 0 504 188l10 -4v-8q0 -2 2 -4q180 131 190 131q11 0 11 -4h-2q0 -7 8 -4l102 71q10 -3 29 -6q38 28 164 135q6 -9 6 -30q0 -47 -19 -50zM864 528l21 -22l-8 -6l-21 18zM825 731h33q-20 20 -20 39z" />
<glyph unicode="Y" horiz-adv-x="1916" d="M2277 1575l4 -12l-26 -13v13zM1329 522h-35q21 21 21 43q14 -14 14 -43zM1235 315q4 0 4 -6q0 -13 -14 -65q-1 1 -23 80h12q12 0 21 -9zM1219 215q-41 -102 -64 -158q-14 -36 -34 -87.5t-27 -67.5q-6 24 -31 30q27 36 76 144q46 99 80 139zM2374 1743q-18 -25 -72 -68 q2 -20 -8 -86q0 13 -19 29q-42 -9 -30 -72q-32 -14 -70 -61q-9 -14 -59 -76q-84 -99 -242 -180q-20 -62 -139 -121q0 -17 -15 -47l-8 2q-35 0 -64.5 -43t-31.5 -84q-82 -6 -115 -57q-23 -39 -63 -117q-11 -16 -57 -56t-58 -55q-64 -97 -119 -221q-3 -31 -18 -92 q-79 -215 -201 -516q-4 -7 -37 -58q-22 -36 -22 -61q0 -8 10 -18l22 -15q44 21 66 94q29 91 47 109q-17 -36 -14 -57q-21 -25 -47 -92q-23 -59 -56 -89v-6q0 -4 2 -19.5t2 -19.5q0 -18 -18 -30q-17 3 -39 28q-48 -28 -51 -65l-8 -84q17 0 35 37q-43 -88 -64 -109 q-7 -5 -29 -11.5t-26 -10.5q-42 -28 -51 -84q-9 -59 -37 -68q-2 -5 -6.5 -18t-6.5 -19t-6.5 -17t-9 -18t-11 -17t-14.5 -19q-36 -39 -190 -168q-162 -131 -188 -131q-5 0 -18.5 4t-18.5 4q-8 0 -56 -25q-53 -27 -61 -29q-3 -3 0 -47q-2 1 -9 6t-15.5 9t-16.5 4 q-15 0 -113 -49l-123 -62l-22 19q-4 -1 -64 -13l-21 -17q-22 -16 -36 -26q-15 37 -72 37q-59 0 -86 -41q-27 -43 -75 -43q-6 0 -49 19q-46 17 -48 18l-30 -27q-18 46 -49 46q-19 0 -72 -27q3 16 -8 27h-33q-4 -4 -4 -7l6 -8q6 -8 6 -12q-2 2 -61 2l18 20q-19 22 -90 37 q-81 14 -104 23l-17 -6q23 12 35 20q-13 26 -70 49q-63 26 -90 23q2 4 2 16q0 34 -22 76q-27 43 -64 43q-10 3 -10 -2q2 0 2 -2q0 -4 -10 -4q-25 0 -82 78q-58 76 -94 82q-15 29 -39 63q-30 50 -47 47l26 29q-17 10 -32 10q-9 0 -21 -4v18q0 37 8 50q-15 10 -55 26 q-2 7 8 21q-46 36 -135 225q-94 189 -94 246q0 6 4 13t6 10t0 7q4 -4 8 -4q14 0 55 21v8q0 12 -18 12q-10 0 -10 -4q4 -4 4 -8q0 -3 -8 -6q-11 0 -11 4q3 3 3 8q0 3 -3 6l-18 -18l-41 41q21 30 21 78h36l9 14l-15 14l-20 -16q0 17 16 33q-3 14 -28 14v123q45 64 67 100 q48 64 80 86q0 4 -4 17t-4 18q0 17 15.5 34t29.5 17q8 0 28 -5t25 -5q0 -20 -10 -37q-24 17 -39 17q-4 0 -12 -2q8 -11 45 -27q-101 -192 -101 -324q0 -73 27 -190q39 -150 43 -187q1 -10 2 -30.5t2 -30.5q1 -31 21 -55t40 -45.5t21 -46.5q0 -25 -6 -52q16 -20 49 -41 q35 -24 45 -41q392 -632 840 -632h225q14 0 66 37l24 -19q19 7 56 22.5t55 22.5q87 37 104 37q7 0 11.5 -4t11.5 -4q31 0 168 82q143 81 157 106q318 214 414 375q0 -21 8 -29q29 13 58 64q8 16 25.5 44t21.5 34q20 30 102 94l-27 26q37 48 109 246q59 164 129 219 q-3 90 66 234q75 149 81 227q31 19 31 58q0 18 -16 47q-3 -14 -19 -27l-8 2q-25 0 -69 -33q-43 -32 -74 -39q-22 -36 -19 -59q-131 -43 -258 -158q-32 -3 -65 -39q-31 -39 -49 -59q-52 -46 -203 -117q-157 -71 -217 -71q-8 0 -42 9t-46 9q-10 0 -19 -9t-10 -9 q-86 59 -86 124q0 19 33 101q24 62 43 104q8 19 37 35q31 19 41 29q3 39 65 131q16 22 88 129q19 42 103 184q26 19 57 55q21 73 53 154q15 29 68 98q47 61 67 103q-32 4 -63 4q-17 0 -72.5 -3t-70.5 -3q5 0 -74 28l-6 -10l10 -14q-21 -7 -82 -51q-62 -45 -76 -45 q-3 0 -92 59q2 6 23 55q131 73 309 133q195 65 323 68q1 0 21 23q12 12 24 12q41 0 68 -31.5t27 -75.5q0 -48 -52 -112q-60 -78 -71 -103q-5 0 -21 19q-29 -41 -73 -99q-44 -44 -64 -67q-42 -51 -39 -80q-72 -21 -119 -117q-9 -18 -61 -166q16 5 53 54q3 4 21 28.5t26 38.5 q-110 -210 -282 -430q-18 -89 -58 -129v-88q5 -8 15 -8q83 0 176 43q50 22 141 82q64 43 70 43q7 0 14 -5.5t14 -5.5q13 0 119 80q105 81 121 97q36 31 76 77q7 7 61 35q42 22 47 53q-1 -9 6 -13.5t21 -4.5q23 0 39 31q12 24 12 49q53 31 109 84q79 71 100 92q0 37 16 119 q2 7 31 40t33 50q-4 12 -4 20q0 43 45 117q44 68 74 113q-13 16 -13 28q0 22 43 62q49 43 58 57q-8 24 -8 51q0 48 55 78q56 33 59 64q46 24 49 71h43v31q-8 8 -34 8l45 41q-4 -4 -4 -10q0 -4 4 -16l22 18q33 0 53 14q-4 1 -20 7.5t-27 11.5q29 23 125 70q100 47 129 47 q7 0 13.5 -9.5t13.5 -9.5q5 0 21.5 4t21.5 4q37 0 156 -49l-3 -10q0 -30 50 -92zM-1483 522l13 -8l-23 -33l-12 8zM-1548 492q-17 -27 -11 -54q-4 0 -17 4t-17 4q-13 0 -33 -14l-31 -20q47 47 109 80zM2245 1677q-9 31 -11 60q-120 18 -147 18q-10 0 -86 -31 q-73 -32 -103 -36q-2 -2 -61 -105q-41 -75 -78 -72q-3 -9 -98 -98q-68 -68 -59 -113q-66 -55 -127 -198q-31 -76 -89 -228l23 -22q0 13 10 55q10 -10 23 -10t71 43q73 55 76 55q-12 3 -28 19q6 12 26 57q16 5 54 35.5t42 32.5q17 -30 33 -27q0 15 -16 31q3 3 16.5 11.5 t16.5 10.5q2 -2 2 -18q0 -8 10 -8q63 0 78 65q24 103 30 109v-15q0 -4 13 -4q4 0 90 111l2 -2q2 -2 6.5 -4t11.5 -2t97 84q6 4 13 40.5t21 49.5q27 27 99 39q9 43 39 67zM-1780 158q-32 -14 -35 -41q10 -10 25 -13q0 44 10 54zM-1798 -92q-8 0 -23 12l-22 -24q33 0 45 12z " />
<glyph unicode="Z" horiz-adv-x="1742" d="M1948 573q-13 -13 -43 -26q0 -7 16 -23q-15 -26 -78 -69q-58 -40 -98 -52q-322 -104 -404 -104q-7 0 -17 8t-17 8q-349 -161 -416 -161q-5 0 -23.5 5t-23.5 5q-12 0 -56 -27q-44 -24 -55 -24q-180 0 -231 -60q-34 17 -62 17q-7 0 -38.5 -8.5t-45.5 -8.5q-7 0 -33 -13 t-34 -13q-5 0 -19.5 4t-19.5 4q-38 0 -98 -78q-59 -80 -68 -123q-8 -8 -45 -31q-36 -22 -47 -22q-7 0 -15.5 8t-15.5 8q-5 0 -10 -4t-10 -4q-15 0 -29 33q-18 30 -18 45q0 41 20 108q25 78 53 91q26 12 80 47l19.5 19.5l20.5 20.5t19 17.5t22 17t21.5 11t24.5 6.5 q3 17 -8 31q40 44 133 180q19 28 59 43q10 66 2 84q4 1 16.5 2.5t26 3.5t27.5 4q48 137 182 262q1 1 60 51q20 17 8 58q82 99 422 495q24 -8 35 -8q8 0 29 16.5t22 16.5l18 -17q45 20 45 56q0 19 -37 37q-12 -10 -16 -25q-12 4 -20 4q-12 0 -47 -6t-46 -6q-7 0 -14 8t-14 8 t-29 -4t-27 -4q-12 0 -40 12.5t-35 12.5t-30 -12.5t-30 -12.5q-80 0 -192 8t-191 8q-11 0 -90 -36q-82 -39 -100 -45q9 -57 49 -121q14 -17 39.5 -53.5t38.5 -53.5q-10 -10 -10 -28q-57 16 -148 61q-19 13 -84 106q-63 92 -63 117v86q22 16 61 33q40 12 125 12q7 0 14 -9 t11 -9q24 0 77 12q49 14 76 14q7 0 37.5 -13t38.5 -13q15 0 29 14q26 0 112 6q71 6 115 6q7 0 35 -22q27 -21 41 -21q7 0 18 8.5t15 8.5q8 0 34.5 -8.5t34.5 -8.5q17 0 80 8.5t80 8.5q7 0 11 -8.5t11 -8.5q18 0 15 17l20 -17q16 0 76 -4t76 -4q7 0 37 23q2 2 10 9.5t11 10 t11 9t14 9.5t15.5 8t20.5 9t24 8q64 20 76 27q154 74 244 74q30 0 65 -28t35 -56q0 -13 -61 -50q-59 -36 -78 -36q-8 0 -12 4t-9 4q-11 0 -49 -21q-36 -20 -49 -20q-7 0 -15.5 8t-15.5 8q-12 -8 -39 -22q-26 -16 -108 -31q-94 -18 -115 -27q-18 -6 -39 -24q-8 -8 -15 -14.5 t-12 -10.5l-4 -4q-39 -12 -114 -59q-40 -3 -86 -43q-43 -35 -53 -78q-28 4 -35 4q-16 0 -25 -6q-34 -26 -84 -92q-13 -16 -39 -49t-39 -50q-68 -3 -77 -145q-213 -165 -240 -313q-6 2 -19 2q-39 0 -51 -64q-6 -31 -14 -96q-29 -1 -45 -26.5t-10 -55.5q-23 3 -47 -37 q-5 -9 -16.5 -27.5t-16.5 -27.5q-8 -14 -64 -90q23 -23 51 -23q42 0 127 21q93 22 132 22q4 0 16.5 -4t17.5 -4q26 0 203 59q23 -26 39 -26q12 0 41 20q33 23 43 23q7 0 11 -4t9 -4q249 102 269 102q7 0 27.5 -13.5t27.5 -13.5q9 0 68 47q60 48 67 48q5 0 15.5 -4.5 t15.5 -4.5q100 0 410 189q8 0 44 4t48 4q38 0 41 -25z" />
<glyph unicode="\" horiz-adv-x="909" d="M797 33v-47q-59 -17 -76 -17q-35 0 -96 172q-12 36 -33.5 108.5t-32.5 108.5q-104 313 -170 574q-13 89 -59 282q-25 58 -56 148q-25 107 -67 264q22 13 22 39h11q23 0 49.5 -20t32.5 -41q7 -43 40 -224q1 -2 4 -13t10 -34.5t15 -48.5q25 -80 25 -88q0 -31 -29 -63 l19 -19q8 8 22 8q4 -20 4 -37q0 -40 -8 -84q39 -51 39 -65q0 -4 -4 -16q57 -39 57 -158q0 -31 -2 -43q8 -6 31 -25q34 -103 45 -137q40 -120 45 -143q-1 6 -2 -4v-35q0 -6 33 -76q39 -89 39 -90q18 -52 41 -96t37 -62z" />
<glyph unicode="^" horiz-adv-x="903" d="M772 956q-3 -8 -11.5 -26.5t-12.5 -28.5q0 3 -1.5 5.5t-3.5 4.5t-4 3t-6 2.5t-6.5 2t-7 1t-6.5 1t-6.5 1t-6.5 0.5q-4 3 -6 16q-3 8 -10 8q-6 0 -6 -4h-6q-7 0 -54 92t-67 92q-109 -78 -156 -86q-18 -24 -28 -34l-25 -11q-113 -88 -131 -88q-28 0 -53 17t-25 41 q0 15 45 51q40 35 68 47q21 0 45 8q26 15 164 115q116 82 161 82q8 0 31 -18.5t23 -28.5l-3 -11q-2 -7 -3 -12q23 -68 108 -242z" />
<glyph unicode="_" horiz-adv-x="1185" d="M1106 -90q0 -20 -29 -38.5t-55 -18.5q-51 0 -94 2t-97 2q-56 0 -110 -7q-6 -2 -168 -2q-77 0 -123 -6q-25 -3 -104 -24q-74 -19 -105 -19q-9 0 -44 -8t-44 -8q-26 0 -55 23t-29 47q0 50 31 53l889 78q26 2 84 -21q53 -24 53 -53z" />
<glyph unicode="`" horiz-adv-x="737" d="M475 1315q-2 -12 -2 -35q14 -16 47 -49q30 -39 33 -62h-16q-13 0 -25 -41q7 -1 -4 -2h-41q-15 0 -31 23q-20 33 -24 35q-38 26 -93 102q-24 32 -44.5 61t-29 41t-9.5 13q0 21 12 67h10q8 0 31 4.5t30 4.5q34 0 156 -162z" />
<glyph unicode="a" horiz-adv-x="1015" d="M1204 305l-53 -53q-43 -43 -43 -51q0 -5 4 -17q-121 -47 -133 -102q-63 -18 -70 -21q-42 -19 -45 -51l-38 4h1q-4 0 -14 -2q8 -12 21 -20q-68 -10 -129 -10q-5 0 -20.5 10t-20.5 10q-4 0 -8.5 -3t-8.5 -3q-34 0 -69 47l-54 76v84q0 51 -10 51q-13 0 -22 -39 q-89 -68 -113 -68q-2 -2 -2 -4q0 5 1 -1q2 -6 3 -19q-19 -6 -34 -18t-37 -36.5t-27 -29.5q-21 -21 -72 -47q-42 -22 -72 -43q-52 15 -84 22q-45 17 -45 68t60 123q59 71 106 71q0 11 -26 11q8 9 73 94q47 65 86 74l-20 18q59 30 59 59q0 8 -6 17q15 3 49 6q-2 0 -2 45 q36 26 49 39q26 20 39 49q4 0 18.5 -3t18.5 -3q77 145 170 145q43 0 72.5 -23t29.5 -63q0 -24 -26 -36q50 -41 53 -44q0 -38 -2 -69q-33 -33 -82 -74q-1 -3 -3.5 -20.5t-4.5 -30.5q-10 -10 -37 -86q-1 -3 -31 -68q-26 -48 -26 -59q0 -42 32 -96q35 -60 68 -60q8 0 35 -3 t35 -3t43 35q34 37 43 37q4 0 7 -3t7 -3q5 0 47 39q46 40 55 43q9 6 50 6q38 0 32 43q31 22 101 76q4 -6 22 -17zM627 559q-15 18 -6 39q-10 -7 -31 2q-12 -18 -21 -27q-28 3 -57 -30l-43 -56q-3 0 -27 -4q-200 -250 -213 -250q-12 0 -26 -14q4 -8 4 -14q0 -17 -27 -51 q-25 -36 -22 -64q40 3 110 49q72 47 86 80h2q17 0 58 41q31 31 45 62l16 -15q53 21 53 33q0 6 -5 9.5t-10 4.5l-5 2q1 1 8.5 11.5t25 34.5t38.5 51q47 65 47 106z" />
<glyph unicode="b" horiz-adv-x="970" d="M1294 604l-2 -24q-16 -3 -75 -41q-59 -35 -68 -35q-4 0 -12.5 3t-12.5 3q-5 0 -14 -17.5t-14 -17.5q-54 0 -74 14q-20 -17 -23 -34q-8 0 -42.5 -8.5t-43.5 -8.5q-4 0 -18 3t-18 3q-57 0 -109 -43q-74 -62 -92 -71l4 -6q4 -7 4 -13q0 -23 -100 -110q-100 -84 -107 -111 l-16 6q-76 -55 -135 -67q-16 -28 -29 -39q-31 -10 -49 -17q-40 -16 -51 -16q-6 0 -19 16q-5 -5 -14 -26q-67 -25 -94 -25q-136 0 -136 133q0 2 11 12.5t20.5 25.5t5.5 30q15 4 29 29q20 33 25 38q25 21 176 95q157 80 174 80q4 0 12.5 -3.5t11.5 -3.5q126 66 136 66 q4 0 16 -4t16 -4q74 0 74 135q0 26 -35 61q-34 37 -61 37q-38 0 -117 -26q-75 -25 -117 -50q-6 -3 -59 -65q-40 -46 -72 -41q-3 -27 2 -49q-2 -1 -61 -35q-24 -18 -70 -18q-8 0 -22 32q-15 35 -15 45q0 12 33 41q12 12 21.5 22t14.5 15l5 6q15 47 53 115v-6q0 -11 35 -8 q0 3 3 15t3 17q-14 0 -45 7q2 2 6.5 10t7 12t6.5 9t7 7.5t6 2.5q8 0 13 -7.5t10 -7.5q17 0 26 27q12 41 14 43q-22 16 -22 33q0 14 12.5 29.5t12.5 21.5q0 9 -3 18q3 5 23 2q6 3 6 15q0 13 -6 37q6 0 34 13t42 13q4 0 16 4v19q-8 3 -28.5 15.5t-20.5 18.5q0 5 4 17t4 16h23 q8 8 2 27q8 15 51 65q10 64 14 72q8 18 52 53q6 48 30 103q30 73 64 73q8 0 40.5 -4t41.5 -4q-26 -122 -107 -209q-19 -19 -22 -34q-11 -52 -74 -162q-62 -112 -70 -152q-30 -17 -37 -28v-13q0 -53 -53 -145q9 -12 25 -12q12 0 61 22q92 51 207 51q14 0 59 -15.5t58 -16.5 q38 -38 51 -56q36 -43 39 -61q0 -44 2 -64q3 -43 29 -43q-1 0 23.5 8t106 33t150.5 47l23 -22h26q8 8 8 24q50 33 164 33zM174 752l10 -4l-10 -19l-10 4zM250 807l6 10l-20 8l-5 -10zM559 315v27q-4 0 -21 4t-22 4q-18 0 -61 -43q-15 15 -23 15q-11 0 -41 -27 q-36 -33 -41 -39q-4 0 -17 4t-18 4q-11 0 -65 -31l-68 -36q2 -6 2 -15q0 -24 -49 -51q-47 -27 -47 -49q0 -5 4 -25.5t4 -25.5q34 10 109 39q87 34 96 34q5 0 9.5 -4t8.5 -4q7 0 15.5 12t15.5 26l6 13q11 11 62 39q2 1 8.5 7.5t22.5 21t32 29.5q47 46 64 43q-2 2 -2 8 q0 7 16 20z" />
<glyph unicode="c" horiz-adv-x="782" d="M946 485h31l-23 -26q-14 0 -24 10zM956 442q-87 -81 -90 -84q-58 -52 -104 -61q-17 -27 -14 -45q-8 -1 -33 -23.5t-27 -23.5q-11 -4 -115 -51q-87 -53 -235 -134q-112 -53 -127 -53q-7 0 -27.5 10.5t-27.5 10.5q-5 0 -22.5 -7.5t-22.5 -7.5q-6 0 -21.5 12t-17.5 13 q-101 40 -101 154q0 67 78 157q108 123 121 144l6 -15q23 16 23 37q0 8 -6 17q61 68 163 170q14 -14 35 -23q3 8 35 70q18 25 59 49q46 30 62 49q18 22 35 65q21 52 42 73.5t56 21.5q13 0 41.5 -17.5t28.5 -27.5q0 -14 -33 -93q-8 -2 -37 -20q-12 -70 -55 -145 q-16 -25 -45 -75t-35 -59q-16 -63 -29 -143q-1 -2 -7.5 -14.5t-9 -15.5t-9.5 -10.5t-15.5 -10t-19.5 -2.5q2 0 -1 1q-1 0 -8 2q-9 3 -16 5q0 7 -4 29.5t-4 29.5q0 15 9 39.5t9 26.5q0 12 -8 31q33 60 45 84l4 8l-11 4q-23 12 -28 12q-4 0 -57 -41q-1 -2 -14 -41 q-6 -4 -25 -18.5t-33 -24.5q-17 0 -49 -14q-3 -79 -145 -221q-17 -56 -17 -82q0 -33 27 -67t57 -34q155 0 664 334q3 -1 6 -4t6 -4l12 12l-14 23q3 0 34.5 11t45.5 11q4 0 16 -4zM561 565q0 19 -8 27q-8 0 -25 -17v-24q19 0 33 14zM270 500l21 8l-4 10l-17 -8v-10z" />
<glyph unicode="d" horiz-adv-x="1060" d="M1286 412v-72q-16 -22 -16 -37q0 -4 4 -16h-31q-4 -4 -4 -27v-8q-22 -10 -51 -51q-13 -17 -25 -32t-16.5 -21t-5.5 -7q-19 -8 -115 -92q-95 -80 -100 -80q-6 0 -6 6h-7q-11 0 -14 -12q-3 -17 -53 -45q-51 -31 -68 -31q-5 0 -25.5 14.5t-25.5 14.5t-10 -3t-10 -3 q-53 0 -99 104q-37 87 -37 154q0 32 21 72q0 3 -4 21t-4 26q0 11 16 52t16 54q0 24 -10 47q-56 -56 -125 -159q-33 -17 -114 -95q-82 -79 -121 -104q-10 -2 -49 -19q-26 -20 -41 -55h-6q-18 1 -32.5 -5t-23 -12.5t-10.5 -6.5q-49 0 -88 42.5t-39 94.5q0 5 23 33.5t24 33.5 q32 70 113 158q114 128 125 143q20 11 69 50q35 47 117 135q27 17 72 43q3 0 45 39q21 18 61 18q62 0 99 -37q38 18 65 111l-4 -23l4 -8q36 28 45 62q4 24 4 77q9 9 21 19q14 8 14 22q0 13 -8 21q18 30 51 86t37 63q65 95 133 95q30 0 51 -19.5t21 -48.5q0 -20 -88 -160 q-10 -14 -40.5 -52.5t-49.5 -63.5q-12 -2 -21 -8.5t-16 -19t-11.5 -22.5t-10.5 -28t-9 -25q-6 -9 -24 -38.5t-31 -49.5q-118 -206 -144 -424q-17 -3 -45 -22l4 -39q7 0 19 28q6 -25 8 -43l-10 2q-9 0 -15 -6l17 -20v-25q-3 -180 82 -180q-3 0 14 7t58 22.5t98 35.5v23 q3 1 61 39q53 35 62 35q6 0 6 -6h6q20 0 20 39q18 17 55 50.5t56 51.5q56 56 96 117zM602 588q-47 0 -244 -90q-4 -8 -23.5 -47.5t-35.5 -69.5q-4 2 -12 2q-5 0 -23.5 -4t-23.5 -4q2 0 2 -23v-8q-47 -41 -154 -227h29q100 0 362 280l25 -6q3 22 12 25l-2 10q0 13 28 35.5 t31 34.5q3 17 29 92z" />
<glyph unicode="e" horiz-adv-x="792" d="M1032 471q-25 -11 -43 -8q2 -4 2 -12q0 -32 -69 -58t-72 -61q-37 -16 -184 -119q-128 -88 -170 -88q-21 -9 -21 -21q0 -5 8 -8h-6q-4 0 -31 -6q-13 -9 -10 -22q-22 -9 -45 -19l-47 -26q-36 -19 -45 -19q-15 0 -65 -7t-66 -7q-65 0 -92 41q-10 -10 -10 -21 q-117 102 -117 256q0 59 2 82q25 10 57 43q13 36 53 117q2 3 9 9.5t22 21t29 28.5q40 40 37 66h8q14 -2 23.5 10.5t13.5 38.5q39 28 79.5 57.5t62.5 45.5t30 22q125 78 188 78q24 0 55 -17q5 -3 14.5 -9t14.5 -9l15 6q1 -2 3.5 -7.5t4.5 -10.5t2 -9q0 -41 -33 -41 q-5 0 -9.5 4t-8.5 3q-6 -61 -97 -152q-87 -87 -84 -111h-12q-8 0 -16 -3.5t-13.5 -7t-13.5 -12.5t-11.5 -14t-12 -16.5t-11.5 -15.5q-13 -7 -69 -39q-12 -15 -43 -43q-62 -33 -111 -64q-53 -41 -53 -108q0 -46 27 -87.5t63 -41.5q86 0 186 47q101 49 103 49q6 0 6 -2 q0 -4 8 -4q18 0 18 35l23 -15q41 65 160 129l190 99q0 12 -14 12q21 3 67 37q49 37 90 37q3 0 6 -2t6.5 -6t6 -7t6.5 -9.5t6 -8.5zM420 690q-129 -59 -242 -198l19 -11q65 52 174 152q3 2 11.5 7.5t12 8.5t10 8.5t9 9.5t4.5 10t2 13z" />
<glyph unicode="f" horiz-adv-x="917" d="M1133 547l43 -47q-102 -12 -234 -49q-116 -35 -117 -35q-7 0 -27 5t-24 5q-38 0 -375 -121q-4 -9 -11.5 -25.5t-20 -44.5t-23.5 -51q3 -16 39 -16q-20 -47 -27 -66q-21 -49 -34 -49q-11 0 -11 4q2 2 2 11q0 4 -2 6q-25 -19 -28 -80q-3 -65 -11 -86q-11 -16 -34 -51 q-23 -38 -23 -56q0 -16 35 -28q-13 -6 -31 -37q-18 -35 -26 -98q-7 -53 -21 -95q-8 -23 -36.5 -58.5t-31.5 -47.5q0 -37 -18 -107q-5 -14 -31 -71q-19 -83 -51 -187q-4 -10 -15 -40.5t-23.5 -63.5t-26.5 -68q-21 -18 -56 -86h-26q-11 0 -11 6l2 4q0 13 -10 13 q-8 0 -28 -11.5t-27 -11.5q-1 2 -3.5 8.5t-8 20t-11.5 27.5q-16 43 -16 55q0 15 18 49q19 36 21 47q26 26 82 59q15 100 80 240q55 117 108 234q23 47 56 163q11 44 47 117q42 79 67 96q-12 20 -26 41q39 100 129 310q-9 26 -29 26q-46 0 -97.5 -13.5t-82.5 -26t-92 -40.5 q-9 6 -31 6q-23 0 -23 62q0 84 103 111q112 17 162 26q76 14 159 19q9 12 20 53t34 65q-29 37 -29 45q0 7 35 48l18 -21q14 14 14 29q0 18 -28 37q25 75 35 108q20 65 55 100q0 128 113 277q22 85 65 149q3 4 7 12l14 21q0 5 -7.5 21t-7.5 20q25 37 131 187q100 139 144 139 q47 0 88 -62t41 -116q0 -71 -97 -234q-95 -160 -161 -194q12 27 12 47l29 -11q8 39 57 189q39 113 39 188q-44 -24 -111 -100q-64 -76 -108 -100q8 -13 8 -33l-2 -35l-10 23q-1 -1 -7 -4t-19 -10t-26 -15q0 -13 19 -29q-205 -316 -205 -487q0 -42 14 -62l-37 9 q-43 -100 -73 -195q4 -2 26 -2q109 0 324 18q215 21 324 21z" />
<glyph unicode="g" horiz-adv-x="1101" d="M1110 801q0 -36 -14 -64q-21 -47 -23 -61q-17 -15 -50.5 -44.5t-51.5 -45.5q-57 -51 -72 -113l-22 6q-1 -11 -17 -80q-3 -13 -26 -30q-30 -24 -33 -29q-15 -125 -158 -375q2 -6 2 -18q0 -54 -18 -78q-20 -12 -31 -23q2 -2 2 -8q0 -14 -14 -39q0 -22 -29 -88 q-32 -66 -43 -98q-4 -18 -41 -64q-30 -41 -22 -69q-71 -47 -74 -94h-4q-20 0 -47 -27q9 -9 22 -6q-33 -40 -106 -154h-4q-27 0 -54.5 -20.5t-27.5 -44.5q0 -11 2 -17q-9 -9 -64 -45q-39 -26 -55 -55h-29q-10 0 -10 6q3 7 0 10q-21 -13 -70 -59q-42 -39 -80 -39 q-20 0 -82.5 -4t-82.5 -4q-11 0 -52 20q-46 19 -61 19q-26 0 -31 -8l6 16q-11 5 -143 92l14 16q-7 22 -45 54q-42 36 -57 88q-9 8 -25 22q37 55 37 90q0 22 -51 37q25 9 25 37q0 31 -33 31q30 0 39 41q2 23 10 63l-16 15q-2 8 -2 24q0 49 14 101q18 65 45 86l-14 22 q7 8 69 70q15 34 76 106q39 -19 55 -16q-20 -33 -74 -131t-87 -156q2 -16 2 -53q0 -19 -6.5 -84t-6.5 -84q0 -159 103 -289q112 -139 266 -139q24 0 115 31q74 27 110 47q39 22 113 86q77 67 104 86q18 11 43 51q23 37 43 57l-2 23q27 20 74 53q-3 14 -23 17q0 6 1.5 12 t6 11.5t8 9.5t11 9.5t10.5 8t12 8t11 6.5q2 18 2 47l16 -16l23 51q20 36 20 47q0 10 -10 27q14 8 84 53q3 20 -31 35q30 39 47 104q17 67 41 94q4 18 -12 21q22 7 36.5 39t14.5 61q0 35 -10 62q-11 -15 -59 -54q-40 -34 -43 -51h-33q-2 -2 -2 -6q0 -3 12 -6 q-30 -19 -89 -55.5t-69 -42.5q-103 -56 -172 -56q-52 0 -61 21q-3 7 -8.5 21t-7.5 20q0 1 -17.5 18t-17.5 25q0 52 39 94q46 49 61 107q69 69 158 131q2 2 9 13.5t14.5 20.5t11.5 9q8 0 12.5 -4.5t5.5 -4.5q5 5 12 19q-8 8 -30 8q12 4 82 53q66 40 104 62q3 35 53 59 q49 24 49 41q0 4 -4 12q20 0 35 -12q27 21 27 57q36 32 100 80q37 26 148 74q12 6 49 29q39 22 47 22q27 0 61.5 -19.5t34.5 -41.5zM786 590l-43 -6q-4 0 -8 4l2 4q0 9 -30 6q2 -6 2 -16q0 -27 -35 -54q-9 -6 -29 -18t-29 -18q5 -23 7 -21q0 -4 -2 -6q-6 6 -23 6 q-61 0 -119 -61q-76 -96 -86 -109q-44 -20 -100 -88q-61 -72 -94 -98q0 -21 -17 -84q84 0 215 84q200 133 201 133q0 22 37 59l53 53q9 29 37 84v13q-3 42 27 75q7 9 14.5 18t10.5 12.5t3 4.5l-14 6q10 3 20 17z" />
<glyph unicode="h" horiz-adv-x="751" d="M1085 205q-11 -36 -2 -64l-67 -49q-43 -36 -51 -61l-11 2q-26 0 -73 -47q-46 -49 -76 -56h-66q-8 0 -8 -10l4 -10q-5 0 -23.5 -5t-23.5 -5q-3 0 -14 7t-19 7q-7 0 -27.5 -3t-27.5 -3q-4 0 -19.5 3t-19.5 3t-12 -3t-12 -3q-80 0 -138 98q-51 83 -51 170q0 29 10 39 q-6 6 -20 6l-2 25q-3 121 63 256q1 1 4 5.5t10 14.5t13 19q16 29 16 39q0 -7 -2 1q-1 6 -2 15h23q0 6 12 18q-5 3 -14.5 23t-16.5 25q-22 -38 -84 -93q-46 -41 -96 -84q-56 -73 -108 -147q-82 -111 -129 -111q-5 0 -11.5 3t-11.5 3q-6 0 -25 -28q-4 4 -16 13t-17.5 14.5 t-13.5 14.5t-11 19.5t-3 22.5q0 37 86 194q95 171 107 222q35 0 65 59q24 50 27 92q3 4 24 30.5t37 47.5q-4 12 -4 24q0 37 37 95q3 4 59 86q12 -15 23 -15q5 0 24 19q-14 22 -14 47q0 51 70 100q-3 30 47 107q52 76 82 76q98 0 98 -52q0 -2 -55 -112q-30 -3 -64 -58 q-47 -76 -51 -80q-24 -11 -59 -45q-3 -25 -21 -65q-12 -9 -35 -28.5t-34 -28.5q-26 -30 -43 -78q2 -1 28 -23q-71 -3 -65 -102q-31 -24 -68 -113q-35 -93 -47 -131l12 -12q19 16 47 61q25 36 72 60q78 45 80 47q24 30 74 75q100 68 163 68q15 0 40.5 -16t25.5 -27 q0 -15 -25 -57q-27 -50 -30 -64q-9 -25 -86 -186q-58 -116 -58 -180q0 -12 -13 -48.5t-13 -44.5q0 -68 49 -147q53 -92 115 -92q69 0 217 80q2 -1 15.5 -25t21.5 -24q32 0 32 22q0 12 -6 47h10q17 0 82 47q80 58 90 64zM887 94h10l-10 -28l-10 4z" />
<glyph unicode="i" horiz-adv-x="690" d="M965 1221q-9 -15 -31 -37q-12 12 -21 12q-15 0 -24 -12l-17 12l-6 -10l2 -8q-1 0 -10 3t-12 3q-5 0 -29.5 -11.5t-28.5 -11.5q-79 -14 -243 -55q-30 -30 -64 -51q-46 -30 -67 -47q-31 17 -52 47q-29 39 -45 55v4q-1 13 19.5 31t34.5 18q6 0 6 -2v-2q0 -4 6 -4l3 1 q2 2 7 4.5l12 6t16 6.5t17.5 5.5t18.5 4t18 1.5q5 0 26.5 -4t26.5 -4q34 22 74.5 35t62 16t73.5 5t61 3q71 8 127 2q12 6 12 12q2 -2 11 -11.5t16 -16.5zM807 410q0 -54 -94 -127q-52 -42 -142 -90q-26 -16 -82 -19q-3 -13 -24 -37q-32 -23 -119 -69q-98 -52 -115 -52 q-15 0 -67.5 -10t-69.5 -10q-43 0 -90 59q-45 57 -45 107q0 24 33 86q37 72 49 84q0 22 45 67q23 62 119 193q109 145 149 145q25 -20 56 -20q2 -7 5 -17l3 -7v1q0 -10 -8.5 -43t-8.5 -39q-36 -32 -120 -104q-76 -70 -97 -119q-23 -10 -26 -33q-8 -41 -8 -47 q-16 -32 -31 -59q-19 -36 -19 -68q0 -78 37 -78q35 0 123 31q80 30 125 45q8 8 8 21q66 26 121 57q3 3 0 25q6 2 18 2q9 0 9 -4q0 -7 -21 -19q46 24 142 100q9 0 116 58l14 -2q15 -2 15 -8z" />
<glyph unicode="j" horiz-adv-x="872" d="M1450 1198q-12 -4 -23 -4q-14 0 -58 13.5t-56 13.5q-8 0 -25 -17q-4 0 -45 41q-23 0 -37 -33q-65 9 -215 9q-6 0 -14.5 4t-14 8t-6.5 4q-9 -9 -6 -25q-80 -10 -137 -20q-56 -12 -129 -72q-71 -59 -104 -59q-32 0 -64.5 27t-32.5 57q0 22 45 61t68 39q10 0 10 -2l-2 -2 q0 -4 8 -4q14 0 50 20q40 21 51 21q4 0 18.5 -4t18.5 -4q8 0 33.5 12t33.5 12q5 0 22.5 -8t22.5 -8q8 0 30 12.5t30 12.5q5 0 24.5 -8.5t24.5 -8.5q3 0 26.5 11t26.5 12q52 10 135 10q27 0 146 -51q126 -54 145 -70zM700 653q0 -4 -43 -123l-45 9q-12 0 -69 -45 q-53 -41 -70 -62q-3 -132 -55 -135q-2 -6 -2 -23q0 -20 6 -47q-18 -18 -41 -63q-10 -19 -19.5 -36t-14 -26t-5.5 -10v-22q4 -7 10 -7t17 11q-16 -16 -37 -49q-5 -24 -17 -52q-14 -35 -14 -41q0 -11 6 -32q-10 -7 -28 -33q-7 -14 -7 -84q0 -28 -28 -92q-1 -6 -3.5 -28 t-4.5 -38q-14 -3 -23 -67q-8 -44 -8 -80q3 9 -8 20h-31q-4 -4 -25 -57q-15 -38 -41 -41q0 -24 15 -51q11 4 15.5 6t10 9t6.5 18q-34 -87 -84 -238q-27 -18 -43 -47q-19 -42 -30 -53q2 -6 2 -17t-13 -46t-12 -48h-4q-3 0 -41 -41q-25 0 -59 -43q-36 -49 -39 -72 q-21 -8 -68 -45l-18 17q-18 -11 -62 -52q-32 -32 -69 -32q-13 0 -58 -4t-59 -4q-7 0 -13 3t-13 10.5t-9 8.5q-30 6 -110 6l8 19q-2 2 -8 2q-3 0 -14.5 -3t-14.5 -3q-15 0 -35 20q-3 30 -72 96q-67 64 -67 97q0 2 4 14q-5 2 -14.5 6t-14.5 6q-2 2 -20 27q-9 -2 -35 -6l16 18 q-23 20 -43 55q-32 53 -39 60v6q0 18 21 45q-34 34 -43 127t-37 121q0 39 29 39q6 0 11 -2.5t8 -4.5l3 -2q8 11 8 25q0 7 -9 33t-9 35q0 21 21 79q19 58 16 80l188 189q4 1 15 -3.5t14 -4.5q12 0 33 18l33 23q-9 -34 -54 -62q-47 -31 -63 -51q-15 -18 -74 -172 q-61 -152 -61 -172q0 -42 20 -121q21 -89 43 -111q-10 -17 -10 -38q0 -59 74 -154q62 -78 112 -139q2 -1 127 -58q75 -37 135 -37q138 0 265 127q22 22 84 164q2 -1 6.5 -2.5l9 -3t8.5 -2.5q6 18 6 27q0 13 -6 22h27q6 9 6 19q0 12 -10 12q28 0 45 20l16 -24v82q-2 37 -2 84 q41 9 64 39v6q1 6 -3 22t-4 19q0 26 31 45q2 19 29 98q26 68 26 96q0 17 -10 27q0 1 2.5 5t8.5 13.5t12 18.5q6 50 45 76q-3 44 -35 63q93 167 111 344q5 6 38 39q-8 8 -36 8q26 0 45 19q-15 30 -33 39q19 40 76 118q0 2 -9.5 15.5t-9.5 21.5q0 26 21 35q30 12 37 23 q7 7 32 94q21 66 54 69l-19 17q2 1 51 47q36 31 58 31q38 0 77 -32.5t39 -68.5zM35 -909l10 -25h-10l-10 21z" />
<glyph unicode="k" horiz-adv-x="954" d="M1137 225q-11 -20 -72 -94q-63 -78 -74 -78q-4 0 -8.5 3.5t-7.5 7.5t-4 4q-9 -21 -56 -45q-34 -21 -28 -37q-12 0 -49 -11q-18 -7 -26.5 -14.5t-6.5 -15.5h-6q-18 0 -27 12q-35 -24 -47 -55q-3 6 -16 6t-56 -21q-41 -20 -53 -20q-16 0 -76 -7t-78 -7q-38 0 -59 24 q-4 5 -12.5 14.5t-12.5 14.5q-102 44 -139 92q-43 55 -43 164q0 7 8.5 30.5t8.5 30.5q0 3 -7 6q-2 4 15 31q2 2 2 43q0 28 18 49q25 23 39 37q-9 6 -20 6q-33 0 -56 -39q-2 -3 -14 -26t-18 -37q-2 -1 -9.5 -5t-10 -5t-10 -5.5t-9.5 -6t-8.5 -6t-6.5 -6.5t-4.5 -7t-2.5 -8 t1 -8q-7 0 -29.5 -4.5t-29.5 -4.5q-13 0 -32 26t-19 44q0 17 30 63q28 42 43 60q4 4 -6 20q71 145 123 228q17 28 53 114q37 88 58 121q3 8 39 33q26 20 26 39q0 14 -12 26q6 7 20.5 24t22.5 27.5t17.5 25.5t12.5 29t1 28q8 15 32 67q44 44 78 125q17 39 90 39q37 0 37 -59 q0 -35 -73 -129q-80 -103 -89 -136q-24 -10 -57 -36q-6 -8 -8 -36t-4 -32q-33 -53 -127 -223q-2 -17 -19 -76q-1 -2 -16.5 -22.5t-15.5 -26.5q0 -5 6 -8h4q10 0 57 53q47 56 103 59q40 70 110 113q26 18 101 45q82 29 102 29q6 0 18.5 -5t25 -11.5t13.5 -6.5v-24 q-23 -8 -28 -68q-124 -82 -179 -137q-46 -43 -126 -150q-31 -40 -60 -78.5t-43 -57.5t-18 -24q0 -23 -13 -90q-10 -65 -10 -88q0 -84 58 -141t143 -57q40 0 102 18q69 16 76 16q4 0 12 -3t13 -3q8 0 26 21q21 21 25 26l8 -14h18q8 15 34 39.5t36 24.5q8 0 8 -2q0 -5 6 -5 q3 0 125 78q120 77 142 86zM274 461q-12 -3 -30 -12v-33q30 18 30 45z" />
<glyph unicode="l" horiz-adv-x="647" d="M553 66q-8 8 -51 8q-11 0 -22 -20.5t-11 -35.5h-6q-14 0 -21 7q-90 -78 -159 -78q-22 0 -27 8l-23 -16l5 10q0 6 -11 6q-3 0 -21 -8t-26 -8q-21 0 -61 43q-25 32 -53 63q10 7 30 31q-3 6 -12 6q-12 0 -25 -8q0 9 -9 40t-9 40q0 13 20.5 51.5t20.5 54.5q0 24 -8 43l16 -8 q0 5 -0.5 18.5t-1.5 20t-4.5 15t-9.5 13.5q59 53 47 123q10 0 33 23v2q0 2 -2 6t-6.5 14t-8.5 19l8 -2q35 0 50 59l22 86q21 12 37 31q18 26 31 39q-13 48 -11 63v6q16 8 21 11q0 14 -16 30q15 4 23.5 17.5t13 29.5t6.5 19q11 13 59 96q38 71 65 92q-16 13 -30 13q8 11 8 22 q10 0 18 -8q20 20 52 45q-1 3 -17 15t-16 20q0 12 28 43q29 32 29 35q8 -8 25 -8l14 14q-16 20 -39 31q37 43 66 129q15 49 80 49q10 0 38 -13t37 -20q-7 -51 -8 -61q-46 0 -61 -62q-14 -8 -35 -74q-21 -65 -43 -84q-78 -72 -78 -100q0 -6 4 -18q-47 -68 -47 -86 q0 -10 6 -19q-47 -23 -63 -59q-3 -14 -9.5 -41t-9.5 -41q-62 -39 -59 -94q-13 -29 -49 -74q12 -15 12 -35q0 -30 -43 -88q-41 -59 -41 -88q0 -16 8 -29q-30 -10 -39 -127q-12 -18 -12 -39q0 -4 4 -16h-6q-9 0 -18 -6q8 -8 32 -109q21 -86 56 -86q19 0 135 52q114 51 127 51 q8 3 8 -2q0 -4 8 -4q101 94 135 94q9 3 9 -2q0 -4 8 -4q6 0 35 13t43 13l12 -2q-26 -43 -98 -102q-91 -78 -109 -98z" />
<glyph unicode="m" horiz-adv-x="1226" d="M1518 274h22q-12 -60 -125 -161q-110 -101 -178 -119q-15 -3 -76 -39q-59 -35 -74 -35q-8 0 -46 -4t-50 -4q-124 0 -182 149q-6 18 -6 119q0 29 -12 47q-16 -20 -44 -54.5t-51.5 -63t-44.5 -52.5q-91 -110 -168 -110q-35 0 -55 45q-14 32 -14 74q0 33 14 104h10 q12 0 21 6q-10 10 -31 10q3 22 37 109q22 68 22 111v10q-114 -119 -286 -342q-12 -17 -49 -41q-44 -29 -50 -29h-82q0 20 7 31l-11 10l-14 -6q-14 14 -14 37q0 7 37 82q39 73 43 94q18 43 88 211q9 29 28.5 87.5t28.5 88.5q49 141 66 141q5 0 21.5 -10t21.5 -10t11.5 3 t10.5 3q31 0 31 -41q0 -36 -72 -209q-64 -148 -98 -207q-2 0 -2 -2t10 -2q30 0 129 111q100 112 109 112q4 0 6 -4t6 -4q8 0 15.5 12.5t12.5 26.5l5 14q82 105 159 105q8 0 32.5 -2t31.5 -2l22 -23q-59 -147 -190 -456l4 -45q45 50 113 90l4 28q48 40 110 127q23 31 49 66.5 t37 51t15 19.5q9 3 24 3q12 0 46 -7.5t42 -7.5q15 -30 15 -45q0 -4 -15 -28t-16 -29q-6 -19 -29 -121q-18 -92 -18 -115q0 -166 78 -166q19 0 120 37q110 41 125 51q73 46 80 46q4 0 6.5 -3.5t6.5 -3.5q2 0 18 31q23 4 45 12q74 55 107 88z" />
<glyph unicode="n" horiz-adv-x="950" d="M1106 186h45q-22 -17 -156 -176q-23 -8 -84 -35t-61 -53q-25 -3 -111 -31q-74 -22 -110 -22q-112 0 -170 104q-47 86 -47 209q0 49 22 135q24 85 39 132q-13 0 -88 -78q-73 -76 -84 -76q-9 0 -12 6q0 -2 -13 -25l15 -4q-218 -237 -250 -237q-4 0 -22.5 -3t-22.5 -3 q-17 0 -37 27t-20 46q0 54 86 131q0 11 -13 11q109 275 174 407v11q0 26 15 69q17 17 28 17q33 0 60.5 -20.5t27.5 -49.5q0 -5 -84 -178q-81 -166 -81 -183q0 -2 4 -2q23 0 53 19.5t39 21.5q52 58 108 117q82 79 125 82q3 5 6 29q25 12 78 63q61 55 64 55q14 0 57 -14 q46 -15 51 -22q-6 -19 -20.5 -55t-20.5 -54q-2 -1 -24 -14q-30 -76 -119 -232v-14q3 -21 -14 -72q-15 -47 -15 -67q0 -55 31 -115q35 -68 86 -68q52 0 131 33l82 33q5 0 14 -18q2 0 103 79q63 48 116 45q3 13 19 39zM285 369h10l-10 20l-9 -4zM270 350h11v25h-11v-25z" />
<glyph unicode="o" horiz-adv-x="747" d="M1122 762l21 -43q-27 2 -66 2q-13 0 -65 -2t-68 -2q-5 0 -16.5 -7.5t-16.5 -7.5q-12 0 -56.5 3.5t-57.5 3.5q-7 0 -30 -10.5t-30 -10.5q-8 0 -36.5 7t-36.5 7q-23 0 -58 -32l-51 -47q-12 -105 -27 -156q-24 -99 -73 -133q3 -14 20 -17q-25 -42 -75.5 -124.5t-75.5 -124.5 q-109 -142 -238 -142q-27 0 -61 43q-33 39 -33 72q0 10 28 35q-12 12 -34 12q14 59 59 182l6 -14q18 18 66 129q36 85 94 100q-3 19 -23 19q68 45 84 57q-3 16 -20 19q4 5 36 39t42 47t23 42.5t12 57.5q295 14 319 14q12 0 49 -4t49 -4t46 10.5t46 10.5q11 0 52.5 -12.5 t54.5 -12.5q79 0 141 -6zM440 563q0 7 -4 30t-4 28q-48 -29 -113 -129q-78 -117 -106 -142q-86 -177 -86 -225v-57q17 7 63 20q51 39 150 227q100 184 100 248z" />
<glyph unicode="p" horiz-adv-x="954" d="M1278 571l31 -36q-6 -1 -18.5 -4.5t-35.5 -10.5t-43 -12q-68 -21 -84 -21q-4 0 -16 4.5t-16 4.5q-24 0 -76 -21q-50 -18 -74 -18q-3 0 -13.5 3t-14.5 3q-32 0 -134 -51v-11q0 -83 -206 -247q-207 -160 -316 -160h-100l-3 3q-3 3 -8.5 7.5t-12 11t-16.5 16t-20 19.5 q-28 -28 -28 -43q0 -10 18 -10q-3 -14 -14.5 -55t-18.5 -68q-3 -11 -47 -102q-32 -63 -32 -101q0 -17 10 -30q-21 -93 -39 -127q-35 -68 -103 -68q-14 0 -30.5 19t-16.5 36q0 19 31 76q28 54 45 64q-3 10 -18 10q0 40 67 110v9q-6 20 -8 30q15 10 33 35q15 25 29 39 q-8 3 -27 14q24 7 39 25q-13 13 -25 16q19 0 35 23q26 36 29 39q-3 10 -27 10q20 7 23 35q1 7 2 21.5t2 21.5q3 6 26 49q10 10 68 53q0 2 -6 12t-6 15q0 17 22 53q6 10 12.5 21t10 17t4.5 9q6 27 12 51q9 36 27 43l-13 13q52 61 52 82q0 20 -21 63q-18 44 -18 64 q0 93 94 145q76 43 180 43q37 0 146 -65q108 -64 108 -97q0 -5 -8 -8q18 -26 65 -117q3 -1 30 -12.5t32 -11.5q19 0 43.5 9t35.5 15.5t42 24.5l16 -12q14 20 19 20t10 -7t10 -7q9 0 51.5 9.5t54.5 10.5zM696 492q-9 6 -18 51q-8 41 -16 57q-17 31 -72 72q-57 45 -88 45 q-16 0 -51 -21q-7 -16 -20.5 -46.5t-20.5 -45.5q-27 -59 -62 -80q0 -46 -34.5 -105.5t-77.5 -92.5v-13q2 -4 2 -10q0 -4 -2 -6h-7q-19 3 -34 -6v-23q16 -16 16 -32q0 -15 -14 -23q79 57 168 115q16 2 69 16q4 1 51 29q39 26 43 26t6.5 -3t6.5 -3q8 0 30 25q23 26 33 26 q4 0 19 -3t20 -3q9 0 19 8.5t16.5 18t11.5 18.5zM651 385q-31 0 -35 2q-14 -33 -24 -33q-17 0 -35 6q8 -8 10 -12q0 -4 -2 -6q-21 12 -33 12q-66 -53 -149 -116q-88 -73 -100 -156q48 29 92 45q77 33 96 39q18 20 51.5 55.5t44.5 48.5q55 65 84 115z" />
<glyph unicode="q" horiz-adv-x="980" d="M963 717q0 -15 -84 -125q-79 -104 -109 -127q-31 -70 -74 -209q-23 -16 -34 -63q-8 8 -25 8q0 -2 7 -13.5t7 -19.5q0 -9 -4.5 -17.5t-9 -13t-14 -12t-13.5 -10.5l21 -13q-11 -44 -23 -53q-10 -8 -26 -4v-22q0 -9 -19 -25q10 -20 10 -41q0 -29 -30 -100v-25q7 7 119 88 q87 62 120 64q3 3 9.5 10t10.5 11t10 8.5t12.5 7t13.5 2.5q16 0 20 -7l21 21q16 -16 16 -35q0 -5 -7 -20t-7 -19h-13q-27 3 -30 -39q-89 -21 -162 -112q-102 -132 -123 -158q-31 -23 -64 -55q9 -6 9 -15q0 -13 -31 -49q-30 -35 -27 -53q-29 -6 -71 -103q-34 -76 -43 -127 q-77 -66 -121 -69q-14 36 -49 57q18 33 250 504v51q0 5 34 92q36 92 37 93q38 41 47 106q3 22 10.5 62.5t10.5 58.5q-19 -13 -90.5 -66t-110.5 -80q-130 -86 -225 -86q-33 0 -80 41q-45 42 -45 74q0 67 51 82q66 21 84 66q6 12 6 16q0 3 -12 18q11 2 67 52q32 11 68 30l-4 8 q-11 -6 -37 -12l70 70q43 36 82 51q21 27 67 76q7 11 33 49q40 40 184 121q148 86 189 86q34 0 78 -27q43 -27 43 -59zM690 618q-83 -55 -260 -178q-46 -34 -158 -155q-122 -134 -122 -164q0 -18 8 -23h28q6 0 45 17q37 16 43 16q9 0 9 -2h-2q0 -4 8 -4q18 0 71 39 q56 39 70 51q38 50 139 160q21 9 52 37q12 17 69 206z" />
<glyph unicode="r" horiz-adv-x="720" d="M952 508q-27 -59 -116 -121q-104 -74 -131 -104q-37 -11 -93 -54q-58 -44 -86 -63q-22 -8 -49 -25q-4 -4 2 -24q-24 -5 -137 -80q-97 -66 -174 -66q-5 0 -9 -3t-9 -3q-36 0 -68.5 38t-32.5 77q0 55 113 235q103 166 160 220v92q0 14 -27 41q-3 -1 -78 -27 q-56 -18 -70 -18l-16 28q0 1 4 2.5t12.5 6.5t16.5 12q28 25 63 78q-1 20 -20 122q30 23 76 23q44 0 63 -29q3 -13 35 -102q3 -9 47 -62q37 -46 37 -53q0 -88 -19 -131q-28 -28 -36 -35q-3 -38 -101 -174q-96 -140 -96 -166q0 -22 20 -22q30 0 52 16q2 1 9 6.5t8.5 6.5t8.5 6 t10.5 6.5t11 5.5t13.5 6.5t15.5 6t19 6.5t22.5 6.5t27 7.5q3 28 66 67q35 19 86 51q6 0 82 33q55 21 61 56q-1 -2 0 -3.5t5 -2.5t11 -1q16 0 95 54q80 58 92 75q3 -19 24 -22z" />
<glyph unicode="s" horiz-adv-x="884" d="M428 621l-6 12l70 192q59 109 155 109q3 0 47 -23q41 -21 43 -28q9 -48 11 -45q0 -16 -27 -43t-39 -27q-14 0 -20 6q-8 -20 -70 -121q-45 -71 -45 -129q0 -50 14 -75l512 116v-47q-24 -12 -117 -61q-94 -49 -104 -49q-38 0 -59 12q-8 0 -5 -21q-17 7 -30 7 q-21 0 -123 -54q-3 -1 -10.5 -2t-25.5 -3.5t-34 -4.5q-12 -17 -22 -100q-9 -92 -13 -113q-12 4 -22 14q-2 -2 -2 -8q0 -3 2 -16t2 -17q-2 0 -33 -14q0 -8 21 -8v-31q0 -9 -156 -135q-14 0 -63 -7t-62 -7q-7 0 -55 28q-48 32 -64 37q-9 27 -30 45q-15 15 -15 56q0 24 6.5 47 t14.5 39.5t24.5 38t27 32.5t33 34t31.5 32l-2 -6q0 -9 15 -9q33 0 24 56q9 2 29 6t29 6q34 8 49 27q2 1 55 4q45 62 45 106q0 9 -16 25q-35 -35 -56 -35q-8 0 -16 7t-10 7l-6 -41q-19 -8 -29 -8q-3 0 -7.5 4t-8.5 4q-1 0 -9.5 -2t-9.5 -2q-23 0 -26 33q41 18 96 70 q68 65 92 80zM434 274q0 -4 -2 2q0 1 -2 5q-2 9 -4 14q-26 -5 -39 -10q-64 -34 -154 -109q-1 -7 -18 -65q-16 -53 -16 -62q0 -5 4 -20t4 -17h29q73 0 139 97q59 89 59 165z" />
<glyph unicode="t" horiz-adv-x="944" d="M1118 756v-47q-2 -2 -4 -2l-15 -6q-15 -6 -30 -11q-121 -37 -151 -37q-72 0 -140 -2h-139q-24 -18 -47 -18q-9 0 -40 10t-40 10q-26 0 -96 -125q-78 -137 -92 -155q-9 -90 -60 -135q-10 -88 -43 -230q-32 -28 -65 -61q-4 0 -4 8q0 10 6 22q-3 3 -11 3q-5 0 -24.5 -5.5 t-24.5 -5.5q-17 0 -31 15t-14 32q0 35 62 138q63 100 63 137q0 6 -4 18h23q9 9 6 37q19 6 30 8q6 29 78 256l-28 -7t-29 -7.5t-25 -10t-25 -17t-20 -25.5t-18 -37q-4 -16 4 -35q-10 -23 -14 -25t-31 -2q-16 0 -64 48q-45 45 -45 65q0 76 121 135q104 49 193 49q4 0 16 -3 t16 -3q44 0 70 51q37 64 47 74q33 23 33 51q0 11 -2 17v18q0 25 39 70q41 47 53 74q47 133 86 172q28 59 47 110q0 3 13 68q9 24 79 24q13 0 39 -26q29 -29 29 -37q0 1 -3 -10t-11.5 -40.5t-18.5 -62.5q-54 -35 -114 -145q-83 -157 -89 -168q-20 -23 -61 -82q-2 -4 -2 -45 q-22 -14 -39 -41q-15 -29 -27 -47q0 -9 19 -25q47 15 74 15q14 0 60 -5.5t58 -5.5t47 5.5t43 5.5q9 0 9 -5l-2 -2q0 -8 8 -8t33.5 7.5t33.5 7.5t34 -7.5t34 -7.5q2 0 26 5.5t56.5 11t54.5 4.5zM602 971l27 26l-8 9l-25 -27z" />
<glyph unicode="u" horiz-adv-x="968" d="M1278 326q-64 -25 -180 -154l-23 6q-27 0 -86 -33q0 -18 19 -18q-87 -40 -152 -68q-12 -26 -25 -26q-4 0 -4 12q-3 5 -6 2q-46 -49 -119 -49q-189 0 -192 235q-24 -24 -111 -94l-30 -4q-6 -48 -105 -106q-98 -58 -151 -58q-4 0 -17.5 7.5t-17.5 7.5q-5 0 -9 -7.5t-8 -7.5 q-7 0 -29 14.5t-30 14.5q0 9 -10 44t-10 44q0 73 79 180q86 118 95 164q64 101 108 166q89 127 123 127q10 -4 33 -14q13 -5 26 -9.5t15 -5.5v-59q-27 -12 -80 -86q-70 -98 -74 -102q-8 8 -16 8q-3 -44 -62 -127q-56 -76 -59 -117l-6 14q-6 -12 -22.5 -52.5t-28.5 -68.5 q7 -10 16 -10q62 0 250 164l246 221q3 22 67 86q65 68 82 68q4 0 15.5 -7t15.5 -7q8 0 11 4t11 4l2 -2q41 -21 41 -52q0 -43 -59 -96q-23 -19 -46 -38.5t-33 -28t-13 -11.5q-29 -44 -55 -114q-25 -77 -25 -123q0 -55 43 -55q28 0 111 22q74 21 106 35q17 9 131 82 q106 69 111 69q4 0 6 -4t6 -4l2 1q2 2 7.5 6t13 9t19 12.5t24 15.5t30.5 20q31 -36 29 -47z" />
<glyph unicode="v" horiz-adv-x="829" d="M1090 668q-2 -1 -9 -5.5t-15.5 -8t-14.5 -3.5q-4 0 -18 4t-19 4q-4 0 -16 -7t-17 -7q-4 0 -14 7t-15 7t-9 -7t-9 -7q-7 0 -31 7t-31 7q-120 0 -243 -57q-138 -65 -185 -160q-30 -69 -137 -247q-123 -205 -153 -205q-5 0 -25 -4t-25 -4q-9 0 -38 16q-29 69 -29 225 q0 32 8 84t8 90q0 112 41 150q-22 36 -22 100q0 121 55 121q24 0 98 -45q-4 -83 -35 -227q-30 -156 -30 -232v-22l10 -13q41 50 152 242q84 141 153 195q101 79 262 79q8 0 33.5 -7t32.5 -7t27 7t24 7l70 3q81 0 108 -9q61 -15 58 -71z" />
<glyph unicode="w" horiz-adv-x="1222" d="M954 481q-187 -441 -399 -549q-129 76 -129 215q0 17 6 80t6 80q0 41 -8 68q0 6 -12 6q-14 0 -74 -78q-60 -76 -78 -94q-9 -7 -34.5 -29t-41.5 -35q-20 -30 -67 -114h-1l-1 -1h-1l-23 -7h1q-18 0 -51 36q-35 38 -35 56q0 38 99 323q104 294 131 344q96 -41 96 -116 q-65 -47 -86 -154q-14 -8 -43 -31v-110l18 -21q12 8 138 137q113 113 124 113q12 0 68 -16q0 -25 14 -68q17 -49 17 -63q0 -34 -23 -131q-22 -93 -22 -136q0 -81 49 -102q25 34 69 98t58 84q79 114 98 193q22 3 27 10q29 86 82 203q7 10 82 28q76 21 98 21q7 0 35.5 -4 t36.5 -4q30 0 110 6q78 7 113 4h4q17 -15 29 -61q-181 -34 -408 -117z" />
<glyph unicode="x" horiz-adv-x="1157" d="M1198 319l-68 -102q-28 0 -22 -51l-18 6q-29 -15 -123 -68q-1 -1 -49 -45q-29 -26 -58 -26l-14 6q-20 0 -96 -43q-71 -45 -99 -45q-5 0 -19.5 4t-19.5 4q-25 -31 -75 -31q-19 0 -40.5 5t-36 9t-39.5 17.5t-33.5 18t-37.5 22.5t-33 20q14 11 25 27h-12q-51 -3 -78 74 q-27 87 -35 119q-59 -49 -156 -105q-110 -62 -167 -82q-27 35 -27 41q0 19 29 51q39 39 41 45q6 -13 18 -10q73 39 70 64q2 -2 8 -2q32 0 98 51q68 49 91.5 80.5t23.5 93.5q0 43 20 63q-14 11 -14 37q0 14 9 46.5t9 35.5q3 12 0 31q-4 28 -4 31q0 43 25 55q4 0 20.5 3 t20.5 3q32 0 53 -27t21 -63q0 -30 -9 -86q-9 -46 -14 -86q0 -4 16 -4q10 0 50 37t51 37q6 0 6 -2v-3q0 -4 16 -4q0 40 185 148l6 -2q0 -7 8 -4l92 51q17 -12 43 -23q-6 -38 -106 -98q-107 -70 -129 -98q-69 -62 -267 -199v-27q-3 -170 84 -239q1 0 14 -16.5t21 -16.5 q19 0 33 2h33q29 0 41 -2l28 29q16 0 45 -29q95 74 127 74q8 0 8 -2l-2 -2q0 -4 9 -4q10 0 36 26q30 27 37 27q4 0 23 -4t27 -4q10 0 16 26q23 3 74 19q2 2 14.5 10.5t34 24.5t45.5 34q74 56 80 56q8 0 8 -2v-2q0 -5 8 -5z" />
<glyph unicode="y" horiz-adv-x="1226" d="M1298 973q3 -38 -18 -72q-6 -8 -32.5 -21.5t-30.5 -17.5q-11 -20 -66 -90q-2 -2 -166 -143q-152 -130 -240 -361q-25 -68 -75.5 -205t-75.5 -206q-20 0 -59 -33q21 -18 24 -31q0 -8 -10 -35q-14 -28 -14 -32v-5q0 -17 -33 -90q-3 -3 -27 -98q-26 -11 -22 -37q3 -24 8 -33 q-33 -23 -41 -69q-8 -49 -35 -66l2 -6q3 -34 -25 -94l-45 -92q-21 -61 -157 -226q-1 -1 -4.5 -3t-11.5 -7t-15 -10q-16 -10 -16 -31l-19 4q-27 -50 -53 -67q-147 -114 -227 -123q-4 0 -27 9t-31 9q-5 -1 -8 -8.5t-8 -7.5q-12 -1 -57 9t-58 9q-16 -3 -24 -16l-25 20v-2 q0 -5 -14 -8q1 0 -0.5 1t-7.5 2.5t-13.5 4t-20.5 6.5t-26 8.5t-33 10.5t-39 12v6q0 19 -36 31q-47 14 -54 21l-80 55q-50 38 -65 65q-68 128 -84 224q6 15 6 32q-1 13 -18.5 40.5t-18.5 33.5l-4 53q18 5 53 43q8 19 2 93q0 13 -6 22l-14 -18q-5 19 -16 35q-6 9 -21 34 q56 6 53 66q-1 3 -3 10t-3 10q14 46 29 84q28 3 45 54q6 21 27 77h41q-112 -227 -103 -346q0 -4 3 -18.5t3 -18.5q1 -9 -5 -47t-5 -47q21 -231 162 -401q160 -185 381 -164l86 8q109 9 289 201q26 18 92 84q3 1 6.5 2t10 3t11.5 3q106 210 107 213q60 123 86 221q32 8 29 49 q-4 29 -17 52l19 -7q15 9 18 43q11 4 31 21q0 1 -4 21t-6 36v6q26 26 38 86q18 71 23 95q26 23 29 55q24 3 34 16q-8 3 -22 17l22 2q2 4 2 10q-1 4 -4 14.5t-4 14.5q0 11 19 47q15 32 28 53l15 -6q-2 8 2 51l4 15v-1q-3 20 -29 17l-4 26q12 20 47 50q-10 20 -20 36 q-3 -20 -70 -69q-79 -60 -86 -72q-52 -70 -106 -129q-6 -1 -10.5 -6t-6.5 -11l-2 -5q-25 -8 -74 -54q0 -4 2 -8q0 -8 -12 -8q-6 -1 -11 2t-8 7l-3 3q-4 -4 -2 -6q0 -7 6 -22q-25 -12 -78 -15q-32 -3 -74 33q-42 39 -45 70q-3 42 76 161q81 118 78 164q46 18 37 84 q20 12 51 105q24 81 80 84q12 2 51 -21q34 -21 37 -35q3 -26 -45 -96q-46 -67 -76 -90q-6 -102 -72 -156q-39 -82 -55 -145l12 -12q1 0 180 147q46 46 107 102q51 26 72 35q4 4 2 6q0 1 -0.5 3.5t-1.5 7t-2 8.5q9 12 53 40.5t53 39.5q42 72 131 174q-1 2 -2 6.5t-2 7.5 q-3 22 49 68q53 47 53 92q4 4 11 4q8 3 22 -6q0 3 4 53q20 8 107 105q70 76 117 79q23 3 73 -20q46 -21 49 -47zM-934 -549l12 2l-4 -43l-12 -2zM-926 -600l13 -49h-13l-12 47z" />
<glyph unicode="z" horiz-adv-x="1007" d="M1014 358v-24q-14 -6 -38.5 -17.5t-33.5 -15.5q-53 -21 -53 -45q-5 0 -22.5 3t-22.5 3q-6 0 -56 -29q-42 -26 -51 -26q-5 0 -14 6t-14 6q-4 0 -18.5 -3t-18.5 -3q-7 -13 2 -33q-2 -1 -9 -5t-15.5 -7.5t-14.5 -3.5q-4 0 -17 7t-18 7q-24 0 -59 -35q-34 -34 -41 -34 q-5 0 -9.5 3t-9.5 3q-12 0 -51 -31q-36 -31 -55 -31q-21 0 -41 -26q-24 -37 -31 -41q-37 -8 -104 -47q-22 -19 -49 -89q-5 0 -24 -3t-24 -3q-14 0 -51 29q-33 26 -33 43q0 10 45 61q31 33 50 52q1 1 4 37q101 110 147 208q7 16 55 56q52 42 66 84q29 70 127 153t121 135 q-15 3 -37 3q-18 0 -80.5 -5.5t-79.5 -5.5q-18 0 -30 15q-13 -13 -13 -27q-4 5 -16 6q-18 0 -78 -31q-60 -28 -66 -43q0 -1 17.5 -19t17.5 -26q0 -4 -3.5 -12.5t-7.5 -16.5l-5 -10q0 -1 -1.5 -3.5t-6.5 -4.5t-11 -2q-42 0 -116 51q-78 54 -78 88q0 30 41 60q42 31 70 31 q8 0 8 -2q0 -5 6 -5q11 0 41 15q37 16 47 18q171 23 233 23q4 0 17.5 -7.5t17.5 -7.5q8 0 19 9.5t12 9.5q37 16 115 16q5 0 23.5 -3t23.5 -3q21 0 67 21q44 20 68 20q23 0 78 -55q0 -94 -211 -170q-18 -14 -68 -60q-44 -46 -88 -100q-54 -60 -108 -72q7 -7 20 -4 q-60 -116 -139 -184v-45l16 8q5 0 10 -7t9 -7q10 0 39 20q30 21 40 21q9 0 9 -2h-2q0 -4 8 -4q7 0 37 20t37 20q4 0 8 -3t8 -3q10 0 70 31q56 33 69 33q5 0 9.5 -4t9.5 -4q69 35 184 57q6 1 36.5 17t37.5 16q5 0 12 -10.5t12 -10.5t14 3zM315 152h13l-9 38h-12z" />
<glyph unicode="|" horiz-adv-x="536" d="M322 1636q0 -83 -19 -129l-20 6q0 -55 -13 -198q-12 -132 -12 -195q0 -90 18 -149q-16 -16 -16 -39q0 -28 14 -60q20 -50 25 -55l-18 -14l10 -8l-2 -4q0 -10 12 -31q-42 -36 -45 -123q-1 -24 -2 -71t-2 -70q41 -9 41 -41q0 -52 -27 -52q-3 3 -4 3q-22 0 -22 -29 q0 -48 39 -96q-31 -98 -31 -224q0 -64 10 -116q-15 -63 -16 -58q0 -19 20 -30q-20 0 -39 -29q-19 3 -28 0q-33 53 -33 203q0 169 12 204q-10 202 -10 304q0 61 6 190q9 156 16 158q9 6 13 6l8 -4q0 11 -29 30v5q-1 13 7 50t8 44q0 37 -13 133q-10 98 -10 133q0 116 10 406 q20 10 56 10q86 0 86 -60z" />
<glyph unicode="~" horiz-adv-x="1175" d="M1012 1049q0 -40 -88 -95q-85 -55 -127 -55q-64 0 -179 59q-117 60 -176 60q-43 0 -112 -57q-71 -56 -72 -56h-31q-12 0 -37.5 24t-25.5 36q0 53 78 110q71 53 127 53q8 0 13 -7t9 -7q3 0 15 10.5t20 10.5q84 0 137 -35q90 -60 107 -68q104 -43 112 -43q18 0 105 37 q88 39 117 39q8 0 8 -16z" />
<glyph unicode="&#xa1;" horiz-adv-x="970" d="M606 827q7 -7 25 -14q3 6 0 14q0 4 -3 19.5t-3 19.5l16 19q45 -15 76 -29q0 -16 -27 -65q-25 -49 -22 -64q0 -4 3 -20.5t3 -20.5q3 -18 -17 -72q-16 -42 -20 -65q-21 -3 -45 -27q-4 -58 -17 -143q-8 -21 -34.5 -90t-46.5 -119q-9 -61 -54 -193q-16 -25 -69 -28 q-28 -2 -61 13.5t-34 37.5q0 1 31 79t121.5 304t177.5 444zM711 1440q-2 12 20 34.5t35 22.5q4 0 17 -6t18 -6q38 3 55 -17q13 -18 21 -55q-55 -46 -101 -49q-12 0 -41 29q-24 30 -24 47z" />
<glyph unicode="&#xa2;" horiz-adv-x="1034" d="M563 -47q-11 8 -28 10q0 -12 2 -18q1 -5 10 -22.5t10 -22.5l-14 -29q-21 0 -86 10q-3 18 10 86q12 65 4 84q-5 14 -10 23q-1 2 -2 6t-2 6q-47 -24 -119 -66q-112 -53 -127 -53q-7 0 -27.5 10.5t-27.5 10.5q-5 0 -22.5 -7.5t-22.5 -7.5q-6 0 -21.5 12t-17.5 13 q-101 40 -101 154q0 67 78 157q108 123 121 144l6 -15q23 16 23 37q0 8 -6 17q61 68 163 170q14 -14 35 -23q3 8 35 70q18 25 59 49v2q2 2 2 10q-6 83 0 248q9 35 64 59q23 12 62 3.5t46 -31.5q0 -3 -6 -86q16 4 27 4q13 0 41.5 -17.5t28.5 -27.5q0 -14 -33 -93 q-8 -2 -37 -20q-12 -63 -53 -141q-13 -154 -39 -435q100 58 262 164q3 -1 6 -4t6 -4l12 12l-14 23q3 0 34.5 11t45.5 11q4 0 16 -4q-87 -81 -90 -84q-58 -52 -104 -61q-17 -27 -14 -45q-8 -1 -33 -23.5t-27 -23.5q-12 -5 -47 -21t-59 -26q-15 -161 -19 -205zM457 598 q-5 8 -15 8q-4 0 -57 -41q-1 -2 -14 -41q-6 -4 -25 -18.5t-33 -24.5q-17 0 -49 -14q-3 -79 -145 -221q-17 -56 -17 -82q0 -33 27 -67t57 -34q79 0 263 93q0 20 2 30q4 77 2 88q19 6 39 45q-15 59 -27 175q0 6 3.5 40.5t4.5 57.5h-2q-5 0 -14 6zM946 485h31l-23 -26 q-14 0 -24 10zM270 500l21 8l-4 10l-17 -8v-10z" />
<glyph unicode="&#xa3;" horiz-adv-x="1773" d="M-162 -213q0 53 105 109q87 46 159 55q5 7 76 45q52 27 49 53q89 62 160 232q74 185 137 251q-12 24 -12 46q-3 27 25 75q29 57 32 76q1 4 4.5 16t4.5 19q-101 -14 -172 -14q-33 0 -61 26t-28 58q0 46 304 73q50 139 86 142q2 2 2 10q0 4 -7.5 20t-7.5 21q23 21 80 155 q46 113 111 148q3 18 12 43q1 1 9 7.5t26 22t39 33.5q207 180 297 183q9 0 42 5t42 5h94q7 1 16.5 -16t16.5 -17q5 0 14 5t14 5q8 0 31 -17t31 -17q4 1 10 5.5t14 4.5q13 0 47 -27q34 -24 48 -24h6q-4 -12 -4 -27q8 2 28 2q-27 -74 -102 -18q-59 41 -121 41q-17 0 -81 3 t-81 3q-86 -3 -239 -115q-147 -109 -195 -188q-22 -41 -39 -70q-27 -50 -45 -53q-2 -12 -27 -68l-22 -47q0 -4 3 -17.5t3 -17.5t-27 -51q-26 -47 -28 -55l-4 -11q15 1 51 3.5t57 3.5q40 3 74 0h88v-35q0 -49 -258 -96q-53 -11 -57 -11q-7 -22 -24 -73t-26 -80 q-30 -105 -73 -148q-21 -215 -139 -393q4 -2 14 -39l33 -6q21 0 77 18q57 19 82 23q73 12 152 16q17 0 72.5 -6t70.5 -6q14 0 24.5 3t14.5 6t2 3q10 0 78 -22l25 16q4 -12 16 -24q13 3 10 32l58 -6q10 0 45 56q-21 24 -39 67q-27 68 -31 72h6q42 0 182 -82l189 -107v-57 q-7 -11 -45 -25q-38 -15 -47 -12l-572 14q-89 3 -250 -20q-67 -11 -131.5 -22t-88.5 -15t-25 -4q-30 -37 -76 -90q-47 -56 -86 -76q-141 -75 -195 -78q-25 0 -82 23q-51 20 -51 49zM1698 1606l2 2q-2 0 -6 -4zM1702 1610l-2 -2z" />
<glyph unicode="&#xa5;" horiz-adv-x="1916" />
<glyph unicode="&#xa7;" horiz-adv-x="3284" />
<glyph unicode="&#xa8;" horiz-adv-x="831" d="M147 1135q44 0 74 -23l-12 -27q12 -7 22 -4l9 -24q-37 -44 -54 -66q-82 30 -82 58q0 4 3.5 16.5t3.5 15.5q0 21 -13 25q1 1 4.5 6.5t6.5 8.5t8 6.5t12.5 5.5t17.5 2zM618 1133q26 0 51 -25t25 -51q0 -43 -24 -58q-2 -1 -66 -24q-49 73 -49 76q0 24 21.5 53t41.5 29z" />
<glyph unicode="&#xa9;" horiz-adv-x="2344" d="M1659 -6q-33 -9 -33 -19q2 -4 10 -8q12 9 23 27zM1731 2q-40 -14 -248 -129q-187 -106 -221 -106q-7 0 -29 10t-29 10q-5 0 -22.5 -7t-22.5 -7q-6 0 -21 12.5t-18 13.5q-98 37 -98 152q0 70 78 160q108 122 119 141l8 -14q22 19 22 36q0 8 -6 17q73 82 164 170 q12 -12 33 -21q5 14 35 68q18 26 59 51q42 25 61 47q19 19 37 66q19 51 40 72.5t57 21.5q14 0 41.5 -17t27.5 -28q0 -7 -31 -92q-4 -1 -36 -21q-12 -65 -56 -143q-75 -126 -80 -133q-10 -33 -28 -146q-2 -3 -7.5 -12t-8 -12.5t-8 -10t-10.5 -9t-13 -5t-17 -2.5q-6 0 -14 3 l-8 3q0 7 -4 30t-4 30q0 15 8 39t8 26q0 12 -8 31l17 31q18 31 30 53l4 8q-3 -1 -39 17q-6 0 -59 -41q-6 -12 -15 -39q-1 0 -55 -43q-11 -2 -51 -15q-3 -80 -146 -223q-14 -43 -14 -80q0 -34 26.5 -68t57.5 -34q110 0 475 217q16 30 41 61l19 -16q6 6 26.5 24t28.5 25 t25 23.5t26 28.5t20 29t19 34q16 -4 25 -4q20 0 51 8q-23 23 -23 31q0 28 62 63q3 8 -23 31q4 0 12 8q10 10 21 10t45 58q3 4 43 71q19 52 27 78q18 52 55 49l8 15q-2 7 -16 10q6 32 24 86q33 20 56 106q18 77 18 127q0 104 -78 176q-50 44 -174 97q-59 26 -270 26 q-42 0 -127 -24q-90 -23 -125 -23q-7 0 -12.5 8.5t-12.5 8.5t-34 -8.5t-35 -8.5q-22 0 -35 8q-15 -15 -15 -47q-5 8 -38 8q-37 0 -81 -17.5t-61 -41.5q-134 -21 -153 -78q-37 -12 -213 -96q-8 0 -16.5 5t-10.5 5q-3 -12 -8.5 -22.5t-16 -21t-18 -17.5t-24 -16.5t-23.5 -14 t-26.5 -14.5t-24.5 -13q-8 -24 -64 -71q-52 -43 -80 -43q-6 0 -11.5 2t-8.5 4t-4 2q-10 -25 -56 -70q-39 -39 -36 -63q-16 4 -25 4q-68 0 -68 -55q0 -11 7 -25q-7 1 -15 2l-12 1.5t-6 0.5q-19 0 -29 -2q7 -10 25 -31q-55 -62 -109 -157q-69 -124 -100 -162q-2 -6 -2 -21 q0 -20 6 -41q-21 -3 -21 -18q0 -26 148 -342q65 -45 127 -96q35 -30 168 -90q139 -62 182 -62q44 0 250 -16q8 -8 8 -33q6 -6 8 -6q19 0 56 29q33 26 43 26q5 0 11 -8t11 -8q26 0 88 16q70 17 90 17q4 0 15.5 -4.5t15.5 -4.5q22 0 86 23q61 22 86 22q7 0 31 -3t31 -3 q32 0 106 23q77 27 94 53q12 0 58 8t59 8l5 3q4 2 11.5 5t17.5 6.5t25 6t31 2.5q-89 -39 -332 -121q-283 -96 -315 -96q-5 0 -20 4t-19 4q-7 0 -37 -11t-37 -11t-23.5 11t-23.5 11q-4 0 -26 -22l-17 16q-8 -1 -28.5 -2t-30.5 -2q-7 0 -28.5 -10.5t-29.5 -10.5 q-4 0 -18.5 8.5t-19.5 8.5q-21 0 -78 -13q-52 -12 -76 -12q-38 0 -102 27q-76 28 -87 53q-16 0 -38 -25q0 10 12 19q-2 2 -10 2q-4 0 -17.5 -3t-17.5 -3q-28 0 -137 59q-106 57 -125 86q-60 0 -160 139q-87 128 -107 201l11 66q6 -7 24 -31l13 14v52q-17 4 -35 12 q-8 -8 -8 -35q0 2 -9.5 16.5t-9.5 22.5q0 82 16 119q13 23 68 45q0 12 -22 12q7 25 22.5 48.5t27 34.5t11.5 9q0 7 -14 27q6 4 75 55q-12 12 -22 12q57 60 74 60q8 3 8 -2q0 -4 8 -4q10 0 37 37q18 25 35 45q25 32 69 55q-6 -12 -6 -23q0 -2 4 -14q9 9 29 6q8 8 8 25 q0 22 -18 37q22 0 55 39q34 40 72 43q5 4 11 24.5t11 24.5q3 1 11 3.5t12 3.5t11 4t9.5 5t7 6.5t3.5 8.5t-1 10q12 -4 19 -4q91 0 106 79q40 12 76 45q28 10 103 68q60 45 110 45q7 0 12 -8t9 -8q24 0 43.5 25.5t19.5 52.5q55 0 64 -9q70 70 108 70q7 0 30 -3t30 -3 q6 0 14.5 11t24 21.5t36.5 10.5q12 0 52 -4l6 16l-6 10q40 0 69 19q11 0 27 -31q32 3 88 29t72 26q7 0 10 -4t10 -4t35 15.5t35 15.5q22 0 65 -12q63 -18 68 -19q15 31 37 31q122 0 137 -31q0 2 2 2q2 -2 2 -10t-2 -18q10 -13 20 -13q27 0 37 23q15 -30 19 -39q32 16 37 16 q104 0 190 -221q-7 -2 -31 -16v-23q11 -11 45 -28v-27q0 -8 -9 -40.5t-9 -41.5q0 -10 4 -18l-41 -35q-12 -9 -12 -70q0 -34 -31 -65q12 -47 12 -52q0 -36 -73 -137q-5 -13 -7 -31q-3 -20 -96 -98q-84 -75 -84 -151q0 -16 6 -19q-6 -9 -73 -49q-50 -35 -50 -70q0 -11 7 -22 q-18 -11 -55 -35t-56 -35q-85 -52 -104 -49z" />
<glyph unicode="&#xab;" horiz-adv-x="1423" d="M811 1004q0 -34 -33 -54t-33 -43l-16 13q-5 -1 -21.5 -21t-21.5 -20q-8 0 -8 2l2 2q0 2 -8 2q-7 0 -49 -54q-38 -49 -78 -59q-40 -58 -176 -135q-9 -49 -27 -49q-3 0 -6.5 2t-5.5 4t-4 5l-2 3q-6 -6 -25 -37q-23 -33 -23 -41q0 -17 183 -153q61 -43 219 -160v-33 q-17 -22 -31 -22q-54 0 -301 168q-250 170 -250 211l10 34q38 14 121 88q70 64 121 70q41 51 187 191q162 155 180 155q19 0 57 -24q39 -23 39 -45zM1276 987q0 -33 -33 -53t-33 -43l-16 12q-5 -1 -21.5 -21t-21.5 -20q-8 0 -8 2l2 2q0 2 -8 2q-9 0 -50 -53q-38 -50 -77 -59 q-40 -58 -176 -135q-9 -50 -27 -50q-3 0 -6.5 2t-6 4.5t-4.5 5.5l-2 3q-4 -4 -24 -37q-23 -33 -23 -41q0 -18 183 -154q111 -80 219 -159v-33q-17 -23 -31 -23q-54 0 -301 168q-250 170 -250 211l10 35q38 14 121 88q70 64 121 70q41 51 186 190q164 156 181 156 q18 0 57 -25q39 -23 39 -45z" />
<glyph unicode="&#xad;" d="M844 539v-35q0 -50 -258 -96q-220 -41 -320 -41q-33 0 -60.5 26t-27.5 58q0 61 504 88q40 3 74 0h88z" />
<glyph unicode="&#xb1;" horiz-adv-x="1058" d="M963 762v-39q-2 0 -64 -23q-35 -14 -63 -14q-195 0 -242 -2q-54 -66 -80 -182q0 -12 -4 -82q-3 -23 -35 -51q-37 -29 -53 -29q-18 0 -33.5 24t-15.5 46q0 24 57 243q-10 2 -31 2q-29 0 -73 -20q-49 -19 -74 -19q-4 0 -14 4.5t-15 4.5q-8 -2 -14 -9q-2 5 -31 27 q-26 20 -26 29q0 74 229 92q48 4 96 14q9 3 4 8q26 141 68 295q5 0 27 4.5t30 4.5q28 0 66 -23v-66q-41 -130 -70 -213q14 -2 143 -2q153 0 218 -24zM793 184v-34q0 -51 -258 -97q-220 -41 -320 -41q-33 0 -60.5 26t-27.5 58q0 61 504 88q40 3 74 0h88z" />
<glyph unicode="&#xb4;" horiz-adv-x="653" d="M340 1022q-12 2 -33 2q-18 -14 -51 -47q-36 -28 -61 -31v12q0 16 -41 31v41q0 22 20 33q33 19 37 24q28 36 104 91q116 81 117 82q14 0 68 -13l-2 -14q0 -7 4 -30t4 -27q0 -29 -70 -84q-27 -19 -96 -70z" />
<glyph unicode="&#xbb;" horiz-adv-x="1462" d="M848 655q-15 -24 -27 -24q-5 0 -9 4t-9 4q-9 0 -107 -70q-97 -69 -108 -69q-5 0 -10.5 3t-10.5 3q-15 0 -100 -70q-86 -70 -100 -90q-8 8 -39 8q-124 -97 -193 -118q0 14 -16 67q13 17 57 25q47 53 139 112q137 90 150 99q10 30 113 102q104 73 104 94q0 30 -150 162 q-131 117 -188 154q-18 10 -37.5 44.5t-19.5 55.5q0 35 35 35q77 0 438 -391q14 -14 71 -82q9 -13 17 -58zM1290 655q-15 -24 -26 -24q-5 0 -9.5 4t-9.5 4q-8 0 -106 -70q-97 -69 -109 -69q-5 0 -10 3t-10 3q-16 0 -101 -70q-86 -70 -100 -90q-8 8 -39 8q-124 -98 -192 -118 q0 11 -17 67q13 17 57 25q46 52 140 112q125 82 149 99q10 30 113 102q104 73 104 94q0 31 -149 162q-129 114 -189 154q-18 10 -37.5 44.5t-19.5 55.5q0 35 35 35q77 0 438 -391q20 -20 72 -82q8 -11 16 -58z" />
<glyph unicode="&#xbf;" horiz-adv-x="1187" d="M127 98q0 26 37 99q40 73 57 73q5 0 9.5 -3t9.5 -3q6 0 43 49q43 56 53 62q47 97 90 137q17 8 33 20l22 23q38 0 64 33q7 7 39 63q28 12 71 84q38 67 45 111q58 3 107 112q12 26 35.5 80t34.5 80q22 -28 22 -57q0 -3 -13.5 -29t-13.5 -39q0 -7 9.5 -27.5t9.5 -27.5 q0 -16 -170 -201q0 -5 2 -23t2 -22v-6q-23 -23 -41 -33q0 4 -22 23q-26 0 -44 -62q-21 -74 -28 -84q-33 -46 -113 -145q-17 -7 -55 -37q-4 -6 -21.5 -34t-25.5 -44q-37 -49 -66 -57q-16 -64 -47 -113v-12q43 -16 82 -16q64 0 221 65q156 65 205 107q76 66 137 121 q-13 11 -30 14q12 8 28 24q0 44 -10 164q35 41 45 41q31 0 88 -63q59 -62 59 -90q0 -93 -55 -154q-118 -127 -147 -127q-8 -3 -8 2q0 7 -9 4l-145 -104q-3 0 -11 7t-16 7q-7 0 -35 -18.5t-36 -18.5q-5 0 -9.5 4t-9.5 4q-4 0 -33 -15t-36 -15q-5 0 -10.5 4t-10.5 4 q-28 0 -31 -33q-7 -5 -88 -14q-71 -6 -94 -6q-43 0 -110 37q-66 38 -66 75zM705 1479q0 14 14.5 40.5t25.5 26.5h50q39 0 57 -24q23 -34 39 -45v-50q-35 -24 -74 -24q-29 0 -72 24q-40 24 -40 52z" />
<glyph unicode="&#xc0;" horiz-adv-x="1232" d="M1083 621q-10 0 -10 2l2 2q0 6 -10 6q-6 0 -109 -53v2q2 0 2 -41q0 -13 -9 -32t-9 -32q0 -8 7 -35.5t7 -36.5q0 -27 -34 -45q18 -58 18 -92q0 -13 -37 -47q31 -15 31 -49q0 -7 -5 -32t-5 -32q9 -12 39 -38q-3 -6 -3 -15q0 -12 7.5 -47t7.5 -43q0 -43 -34 -95t-65 -52 q-26 0 -51.5 19.5t-25.5 43.5q0 33 22 49q0 13 -2 59.5t-2 59.5q0 31 27 84q-13 23 -13 57q0 18 16.5 97.5t16.5 99.5q0 29 -12 47q24 21 24 39q0 56 -22.5 76t-95.5 20q-2 0 -67.5 -24t-138 -48t-89.5 -24t-33 16q-91 -87 -169.5 -202t-78.5 -148q0 -19 21 -28 q-34 -119 -144 -203q-62 36 -65 37q6 21 18.5 67t21 69.5t25 60.5t42 69t61.5 65v58q-54 22 -54 55q0 22 23.5 38.5t57 30.5t78 54t77.5 100q35 62 88 107v12q0 39 29 91t79.5 128t79.5 137q24 50 31 50q15 0 15 -7l2 -4q8 8 8 23q0 14 -19 20h37q6 9 6 27t-6 33 q169 291 275 495q1 6 5 26.5t7 29t9.5 21.5t18 18.5t27.5 5.5q10 0 46 -13t36 -16t-1 -22t8 -41.5t26 -22.5v-121q0 -16 -18 -55.5t-38 -77.5t-22 -43q-9 -127 -24 -170q-11 -33 -29 -51q4 -16 4 -37q0 -38 -28.5 -213t-28.5 -213q0 -20 17 -26t62.5 -10t83.5 -15 q-2 0 -19 -27.5t-26 -27.5zM973 1225q-12 46 -15 118l-6 117q-61 -72 -179.5 -267t-230.5 -386t-143 -234v-30h47q4 0 78.5 25.5t77.5 25.5q8 0 8 -2v-2q0 -4 8 -4q11 0 135 43.5t167 64.5v58q-35 15 -35 24q0 55 57 166q-14 123 -14 148q0 90 45 135zM889 2226 q-2 -12 -2 -35q14 -16 47 -49q31 -39 33 -61h-17q-12 0 -24 -41q7 -1 -4 -2h-41q-15 0 -31 22q-19 32 -25 35q-35 23 -92 103q-23 31 -44.5 60.5t-30 41t-9.5 12.5q0 18 13 68h10q8 0 31 4t30 4q34 0 156 -162z" />
<glyph unicode="&#xc1;" horiz-adv-x="1232" d="M1083 621q-10 0 -10 2l2 2q0 6 -10 6q-6 0 -109 -53v2q2 0 2 -41q0 -13 -9 -32t-9 -32q0 -8 7 -35.5t7 -36.5q0 -27 -34 -45q18 -58 18 -92q0 -13 -37 -47q31 -15 31 -49q0 -7 -5 -32t-5 -32q9 -12 39 -38q-3 -6 -3 -15q0 -12 7.5 -47t7.5 -43q0 -43 -34 -95t-65 -52 q-26 0 -51.5 19.5t-25.5 43.5q0 33 22 49q0 13 -2 59.5t-2 59.5q0 31 27 84q-13 23 -13 57q0 18 16.5 97.5t16.5 99.5q0 29 -12 47q24 21 24 39q0 56 -22.5 76t-95.5 20q-2 0 -67.5 -24t-138 -48t-89.5 -24t-33 16q-91 -87 -169.5 -202t-78.5 -148q0 -19 21 -28 q-34 -119 -144 -203q-62 36 -65 37q6 21 18.5 67t21 69.5t25 60.5t42 69t61.5 65v58q-54 22 -54 55q0 22 23.5 38.5t57 30.5t78 54t77.5 100q35 62 88 107v12q0 39 29 91t79.5 128t79.5 137q24 50 31 50q15 0 15 -7l2 -4q8 8 8 23q0 14 -19 20h37q6 9 6 27t-6 33 q169 291 275 495q1 6 5 26.5t7 29t9.5 21.5t18 18.5t27.5 5.5q10 0 46 -13t36 -16t-1 -22t8 -41.5t26 -22.5v-121q0 -16 -18 -55.5t-38 -77.5t-22 -43q-9 -127 -24 -170q-11 -33 -29 -51q4 -16 4 -37q0 -38 -28.5 -213t-28.5 -213q0 -20 17 -26t62.5 -10t83.5 -15 q-2 0 -19 -27.5t-26 -27.5zM973 1225q-12 46 -15 118l-6 117q-61 -72 -179.5 -267t-230.5 -386t-143 -234v-30h47q4 0 78.5 25.5t77.5 25.5q8 0 8 -2v-2q0 -4 8 -4q11 0 135 43.5t167 64.5v58q-35 15 -35 24q0 55 57 166q-14 123 -14 148q0 90 45 135zM1411 2126 q-12 2 -33 2q-18 -14 -51 -47q-36 -28 -61 -31v12q0 16 -41 31v41q0 22 20 33q33 19 37 24q26 34 104 90q116 81 117 82q19 0 68 -12l-2 -14q0 -7 4 -30t4 -28q0 -29 -70 -84q-49 -35 -96 -69z" />
<glyph unicode="&#xc2;" horiz-adv-x="1222" d="M1083 621q-10 0 -10 2l2 2q0 6 -10 6q-6 0 -109 -53v2q2 0 2 -41q0 -13 -9 -32t-9 -32q0 -8 7 -35.5t7 -36.5q0 -27 -34 -45q18 -58 18 -92q0 -13 -37 -47q31 -15 31 -49q0 -7 -5 -32t-5 -32q9 -12 39 -38q-3 -6 -3 -15q0 -12 7.5 -47t7.5 -43q0 -43 -34 -95t-65 -52 q-26 0 -51.5 19.5t-25.5 43.5q0 33 22 49q0 13 -2 59.5t-2 59.5q0 31 27 84q-13 23 -13 57q0 18 16.5 97.5t16.5 99.5q0 29 -12 47q24 21 24 39q0 56 -22.5 76t-95.5 20q-2 0 -67.5 -24t-138 -48t-89.5 -24t-33 16q-91 -87 -169.5 -202t-78.5 -148q0 -19 21 -28 q-34 -119 -144 -203q-62 36 -65 37q6 21 18.5 67t21 69.5t25 60.5t42 69t61.5 65v58q-54 22 -54 55q0 22 23.5 38.5t57 30.5t78 54t77.5 100q35 62 88 107v12q0 39 29 91t79.5 128t79.5 137q24 50 31 50q15 0 15 -7l2 -4q8 8 8 23q0 14 -19 20h37q6 9 6 27t-6 33 q169 291 275 495q1 6 5 26.5t7 29t9.5 21.5t18 18.5t27.5 5.5q10 0 46 -13t36 -16t-1 -22t8 -41.5t26 -22.5v-121q0 -16 -18 -55.5t-38 -77.5t-22 -43q-9 -127 -24 -170q-11 -33 -29 -51q4 -16 4 -37q0 -38 -28.5 -213t-28.5 -213q0 -20 17 -26t62.5 -10t83.5 -15 q-2 0 -19 -27.5t-26 -27.5zM973 1225q-12 46 -15 118l-6 117q-61 -72 -179.5 -267t-230.5 -386t-143 -234v-30h47q4 0 78.5 25.5t77.5 25.5q8 0 8 -2v-2q0 -4 8 -4q11 0 135 43.5t167 64.5v58q-35 15 -35 24q0 55 57 166q-14 123 -14 148q0 90 45 135zM1346 2136 q-3 -6 -11.5 -24.5t-13.5 -30.5q0 4 -2 7t-5.5 4.5t-6 3t-8 2.5t-8.5 1.5t-9 1t-8 0.5q-3 3 -6 17q-3 8 -11 8q-6 0 -6 -4h-6q-6 0 -53 92t-68 92q-110 -78 -155 -86q-18 -24 -29 -35l-25 -10q-113 -88 -131 -88q-28 0 -52.5 16.5t-24.5 40.5q0 15 45 51q44 38 67 48 q21 0 45 8q34 20 164 114q116 82 162 82q8 0 30.5 -18.5t22.5 -28.5l-6 -22q21 -62 109 -242z" />
<glyph unicode="&#xc3;" horiz-adv-x="1228" d="M1083 621q-10 0 -10 2l2 2q0 6 -10 6q-6 0 -109 -53v2q2 0 2 -41q0 -13 -9 -32t-9 -32q0 -8 7 -35.5t7 -36.5q0 -27 -34 -45q18 -58 18 -92q0 -13 -37 -47q31 -15 31 -49q0 -7 -5 -32t-5 -32q9 -12 39 -38q-3 -6 -3 -15q0 -12 7.5 -47t7.5 -43q0 -43 -34 -95t-65 -52 q-26 0 -51.5 19.5t-25.5 43.5q0 33 22 49q0 13 -2 59.5t-2 59.5q0 31 27 84q-13 23 -13 57q0 18 16.5 97.5t16.5 99.5q0 29 -12 47q24 21 24 39q0 56 -22.5 76t-95.5 20q-2 0 -67.5 -24t-138 -48t-89.5 -24t-33 16q-91 -87 -169.5 -202t-78.5 -148q0 -19 21 -28 q-34 -119 -144 -203q-62 36 -65 37q6 21 18.5 67t21 69.5t25 60.5t42 69t61.5 65v58q-54 22 -54 55q0 22 23.5 38.5t57 30.5t78 54t77.5 100q35 62 88 107v12q0 39 29 91t79.5 128t79.5 137q24 50 31 50q15 0 15 -7l2 -4q8 8 8 23q0 14 -19 20h37q6 9 6 27t-6 33 q169 291 275 495q1 6 5 26.5t7 29t9.5 21.5t18 18.5t27.5 5.5q10 0 46 -13t36 -16t-1 -22t8 -41.5t26 -22.5v-121q0 -16 -18 -55.5t-38 -77.5t-22 -43q-9 -127 -24 -170q-11 -33 -29 -51q4 -16 4 -37q0 -38 -28.5 -213t-28.5 -213q0 -20 17 -26t62.5 -10t83.5 -15 q-2 0 -19 -27.5t-26 -27.5zM973 1225q-12 46 -15 118l-6 117q-61 -72 -179.5 -267t-230.5 -386t-143 -234v-30h47q4 0 78.5 25.5t77.5 25.5q8 0 8 -2v-2q0 -4 8 -4q11 0 135 43.5t167 64.5v58q-35 15 -35 24q0 55 57 166q-14 123 -14 148q0 90 45 135zM1524 2241 q0 -40 -88 -95q-85 -55 -127 -55q-64 0 -179 59q-117 60 -176 60q-42 0 -112 -58q-70 -55 -72 -55h-31q-12 0 -37.5 24t-25.5 36q0 53 78 110q71 53 127 53q7 0 12 -7t10 -7q3 0 15 10.5t20 10.5q84 0 137 -35q90 -60 107 -68q104 -43 112 -43q18 0 105 37q88 39 117 39 q8 0 8 -16z" />
<glyph unicode="&#xc4;" horiz-adv-x="1241" d="M1063 621q-10 0 -10 2v2q0 6 -9 6q-5 0 -108 -53q1 4 2 -4v-35q0 -23 -14 -31q-4 -20 -4 -33q0 -8 7 -35.5t7 -36.5q0 -27 -35 -45q19 -62 19 -92q0 -13 -37 -47q30 -15 30 -49q0 -7 -6 -32t-6 -32q14 -14 41 -38q-2 -6 -2 -15q0 -12 7 -47t7 -43q0 -37 -30 -90 q-34 -57 -68 -57q-26 0 -53 19.5t-27 43.5q0 33 25 49q0 14 -3 60t-3 59q0 29 28 84q-12 21 -12 57q0 30 16 99q17 73 17 98q0 29 -15 47q27 21 27 39q0 60 -31 82q-22 14 -88 14q-23 0 -139 -49q-115 -47 -158 -47q-14 0 -30 16q-150 -141 -203 -262q-4 -8 -27 -41 q-20 -26 -20 -47q0 -19 20 -28q-35 -119 -141 -203q-30 17 -66 37q18 68 52 178q30 76 116 153v58q-53 21 -53 55q0 27 59 62q13 7 41 20t41 20q47 35 95 121q48 82 88 107v12q-3 63 59 154q5 6 42 60.5t58 82.5q6 10 16 32t13 27q21 50 31 50q15 0 12 -7l4 -4q6 9 6 23 t-18 20h39q4 12 4 27q0 13 -4 33q73 126 202 362q30 52 70 133q1 4 4 18.5t4.5 20.5t5.5 18t8.5 18t11 13t16 10t20.5 3q8 0 45 -13q33 -9 37 -16q4 -8 4 -57q0 -29 28 -29v-121q0 -30 -34 -88q-35 -60 -43 -88q-10 -99 -11 -115q-9 -70 -45 -106q6 -9 6 -37q0 -72 -30 -213 q-29 -151 -29 -213q0 -35 66 -35q39 0 98 -16q-6 -6 -19 -29q-14 -26 -24 -26zM952 1225q-13 51 -16 118l-6 117q-114 -131 -281 -436q-183 -332 -272 -451v-30h47q18 0 80 24q64 27 76 27q10 0 10 -2q-2 0 -2 -2q0 -4 10 -4q20 0 147 47q116 45 152 61v58q-35 15 -35 24 q0 46 60 166q-15 132 -15 148q0 90 45 135zM856 2222q47 0 74 -24l-12 -27q15 -6 22 -4l6 -43q-22 -48 -51 -45q-82 27 -82 55q0 4 4 17.5t4 17.5q0 10 -14 24q1 1 4.5 6.5t6.5 8.5t8 6.5t12.5 5.5t17.5 2zM1329 2218q25 0 50.5 -24.5t25.5 -49.5q0 -41 -27 -59 q-12 -6 -65 -25q-49 76 -49 78q0 22 21.5 51t43.5 29z" />
<glyph unicode="&#xc5;" horiz-adv-x="1243" d="M1309 2392q39 -59 4 -172q-34 -120 -133 -160q-64 -24 -129 -6q-58 15 -82 53q-33 50 -11 117q14 41 62 123q53 100 80 109q49 19 123 -9q66 -21 86 -55zM1212 2384l-38 -14q-24 -40 -50 -50q-8 -3 -8 -2h2q-3 3 -14 0q-43 -16 -64 -98q-18 -76 -2 -104q12 -18 47 -27 q84 72 101 145q15 98 26 150zM1083 621q-10 0 -10 2l2 2q0 6 -10 6q-6 0 -109 -53v2q2 0 2 -41q0 -13 -9 -32t-9 -32q0 -8 7 -35.5t7 -36.5q0 -27 -34 -45q18 -58 18 -92q0 -13 -37 -47q31 -15 31 -49q0 -7 -5 -32t-5 -32q9 -12 39 -38q-3 -6 -3 -15q0 -12 7.5 -47t7.5 -43 q0 -43 -34 -95t-65 -52q-26 0 -51.5 19.5t-25.5 43.5q0 33 22 49q0 13 -2 59.5t-2 59.5q0 31 27 84q-13 23 -13 57q0 18 16.5 97.5t16.5 99.5q0 29 -12 47q24 21 24 39q0 56 -22.5 76t-95.5 20q-2 0 -67.5 -24t-138 -48t-89.5 -24t-33 16q-91 -87 -169.5 -202t-78.5 -148 q0 -19 21 -28q-34 -119 -144 -203q-62 36 -65 37q6 21 18.5 67t21 69.5t25 60.5t42 69t61.5 65v58q-54 22 -54 55q0 22 23.5 38.5t57 30.5t78 54t77.5 100q35 62 88 107v12q0 39 29 91t79.5 128t79.5 137q24 50 31 50q15 0 15 -7l2 -4q8 8 8 23q0 14 -19 20h37q6 9 6 27 t-6 33q169 291 275 495q1 6 5 26.5t7 29t9.5 21.5t18 18.5t27.5 5.5q10 0 46 -13t36 -16t-1 -22t8 -41.5t26 -22.5v-121q0 -16 -18 -55.5t-38 -77.5t-22 -43q-9 -127 -24 -170q-11 -33 -29 -51q4 -16 4 -37q0 -38 -28.5 -213t-28.5 -213q0 -20 17 -26t62.5 -10t83.5 -15 q-2 0 -19 -27.5t-26 -27.5zM973 1225q-12 46 -15 118l-6 117q-61 -72 -179.5 -267t-230.5 -386t-143 -234v-30h47q4 0 78.5 25.5t77.5 25.5q8 0 8 -2v-2q0 -4 8 -4q11 0 135 43.5t167 64.5v58q-35 15 -35 24q0 55 57 166q-14 123 -14 148q0 90 45 135z" />
<glyph unicode="&#xc6;" horiz-adv-x="2316" d="M1083 621q-10 0 -10 2l2 2q0 6 -10 6q-6 0 -109 -53v2q2 0 2 -41q0 -13 -9 -32t-9 -32q0 -8 7 -35.5t7 -36.5q0 -27 -34 -45q18 -58 18 -92q0 -13 -37 -47q31 -15 31 -49q0 -7 -5 -32t-5 -32q9 -12 39 -38q-3 -6 -3 -15q0 -12 7.5 -47t7.5 -43q0 -43 -34 -95t-65 -52 q-26 0 -51.5 19.5t-25.5 43.5q0 33 22 49q0 13 -2 59.5t-2 59.5q0 31 27 84q-13 23 -13 57q0 18 16.5 97.5t16.5 99.5q0 29 -12 47q24 21 24 39q0 56 -22.5 76t-95.5 20q-2 0 -67.5 -24t-138 -48t-89.5 -24t-33 16q-91 -87 -169.5 -202t-78.5 -148q0 -19 21 -28 q-34 -119 -144 -203q-62 36 -65 37q6 21 18.5 67t21 69.5t25 60.5t42 69t61.5 65v58q-54 22 -54 55q0 22 23.5 38.5t57 30.5t78 54t77.5 100q35 62 88 107v12q0 39 29 91t79.5 128t79.5 137q24 50 31 50q15 0 15 -7l2 -4q8 8 8 23q0 14 -19 20h37q6 9 6 27t-6 33 q169 291 275 495q1 6 5 26.5t7 29t9.5 21.5t18 18.5t27.5 5.5q10 0 46 -13t36 -16t-1 -22t8 -41.5t26 -22.5v-121q0 -16 -18 -55.5t-38 -77.5t-22 -43q-9 -127 -24 -170q-11 -33 -29 -51q4 -16 4 -37q0 -38 -28.5 -213t-28.5 -213q0 -20 17 -26t62.5 -10t83.5 -15 q-2 0 -19 -27.5t-26 -27.5zM973 1225q-12 46 -15 118l-6 117q-61 -72 -179.5 -267t-230.5 -386t-143 -234v-30h47q4 0 78.5 25.5t77.5 25.5q8 0 8 -2v-2q0 -4 8 -4q11 0 135 43.5t167 64.5v58q-35 15 -35 24q0 55 57 166q-14 123 -14 148q0 90 45 135zM2406 1417l-26 -22 q-6 14 -27 14l-81 -13l-27 -3q-164 -21 -260 -21q-40 0 -64 4q-4 0 -17.5 7.5t-17.5 7.5q-8 0 -34.5 -8.5t-34.5 -8.5q-4 0 -76 10q22 25 22 41q0 5 -2 11l-22 -21q-47 -3 -64 -8q-31 -8 -53 -33h-18q-121 3 -209 -110q-26 -41 -76.5 -118t-61.5 -93q-21 -31 -71 -146 q-53 -121 -53 -143q0 -14 12 -23q146 22 262 25q108 4 248 14l-6 -43q-4 -1 -16.5 -2t-27.5 -3t-30 -5q-44 -8 -76 -8q-44 0 -192 -43q-155 -44 -215 -51q-22 -26 -39 -54t-30.5 -64t-20.5 -56t-20 -66.5t-17 -60.5q-35 -21 -35 -80q0 -20 6 -64q15 -145 41 -190 q46 -76 174 -76q186 0 545 184q364 185 465 334l8 -10q-15 -34 -27 -72q-17 -38 -45 -63q-331 -284 -500 -379q-60 -31 -122 -31q-138 -78 -301 -78q-122 0 -211 127q-82 113 -82 242q0 98 39 258q13 60 22 113l-4 8q-12 0 -61 -21q-49 -18 -68 -18q-24 0 -45 55 q-21 47 -21 74q116 33 285 94q17 7 37 49q23 44 45 47v11q0 47 23 108q50 14 63 58q4 29 12 83q34 6 64 68l43 92l37 -6q12 24 39 39q-2 26 -19 98q-112 -92 -379 -92q-63 0 -75 41q-17 56 -31 66l4 32q165 11 534 39q12 21 17 47l10 52q20 -39 86 -105l408 12q41 0 55 -14 v-2q0 -7 6 -16q6 3 27 30q16 0 118 -4q72 -8 254 -47zM1174 922l14 22l-12 6l-15 -20z" />
<glyph unicode="&#xc7;" horiz-adv-x="1183" d="M1311 1815q0 -63 -193 -355q-9 -12 -53 -86q-33 -92 -131 -327l-29 -19v-8q3 -59 -71 -174q-71 -115 -68 -184q-8 31 -8 67q0 25 9 42.5t18.5 26t9.5 13.5q0 1 -4.5 9t-8.5 19t-4 17q0 21 29 47q15 15 43 39q0 3 -19 25q-8 8 -8 30q0 28 76 193t76 229q0 12 -3 20.5 t-13 16.5t-13.5 10t-19.5 11q-89 -66 -185 -168q-75 -78 -170 -183q-49 -38 -137 -135q-293 -458 -293 -706q0 -105 54 -199q63 -106 163 -106q7 0 35 4l4 71q8 3 24.5 11t26.5 12t23.5 8t24.5 4q46 0 49 -49q25 11 119 59q42 14 188 76q22 10 37 43q14 -8 14 -26 q0 -47 -364 -230q3 -19 28 -33l-37 -16l-4 -41q-5 -5 -41 -94q-28 -72 -55 -72q-17 0 -53 25l10 172q-12 -1 -22.5 -2t-15 -1.5t-5.5 -0.5q-161 0 -254 161q-82 137 -82 308q0 80 39 190l27 4v6q0 -7 -8 7q-5 9 -5 14q0 62 183 346q5 8 43 65q7 8 65 74q21 32 111 152 q331 418 532 418q9 0 38.5 -8.5t37.5 -8.5q6 0 76 119q71 121 119 121q45 0 45 -53z" />
<glyph unicode="&#xc8;" horiz-adv-x="1210" d="M1587 1552l-26 -22q-6 14 -27 14l-88 -13l-21 -3q-163 -21 -260 -21q-39 0 -63 4q-4 0 -17.5 7.5t-17.5 7.5q-8 0 -35 -8.5t-35 -8.5q-3 0 -12 1.5t-27.5 4.5t-35.5 5q22 25 22 41q0 4 -2 10l-22 -21q-47 -3 -64 -8q-31 -8 -53 -33h-19q-121 3 -209 -110 q-48 -74 -137 -211q-21 -31 -71 -146q-54 -123 -54 -143q0 -12 13 -22q138 21 262 24q108 4 248 14l-7 -43q-4 -1 -16 -2t-27 -3t-30 -5q-44 -8 -76 -8q-45 0 -193 -43q-155 -44 -215 -51q-22 -26 -39 -54t-30.5 -64t-20.5 -56t-20 -66.5t-17 -60.5q-34 -21 -34 -80 q0 -21 6 -64q15 -145 41 -190q46 -76 174 -76q186 0 545 184q362 184 464 334l9 -10q-15 -35 -27 -72q-17 -38 -45 -63q-331 -284 -500 -379q-60 -31 -123 -31q-138 -78 -301 -78q-122 0 -211 127q-82 113 -82 242q0 98 39 258q17 77 23 113l-4 8q-15 0 -62 -20 q-52 -19 -67 -19q-24 0 -45 55q-21 46 -21 74q116 33 285 94q17 7 37 49q23 45 45 48v10q0 50 22 108q51 15 64 58q6 43 12 84q34 6 64 67l43 92l36 -6q12 24 39 39q-3 33 -18 98q-112 -92 -379 -92q-64 0 -76 41q-17 57 -30 66l4 33q284 19 534 38q12 20 17 48q2 12 5 25.5 t4 19t1 6.5q20 -39 86 -105l407 13q41 0 56 -15v-2q0 -7 6 -16q3 2 26 31q12 0 29.5 -1t44 -2t45.5 -2q72 -8 254 -47zM354 1057l15 22l-13 6l-14 -20zM719 2091q-2 -12 -2 -35q14 -16 47 -49q31 -39 33 -61h-17q-12 0 -24 -41q7 -1 -4 -2h-41q-15 0 -31 22q-19 32 -25 35 q-37 24 -92 102q-24 32 -45 61t-29.5 41t-9.5 13q0 18 13 68h10q8 0 31 4t30 4q34 0 156 -162z" />
<glyph unicode="&#xc9;" horiz-adv-x="1280" d="M1608 1552l-27 -22q-6 14 -27 14l-81 -13l-27 -3q-164 -21 -260 -21q-40 0 -64 4q-4 0 -17.5 7.5t-17.5 7.5q-8 0 -34.5 -8.5t-34.5 -8.5q-3 0 -12 1.5t-28 4.5t-36 5q23 26 23 41q0 4 -2 10l-23 -21q-46 -3 -63 -8q-33 -8 -54 -33h-18q-121 3 -209 -110 q-48 -74 -137 -211q-24 -35 -72 -146q-53 -121 -53 -143q0 -13 12 -22q138 21 262 24q108 4 248 14l-6 -43q-4 -1 -16.5 -2t-27.5 -3t-30 -5q-44 -8 -76 -8q-44 0 -192 -43q-155 -44 -215 -51q-22 -26 -39 -54t-30.5 -64t-20.5 -56t-20 -66.5t-17 -60.5q-35 -21 -35 -80 q0 -21 6 -64q15 -145 41 -190q46 -76 174 -76q186 0 545 184q364 185 465 334l8 -10q-15 -35 -27 -72q-17 -38 -45 -63q-333 -285 -499 -379q-60 -31 -123 -31q-138 -78 -301 -78q-122 0 -211 127q-82 113 -82 242q0 98 39 258q13 60 22 113l-4 8q-14 0 -61 -20 q-52 -19 -68 -19q-24 0 -45 55q-20 44 -20 74q111 32 284 94q17 7 37 49q23 45 45 48v10q0 47 23 108q50 14 63 58q2 16 6.5 45t6.5 39q33 6 63 67l43 92l37 -6q12 24 39 39q-2 26 -19 98q-112 -92 -378 -92q-64 0 -76 41q-17 56 -31 66l4 33q293 20 535 38q11 18 16 48 q2 12 5 25.5t4 19t1 6.5q20 -39 86 -105l408 13q40 0 55 -15v-2q0 -7 6 -16q5 2 27 31q12 0 29.5 -1t44 -2t45.5 -2q72 -8 254 -47zM375 1057l14 22l-12 6l-15 -20zM1137 1896q-12 2 -33 2q-33 -33 -51 -47q-33 -25 -62 -32v14q0 17 -41 29v41q0 12 12.5 24t28 22t17.5 13 q28 36 104 88q32 23 62 44.5t42 30t13 9.5q30 -5 67 -14v-15q-1 -8 3 -30t4 -25q0 -31 -70 -86q-24 -18 -96 -68z" />
<glyph unicode="&#xca;" horiz-adv-x="1234" d="M1587 1552l-26 -22q-6 14 -27 14l-88 -13l-21 -3q-163 -21 -260 -21q-39 0 -63 4q-4 0 -17.5 7.5t-17.5 7.5q-8 0 -35 -8.5t-35 -8.5q-3 0 -12 1.5t-27.5 4.5t-35.5 5q22 25 22 41q0 4 -2 10l-22 -21q-47 -3 -64 -8q-31 -8 -53 -33h-19q-121 3 -209 -110 q-48 -74 -137 -211q-21 -31 -71 -146q-54 -123 -54 -143q0 -12 13 -22q138 21 262 24q108 4 248 14l-7 -43q-4 -1 -16 -2t-27 -3t-30 -5q-44 -8 -76 -8q-45 0 -193 -43q-155 -44 -215 -51q-22 -26 -39 -54t-30.5 -64t-20.5 -56t-20 -66.5t-17 -60.5q-34 -21 -34 -80 q0 -21 6 -64q15 -145 41 -190q46 -76 174 -76q186 0 545 184q362 184 464 334l9 -10q-15 -35 -27 -72q-17 -38 -45 -63q-331 -284 -500 -379q-60 -31 -123 -31q-138 -78 -301 -78q-122 0 -211 127q-82 113 -82 242q0 98 39 258q17 77 23 113l-4 8q-15 0 -62 -20 q-52 -19 -67 -19q-24 0 -45 55q-21 46 -21 74q116 33 285 94q17 7 37 49q23 45 45 48v10q0 50 22 108q51 15 64 58q6 43 12 84q34 6 64 67l43 92l36 -6q12 24 39 39q-3 33 -18 98q-112 -92 -379 -92q-64 0 -76 41q-17 57 -30 66l4 33q284 19 534 38q12 20 17 48q2 12 5 25.5 t4 19t1 6.5q20 -39 86 -105l407 13q41 0 56 -15v-2q0 -7 6 -16q3 2 26 31q12 0 29.5 -1t44 -2t45.5 -2q72 -8 254 -47zM354 1057l15 22l-13 6l-14 -20zM1204 1956q-3 -8 -11.5 -26.5t-12.5 -28.5q0 4 -2 7t-5.5 4.5t-6 3t-8 2.5t-8.5 1.5t-9 1t-8 0.5q-5 5 -7 16q-3 9 -10 9 q-6 0 -6 -4h-6q-6 0 -53 92t-68 92q-109 -78 -156 -86q-21 -28 -28 -35l-25 -10q-113 -88 -131 -88q-28 0 -53 16.5t-25 40.5q0 15 45 51q40 35 68 47q18 0 45 9q34 20 164 114q116 82 162 82q8 0 30.5 -18.5t22.5 -28.5l-6 -22q23 -68 108 -242z" />
<glyph unicode="&#xcb;" horiz-adv-x="1218" d="M1587 1552l-26 -22q-6 14 -27 14l-88 -13l-21 -3q-163 -21 -260 -21q-39 0 -63 4q-4 0 -17.5 7.5t-17.5 7.5q-8 0 -35 -8.5t-35 -8.5q-3 0 -12 1.5t-27.5 4.5t-35.5 5q22 25 22 41q0 4 -2 10l-22 -21q-47 -3 -64 -8q-31 -8 -53 -33h-19q-121 3 -209 -110 q-48 -74 -137 -211q-21 -31 -71 -146q-54 -123 -54 -143q0 -12 13 -22q138 21 262 24q108 4 248 14l-7 -43q-4 -1 -16 -2t-27 -3t-30 -5q-44 -8 -76 -8q-45 0 -193 -43q-155 -44 -215 -51q-22 -26 -39 -54t-30.5 -64t-20.5 -56t-20 -66.5t-17 -60.5q-34 -21 -34 -80 q0 -21 6 -64q15 -145 41 -190q46 -76 174 -76q186 0 545 184q362 184 464 334l9 -10q-15 -35 -27 -72q-17 -38 -45 -63q-331 -284 -500 -379q-60 -31 -123 -31q-138 -78 -301 -78q-122 0 -211 127q-82 113 -82 242q0 98 39 258q17 77 23 113l-4 8q-15 0 -62 -20 q-52 -19 -67 -19q-24 0 -45 55q-21 46 -21 74q116 33 285 94q17 7 37 49q23 45 45 48v10q0 50 22 108q51 15 64 58q6 43 12 84q34 6 64 67l43 92l36 -6q12 24 39 39q-3 33 -18 98q-112 -92 -379 -92q-64 0 -76 41q-17 57 -30 66l4 33q284 19 534 38q12 20 17 48q2 12 5 25.5 t4 19t1 6.5q20 -39 86 -105l407 13q41 0 56 -15v-2q0 -7 6 -16q3 2 26 31q12 0 29.5 -1t44 -2t45.5 -2q72 -8 254 -47zM354 1057l15 22l-13 6l-14 -20zM694 2114q44 0 74 -23l-12 -27q12 -7 22 -4l8 -24q-30 -35 -53 -66q-82 30 -82 58q0 4 3 16.5t3 15.5q0 21 -12 25 q1 1 4.5 6.5t6.5 8.5t8 6.5t12.5 5.5t17.5 2zM1165 2111q26 0 51 -24.5t25 -50.5q0 -43 -24 -58q-2 -1 -66 -24q-49 73 -49 76q0 24 21.5 52.5t41.5 28.5z" />
<glyph unicode="&#xcc;" horiz-adv-x="1865" d="M891 1237q-18 6 -49 6q-27 0 -54 -6q33 23 52 23zM2349 1767q0 -54 -106 -106q-90 -44 -160 -53q-9 -12 -78 -43q-52 -27 -49 -54q-95 -61 -164 -227q-83 -192 -141 -250q12 -24 12 -45q0 -30 -27 -76q-31 -54 -34 -75q-12 -62 -54 -176q-53 -139 -88 -142q-2 -2 -2 -10 q0 -4 6 -20t6 -21q-21 -18 -81 -154q-48 -110 -113 -145q-4 -21 -14 -43q-1 -1 -8.5 -7.5t-26.5 -22t-39 -31.5q-212 -179 -301 -179q-9 0 -42 -4t-42 -4h-94q-7 0 -15.5 17.5t-15.5 17.5q-5 0 -14.5 -5t-14.5 -5q-8 0 -30.5 17.5t-30.5 17.5q-4 0 -11 -4.5t-14 -4.5 q-13 0 -47 27q-36 25 -47 25q-8 0 -11 -2.5t-5 -2.5q14 0 14 31h-29q-14 -2 -28 -2q-9 0 -68 41q-62 43 -72 47q-3 26 6 35q-47 29 -104 107q-40 54 -88 124q2 10 2 33q0 15 -2 66.5t-2 68.5q0 13 -17.5 36.5t-17.5 31.5q0 9 10.5 22t10.5 15q0 -16 10 -39q10 5 27 22t20 19 q-42 39 -86 74v43q0 34 43 61l-19 16q11 11 52 43q-7 11 -21 19h23q21 162 188 268q156 98 322 101q-9 -18 -21 -41q-34 3 -102 24q-9 -15 -6 -49h-9q-87 0 -270 -154q-3 -82 -55 -125q-49 -43 -49 -110v-213q1 -3 5.5 -24t7 -28t8 -22.5t13 -26.5t17.5 -20q-8 -8 -8 -27 q0 -18 18 -65q20 -51 17 -76q52 -28 106 -110q0 -25 18 -74q28 -6 127 -31q31 -12 99 -63q58 -43 119 -43q18 0 81 -4.5t80 -4.5q83 0 242 111q155 112 199 184q22 41 39 70q28 48 47 51q2 15 26 68l25 47q0 4 -3 17.5t-3 17.5q0 7 26 49q29 47 31 55q9 26 43 125.5 t59 173.5q35 104 76 145q24 212 148 392q-6 3 -15 39l-32 6q-15 0 -78 -17q-52 -18 -82 -22q-94 -12 -154 -12q-17 0 -71.5 7t-69.5 7q-33 -1 -43 -12q-15 0 -76 24l-24 -16q-3 11 -17 24q-12 -3 -12 -32l-55 8q-10 0 -48 -56q21 -24 39 -67l29 -72h-6q-39 0 -180 84 q-126 74 -187 111v57q5 8 43 23q40 15 49 12l572 -25q106 -3 250 17q240 37 248 37q42 53 75 90q45 51 88 73q148 74 197 74q30 0 80 -24q51 -20 51 -50zM772 1264q-41 -15 -55 -15q-15 5 -39 27q43 -3 94 -12zM1106 2126q-2 -12 -2 -35q14 -16 47 -49q30 -39 33 -62h-17 q-12 0 -24 -41q7 -1 -4 -2h-41q-15 0 -31 23q-19 32 -25 35q-37 24 -92 102q-24 32 -45 61t-29.5 41t-9.5 13q0 17 13 67h10q8 0 31 4.5t30 4.5q34 0 156 -162z" />
<glyph unicode="&#xcd;" horiz-adv-x="1908" d="M891 1237q-18 6 -49 6q-27 0 -54 -6q33 23 52 23zM2349 1767q0 -54 -106 -106q-90 -44 -160 -53q-9 -12 -78 -43q-52 -27 -49 -54q-95 -61 -164 -227q-83 -192 -141 -250q12 -24 12 -45q0 -30 -27 -76q-31 -54 -34 -75q-12 -62 -54 -176q-53 -139 -88 -142q-2 -2 -2 -10 q0 -4 6 -20t6 -21q-21 -18 -81 -154q-48 -110 -113 -145q-4 -21 -14 -43q-1 -1 -8.5 -7.5t-26.5 -22t-39 -31.5q-212 -179 -301 -179q-9 0 -42 -4t-42 -4h-94q-7 0 -15.5 17.5t-15.5 17.5q-5 0 -14.5 -5t-14.5 -5q-8 0 -30.5 17.5t-30.5 17.5q-4 0 -11 -4.5t-14 -4.5 q-13 0 -47 27q-36 25 -47 25q-8 0 -11 -2.5t-5 -2.5q14 0 14 31h-29q-14 -2 -28 -2q-9 0 -68 41q-62 43 -72 47q-3 26 6 35q-47 29 -104 107q-40 54 -88 124q2 10 2 33q0 15 -2 66.5t-2 68.5q0 13 -17.5 36.5t-17.5 31.5q0 9 10.5 22t10.5 15q0 -16 10 -39q10 5 27 22t20 19 q-42 39 -86 74v43q0 34 43 61l-19 16q11 11 52 43q-7 11 -21 19h23q21 162 188 268q156 98 322 101q-9 -18 -21 -41q-34 3 -102 24q-9 -15 -6 -49h-9q-87 0 -270 -154q-3 -82 -55 -125q-49 -43 -49 -110v-213q1 -3 5.5 -24t7 -28t8 -22.5t13 -26.5t17.5 -20q-8 -8 -8 -27 q0 -18 18 -65q20 -51 17 -76q52 -28 106 -110q0 -25 18 -74q28 -6 127 -31q31 -12 99 -63q58 -43 119 -43q18 0 81 -4.5t80 -4.5q83 0 242 111q155 112 199 184q22 41 39 70q28 48 47 51q2 15 26 68l25 47q0 4 -3 17.5t-3 17.5q0 7 26 49q29 47 31 55q9 26 43 125.5 t59 173.5q35 104 76 145q24 212 148 392q-6 3 -15 39l-32 6q-15 0 -78 -17q-52 -18 -82 -22q-94 -12 -154 -12q-17 0 -71.5 7t-69.5 7q-33 -1 -43 -12q-15 0 -76 24l-24 -16q-3 11 -17 24q-12 -3 -12 -32l-55 8q-10 0 -48 -56q21 -24 39 -67l29 -72h-6q-39 0 -180 84 q-126 74 -187 111v57q5 8 43 23q40 15 49 12l572 -25q106 -3 250 17q240 37 248 37q42 53 75 90q45 51 88 73q148 74 197 74q30 0 80 -24q51 -20 51 -50zM772 1264q-41 -15 -55 -15q-15 5 -39 27q43 -3 94 -12zM1589 2028q-12 2 -33 2q-13 -11 -51 -48q-35 -27 -61 -30v12 q0 16 -41 31v41q0 21 20 32q30 18 37 25q25 32 105 90q112 78 116 82q19 0 68 -12l-2 -15q0 -8 4 -30t4 -27q0 -30 -69 -84q-66 -46 -97 -69z" />
<glyph unicode="&#xce;" horiz-adv-x="1851" d="M891 1237q-18 6 -49 6q-27 0 -54 -6q33 23 52 23zM2349 1767q0 -54 -106 -106q-90 -44 -160 -53q-9 -12 -78 -43q-52 -27 -49 -54q-95 -61 -164 -227q-83 -192 -141 -250q12 -24 12 -45q0 -30 -27 -76q-31 -54 -34 -75q-12 -62 -54 -176q-53 -139 -88 -142q-2 -2 -2 -10 q0 -4 6 -20t6 -21q-21 -18 -81 -154q-48 -110 -113 -145q-4 -21 -14 -43q-1 -1 -8.5 -7.5t-26.5 -22t-39 -31.5q-212 -179 -301 -179q-9 0 -42 -4t-42 -4h-94q-7 0 -15.5 17.5t-15.5 17.5q-5 0 -14.5 -5t-14.5 -5q-8 0 -30.5 17.5t-30.5 17.5q-4 0 -11 -4.5t-14 -4.5 q-13 0 -47 27q-36 25 -47 25q-8 0 -11 -2.5t-5 -2.5q14 0 14 31h-29q-14 -2 -28 -2q-9 0 -68 41q-62 43 -72 47q-3 26 6 35q-47 29 -104 107q-40 54 -88 124q2 10 2 33q0 15 -2 66.5t-2 68.5q0 13 -17.5 36.5t-17.5 31.5q0 9 10.5 22t10.5 15q0 -16 10 -39q10 5 27 22t20 19 q-42 39 -86 74v43q0 34 43 61l-19 16q11 11 52 43q-7 11 -21 19h23q21 162 188 268q156 98 322 101q-9 -18 -21 -41q-34 3 -102 24q-9 -15 -6 -49h-9q-87 0 -270 -154q-3 -82 -55 -125q-49 -43 -49 -110v-213q1 -3 5.5 -24t7 -28t8 -22.5t13 -26.5t17.5 -20q-8 -8 -8 -27 q0 -18 18 -65q20 -51 17 -76q52 -28 106 -110q0 -25 18 -74q28 -6 127 -31q31 -12 99 -63q58 -43 119 -43q18 0 81 -4.5t80 -4.5q83 0 242 111q155 112 199 184q22 41 39 70q28 48 47 51q2 15 26 68l25 47q0 4 -3 17.5t-3 17.5q0 7 26 49q29 47 31 55q9 26 43 125.5 t59 173.5q35 104 76 145q24 212 148 392q-6 3 -15 39l-32 6q-15 0 -78 -17q-52 -18 -82 -22q-94 -12 -154 -12q-17 0 -71.5 7t-69.5 7q-33 -1 -43 -12q-15 0 -76 24l-24 -16q-3 11 -17 24q-12 -3 -12 -32l-55 8q-10 0 -48 -56q21 -24 39 -67l29 -72h-6q-39 0 -180 84 q-126 74 -187 111v57q5 8 43 23q40 15 49 12l572 -25q106 -3 250 17q240 37 248 37q42 53 75 90q45 51 88 73q148 74 197 74q30 0 80 -24q51 -20 51 -50zM772 1264q-41 -15 -55 -15q-15 5 -39 27q43 -3 94 -12zM1757 2015q-3 -8 -11.5 -26.5t-12.5 -28.5q0 4 -2 7t-5.5 4.5 t-6 3t-8 2.5t-8.5 1.5t-9 1t-8 0.5q-4 4 -7 17q-3 8 -10 8q-6 0 -6 -4h-6q-6 0 -53 92t-68 92q-109 -78 -156 -86q-21 -28 -28 -35l-25 -10q-113 -88 -131 -88q-28 0 -53 16.5t-25 40.5q0 16 45 52q40 35 68 47q21 0 45 8q26 15 164 115q116 82 162 82q8 0 30.5 -19 t22.5 -29l-6 -22q23 -68 108 -242z" />
<glyph unicode="&#xcf;" horiz-adv-x="1898" d="M891 1237q-18 6 -49 6q-27 0 -54 -6q33 23 52 23zM2349 1767q0 -54 -106 -106q-90 -44 -160 -53q-9 -12 -78 -43q-52 -27 -49 -54q-95 -61 -164 -227q-83 -192 -141 -250q12 -24 12 -45q0 -30 -27 -76q-31 -54 -34 -75q-12 -62 -54 -176q-53 -139 -88 -142q-2 -2 -2 -10 q0 -4 6 -20t6 -21q-21 -18 -81 -154q-48 -110 -113 -145q-4 -21 -14 -43q-1 -1 -8.5 -7.5t-26.5 -22t-39 -31.5q-212 -179 -301 -179q-9 0 -42 -4t-42 -4h-94q-7 0 -15.5 17.5t-15.5 17.5q-5 0 -14.5 -5t-14.5 -5q-8 0 -30.5 17.5t-30.5 17.5q-4 0 -11 -4.5t-14 -4.5 q-13 0 -47 27q-36 25 -47 25q-8 0 -11 -2.5t-5 -2.5q14 0 14 31h-29q-14 -2 -28 -2q-9 0 -68 41q-62 43 -72 47q-3 26 6 35q-47 29 -104 107q-40 54 -88 124q2 10 2 33q0 15 -2 66.5t-2 68.5q0 13 -17.5 36.5t-17.5 31.5q0 9 10.5 22t10.5 15q0 -16 10 -39q10 5 27 22t20 19 q-42 39 -86 74v43q0 34 43 61l-19 16q11 11 52 43q-7 11 -21 19h23q21 162 188 268q156 98 322 101q-9 -18 -21 -41q-34 3 -102 24q-9 -15 -6 -49h-9q-87 0 -270 -154q-3 -82 -55 -125q-49 -43 -49 -110v-213q1 -3 5.5 -24t7 -28t8 -22.5t13 -26.5t17.5 -20q-8 -8 -8 -27 q0 -18 18 -65q20 -51 17 -76q52 -28 106 -110q0 -25 18 -74q28 -6 127 -31q31 -12 99 -63q58 -43 119 -43q18 0 81 -4.5t80 -4.5q83 0 242 111q155 112 199 184q22 41 39 70q28 48 47 51q2 15 26 68l25 47q0 4 -3 17.5t-3 17.5q0 7 26 49q29 47 31 55q9 26 43 125.5 t59 173.5q35 104 76 145q24 212 148 392q-6 3 -15 39l-32 6q-15 0 -78 -17q-52 -18 -82 -22q-94 -12 -154 -12q-17 0 -71.5 7t-69.5 7q-33 -1 -43 -12q-15 0 -76 24l-24 -16q-3 11 -17 24q-12 -3 -12 -32l-55 8q-10 0 -48 -56q21 -24 39 -67l29 -72h-6q-39 0 -180 84 q-126 74 -187 111v57q5 8 43 23q40 15 49 12l572 -25q106 -3 250 17q240 37 248 37q42 53 75 90q45 51 88 73q148 74 197 74q30 0 80 -24q51 -20 51 -50zM772 1264q-41 -15 -55 -15q-15 5 -39 27q43 -3 94 -12zM1087 2120q44 0 74 -23l-12 -26q13 -8 22 -5l9 -24 q-37 -44 -54 -66q-82 30 -82 58q0 4 3.5 16.5t3.5 15.5q0 21 -13 25q1 1 4.5 6.5t6.5 8.5t8 6.5t12.5 5.5t17.5 2zM1559 2118q26 0 50.5 -25t24.5 -51q0 -42 -24 -57q-9 -5 -66 -25q-49 73 -49 76q0 24 22 53t42 29z" />
<glyph unicode="&#xd0;" horiz-adv-x="1599" d="M1829 782l22 -10q-1 0 -57 -22q-53 -17 -57 -17t-20 4t-21 4q-30 0 -74 -20t-57 -43q-47 24 -64 24q-1 0 -13 -8t-22 -8q-8 0 -36 -13.5t-37 -13.5q-11 0 -11 3l2 2q0 4 -10 4q1 0 -34 -29t-110 -90t-181 -148q-327 -266 -381 -266q-11 0 -11 2v2q0 6 -8 6 q-364 -239 -413 -239q-11 0 -11 2l2 2q0 6 -10 6l-74 -45q-74 -47 -106 -47q-5 0 -45 18q-43 19 -68 19q-10 23 -10 59q0 52 66 109q65 56 65 57q6 26 29 64q38 55 39 57q13 24 73 203q44 127 111 182l-2 10q7 28 14 103q-163 -27 -246 -27q-33 0 -60.5 26t-27.5 58 q0 55 410 82q31 65 43 94q21 54 88 233q36 87 115 154q-9 9 -27 6q14 98 35 187q-8 14 -23 14q-62 0 -163 -39q-111 -44 -164 -51q0 -49 -56 -99q-53 -50 -53 -55q0 -28 15 -71q18 -49 41 -56q-2 -3 -5.5 -10.5t-5.5 -11.5t-7 -7.5t-11 -3.5q-7 0 -51 29q-55 36 -56 37 q-3 16 -49 59q-37 34 -37 97q0 47 172 135q166 84 215 84q5 0 24 -9.5t24 -9.5l12 17l-4 8q37 16 84 29q61 20 86 20q7 0 17.5 -9t17.5 -9q8 0 14.5 9t13.5 9t25.5 -9t25.5 -9q326 0 562 -66q356 -105 356 -352q0 -54 -25 -76q2 -2 2 -43q0 -16 -53 -111q-55 -98 -65 -112 q-13 -23 -52 -37v-39h148q36 0 106 6q74 6 109 6zM641 850v-35q0 -43 -221 -90q-3 -5 -8.5 -16.5t-8.5 -16.5q-11 -66 -34 -127q-36 -87 -66 -110v-11q0 -13 -11 -50t-11 -48q0 -9 5 -15.5t5 -8.5h43q30 61 43 61q10 3 10 -2v-2q0 -7 8 -4q61 45 178 117q209 104 246 104 q5 0 17 -5t20 -5q21 0 43 14q20 23 156 78q137 55 172 55q8 0 22 -9t21 -9t32.5 9t32.5 9q83 141 131 225q66 117 66 259q0 131 -150 210q-46 24 -139 58q-104 39 -139 39q-11 0 -50.5 -5.5t-52.5 -5.5q-10 0 -39 12t-34 13q-58 -3 -144 2q-3 -71 -63 -182 q-55 -102 -96 -172q-29 -71 -148 -336h2q40 3 74 0h88zM1116 532l2 28v38q0 2 -4 14q-80 -9 -215 -49q-6 -2 -35 -28q-30 -23 -33 -23q-5 0 -17 5t-17 5q-21 0 -254 -139q-228 -138 -260 -170q-32 -37 -58 -107q-42 -111 -45 -116q130 50 504 233v8q0 24 61 58 q21 11 42.5 22t30 15.5t9.5 5.5q41 44 123 114q29 6 82 33q37 29 84 53zM1190 631h-43v-25h33q0 8 10 25z" />
<glyph unicode="&#xd1;" horiz-adv-x="1701" d="M1575 1968q0 -38 -86 -94q-85 -55 -129 -55q-63 0 -178 59t-176 59q-43 0 -113 -55t-72 -55h-30q-12 0 -37 23t-25 34q0 56 74 109q73 55 131 55q5 0 10 -7t10 -7q3 0 15 10t20 10q84 0 137 -35q84 -55 107 -67q104 -43 113 -43q17 0 104 37q88 39 117 39q8 0 8 -17z M1995 381q-23 -41 -164 -191q-2 -6 14 -22q-47 -22 -127 -92q-97 -84 -125 -101q-34 -19 -132 -70.5t-152 -80.5q-9 0 -44 -9.5t-44 -9.5q-5 0 -14.5 4.5t-14.5 4.5q-7 0 -25.5 -12.5t-25.5 -12.5q-25 0 -80 25q-49 24 -57 24t-12 -4t-9 -4q-14 0 -115 84q-106 90 -106 266 q0 40 35 180q35 139 53 183l12 26t9.5 21t5.5 12q18 28 41 49q-7 11 -7 25q0 36 41 104q42 64 45 99q8 6 19 15.5t28 24t31 25.5v12q0 9 2 37.5t2 36.5h43q8 11 11 55q3 48 20 68l-12 12q-8 -14 -66 -20q-3 -3 -10 -27q-34 -9 -92 -67q-61 -58 -121 -72q-9 -52 -129 -160 l-84 -72t-84 -71l-6 -33q-38 -27 -109 -133l-102 -152q0 -41 -37 -96q-34 -54 -74 -69q17 -10 17 -25q0 -5 -56 -111q-57 -108 -63 -114q-27 -37 -76 -37q-31 0 -55.5 20t-24.5 49q0 19 60 121q60 99 80 109q15 34 30 112q41 25 51 56l19 73q59 53 108 154q45 92 58 180 q-3 -15 6 -24q29 40 51 100q38 98 41 105q28 6 49 59q13 46 27 82q28 9 37 63q15 66 18 76q6 9 43 49q31 36 31 45q0 31 -14 56q-129 -63 -494 -273v-10q3 -26 -20 -64q-7 -9 -20.5 -27.5t-20.5 -27.5q-34 17 -68 17q-14 0 -31 36q-16 40 -16 52q0 46 192 174 q184 123 226 123q8 0 8 -2v-3q0 -4 8 -4t22 18.5t15 18.5q56 42 352 154q7 -5 20.5 -14.5t20.5 -14.5q29 -23 29 -33q0 -43 -64 -153l-92 -154q-1 -2 -31 -69q-11 -11 -34 -27q-21 -86 -154 -305l12 -15q44 21 238 203q181 166 205 166q8 0 14 -4.5t8 -5.5q15 40 133 127 q5 5 183 170q23 20 57 20q9 0 41 -8t41 -8q18 -9 18 -25q0 -85 -98 -213q-146 -199 -147 -200q-44 -72 -160 -291q-29 -15 -49 -31q-20 -17 -23 -49l14 8l21 -10q-30 -33 -84 -213q-49 -174 -49 -236q0 -290 305 -290q41 0 115 26q63 21 106 49q176 121 201 138q29 0 76 20 q53 45 159 154q55 9 146 96z" />
<glyph unicode="&#xd2;" horiz-adv-x="1486" d="M1718 930l31 -45h-80q-47 0 -139 24q-92 27 -141 27q-28 0 -41 -8q3 -32 -43 -105q-45 -71 -45 -90q0 -6 2 -8q-33 -33 -134 -195q-81 -130 -157 -170q-7 -28 -47 -90q-9 -9 -60 -39q-45 -26 -45 -47q-181 -141 -227 -168q-137 -82 -266 -82q-100 0 -185 58 q-92 65 -104 158q-49 21 -49 147q0 35 20 96q23 71 23 101q0 23 -8 34q20 15 34 27q-3 14 -26 14q9 19 28 31q27 15 31 23q-11 14 -24 14q9 14 88 166q54 101 102 155q8 10 45 56t57 71l56 66q82 103 116 137q21 12 76 45l-6 27q21 14 58 40.5t42 29.5q75 54 91 77 q23 8 73 68q37 43 103 43q46 0 104 -10q4 -1 27 -21t32 -20t9 4q0 6 8 6q190 -91 190 -182q44 3 54 -21q8 -11 8 -55t24 -53q0 -8 -24 -29q20 -26 20 -109q0 -48 -12 -86l154 -67q84 -39 157 -45zM1321 1143v133q-26 -3 -57 63t-74 66q-45 12 -96 -2q-53 -12 -62 -111 q-21 -70 109 -151l162 -82l2 35q-2 4 -2 12q0 19 18 37zM1253 973q-319 130 -346 309q0 17 2 25q-1 1 -16 10q-6 3 -6 16q0 7 24 78q-13 0 -42.5 -11t-32.5 -11q-11 0 -11 2l2 2q0 4 -10 4q-23 0 -117 -82q-116 -98 -127 -103q-57 -89 -137 -163q-3 -21 -39 -60 q-35 -38 -55 -41q-11 -18 -27 -26q-3 -40 -51 -113q-31 -47 -69 -111q-7 -12 -23 -106q-9 -62 -55 -96v-267q0 -48 69 -120q72 -72 119 -72q4 0 19 4t20 4q96 0 358 188q3 -3 3 -8q0 -7 -3.5 -9t-3.5 -9q0 -6 2 -8q12 9 39 18q0 3 -24 21q2 6 14 18q10 3 29 16q31 31 47 45 q34 30 53 27q194 281 229 334q9 -6 17 -6h4q-10 10 -10 22q0 18 30 45q34 27 37 35q21 41 39 90q25 79 49 109zM868 2038q-2 -12 -2 -35q14 -16 47 -49q30 -39 33 -62h-16q-13 0 -25 -41q7 -1 -4 -2h-41q-15 0 -31 23q-20 33 -24 35q-37 24 -92 102q-24 32 -45 61t-29.5 41 t-9.5 13q0 20 12 67h10q8 0 31.5 4.5t30.5 4.5q33 0 155 -162z" />
<glyph unicode="&#xd3;" horiz-adv-x="1521" d="M1718 930l31 -45h-80q-47 0 -139 24q-92 27 -141 27q-28 0 -41 -8q3 -32 -43 -105q-45 -71 -45 -90q0 -6 2 -8q-33 -33 -134 -195q-81 -130 -157 -170q-7 -28 -47 -90q-9 -9 -60 -39q-45 -26 -45 -47q-181 -141 -227 -168q-137 -82 -266 -82q-100 0 -185 58 q-92 65 -104 158q-49 21 -49 147q0 35 20 96q23 71 23 101q0 23 -8 34q20 15 34 27q-3 14 -26 14q9 19 28 31q27 15 31 23q-11 14 -24 14q9 14 88 166q54 101 102 155q8 10 45 56t57 71l56 66q82 103 116 137q21 12 76 45l-6 27q21 14 58 40.5t42 29.5q75 54 91 77 q23 8 73 68q37 43 103 43q46 0 104 -10q4 -1 27 -21t32 -20t9 4q0 6 8 6q190 -91 190 -182q44 3 54 -21q8 -11 8 -55t24 -53q0 -8 -24 -29q20 -26 20 -109q0 -48 -12 -86l154 -67q84 -39 157 -45zM1321 1143v133q-26 -3 -57 63t-74 66q-45 12 -96 -2q-53 -12 -62 -111 q-21 -70 109 -151l162 -82l2 35q-2 4 -2 12q0 19 18 37zM1253 973q-319 130 -346 309q0 17 2 25q-1 1 -16 10q-6 3 -6 16q0 7 24 78q-13 0 -42.5 -11t-32.5 -11q-11 0 -11 2l2 2q0 4 -10 4q-23 0 -117 -82q-116 -98 -127 -103q-57 -89 -137 -163q-3 -21 -39 -60 q-35 -38 -55 -41q-11 -18 -27 -26q-3 -40 -51 -113q-31 -47 -69 -111q-7 -12 -23 -106q-9 -62 -55 -96v-267q0 -48 69 -120q72 -72 119 -72q4 0 19 4t20 4q96 0 358 188q3 -3 3 -8q0 -7 -3.5 -9t-3.5 -9q0 -6 2 -8q12 9 39 18q0 3 -24 21q2 6 14 18q10 3 29 16q31 31 47 45 q34 30 53 27q194 281 229 334q9 -6 17 -6h4q-10 10 -10 22q0 18 30 45q34 27 37 35q21 41 39 90q25 79 49 109zM1417 1909q-12 2 -33 2q-18 -14 -51 -47q-36 -28 -61 -31v12q0 16 -41 31v41q0 22 20 33q33 19 37 24q25 32 105 90q112 78 116 82q19 0 68 -12l-2 -14 q0 -8 4 -31t4 -27q0 -29 -70 -84q-49 -34 -96 -69z" />
<glyph unicode="&#xd4;" horiz-adv-x="1511" d="M1718 930l31 -45h-80q-47 0 -139 24q-92 27 -141 27q-28 0 -41 -8q3 -32 -43 -105q-45 -71 -45 -90q0 -6 2 -8q-33 -33 -134 -195q-81 -130 -157 -170q-7 -28 -47 -90q-9 -9 -60 -39q-45 -26 -45 -47q-181 -141 -227 -168q-137 -82 -266 -82q-100 0 -185 58 q-92 65 -104 158q-49 21 -49 147q0 35 20 96q23 71 23 101q0 23 -8 34q20 15 34 27q-3 14 -26 14q9 19 28 31q27 15 31 23q-11 14 -24 14q9 14 88 166q54 101 102 155q8 10 45 56t57 71l56 66q82 103 116 137q21 12 76 45l-6 27q21 14 58 40.5t42 29.5q75 54 91 77 q23 8 73 68q37 43 103 43q46 0 104 -10q4 -1 27 -21t32 -20t9 4q0 6 8 6q190 -91 190 -182q44 3 54 -21q8 -11 8 -55t24 -53q0 -8 -24 -29q20 -26 20 -109q0 -48 -12 -86l154 -67q84 -39 157 -45zM1321 1143v133q-26 -3 -57 63t-74 66q-45 12 -96 -2q-53 -12 -62 -111 q-21 -70 109 -151l162 -82l2 35q-2 4 -2 12q0 19 18 37zM1253 973q-319 130 -346 309q0 17 2 25q-1 1 -16 10q-6 3 -6 16q0 7 24 78q-13 0 -42.5 -11t-32.5 -11q-11 0 -11 2l2 2q0 4 -10 4q-23 0 -117 -82q-116 -98 -127 -103q-57 -89 -137 -163q-3 -21 -39 -60 q-35 -38 -55 -41q-11 -18 -27 -26q-3 -40 -51 -113q-31 -47 -69 -111q-7 -12 -23 -106q-9 -62 -55 -96v-267q0 -48 69 -120q72 -72 119 -72q4 0 19 4t20 4q96 0 358 188q3 -3 3 -8q0 -7 -3.5 -9t-3.5 -9q0 -6 2 -8q12 9 39 18q0 3 -24 21q2 6 14 18q10 3 29 16q31 31 47 45 q34 30 53 27q194 281 229 334q9 -6 17 -6h4q-10 10 -10 22q0 18 30 45q34 27 37 35q21 41 39 90q25 79 49 109zM1391 1909q-3 -7 -11.5 -25.5t-13.5 -30.5q0 3 -1.5 5.5t-3.5 4.5t-4 3t-5.5 2.5t-6 2t-7 1t-6.5 1t-7 1t-6 0.5q-3 4 -6 16q-3 8 -10 8t-7 -4h-6q-6 0 -53 93 q-47 92 -68 92q-110 -78 -155 -86q-18 -24 -29 -35l-24 -10q-113 -88 -132 -88q-28 0 -52.5 16.5t-24.5 40.5q0 15 45 51q41 36 67 47q21 0 45 8q26 15 164 115q116 82 162 82q8 0 30.5 -18.5t22.5 -28.5l-3 -11q-2 -7 -3 -12q20 -58 109 -241z" />
<glyph unicode="&#xd5;" horiz-adv-x="1499" d="M1718 930l31 -45h-80q-47 0 -139 24q-92 27 -141 27q-28 0 -41 -8q3 -32 -43 -105q-45 -71 -45 -90q0 -6 2 -8q-33 -33 -134 -195q-81 -130 -157 -170q-7 -28 -47 -90q-9 -9 -60 -39q-45 -26 -45 -47q-181 -141 -227 -168q-137 -82 -266 -82q-100 0 -185 58 q-92 65 -104 158q-49 21 -49 147q0 35 20 96q23 71 23 101q0 23 -8 34q20 15 34 27q-3 14 -26 14q9 19 28 31q27 15 31 23q-11 14 -24 14q9 14 88 166q54 101 102 155q8 10 45 56t57 71l56 66q82 103 116 137q21 12 76 45l-6 27q21 14 58 40.5t42 29.5q75 54 91 77 q23 8 73 68q37 43 103 43q46 0 104 -10q4 -1 27 -21t32 -20t9 4q0 6 8 6q190 -91 190 -182q44 3 54 -21q8 -11 8 -55t24 -53q0 -8 -24 -29q20 -26 20 -109q0 -48 -12 -86l154 -67q84 -39 157 -45zM1321 1143v133q-26 -3 -57 63t-74 66q-45 12 -96 -2q-53 -12 -62 -111 q-21 -70 109 -151l162 -82l2 35q-2 4 -2 12q0 19 18 37zM1253 973q-319 130 -346 309q0 17 2 25q-1 1 -16 10q-6 3 -6 16q0 7 24 78q-13 0 -42.5 -11t-32.5 -11q-11 0 -11 2l2 2q0 4 -10 4q-23 0 -117 -82q-116 -98 -127 -103q-57 -89 -137 -163q-3 -21 -39 -60 q-35 -38 -55 -41q-11 -18 -27 -26q-3 -40 -51 -113q-31 -47 -69 -111q-7 -12 -23 -106q-9 -62 -55 -96v-267q0 -48 69 -120q72 -72 119 -72q4 0 19 4t20 4q96 0 358 188q3 -3 3 -8q0 -7 -3.5 -9t-3.5 -9q0 -6 2 -8q12 9 39 18q0 3 -24 21q2 6 14 18q10 3 29 16q31 31 47 45 q34 30 53 27q194 281 229 334q9 -6 17 -6h4q-10 10 -10 22q0 18 30 45q34 27 37 35q21 41 39 90q25 79 49 109zM1477 2052q0 -39 -88 -94q-85 -55 -127 -55q-64 0 -179 59t-176 59q-43 0 -112 -57q-70 -55 -72 -55h-31q-12 0 -37.5 23.5t-25.5 35.5q0 54 78 111 q71 53 127 53q8 0 13 -7t9 -7q3 0 15 10t20 10q84 0 137 -35q84 -55 107 -67q104 -43 112 -43q18 0 105 37q86 38 116 38q9 0 9 -16z" />
<glyph unicode="&#xd6;" horiz-adv-x="1507" d="M791 2040q43 0 73 -23l-12 -26q12 -7 22 -4l9 -25q-37 -44 -54 -66q-81 29 -81 58q0 4 3 17t3 16q0 20 -13 24q1 1 3.5 4.5t4 5.5t4.5 5.5t6.5 5.5t8 4t10.5 3t13 1zM1262 2038q26 0 50.5 -25t24.5 -51q0 -42 -24 -57q-9 -5 -66 -25q-49 73 -49 76q0 24 22 53t42 29z M1718 930l31 -45h-80q-47 0 -139 24q-92 27 -141 27q-28 0 -41 -8q3 -32 -43 -105q-45 -71 -45 -90q0 -6 2 -8q-33 -33 -134 -195q-81 -130 -157 -170q-7 -28 -47 -90q-9 -9 -60 -39q-45 -26 -45 -47q-181 -141 -227 -168q-137 -82 -266 -82q-100 0 -185 58q-92 65 -104 158 q-49 21 -49 147q0 35 20 96q23 71 23 101q0 23 -8 34q20 15 34 27q-3 14 -26 14q9 19 28 31q27 15 31 23q-11 14 -24 14q9 14 88 166q54 101 102 155q8 10 45 56t57 71l56 66q82 103 116 137q21 12 76 45l-6 27q21 14 58 40.5t42 29.5q75 54 91 77q23 8 73 68q37 43 103 43 q46 0 104 -10q4 -1 27 -21t32 -20t9 4q0 6 8 6q190 -91 190 -182q44 3 54 -21q8 -11 8 -55t24 -53q0 -8 -24 -29q20 -26 20 -109q0 -48 -12 -86l154 -67q84 -39 157 -45zM1321 1143v133q-26 -3 -57 63t-74 66q-45 12 -96 -2q-53 -12 -62 -111q-21 -70 109 -151l162 -82l2 35 q-2 4 -2 12q0 19 18 37zM1253 973q-319 130 -346 309q0 17 2 25q-1 1 -16 10q-6 3 -6 16q0 7 24 78q-13 0 -42.5 -11t-32.5 -11q-11 0 -11 2l2 2q0 4 -10 4q-23 0 -117 -82q-116 -98 -127 -103q-57 -89 -137 -163q-3 -21 -39 -60q-35 -38 -55 -41q-11 -18 -27 -26 q-3 -40 -51 -113q-31 -47 -69 -111q-7 -12 -23 -106q-9 -62 -55 -96v-267q0 -48 69 -120q72 -72 119 -72q4 0 19 4t20 4q96 0 358 188q3 -3 3 -8q0 -7 -3.5 -9t-3.5 -9q0 -6 2 -8q12 9 39 18q0 3 -24 21q2 6 14 18q10 3 29 16q31 31 47 45q34 30 53 27q194 281 229 334 q9 -6 17 -6h4q-10 10 -10 22q0 18 30 45q34 27 37 35q21 41 39 90q25 79 49 109z" />
<glyph unicode="&#xd7;" horiz-adv-x="1042" d="M805 686l26 -29q-14 -28 -28 -59q-13 -33 -35 -55q-110 -102 -174 -170q6 -79 68 -185q6 -6 14 -15.5t19 -23.5t20 -24q13 -16 10 -62q-3 -42 -18 -57q-13 -11 -41 -3.5t-43 22.5q-8 8 -125 213q-15 -9 -25 -19q-12 -12 -39 -64t-41 -65q-3 -3 -12.5 -7t-13.5 -7 q-1 -2 -3 -8q-3 -9 -2 -9q-3 1 -40 -2q-34 -3 -41 2q-50 53 104 226q13 13 59 75q4 11 -2 11q-80 120 -155 260q30 40 35 45q19 19 63 29l45 -48q7 -13 96 -202q2 2 105 98q111 105 174 133z" />
<glyph unicode="&#xd8;" horiz-adv-x="1654" d="M1718 930l31 -45h-80q-47 0 -139 24q-92 27 -141 27q-28 0 -41 -8q3 -32 -43 -105q-45 -71 -45 -90q0 -6 2 -8q-33 -33 -134 -195q-81 -130 -157 -170q-7 -28 -47 -90q-9 -9 -60 -39q-45 -26 -45 -47q-181 -141 -227 -168q-137 -82 -266 -82q-100 0 -185 58 q-92 65 -104 158q-49 21 -49 147q0 35 20 96q23 71 23 101q0 23 -8 34q20 15 34 27q-3 14 -26 14q9 19 28 31q27 15 31 23q-11 14 -24 14q9 14 88 166q54 101 102 155q8 10 45 56t57 71l56 66q82 103 116 137q21 12 76 45l-6 27q21 14 58 40.5t42 29.5q75 54 91 77 q23 8 73 68q37 43 103 43q46 0 104 -10q4 -1 27 -21t32 -20t9 4q0 6 8 6q190 -91 190 -182q44 3 54 -21q8 -11 8 -55t24 -53q0 -8 -24 -29q20 -26 20 -109q0 -48 -12 -86l154 -67q84 -39 157 -45zM1321 1143v133q-26 -3 -57 63t-74 66q-45 12 -96 -2q-53 -12 -62 -111 q-21 -70 109 -151l162 -82l2 35q-2 4 -2 12q0 19 18 37zM1253 973q-319 130 -346 309q0 17 2 25q-1 1 -16 10q-6 3 -6 16q0 7 24 78q-13 0 -42.5 -11t-32.5 -11q-11 0 -11 2l2 2q0 4 -10 4q-23 0 -117 -82q-116 -98 -127 -103q-57 -89 -137 -163q-3 -21 -39 -60 q-35 -38 -55 -41q-11 -18 -27 -26q-3 -40 -51 -113q-31 -47 -69 -111q-7 -12 -23 -106q-9 -62 -55 -96v-267q0 -48 69 -120q72 -72 119 -72q4 0 19 4t20 4q96 0 358 188q3 -3 3 -8q0 -7 -3.5 -9t-3.5 -9q0 -6 2 -8q12 9 39 18q0 3 -24 21q2 6 14 18q10 3 29 16q31 31 47 45 q34 30 53 27q194 281 229 334q9 -6 17 -6h4q-10 10 -10 22q0 18 30 45q34 27 37 35q21 41 39 90q25 79 49 109zM1440 1671q0 -20 -45 -80q-42 -60 -66 -80l-16 17q-25 -43 -187 -279q-121 -182 -147 -288q-40 -12 -55 -76q-6 -50 -15 -101q-26 -3 -26 -8q0 -4 6 -10 q-10 -10 -10 -45q-59 -12 -121 -107q-14 -24 -43 -72t-43 -71q24 -24 24 -41q0 -18 -19.5 -43t-37.5 -25q-5 0 -12.5 4.5t-12.5 4.5q-29 0 -41 -58q-10 -53 -8 -84q-160 -153 -223 -348q-55 -58 -55 -69q0 -14 8 -27q-12 4 -19 4q-17 0 -38 -12q-17 14 -29 18v43 q0 35 94 201q95 167 129 194q54 111 205 383q11 18 46.5 75t55.5 87q82 137 97 137q17 0 20 -8q4 4 4 13q0 7 -12 34q20 20 74 95q31 82 100 229q61 123 291 489q37 0 80 -32q47 -30 47 -64z" />
<glyph unicode="&#xd9;" horiz-adv-x="1617" d="M1780 459h24q-23 -51 -96 -127q-77 -80 -98 -133q-34 -5 -48 -17t-10 -32l-28 8q-21 -35 -92 -103q-73 -70 -91 -100q-21 -3 -94 -49q-71 -45 -106 -45q-5 0 -26 8t-28 8q-84 0 -112 78q-17 49 -17 147q10 41 33 125q78 289 156 437q-2 33 23 75.5t55 55.5v22 q-9 12 -33 12q-47 0 -100 -65q-10 -15 -72 -102q-52 -60 -160 -168q-139 -139 -162 -164h-1l-1 1h-1h-1h-1l-1 1h-1h-2l-21 6q-12 0 -39 -55q-6 -14 -78 -62q-67 -44 -84 -78h-10q-34 3 -37 -34l-25 6q-152 -131 -215 -131q-8 0 -34.5 8t-34.5 8q-5 0 -14.5 -8t-14.5 -8 q-38 0 -68 71q-24 62 -24 107q0 69 41 194q40 126 86 183q-2 4 -2 10q0 56 47 74q-2 3 -15 12q3 15 35 59q23 26 31 78t18 70q40 70 95 207q60 140 100 206q31 54 31 127l-13 15q-57 -11 -122 -27q-80 -22 -111 -53q8 -24 8 -27q0 -8 -10 -8q-3 0 -11 4t-16 4q-4 0 -14.5 -8 t-15.5 -8q-7 0 -33 16.5t-33 16.5q-5 0 -10 -4.5t-10 -4.5q-18 0 -40 32.5t-22 53.5q0 37 80 64q71 22 113 22q7 0 14 -8t12 -8q4 0 35.5 16.5t40.5 16.5q6 0 6 -2v-2q0 -4 8 -4q43 0 189 57t174 57q10 0 35 -14q9 -5 19 -10t14.5 -7t5.5 -3q-16 -77 -66 -138 q-47 -61 -51 -82q-11 7 -19 7q-22 0 -57 -60q-40 -71 -51 -78l-266 -622q-107 -250 -107 -359q0 -112 35 -112q52 0 192 94q97 72 187 133q26 13 65 39q10 7 13 27q71 40 141 120q97 111 123 134q27 24 145 151q87 93 156 133q8 20 34.5 51t39.5 31q8 0 8 -4h-2q0 -4 8 -4 q22 0 102 127l21 16q3 20 33 78q37 72 39 86q30 119 57 166q50 92 129 92q21 0 55 -43q35 -44 35 -67q0 -50 -39 -101q-35 -134 -256 -321q-5 -1 -7.5 0t-3.5 2.5l-2 3t-3 2.5q-2 -2 -11 -43q-6 -31 -12 -31q-10 1 -10 4l-2 4q-8 -41 -10 -47q-21 -17 -56 -35 q0 -1 11.5 -13.5t11.5 -20.5q0 -20 -53 -97q-61 -86 -66 -112q-11 -47 -98 -275q-62 -171 -62 -280q0 -140 49 -140q7 0 105 48q109 50 121 53q62 67 190 196q40 25 96 68l2 8q1 9 5 16t10 7q8 0 8 -2l-2 -2q0 -5 8 -5t51 46q40 43 56 51zM1149 868l55 54l-6 10l-55 -53z M1057 770l18 21l-8 8l-16 -19zM948 2023q-2 -12 -2 -34q21 -24 47 -50q31 -39 33 -61h-16q-13 0 -25 -41q7 -1 -4 -2h-41q-15 0 -31 23q-19 31 -24 34q-35 23 -92 103q-23 31 -44.5 60.5t-30 41t-9.5 12.5q0 21 12 68h10q8 0 31.5 4t30.5 4q33 0 155 -162z" />
<glyph unicode="&#xda;" horiz-adv-x="1640" d="M1780 459h24q-23 -51 -96 -127q-77 -80 -98 -133q-34 -5 -48 -17t-10 -32l-28 8q-21 -35 -92 -103q-73 -70 -91 -100q-21 -3 -94 -49q-71 -45 -106 -45q-5 0 -26 8t-28 8q-84 0 -112 78q-17 49 -17 147q10 41 33 125q78 289 156 437q-2 33 23 75.5t55 55.5v22 q-9 12 -33 12q-47 0 -100 -65q-10 -15 -72 -102q-52 -60 -160 -168q-139 -139 -162 -164h-1l-1 1h-1h-1h-1l-1 1h-1h-2l-21 6q-12 0 -39 -55q-6 -14 -78 -62q-67 -44 -84 -78h-10q-34 3 -37 -34l-25 6q-152 -131 -215 -131q-8 0 -34.5 8t-34.5 8q-5 0 -14.5 -8t-14.5 -8 q-38 0 -68 71q-24 62 -24 107q0 69 41 194q40 126 86 183q-2 4 -2 10q0 56 47 74q-2 3 -15 12q3 15 35 59q23 26 31 78t18 70q40 70 95 207q60 140 100 206q31 54 31 127l-13 15q-57 -11 -122 -27q-80 -22 -111 -53q8 -24 8 -27q0 -8 -10 -8q-3 0 -11 4t-16 4q-4 0 -14.5 -8 t-15.5 -8q-7 0 -33 16.5t-33 16.5q-5 0 -10 -4.5t-10 -4.5q-18 0 -40 32.5t-22 53.5q0 37 80 64q71 22 113 22q7 0 14 -8t12 -8q4 0 35.5 16.5t40.5 16.5q6 0 6 -2v-2q0 -4 8 -4q43 0 189 57t174 57q10 0 35 -14q9 -5 19 -10t14.5 -7t5.5 -3q-16 -77 -66 -138 q-47 -61 -51 -82q-11 7 -19 7q-22 0 -57 -60q-40 -71 -51 -78l-266 -622q-107 -250 -107 -359q0 -112 35 -112q52 0 192 94q97 72 187 133q26 13 65 39q10 7 13 27q71 40 141 120q97 111 123 134q27 24 145 151q87 93 156 133q8 20 34.5 51t39.5 31q8 0 8 -4h-2q0 -4 8 -4 q22 0 102 127l21 16q3 20 33 78q37 72 39 86q30 119 57 166q50 92 129 92q21 0 55 -43q35 -44 35 -67q0 -50 -39 -101q-35 -134 -256 -321q-5 -1 -7.5 0t-3.5 2.5l-2 3t-3 2.5q-2 -2 -11 -43q-6 -31 -12 -31q-10 1 -10 4l-2 4q-8 -41 -10 -47q-21 -17 -56 -35 q0 -1 11.5 -13.5t11.5 -20.5q0 -20 -53 -97q-61 -86 -66 -112q-11 -47 -98 -275q-62 -171 -62 -280q0 -140 49 -140q7 0 105 48q109 50 121 53q62 67 190 196q40 25 96 68l2 8q1 9 5 16t10 7q8 0 8 -2l-2 -2q0 -5 8 -5t51 46q40 43 56 51zM1149 868l55 54l-6 10l-55 -53z M1057 770l18 21l-8 8l-16 -19zM1243 1907q-12 2 -33 2q-18 -14 -51 -47q-36 -28 -61 -31v12q0 16 -41 31v41q0 22 20 33q33 20 37 24q25 32 105 90q112 78 116 82q19 0 68 -12l-2 -14q0 -8 4 -31t4 -27q0 -29 -70 -84q-49 -34 -96 -69z" />
<glyph unicode="&#xdb;" horiz-adv-x="1679" d="M1780 459h24q-23 -51 -96 -127q-77 -80 -98 -133q-34 -5 -48 -17t-10 -32l-28 8q-21 -35 -92 -103q-73 -70 -91 -100q-21 -3 -94 -49q-71 -45 -106 -45q-5 0 -26 8t-28 8q-84 0 -112 78q-17 49 -17 147q10 41 33 125q78 289 156 437q-2 33 23 75.5t55 55.5v22 q-9 12 -33 12q-47 0 -100 -65q-10 -15 -72 -102q-52 -60 -160 -168q-139 -139 -162 -164h-1l-1 1h-1h-1h-1l-1 1h-1h-2l-21 6q-12 0 -39 -55q-6 -14 -78 -62q-67 -44 -84 -78h-10q-34 3 -37 -34l-25 6q-152 -131 -215 -131q-8 0 -34.5 8t-34.5 8q-5 0 -14.5 -8t-14.5 -8 q-38 0 -68 71q-24 62 -24 107q0 69 41 194q40 126 86 183q-2 4 -2 10q0 56 47 74q-2 3 -15 12q3 15 35 59q23 26 31 78t18 70q40 70 95 207q60 140 100 206q31 54 31 127l-13 15q-57 -11 -122 -27q-80 -22 -111 -53q8 -24 8 -27q0 -8 -10 -8q-3 0 -11 4t-16 4q-4 0 -14.5 -8 t-15.5 -8q-7 0 -33 16.5t-33 16.5q-5 0 -10 -4.5t-10 -4.5q-18 0 -40 32.5t-22 53.5q0 37 80 64q71 22 113 22q7 0 14 -8t12 -8q4 0 35.5 16.5t40.5 16.5q6 0 6 -2v-2q0 -4 8 -4q43 0 189 57t174 57q10 0 35 -14q9 -5 19 -10t14.5 -7t5.5 -3q-16 -77 -66 -138 q-47 -61 -51 -82q-11 7 -19 7q-22 0 -57 -60q-40 -71 -51 -78l-266 -622q-107 -250 -107 -359q0 -112 35 -112q52 0 192 94q97 72 187 133q26 13 65 39q10 7 13 27q71 40 141 120q97 111 123 134q27 24 145 151q87 93 156 133q8 20 34.5 51t39.5 31q8 0 8 -4h-2q0 -4 8 -4 q22 0 102 127l21 16q3 20 33 78q37 72 39 86q30 119 57 166q50 92 129 92q21 0 55 -43q35 -44 35 -67q0 -50 -39 -101q-35 -134 -256 -321q-5 -1 -7.5 0t-3.5 2.5l-2 3t-3 2.5q-2 -2 -11 -43q-6 -31 -12 -31q-10 1 -10 4l-2 4q-8 -41 -10 -47q-21 -17 -56 -35 q0 -1 11.5 -13.5t11.5 -20.5q0 -20 -53 -97q-61 -86 -66 -112q-11 -47 -98 -275q-62 -171 -62 -280q0 -140 49 -140q7 0 105 48q109 50 121 53q62 67 190 196q40 25 96 68l2 8q1 9 5 16t10 7q8 0 8 -2l-2 -2q0 -5 8 -5t51 46q40 43 56 51zM1149 868l55 54l-6 10l-55 -53z M1057 770l18 21l-8 8l-16 -19zM1452 1933q-3 -6 -11.5 -24.5t-13.5 -30.5q0 4 -2 7t-5.5 4.5t-6 3t-8 2.5t-8.5 1.5t-9 1t-8 0.5q-3 3 -6 17q-3 8 -10 8q-6 0 -6 -4h-6q-7 0 -54 92t-67 92q-109 -78 -156 -86q-21 -28 -28 -35l-25 -10q-113 -88 -131 -88q-28 0 -53 17 t-25 41q0 15 45 51q40 35 68 47q21 0 45 8q26 15 164 115q116 82 161 82q8 0 31 -18.5t23 -28.5l-7 -23q21 -62 109 -242z" />
<glyph unicode="&#xdc;" horiz-adv-x="1693" d="M934 1962q44 0 74 -23l-13 -26q12 -7 23 -4l8 -25q-36 -41 -53 -65q-82 30 -82 57q0 4 3 17t3 16q0 20 -12 24q1 1 4.5 6.5t6.5 8.5t8 6.5t12.5 5.5t17.5 2zM1405 1960q26 0 51 -25t25 -51q0 -41 -25 -57q-12 -6 -65 -25q-50 74 -50 76q0 24 22 53t42 29zM1800 459h25 q-23 -51 -96 -127q-78 -81 -99 -133q-34 -4 -48 -16.5t-9 -32.5l-29 8q-21 -35 -92 -103q-71 -67 -90 -100q-21 -3 -94 -49q-71 -45 -107 -45q-5 0 -25 8t-28 8q-85 0 -113 78q-16 46 -16 147q10 41 33 125q79 293 155 437q-2 33 23 75.5t55 55.5v22q-9 12 -33 12 q-47 0 -100 -65q-10 -15 -72 -102q-58 -68 -159 -168q-139 -139 -162 -164q-7 2 -17 4l-14 4q-12 0 -39 -55q-6 -14 -78 -62q-67 -44 -84 -78h-10q-34 3 -37 -34l-24 6q-152 -131 -215 -131q-8 0 -35 8t-35 8q-5 0 -14.5 -8t-14.5 -8q-37 0 -67 71q-25 64 -25 107 q0 69 41 194q42 128 86 183q-2 4 -2 10q0 56 47 74q-2 4 -14 12q3 15 35 59q23 26 31 78t18 70q36 64 94 207q60 140 100 206q31 54 31 127l-12 15q-61 -12 -123 -27q-80 -22 -111 -53q2 -5 3.5 -10t2.5 -8t1.5 -5.5t1.5 -3.5q0 -8 -11 -8q-3 0 -10.5 4t-15.5 4q-4 0 -15 -8 t-16 -8q-7 0 -33 16.5t-33 16.5q-5 0 -10 -4.5t-10 -4.5q-18 0 -39.5 32t-21.5 54q0 37 79 64q71 22 113 22q7 0 15 -8t12 -8t35 16.5t40 16.5q7 0 7 -2v-2q0 -4 8 -4q42 0 188 57t174 57q10 0 35 -14q9 -5 19 -10t14.5 -7t5.5 -3q-17 -79 -65 -138q-48 -63 -52 -82 q-11 7 -18 7q-22 0 -57 -60q-39 -70 -52 -78l-266 -622q-106 -247 -106 -359t34 -112q53 0 193 94q110 81 186 133q30 15 66 39q9 6 12 27q71 40 141 120q97 111 123 134q33 29 146 151q88 94 155 133q8 20 34.5 51t39.5 31q8 0 8 -4h-2q0 -4 8 -4q23 0 103 127l20 16 q3 20 33 78q37 72 39 86q30 119 57 166q50 92 129 92q22 0 56 -43t34 -67q0 -52 -38 -101q-35 -134 -256 -321q-5 -1 -8 0t-3.5 2.5t-2 3t-3.5 2.5q-1 -1 -10 -43q-6 -31 -12 -31q-10 1 -11 4l-2 4q-8 -41 -10 -47q-23 -18 -55 -35q0 -1 11 -13.5t11 -20.5q0 -20 -53 -97 q-59 -84 -65 -112q-10 -40 -99 -275q-61 -168 -61 -280q0 -140 49 -140q6 0 104 48q109 50 121 53q51 56 191 196q40 25 96 68l1 8q2 9 5.5 16t9.5 7q9 0 9 -2l-2 -2q0 -5 8 -5t51 46q41 44 55 51zM1169 868l56 54l-6 10l-56 -53zM1077 770l19 21l-9 8l-16 -19z" />
<glyph unicode="&#xdd;" horiz-adv-x="1761" d="M2277 1575l4 -12l-26 -13v13zM1329 522h-35q21 21 21 43q14 -14 14 -43zM1235 315q4 0 4 -6q0 -13 -14 -65q-1 1 -23 80h12q12 0 21 -9zM1219 215q-41 -102 -64 -158q-14 -36 -34 -87.5t-27 -67.5q-6 24 -31 30q27 36 76 144q46 99 80 139zM2374 1743q-18 -25 -72 -68 q2 -20 -8 -86q0 13 -19 29q-42 -9 -30 -72q-32 -14 -70 -61q-9 -14 -59 -76q-84 -99 -242 -180q-20 -62 -139 -121q0 -17 -15 -47l-8 2q-35 0 -64.5 -43t-31.5 -84q-82 -6 -115 -57q-23 -39 -63 -117q-11 -16 -57 -56t-58 -55q-64 -97 -119 -221q-3 -31 -18 -92 q-79 -215 -201 -516q-4 -7 -37 -58q-22 -36 -22 -61q0 -8 10 -18l22 -15q44 21 66 94q29 91 47 109q-17 -36 -14 -57q-21 -25 -47 -92q-23 -59 -56 -89v-6q0 -4 2 -19.5t2 -19.5q0 -18 -18 -30q-17 3 -39 28q-48 -28 -51 -65l-8 -84q17 0 35 37q-43 -88 -64 -109 q-7 -5 -29 -11.5t-26 -10.5q-42 -28 -51 -84q-9 -59 -37 -68q-2 -5 -6.5 -18t-6.5 -19t-6.5 -17t-9 -18t-11 -17t-14.5 -19q-36 -39 -190 -168q-162 -131 -188 -131q-5 0 -18.5 4t-18.5 4q-8 0 -56 -25q-53 -27 -61 -29q-3 -3 0 -47q-2 1 -9 6t-15.5 9t-16.5 4 q-15 0 -113 -49l-123 -62l-22 19q-4 -1 -64 -13l-21 -17q-22 -16 -36 -26q-15 37 -72 37q-59 0 -86 -41q-27 -43 -75 -43q-6 0 -49 19q-46 17 -48 18l-30 -27q-18 46 -49 46q-19 0 -72 -27q3 16 -8 27h-33q-4 -4 -4 -7l6 -8q6 -8 6 -12q-2 2 -61 2l18 20q-19 22 -90 37 q-81 14 -104 23l-17 -6q23 12 35 20q-13 26 -70 49q-63 26 -90 23q2 4 2 16q0 34 -22 76q-27 43 -64 43q-10 3 -10 -2q2 0 2 -2q0 -4 -10 -4q-25 0 -82 78q-58 76 -94 82q-15 29 -39 63q-30 50 -47 47l26 29q-17 10 -32 10q-9 0 -21 -4v18q0 37 8 50q-15 10 -55 26 q-2 7 8 21q-46 36 -135 225q-94 189 -94 246q0 6 4 13t6 10t0 7q4 -4 8 -4q14 0 55 21v8q0 12 -18 12q-10 0 -10 -4q4 -4 4 -8q0 -3 -8 -6q-11 0 -11 4q3 3 3 8q0 3 -3 6l-18 -18l-41 41q21 30 21 78h36l9 14l-15 14l-20 -16q0 17 16 33q-3 14 -28 14v123q45 64 67 100 q48 64 80 86q0 4 -4 17t-4 18q0 17 15.5 34t29.5 17q8 0 28 -5t25 -5q0 -20 -10 -37q-24 17 -39 17q-4 0 -12 -2q8 -11 45 -27q-101 -192 -101 -324q0 -73 27 -190q39 -150 43 -187q1 -10 2 -30.5t2 -30.5q1 -31 21 -55t40 -45.5t21 -46.5q0 -25 -6 -52q16 -20 49 -41 q35 -24 45 -41q392 -632 840 -632h225q14 0 66 37l24 -19q19 7 56 22.5t55 22.5q87 37 104 37q7 0 11.5 -4t11.5 -4q31 0 168 82q143 81 157 106q318 214 414 375q0 -21 8 -29q29 13 58 64q8 16 25.5 44t21.5 34q20 30 102 94l-27 26q37 48 109 246q59 164 129 219 q-3 90 66 234q75 149 81 227q31 19 31 58q0 18 -16 47q-3 -14 -19 -27l-8 2q-25 0 -69 -33q-43 -32 -74 -39q-22 -36 -19 -59q-131 -43 -258 -158q-32 -3 -65 -39q-31 -39 -49 -59q-52 -46 -203 -117q-157 -71 -217 -71q-8 0 -42 9t-46 9q-10 0 -19 -9t-10 -9 q-86 59 -86 124q0 19 33 101q24 62 43 104q8 19 37 35q31 19 41 29q3 39 65 131q16 22 88 129q19 42 103 184q26 19 57 55q21 73 53 154q15 29 68 98q47 61 67 103q-32 4 -63 4q-17 0 -72.5 -3t-70.5 -3q5 0 -74 28l-6 -10l10 -14q-21 -7 -82 -51q-62 -45 -76 -45 q-3 0 -92 59q2 6 23 55q131 73 309 133q195 65 323 68q1 0 21 23q12 12 24 12q41 0 68 -31.5t27 -75.5q0 -48 -52 -112q-60 -78 -71 -103q-5 0 -21 19q-29 -41 -73 -99q-44 -44 -64 -67q-42 -51 -39 -80q-72 -21 -119 -117q-9 -18 -61 -166q16 5 53 54q3 4 21 28.5t26 38.5 q-110 -210 -282 -430q-18 -89 -58 -129v-88q5 -8 15 -8q83 0 176 43q50 22 141 82q64 43 70 43q7 0 14 -5.5t14 -5.5q13 0 119 80q105 81 121 97q36 31 76 77q7 7 61 35q42 22 47 53q-1 -9 6 -13.5t21 -4.5q23 0 39 31q12 24 12 49q53 31 109 84q79 71 100 92q0 37 16 119 q2 7 31 40t33 50q-4 12 -4 20q0 43 45 117q44 68 74 113q-13 16 -13 28q0 22 43 62q49 43 58 57q-8 24 -8 51q0 48 55 78q56 33 59 64q46 24 49 71h43v31q-8 8 -34 8l45 41q-4 -4 -4 -10q0 -4 4 -16l22 18q33 0 53 14q-4 1 -20 7.5t-27 11.5q29 23 125 70q100 47 129 47 q7 0 13.5 -9.5t13.5 -9.5q5 0 21.5 4t21.5 4q37 0 156 -49l-3 -10q0 -30 50 -92zM-1483 522l13 -8l-23 -33l-12 8zM-1548 492q-17 -27 -11 -54q-4 0 -17 4t-17 4q-13 0 -33 -14l-31 -20q47 47 109 80zM2245 1677q-9 31 -11 60q-120 18 -147 18q-10 0 -86 -31 q-73 -32 -103 -36q-2 -2 -61 -105q-41 -75 -78 -72q-3 -9 -98 -98q-68 -68 -59 -113q-66 -55 -127 -198q-31 -76 -89 -228l23 -22q0 13 10 55q10 -10 23 -10t71 43q73 55 76 55q-12 3 -28 19q6 12 26 57q16 5 54 35.5t42 32.5q17 -30 33 -27q0 15 -16 31q3 3 16.5 11.5 t16.5 10.5q2 -2 2 -18q0 -8 10 -8q63 0 78 65q24 103 30 109v-15q0 -4 13 -4q4 0 90 111l2 -2q2 -2 6.5 -4t11.5 -2t97 84q6 4 13 40.5t21 49.5q27 27 99 39q9 43 39 67zM-1780 158q-32 -14 -35 -41q10 -10 25 -13q0 44 10 54zM-1798 -92q-8 0 -23 12l-22 -24q33 0 45 12z M1571 2095q-28 4 -41 4q-31 -27 -64 -65q-40 -37 -75 -43v16q0 25 -52 43v57q0 30 27 45q36 26 45 35q38 52 129 125q40 32 76 60.5t51 40t16 12.5q14 0 84 -17l-2 -20q0 -9 4.5 -40.5t4.5 -39.5q0 -37 -84 -115q-65 -53 -119 -98z" />
<glyph unicode="&#xdf;" horiz-adv-x="1509" d="M1423 635q-3 -102 -47 -227q-38 -119 -71 -166q-180 -231 -359 -359q-232 -162 -434 -153q-78 5 -134.5 49.5t-55.5 109.5q6 84 47 168q47 108 131 156q17 -1 24.5 -8t5.5 -21q0 -10 -53 -116q-53 -103 -53 -115q-6 -124 94 -127q237 -12 516 258q262 259 271 477 q3 75 -25 148q-27 83 -94 86q-8 1 -10.5 -2t-10.5 -2q-7 0 -3.5 9t-4.5 9q-15 0 -164 -55l-149 -54q-7 0 -48.5 9t-54.5 10q-24 0 -34 -10l2 67q36 61 112 182q119 192 166 310q19 31 57 180q35 140 35 162q9 174 -82 180q-26 0 -155 -203q-117 -188 -170 -297 q-243 -495 -383 -868q-126 -360 -252 -723q-52 -156 -66 -207q-25 -100 -61 -235q-18 -48 -82 -232q-61 -184 -64 -250q-3 -41 11 -55q-52 -52 -76 -49q-23 1 -39 30.5t-14 55.5q3 83 174 557q94 249 186 498q198 591 402 1091q428 1012 645 1000q76 -3 112 -95 q26 -68 23 -159q-9 -170 -123 -410q-160 -327 -193 -428q151 89 355 80q74 -3 139 -109q60 -86 57 -147z" />
<glyph unicode="&#xe0;" horiz-adv-x="1140" d="M528 1190q-2 -12 -2 -33l49 -49q28 -36 31 -61h-14q-15 0 -27 -41q7 -1 -4 -2h-39q-11 0 -22.5 12t-21.5 27.5t-13 17.5q-37 24 -92 102q-83 112 -84 115q4 24 12 68h12q7 0 30 4t30 4q32 0 155 -164zM1198 305l-53 -53q-43 -43 -43 -51q0 -5 4 -17q-121 -47 -133 -102 q-63 -18 -70 -21q-42 -19 -45 -51l-38 4h1q-4 0 -14 -2q9 -13 20 -20q-68 -10 -129 -10q-5 0 -20.5 10t-20.5 10q-4 0 -8 -3t-8 -3q-35 0 -70 47l-53 76v84q0 51 -10 51q-14 0 -23 -39q-89 -68 -112 -68q-2 -2 -2 -4q0 5 1 -1q2 -6 3 -19q-19 -6 -33.5 -17.5t-38.5 -37.5 t-27 -29q-22 -22 -71 -47q-42 -22 -72 -43q-52 15 -84 22q-45 17 -45 68q0 52 59 123t107 71q0 11 -27 11q13 13 74 94q47 65 86 74l-20 18q59 30 59 59q0 8 -6 17q15 3 49 6q-2 0 -2 45q36 26 49 39q26 20 39 49q4 0 18.5 -3t18.5 -3q77 145 170 145q43 0 72.5 -23 t29.5 -63q0 -24 -26 -36q50 -41 53 -44q0 -38 -2 -69q-33 -33 -82 -74q-1 -3 -3.5 -20.5t-4.5 -30.5q-10 -10 -37 -86q-1 -3 -31 -68q-26 -48 -26 -59q0 -42 32 -96q35 -60 68 -60q8 0 35 -3t35 -3t43 35q34 37 43 37q4 0 7 -3t7 -3q5 0 47 39q46 40 55 43q9 6 49 6 q39 0 33 43q31 22 101 76q4 -6 22 -17zM621 559q-16 19 -7 39q-10 -7 -30 2q-12 -18 -21 -27q-28 3 -57 -30l-43 -56q-3 0 -27 -4q-200 -250 -213 -250q-12 0 -26 -14q4 -8 4 -14q0 -17 -27 -51q-25 -36 -22 -64q40 3 110 49q72 47 86 80h2q17 0 58 41q31 31 45 62l16 -15 q53 21 53 33q0 6 -5 9.5t-10 4.5l-5 2l8 11q8 11 25 35t38 51q48 67 48 106z" />
<glyph unicode="&#xe1;" horiz-adv-x="1116" d="M1032 1073q-12 2 -33 2q-18 -14 -51 -47q-36 -28 -61 -31v13q0 15 -41 30v41q0 22 20 33q30 18 37 25q25 32 105 90q112 78 116 82q14 0 68 -13l-2 -14q0 -8 4 -30t4 -27q0 -29 -70 -84q-27 -19 -96 -70zM1190 305l-53 -53q-43 -43 -43 -51q0 -5 4 -17 q-121 -47 -133 -102q-63 -18 -70 -21q-42 -19 -45 -51l-38 4h1q-4 0 -14 -2q9 -13 20 -20q-68 -10 -129 -10q-5 0 -20.5 10t-20.5 10q-4 0 -8 -3t-8 -3q-35 0 -70 47l-53 76v84q0 51 -10 51q-14 0 -23 -39q-89 -68 -112 -68q-3 -3 -3 -4q0 5 2 -1q2 -7 3 -19 q-19 -6 -33.5 -17.5t-38.5 -37.5t-27 -29q-22 -22 -71 -47q-42 -22 -72 -43q-52 15 -84 22q-45 17 -45 68q0 52 59 123t107 71q0 11 -27 11q13 13 74 94q47 65 86 74l-21 18q60 31 60 59q0 8 -6 17q15 3 49 6q-2 0 -2 45q36 26 49 39q26 20 39 49q4 0 18.5 -3t18.5 -3 q77 145 170 145q43 0 72.5 -23t29.5 -63q0 -24 -27 -36q34 -29 54 -44q0 -38 -2 -69q-33 -33 -82 -74q-1 -3 -3.5 -20.5t-4.5 -30.5q-10 -10 -37 -86q-1 -3 -31 -68q-27 -50 -27 -59q0 -40 33 -96q35 -60 68 -60q8 0 34.5 -3t34.5 -3t43 35q34 37 43 37q4 0 7.5 -3t7.5 -3 q5 0 47 39q46 40 55 43q9 6 49 6q39 0 33 43q22 15 100 76q4 -5 23 -17zM612 559q-15 18 -6 39q-10 -7 -31 2q-14 -21 -20 -27q-28 3 -57 -30l-43 -56q-3 0 -27 -4q-200 -250 -213 -250t-27 -14q5 -10 5 -14q0 -17 -27 -51q-26 -37 -23 -64q41 3 111 49q72 47 86 80h2 q16 0 57 41q31 31 45 62l17 -15q53 21 53 33q0 6 -5 9.5t-10 4.5l-5 2l8 11q8 11 25 35t38 51q47 65 47 106z" />
<glyph unicode="&#xe2;" horiz-adv-x="1122" d="M1190 305l-53 -53q-43 -43 -43 -51q0 -5 4 -17q-121 -47 -133 -102q-63 -18 -70 -21q-42 -19 -45 -51l-38 4h1q-4 0 -14 -2q9 -13 20 -20q-68 -10 -129 -10q-5 0 -20.5 10t-20.5 10q-4 0 -8 -3t-8 -3q-35 0 -70 47l-53 76v84q0 51 -10 51q-14 0 -23 -39q-89 -68 -112 -68 q-3 -3 -3 -4q0 5 2 -1q2 -7 3 -19q-19 -6 -33.5 -17.5t-38.5 -37.5t-27 -29q-22 -22 -71 -47q-42 -22 -72 -43q-52 15 -84 22q-45 17 -45 68q0 52 59 123t107 71q0 11 -27 11q13 13 74 94q47 65 86 74l-21 18q60 31 60 59q0 8 -6 17q15 3 49 6q-2 0 -2 45q36 26 49 39 q26 20 39 49q4 0 18.5 -3t18.5 -3q77 145 170 145q43 0 72.5 -23t29.5 -63q0 -24 -27 -36q34 -29 54 -44q0 -38 -2 -69q-33 -33 -82 -74q-1 -3 -3.5 -20.5t-4.5 -30.5q-10 -10 -37 -86q-1 -3 -31 -68q-27 -50 -27 -59q0 -40 33 -96q35 -60 68 -60q8 0 34.5 -3t34.5 -3t43 35 q34 37 43 37q4 0 7 -3t8 -3t47 39q46 40 55 43q9 6 49 6q39 0 33 43q22 15 100 76q4 -5 23 -17zM612 559q-15 18 -6 39q-10 -7 -31 2q-14 -21 -20 -27q-28 3 -57 -30l-43 -56q-3 0 -27 -4q-200 -250 -213 -250t-27 -14q5 -10 5 -14q0 -17 -27 -51q-26 -37 -23 -64 q41 3 111 49q72 47 86 80h2q16 0 57 41q31 31 45 62l17 -15q53 21 53 33q0 6 -5 9.5t-10 4.5l-5 2l8 11q8 11 25 35t38 51q47 65 47 106zM1038 1020q-10 -17 -30 -66q-2 7 -5.5 11t-11.5 6.5t-11.5 3t-16 1.5t-13.5 1q-2 2 -5.5 10.5t-8 15.5t-8.5 7q-8 0 -8 -2v-2 q0 -5 -7 -5q-9 0 -65 115t-84 115q-133 -95 -193 -107q-9 -15 -34 -43q-8 -5 -31 -12q-141 -108 -162 -108q-35 0 -66.5 20t-31.5 49q0 19 61 68q54 45 80 55q13 0 55 10q3 2 203 140q144 102 199 102q12 0 39.5 -22.5t27.5 -34.5l-1 -4l-7 -25q26 -82 135 -299z" />
<glyph unicode="&#xe3;" horiz-adv-x="1138" d="M1130 1155q0 -39 -88 -94q-85 -55 -127 -55q-63 0 -178 59t-176 59q-43 0 -112 -57q-70 -55 -72 -55h-31q-12 0 -37.5 23.5t-25.5 35.5q0 55 77 111q71 53 127 53q7 0 13 -7t10 -7q3 0 15 10t20 10q84 0 137 -35q87 -57 106 -67q104 -43 113 -43q18 0 105 37 q86 38 116 38q8 0 8 -16zM1190 305l-53 -53q-43 -43 -43 -51q0 -5 4 -17q-121 -47 -133 -102q-63 -18 -70 -21q-42 -19 -45 -51l-38 4h1q-4 0 -14 -2q9 -13 20 -20q-68 -10 -129 -10q-5 0 -20.5 10t-20.5 10q-4 0 -8 -3t-8 -3q-35 0 -70 47l-53 76v84q0 51 -10 51 q-14 0 -23 -39q-89 -68 -112 -68q-3 -3 -3 -4q0 5 2 -1q2 -7 3 -19q-19 -6 -33.5 -17.5t-38.5 -37.5t-27 -29q-22 -22 -71 -47q-42 -22 -72 -43q-52 15 -84 22q-45 17 -45 68q0 52 59 123t107 71q0 11 -27 11q13 13 74 94q47 65 86 74l-21 18q60 31 60 59q0 8 -6 17 q15 3 49 6q-2 0 -2 45q36 26 49 39q26 20 39 49q4 0 18.5 -3t18.5 -3q77 145 170 145q43 0 72.5 -23t29.5 -63q0 -24 -27 -36q34 -29 54 -44q0 -38 -2 -69q-33 -33 -82 -74q-1 -3 -3.5 -20.5t-4.5 -30.5q-10 -10 -37 -86q-1 -3 -31 -68q-27 -50 -27 -59q0 -40 33 -96 q35 -60 68 -60q8 0 34.5 -3t34.5 -3t43 35q34 37 43 37q4 0 7.5 -3t7.5 -3q5 0 47 39q46 40 55 43q9 6 49 6q39 0 33 43q22 15 100 76q4 -5 23 -17zM612 559q-15 18 -6 39q-10 -7 -31 2q-14 -21 -20 -27q-28 3 -57 -30l-43 -56q-3 0 -27 -4q-200 -250 -213 -250t-27 -14 q5 -10 5 -14q0 -17 -27 -51q-26 -37 -23 -64q41 3 111 49q72 47 86 80h2q16 0 57 41q31 31 45 62l17 -15q53 21 53 33q0 6 -5 9.5t-10 4.5l-5 2l8 11q8 11 25 35t38 51q47 65 47 106z" />
<glyph unicode="&#xe4;" horiz-adv-x="1140" d="M446 1174q44 0 74 -23l-12 -27q12 -7 22 -4l9 -24q-37 -44 -54 -66q-82 30 -82 57q0 4 3.5 17t3.5 16q0 21 -13 25q1 1 4.5 6.5t6.5 8.5t8 6.5t12.5 5.5t17.5 2zM918 1171q26 0 50.5 -24.5t24.5 -50.5q0 -43 -24 -58q-2 -1 -66 -24q-49 73 -49 76q0 24 22 52.5t42 28.5z M1190 305l-53 -53q-43 -43 -43 -51q0 -5 4 -17q-121 -47 -133 -102q-63 -18 -70 -21q-42 -19 -45 -51l-38 4h1q-4 0 -14 -2q9 -13 20 -20q-68 -10 -129 -10q-5 0 -20.5 10t-20.5 10q-4 0 -8 -3t-8 -3q-35 0 -70 47l-53 76v84q0 51 -10 51q-14 0 -23 -39q-89 -68 -112 -68 q-3 -3 -3 -4q0 5 2 -1q2 -7 3 -19q-19 -6 -33.5 -17.5t-38.5 -37.5t-27 -29q-22 -22 -71 -47q-42 -22 -72 -43q-52 15 -84 22q-45 17 -45 68q0 52 59 123t107 71q0 11 -27 11q13 13 74 94q47 65 86 74l-21 18q60 31 60 59q0 8 -6 17q15 3 49 6q-2 0 -2 45q36 26 49 39 q26 20 39 49q4 0 18.5 -3t18.5 -3q77 145 170 145q43 0 72.5 -23t29.5 -63q0 -24 -27 -36q34 -29 54 -44q0 -38 -2 -69q-33 -33 -82 -74q-1 -3 -3.5 -20.5t-4.5 -30.5q-10 -10 -37 -86q-1 -3 -31 -68q-27 -50 -27 -59q0 -40 33 -96q35 -60 68 -60q8 0 34.5 -3t34.5 -3t43 35 q34 37 43 37q4 0 7.5 -3t7.5 -3q5 0 47 39q46 40 55 43q9 6 49 6q39 0 33 43q22 15 100 76q4 -5 23 -17zM612 559q-15 18 -6 39q-10 -7 -31 2q-14 -21 -20 -27q-28 3 -57 -30l-43 -56q-3 0 -27 -4q-200 -250 -213 -250t-27 -14q5 -10 5 -14q0 -17 -27 -51q-26 -37 -23 -64 q41 3 111 49q72 47 86 80h2q16 0 57 41q31 31 45 62l17 -15q53 21 53 33q0 6 -5 9.5t-10 4.5l-5 2l8 11q8 11 25 35t38 51q47 65 47 106z" />
<glyph unicode="&#xe5;" horiz-adv-x="1015" d="M907 1382q39 -59 4 -172q-34 -119 -133 -159q-66 -25 -129 -7q-57 15 -82 54q-32 49 -10 116q16 46 61 123q53 100 80 109q50 20 123 -8q65 -21 86 -56zM811 1374l-39 -14q-23 -39 -49 -49q-8 -3 -8 -2h2q-3 3 -15 0q-42 -15 -63 -99q-18 -76 -2 -104q12 -18 47 -27 q82 70 100 146q11 72 27 149zM1204 305l-53 -53q-43 -43 -43 -51q0 -5 4 -17q-121 -47 -133 -102q-63 -18 -70 -21q-42 -19 -45 -51l-38 4h1q-4 0 -14 -2q8 -12 21 -20q-68 -10 -129 -10q-5 0 -20.5 10t-20.5 10q-4 0 -8.5 -3t-8.5 -3q-34 0 -69 47l-54 76v84q0 51 -10 51 q-13 0 -22 -39q-89 -68 -113 -68q-2 -2 -2 -4q0 5 1 -1q2 -6 3 -19q-19 -6 -34 -18t-37 -36.5t-27 -29.5q-21 -21 -72 -47q-42 -22 -72 -43q-52 15 -84 22q-45 17 -45 68t60 123q59 71 106 71q0 11 -26 11q8 9 73 94q47 65 86 74l-20 18q59 30 59 59q0 8 -6 17q15 3 49 6 q-2 0 -2 45q36 26 49 39q26 20 39 49q4 0 18.5 -3t18.5 -3q77 145 170 145q43 0 72.5 -23t29.5 -63q0 -24 -26 -36q50 -41 53 -44q0 -38 -2 -69q-33 -33 -82 -74q-1 -3 -3.5 -20.5t-4.5 -30.5q-10 -10 -37 -86q-1 -3 -31 -68q-26 -48 -26 -59q0 -42 32 -96q35 -60 68 -60 q8 0 35 -3t35 -3t43 35q34 37 43 37q4 0 7 -3t7 -3q5 0 47 39q46 40 55 43q9 6 50 6q38 0 32 43q31 22 101 76q4 -6 22 -17zM627 559q-15 18 -6 39q-10 -7 -31 2q-12 -18 -21 -27q-28 3 -57 -30l-43 -56q-3 0 -27 -4q-200 -250 -213 -250q-12 0 -26 -14q4 -8 4 -14 q0 -17 -27 -51q-25 -36 -22 -64q40 3 110 49q72 47 86 80h2q17 0 58 41q31 31 45 62l16 -15q53 21 53 33q0 6 -5 9.5t-10 4.5l-5 2q1 1 8.5 11.5t25 34.5t38.5 51q47 65 47 106z" />
<glyph unicode="&#xe6;" horiz-adv-x="1554" d="M1204 305l-53 -53q-43 -43 -43 -51q0 -5 4 -17q-121 -47 -133 -102q-63 -18 -70 -21q-42 -19 -45 -51l-38 4h1q-4 0 -14 -2q8 -12 21 -20q-68 -10 -129 -10q-5 0 -20.5 10t-20.5 10q-4 0 -8.5 -3t-8.5 -3q-34 0 -69 47l-54 76v84q0 51 -10 51q-13 0 -22 -39 q-89 -68 -113 -68q-2 -2 -2 -4q0 5 1 -1q2 -6 3 -19q-19 -6 -34 -18t-37 -36.5t-27 -29.5q-21 -21 -72 -47q-42 -22 -72 -43q-52 15 -84 22q-45 17 -45 68t60 123q59 71 106 71q0 11 -26 11q8 9 73 94q47 65 86 74l-20 18q59 30 59 59q0 8 -6 17q15 3 49 6q-2 0 -2 45 q36 26 49 39q26 20 39 49q4 0 18.5 -3t18.5 -3q77 145 170 145q43 0 72.5 -23t29.5 -63q0 -24 -26 -36q50 -41 53 -44q0 -38 -2 -69q-33 -33 -82 -74q-1 -3 -3.5 -20.5t-4.5 -30.5q-10 -10 -37 -86q-1 -3 -31 -68q-26 -48 -26 -59q0 -42 32 -96q35 -60 68 -60q8 0 35 -3 t35 -3t43 35q34 37 43 37q4 0 7 -3t7 -3q5 0 47 39q46 40 55 43q9 6 50 6q38 0 32 43q31 22 101 76q4 -6 22 -17zM627 559q-15 18 -6 39q-10 -7 -31 2q-12 -18 -21 -27q-28 3 -57 -30l-43 -56q-3 0 -27 -4q-200 -250 -213 -250q-12 0 -26 -14q4 -8 4 -14q0 -17 -27 -51 q-25 -36 -22 -64q40 3 110 49q72 47 86 80h2q17 0 58 41q31 31 45 62l16 -15q53 21 53 33q0 6 -5 9.5t-10 4.5l-5 2q1 1 8.5 11.5t25 34.5t38.5 51q47 65 47 106zM1632 471q-25 -11 -43 -8q2 -4 2 -12q0 -32 -69 -58t-72 -61q-37 -16 -184 -119q-128 -88 -170 -88 q-21 -9 -21 -21q0 -5 8 -8h-6q-3 0 -30 -6q-13 -10 -11 -22q-23 -9 -45 -19l-47 -26q-36 -19 -45 -19q-15 0 -65 -7t-66 -7q-65 0 -92 41q-10 -10 -10 -21q-117 102 -117 256q0 59 2 82q25 10 57 43q10 28 54 117l59 59q40 40 37 66h8q14 -2 23.5 10.5t13.5 38.5 q39 28 79.5 57.5t62.5 45.5t30 22q125 78 188 78q25 0 56 -17q5 -3 14 -9t14 -9l15 6q1 -2 3.5 -7.5t4.5 -10.5t2 -9q0 -41 -33 -41q-5 0 -9.5 4t-8.5 3q-6 -61 -97 -152q-87 -87 -84 -111h-12q-8 0 -16 -3.5t-13.5 -7t-13.5 -12.5t-11.5 -14t-12 -16.5t-11.5 -15.5 q-13 -7 -69 -39q-12 -15 -43 -43q-62 -33 -111 -64q-53 -41 -53 -108q0 -46 27 -87.5t63 -41.5q86 0 186 47q101 49 103 49q6 0 6 -2q0 -4 8 -4q18 0 18 35l23 -15q41 65 160 129l190 99q0 12 -14 12q21 3 67 37q49 37 91 37q3 0 6 -2t6 -6t5.5 -7.5t6.5 -9t6 -8.5z M1020 690q-129 -59 -242 -198l19 -11q65 52 174 152q3 2 11.5 7.5t12 8.5t10 8.5t9 9.5t4.5 10t2 13z" />
<glyph unicode="&#xe7;" horiz-adv-x="929" d="M946 485h31l-23 -26q-14 0 -24 10zM956 442q-87 -81 -90 -84q-58 -52 -104 -61q-17 -27 -14 -45q-8 -1 -33 -23.5t-27 -23.5q-8 -3 -33 -14.5t-41 -18.5q-28 -13 -170 -94q-14 -88 -14 -107q-6 -6 -43 -94q-28 -72 -55 -72q-15 0 -51 25l10 168q-73 -31 -80 -31 t-27.5 10.5t-27.5 10.5q-5 0 -22.5 -7.5t-22.5 -7.5q-6 0 -21.5 12t-17.5 13q-101 40 -101 154q0 67 78 157q108 123 121 144l6 -15q23 20 23 37q0 8 -6 17q61 68 163 170q14 -14 35 -23q3 8 35 70q18 25 59 49q46 30 62 49q18 22 35 65q21 52 42 73.5t56 21.5 q13 0 41.5 -17.5t28.5 -27.5q0 -14 -33 -93q-8 -2 -37 -20q-12 -70 -55 -145q-16 -25 -45 -75t-35 -59q-16 -63 -29 -143q-1 -2 -7.5 -14.5t-9 -15.5t-9.5 -10.5t-15.5 -10t-19.5 -2.5q-8 0 -15.5 4t-9.5 4q0 7 -4 29.5t-4 29.5q0 15 9 39.5t9 26.5q0 12 -8 31q33 60 45 84 l4 8l-11 4q-23 12 -28 12q-4 0 -57 -41q-1 -2 -14 -41q-6 -4 -25 -18.5t-33 -24.5q-17 0 -49 -14q-3 -79 -145 -221q-17 -56 -17 -82q0 -33 27 -67t57 -34q35 0 111 29l4 60q0 1 47 22q25 14 49 14q36 0 45 -30q200 103 408 239q3 -1 6 -4t6 -4l12 12q0 1 -14 23 q3 0 35.5 11t46.5 11q2 0 14 -4zM561 565q0 19 -8 27q-8 0 -25 -17v-24q19 0 33 14zM270 500l21 8l-4 10l-17 -8v-10z" />
<glyph unicode="&#xe8;" horiz-adv-x="970" d="M367 1325q-2 -12 -2 -33l49 -49q27 -35 30 -61h-14q-15 0 -27 -41q7 -1 -4 -2h-39q-11 0 -22.5 12t-21.5 27.5t-13 17.5q-37 24 -92 102q-83 112 -84 115q4 24 12 68h13q7 0 29.5 4t29.5 4q33 0 156 -164zM1079 471q-25 -11 -43 -8q2 -4 2 -12q0 -32 -69 -58t-72 -61 q-37 -16 -184 -119q-128 -88 -170 -88q-21 -9 -21 -21q0 -5 8 -8h-6q-3 0 -30 -6q-13 -10 -11 -22q-23 -9 -45 -19l-47 -26q-36 -19 -45 -19q-16 0 -66 -7t-65 -7q-65 0 -92 41q-10 -10 -10 -21q-117 102 -117 256q0 59 2 82q24 10 57 43q10 28 54 117l59 59q40 40 37 66h8 q14 -2 23.5 10.5t13.5 38.5q39 28 79.5 57.5t62.5 45.5t30 22q125 78 188 78q25 0 56 -17q5 -3 14 -9t14 -9l15 6q1 -2 3.5 -7.5t4.5 -10.5t2 -9q0 -41 -33 -41q-5 0 -9.5 4t-8.5 3q-6 -61 -97 -152q-87 -87 -84 -111h-12q-8 0 -16 -3.5t-13.5 -7t-13.5 -12.5t-11.5 -14 t-12 -16.5t-11.5 -15.5q-13 -7 -69 -39q-12 -15 -43 -43q-62 -33 -111 -64q-53 -41 -53 -108q0 -46 27 -87.5t63 -41.5q86 0 186 47q101 49 103 49q6 0 6 -2q0 -4 8 -4q18 0 18 35l23 -15q41 65 160 129l190 99q0 12 -14 12q21 3 67 37q49 37 91 37q3 0 6 -2t6 -6t5.5 -7.5 t6.5 -9t6 -8.5zM467 690q-129 -59 -242 -198l19 -11q65 52 174 152q3 2 11.5 7.5t12 8.5t10 8.5t9 9.5t4.5 10t2 13z" />
<glyph unicode="&#xe9;" horiz-adv-x="925" d="M705 1194q-12 2 -35 2q-33 -33 -49 -47q-36 -28 -62 -31v12q0 17 -41 29q-1 -2 -1 2q-1 6 -1 39q0 19 23 35q29 14 36 25q28 35 103 90q116 81 117 82q16 -3 67 -15v-14q0 -7 3 -29t3 -26q0 -32 -67 -84q-27 -19 -96 -70zM1079 471q-25 -11 -43 -8q2 -4 2 -12 q0 -32 -69 -58t-72 -61q-37 -16 -184 -119q-128 -88 -170 -88q-21 -9 -21 -21q0 -5 8 -8h-6q-3 0 -30 -6q-13 -10 -11 -22q-23 -9 -45 -19l-47 -26q-36 -19 -45 -19q-16 0 -66 -7t-65 -7q-65 0 -92 41q-10 -10 -10 -21q-117 102 -117 256q0 59 2 82q24 10 57 43 q10 28 54 117l59 59q40 40 37 66h8q14 -2 23.5 10.5t13.5 38.5q39 28 79.5 57.5t62.5 45.5t30 22q125 78 188 78q25 0 56 -17q5 -3 14 -9t14 -9l15 6q1 -2 3.5 -7.5t4.5 -10.5t2 -9q0 -41 -33 -41q-5 0 -9.5 4t-8.5 3q-6 -61 -97 -152q-87 -87 -84 -111h-12q-8 0 -16 -3.5 t-13.5 -7t-13.5 -12.5t-11.5 -14t-12 -16.5t-11.5 -15.5q-13 -7 -69 -39q-12 -15 -43 -43q-62 -33 -111 -64q-53 -41 -53 -108q0 -46 27 -87.5t63 -41.5q86 0 186 47q101 49 103 49q6 0 6 -2q0 -4 8 -4q18 0 18 35l23 -15q41 65 160 129l190 99q0 12 -14 12q21 3 67 37 q49 37 91 37q3 0 6 -2t6 -6t5.5 -7.5t6.5 -9t6 -8.5zM467 690q-129 -59 -242 -198l19 -11q65 52 174 152q3 2 11.5 7.5t12 8.5t10 8.5t9 9.5t4.5 10t2 13z" />
<glyph unicode="&#xea;" horiz-adv-x="997" d="M938 1120q-10 -18 -33 -65q-1 7 -4 11t-10.5 6t-12 3t-16 1.5t-14.5 0.5q-11 33 -23 33q-6 0 -6 -2v-2q0 -2 -6 -2q-10 0 -65 113t-84 116q-131 -94 -193 -106q-10 -17 -35 -45q-3 -1 -7 -3t-11 -5t-12 -5q-141 -108 -162 -108q-35 0 -67 20.5t-32 48.5q0 18 62 68 q54 45 80 55q9 0 55 11q20 14 203 141q141 100 198 100q11 0 39 -22q29 -23 29 -33l-2 -7q-3 -13 -6 -24q22 -70 135 -299zM1079 471q-25 -11 -43 -8q2 -4 2 -12q0 -32 -69 -58t-72 -61q-37 -16 -184 -119q-128 -88 -170 -88q-21 -9 -21 -21q0 -5 8 -8h-6q-3 0 -30 -6 q-13 -10 -11 -22q-23 -9 -45 -19l-47 -26q-36 -19 -45 -19q-16 0 -66 -7t-65 -7q-65 0 -92 41q-10 -10 -10 -21q-117 102 -117 256q0 59 2 82q24 10 57 43q10 28 54 117l59 59q40 40 37 66h8q14 -2 23.5 10.5t13.5 38.5q39 28 79.5 57.5t62.5 45.5t30 22q125 78 188 78 q25 0 56 -17q5 -3 14 -9t14 -9l15 6q1 -2 3.5 -7.5t4.5 -10.5t2 -9q0 -41 -33 -41q-5 0 -9.5 4t-8.5 3q-6 -61 -97 -152q-87 -87 -84 -111h-12q-8 0 -16 -3.5t-13.5 -7t-13.5 -12.5t-11.5 -14t-12 -16.5t-11.5 -15.5q-13 -7 -69 -39q-12 -15 -43 -43q-62 -33 -111 -64 q-53 -41 -53 -108q0 -46 27 -87.5t63 -41.5q86 0 186 47q101 49 103 49q6 0 6 -2q0 -4 8 -4q18 0 18 35l23 -15q41 65 160 129l190 99q0 12 -14 12q21 3 67 37q49 37 91 37q3 0 6 -2t6 -6t5.5 -7.5t6.5 -9t6 -8.5zM467 690q-129 -59 -242 -198l19 -11q65 52 174 152 q3 2 11.5 7.5t12 8.5t10 8.5t9 9.5t4.5 10t2 13z" />
<glyph unicode="&#xeb;" horiz-adv-x="1007" d="M322 1313q43 0 73 -23l-12 -26q12 -8 23 -4l8 -25q-37 -44 -54 -66q-81 29 -81 58q0 4 3 17t3 16q0 20 -13 24q1 1 3.5 4.5t4 5.5t4.5 5.5t6.5 5.5t8 4t10.5 3t13 1zM793 1311q26 0 50.5 -25t24.5 -51q0 -42 -24 -57q-9 -5 -66 -25q-49 73 -49 76q0 24 22 53t42 29z M1079 471q-25 -11 -43 -8q2 -4 2 -12q0 -32 -69 -58t-72 -61q-37 -16 -184 -119q-128 -88 -170 -88q-21 -9 -21 -21q0 -5 8 -8h-6q-3 0 -30 -6q-13 -10 -11 -22q-23 -9 -45 -19l-47 -26q-36 -19 -45 -19q-16 0 -66 -7t-65 -7q-65 0 -92 41q-10 -10 -10 -21 q-117 102 -117 256q0 59 2 82q24 10 57 43q10 28 54 117l59 59q40 40 37 66h8q14 -2 23.5 10.5t13.5 38.5q39 28 79.5 57.5t62.5 45.5t30 22q125 78 188 78q25 0 56 -17q5 -3 14 -9t14 -9l15 6q1 -2 3.5 -7.5t4.5 -10.5t2 -9q0 -41 -33 -41q-5 0 -9.5 4t-8.5 3 q-6 -61 -97 -152q-87 -87 -84 -111h-12q-8 0 -16 -3.5t-13.5 -7t-13.5 -12.5t-11.5 -14t-12 -16.5t-11.5 -15.5q-13 -7 -69 -39q-12 -15 -43 -43q-62 -33 -111 -64q-53 -41 -53 -108q0 -46 27 -87.5t63 -41.5q86 0 186 47q101 49 103 49q6 0 6 -2q0 -4 8 -4q18 0 18 35 l23 -15q41 65 160 129l190 99q0 12 -14 12q21 3 67 37q49 37 91 37q3 0 6 -2t6 -6t5.5 -7.5t6.5 -9t6 -8.5zM467 690q-129 -59 -242 -198l19 -11q65 52 174 152q3 2 11.5 7.5t12 8.5t10 8.5t9 9.5t4.5 10t2 13z" />
<glyph unicode="&#xec;" horiz-adv-x="786" d="M430 1188q-2 -12 -2 -33l49 -49q28 -36 31 -62h-14q-15 0 -27 -40q11 -2 -16 -3h-27q-11 0 -22.5 12.5t-21.5 28t-13 17.5q-38 26 -93 102q-83 112 -84 115q1 5 5.5 27t7.5 40h12q7 0 29.5 4.5t29.5 4.5q33 0 156 -164zM821 410q0 -54 -94 -127q-54 -44 -141 -90 q-26 -16 -82 -19q-7 -14 -27 -37q-23 -19 -117 -69q-98 -52 -114 -52q-15 0 -67.5 -10t-69.5 -10q-44 0 -91 59q-45 57 -45 107q0 24 33 86q37 72 49 84q0 22 45 67q23 62 119 193q109 145 150 145q24 -20 55 -20q2 -7 5 -17l3 -7v1q0 -10 -8 -43t-8 -39q-16 -15 -121 -104 q-75 -69 -96 -119q-24 -10 -27 -33q-8 -41 -8 -47q-6 -12 -19 -34.5t-14 -24.5q-16 -37 -16 -68q0 -78 37 -78q34 0 122 31q93 36 125 45q9 9 9 21q62 25 120 57q3 3 0 25q6 2 19 2q8 0 8 -4q0 -8 -20 -19q44 22 141 100q10 0 117 58l14 -2q14 -2 14 -8z" />
<glyph unicode="&#xed;" horiz-adv-x="813" d="M748 1055q-12 2 -35 2q-3 -2 -14.5 -13t-15.5 -15t-14.5 -13.5t-17 -13.5t-15.5 -10t-17.5 -9t-16.5 -4v12q0 16 -41 31q-1 -4 -2 4v37q0 20 23 33q31 19 34 24q25 32 105 90q116 81 117 82q18 0 67 -12v-14q0 -8 3 -31t3 -27q0 -29 -67 -84q-50 -34 -96 -69zM821 410 q0 -54 -94 -127q-54 -44 -141 -90q-26 -16 -82 -19q-7 -14 -27 -37q-23 -19 -117 -69q-98 -52 -114 -52q-15 0 -67.5 -10t-69.5 -10q-44 0 -91 59q-45 57 -45 107q0 24 33 86q37 72 49 84q0 22 45 67q23 62 119 193q109 145 150 145q24 -20 55 -20q2 -7 5 -17l3 -7v1 q0 -10 -8 -43t-8 -39q-16 -15 -121 -104q-75 -69 -96 -119q-24 -10 -27 -33q-8 -41 -8 -47q-6 -12 -19 -34.5t-14 -24.5q-16 -37 -16 -68q0 -78 37 -78q34 0 122 31q93 36 125 45q9 9 9 21q62 25 120 57q3 3 0 25q6 2 19 2q8 0 8 -4q0 -8 -20 -19q44 22 141 100q10 0 117 58 l14 -2q14 -2 14 -8z" />
<glyph unicode="&#xee;" horiz-adv-x="786" d="M756 1049q0 -14 -13 -58q0 3 -1.5 5.5t-3.5 4.5t-4 3t-5.5 2.5t-6 2t-7 1t-6.5 1t-7 1t-6 0.5q-4 3 -6 16q-3 8 -10 8q-6 0 -6 -4h-6q-7 0 -54 92q-47 93 -67 93q-111 -79 -156 -87q-15 -20 -29 -34l-24 -11q-113 -88 -131 -88q-28 0 -53 17t-25 41q0 15 45 51 q40 35 68 47q21 0 45 8q26 15 164 115q116 82 161 82q8 0 31 -18.5t23 -28.5l-7 -23q21 -65 97 -239zM821 410q0 -54 -94 -127q-54 -44 -141 -90q-26 -16 -82 -19q-7 -14 -27 -37q-23 -19 -117 -69q-98 -52 -114 -52q-15 0 -67.5 -10t-69.5 -10q-44 0 -91 59q-45 57 -45 107 q0 24 33 86q37 72 49 84q0 22 45 67q23 62 119 193q109 145 150 145q24 -20 55 -20q2 -7 5 -17l3 -7v1q0 -10 -8 -43t-8 -39q-16 -15 -121 -104q-75 -69 -96 -119q-24 -10 -27 -33q-8 -41 -8 -47q-6 -12 -19 -34.5t-14 -24.5q-16 -37 -16 -68q0 -78 37 -78q34 0 122 31 q93 36 125 45q9 9 9 21q62 25 120 57q3 3 0 25q6 2 19 2q8 0 8 -4q0 -8 -20 -19q44 22 141 100q10 0 117 58l14 -2q14 -2 14 -8z" />
<glyph unicode="&#xef;" horiz-adv-x="811" d="M279 1204q45 0 73 -22l-12 -27q12 -7 22 -4l9 -25q-43 -50 -54 -65q-81 29 -81 57q0 4 3 17t3 16q0 21 -13 25q1 1 4 5.5t5 6.5t6 5.5t8.5 5.5t11.5 3.5t15 1.5zM750 1202q26 0 50.5 -25t24.5 -51q0 -42 -24 -57q-9 -5 -66 -25q-49 73 -49 76q0 24 22 53t42 29zM821 410 q0 -54 -94 -127q-54 -44 -141 -90q-26 -16 -82 -19q-7 -14 -27 -37q-23 -19 -117 -69q-98 -52 -114 -52q-15 0 -67.5 -10t-69.5 -10q-44 0 -91 59q-45 57 -45 107q0 24 33 86q37 72 49 84q0 22 45 67q23 62 119 193q109 145 150 145q24 -20 55 -20q2 -7 5 -17l3 -7v1 q0 -10 -8 -43t-8 -39q-16 -15 -121 -104q-75 -69 -96 -119q-24 -10 -27 -33q-8 -41 -8 -47q-6 -12 -19 -34.5t-14 -24.5q-16 -37 -16 -68q0 -78 37 -78q34 0 122 31q93 36 125 45q9 9 9 21q62 25 120 57q3 3 0 25q6 2 19 2q8 0 8 -4q0 -8 -20 -19q44 22 141 100q10 0 117 58 l14 -2q14 -2 14 -8z" />
<glyph unicode="&#xf1;" horiz-adv-x="1040" d="M1053 1194q0 -38 -86 -94t-129 -56q-62 0 -179 60q-115 59 -176 59q-43 0 -112 -57q-70 -55 -72 -55h-31q-12 0 -36.5 23.5t-24.5 35.5q0 56 74 109q73 55 131 55q5 0 10 -7t10 -7q3 0 15 10t20 10q84 0 137 -35q84 -55 107 -67q104 -43 112 -43q20 0 105 36 q88 39 116 39q9 0 9 -16zM1139 186h45q-22 -17 -156 -176q-23 -8 -84 -35t-61 -53q-25 -3 -111 -31q-74 -22 -110 -22q-112 0 -170 104q-48 88 -48 209q0 45 23 135q24 85 39 132q-13 0 -88 -78q-73 -76 -84 -76q-9 0 -12 6q0 -2 -13 -25l15 -4q-217 -237 -250 -237 q-4 0 -22.5 -3t-22.5 -3q-17 0 -37.5 27t-20.5 46q0 54 86 131q0 11 -12 11q109 275 174 407v11q0 28 14 69q17 17 29 17q33 0 60.5 -20.5t27.5 -49.5q0 -5 -84 -178q-82 -168 -82 -183q0 -2 4 -2q23 0 53.5 19.5t39.5 21.5q53 58 108 117q82 79 125 82q3 5 6 29 q25 12 78 63q61 55 64 55q14 0 57 -14q46 -15 51 -22q-6 -19 -20.5 -55t-20.5 -54q-1 -1 -24 -14q-30 -76 -119 -232v-14q2 -18 -15 -72q-14 -43 -14 -67q0 -55 31 -115q35 -68 86 -68q52 0 131 33l82 33q5 0 14 -18q2 0 103 79q63 48 116 45q3 13 19 39zM317 369h11l-11 20 l-8 -4zM303 350h10v25h-10v-25z" />
<glyph unicode="&#xf2;" horiz-adv-x="978" d="M481 1239q-2 -12 -2 -33l49 -49q28 -36 31 -61h-14q-15 0 -27 -41q7 -1 -4 -2h-39q-11 0 -22.5 12t-21.5 27.5t-13 17.5q-37 24 -92 102q-83 112 -84 115q4 24 12 68h12q7 0 30 4t30 4q32 0 155 -164zM1122 762l21 -43q-27 2 -66 2q-13 0 -65 -2t-68 -2q-5 0 -16.5 -7.5 t-16.5 -7.5q-12 0 -56.5 3.5t-57.5 3.5q-7 0 -30 -10.5t-30 -10.5q-8 0 -36.5 7t-36.5 7q-23 0 -58 -32l-51 -47q-12 -105 -27 -156q-24 -99 -73 -133q3 -14 20 -17q-25 -42 -75.5 -124.5t-75.5 -124.5q-109 -142 -238 -142q-27 0 -61 43q-33 39 -33 72q0 10 28 35 q-12 12 -34 12q14 59 59 182l6 -14q18 18 66 129q36 85 94 100q-3 19 -23 19q68 45 84 57q-3 16 -20 19q4 5 36 39t42 47t23 42.5t12 57.5q295 14 319 14q12 0 49 -4t49 -4t46 10.5t46 10.5q11 0 52.5 -12.5t54.5 -12.5q79 0 141 -6zM440 563q0 7 -4 30t-4 28 q-48 -29 -113 -129q-78 -117 -106 -142q-86 -177 -86 -225v-57q17 7 63 20q51 39 150 227q100 184 100 248z" />
<glyph unicode="&#xf3;" horiz-adv-x="985" d="M807 1044q-18 3 -35 3q-8 -7 -49 -48q-35 -27 -61 -30v12q0 16 -41 31q-3 -9 -3 41q0 19 23 32q30 18 37 25q29 37 102 90q116 81 117 82q19 0 68 -12v-15q0 -7 3 -30t3 -27q0 -28 -68 -84q-27 -19 -96 -70zM1122 762l21 -43q-27 2 -66 2q-13 0 -65 -2t-68 -2 q-5 0 -16.5 -7.5t-16.5 -7.5q-12 0 -56.5 3.5t-57.5 3.5q-7 0 -30 -10.5t-30 -10.5q-8 0 -36.5 7t-36.5 7q-23 0 -58 -32l-51 -47q-12 -105 -27 -156q-24 -99 -73 -133q3 -14 20 -17q-25 -42 -75.5 -124.5t-75.5 -124.5q-109 -142 -238 -142q-27 0 -61 43q-33 39 -33 72 q0 10 28 35q-12 12 -34 12q14 59 59 182l6 -14q18 18 66 129q36 85 94 100q-3 19 -23 19q68 45 84 57q-3 16 -20 19q4 5 36 39t42 47t23 42.5t12 57.5q295 14 319 14q12 0 49 -4t49 -4t46 10.5t46 10.5q11 0 52.5 -12.5t54.5 -12.5q79 0 141 -6zM440 563q0 7 -4 30t-4 28 q-48 -29 -113 -129q-78 -117 -106 -142q-86 -177 -86 -225v-57q17 7 63 20q51 39 150 227q100 184 100 248z" />
<glyph unicode="&#xf4;" horiz-adv-x="995" d="M950 1057q-1 -2 -32 -66q0 5 -2 8.5t-6 6t-7.5 4t-10 2t-10.5 1t-11.5 1t-10.5 0.5q-11 33 -22 33q-7 0 -7 -3v-2q0 -2 -6 -2q-10 0 -65 113q-55 114 -84 117q-133 -95 -193 -107q-12 -21 -34 -45q-13 -5 -31 -12q-142 -109 -162 -109q-34 0 -66 21t-32 49q0 19 61 68 q54 45 80 55q13 0 55 10q20 14 203 141q143 101 199 101q9 0 39 -23q28 -22 28 -33l-3 -10l-5 -20q22 -70 135 -299zM1122 762l21 -43q-27 2 -66 2q-13 0 -65 -2t-68 -2q-5 0 -16.5 -7.5t-16.5 -7.5q-12 0 -56.5 3.5t-57.5 3.5q-7 0 -30 -10.5t-30 -10.5q-8 0 -36.5 7 t-36.5 7q-23 0 -58 -32l-51 -47q-12 -105 -27 -156q-24 -99 -73 -133q3 -14 20 -17q-25 -42 -75.5 -124.5t-75.5 -124.5q-109 -142 -238 -142q-27 0 -61 43q-33 39 -33 72q0 10 28 35q-12 12 -34 12q14 59 59 182l6 -14q18 18 66 129q36 85 94 100q-3 19 -23 19q68 45 84 57 q-3 16 -20 19q4 5 36 39t42 47t23 42.5t12 57.5q295 14 319 14q12 0 49 -4t49 -4t46 10.5t46 10.5q11 0 52.5 -12.5t54.5 -12.5q79 0 141 -6zM440 563q0 7 -4 30t-4 28q-48 -29 -113 -129q-78 -117 -106 -142q-86 -177 -86 -225v-57q17 7 63 20q51 39 150 227 q100 184 100 248z" />
<glyph unicode="&#xf5;" horiz-adv-x="978" d="M1087 1180q0 -40 -88 -95q-85 -55 -127 -55q-61 0 -178 60q-115 59 -176 59q-43 0 -112 -57q-71 -56 -72 -56h-31q-12 0 -37.5 24t-25.5 36q0 54 77 110q73 54 127 54q7 0 11.5 -7.5t11.5 -7.5q3 0 15 10.5t20 10.5q84 0 137 -35q93 -62 106 -68q104 -43 113 -43 q18 0 105 37q88 39 116 39q8 0 8 -16zM1122 762l21 -43q-27 2 -66 2q-13 0 -65 -2t-68 -2q-5 0 -16.5 -7.5t-16.5 -7.5q-12 0 -56.5 3.5t-57.5 3.5q-7 0 -30 -10.5t-30 -10.5q-8 0 -36.5 7t-36.5 7q-23 0 -58 -32l-51 -47q-12 -105 -27 -156q-24 -99 -73 -133q3 -14 20 -17 q-25 -42 -75.5 -124.5t-75.5 -124.5q-109 -142 -238 -142q-27 0 -61 43q-33 39 -33 72q0 10 28 35q-12 12 -34 12q14 59 59 182l6 -14q18 18 66 129q36 85 94 100q-3 19 -23 19q68 45 84 57q-3 16 -20 19q4 5 36 39t42 47t23 42.5t12 57.5q295 14 319 14q12 0 49 -4t49 -4 t46 10.5t46 10.5q11 0 52.5 -12.5t54.5 -12.5q79 0 141 -6zM440 563q0 7 -4 30t-4 28q-48 -29 -113 -129q-78 -117 -106 -142q-86 -177 -86 -225v-57q17 7 63 20q51 39 150 227q100 184 100 248z" />
<glyph unicode="&#xf6;" horiz-adv-x="954" d="M365 1202q45 0 73 -22l-12 -27q12 -7 23 -4l8 -25q-43 -50 -54 -65q-81 29 -81 57q0 4 3 17t3 16q0 21 -13 25q1 1 4 5.5t5 6.5t6 5.5t8.5 5.5t11.5 3.5t15 1.5zM836 1200q26 0 50.5 -25t24.5 -51q0 -42 -24 -57q-9 -5 -66 -25q-49 73 -49 76q0 24 22 53t42 29zM1122 762 l21 -43q-27 2 -66 2q-13 0 -65 -2t-68 -2q-5 0 -16.5 -7.5t-16.5 -7.5q-12 0 -56.5 3.5t-57.5 3.5q-7 0 -30 -10.5t-30 -10.5q-8 0 -36.5 7t-36.5 7q-23 0 -58 -32l-51 -47q-12 -105 -27 -156q-24 -99 -73 -133q3 -14 20 -17q-25 -42 -75.5 -124.5t-75.5 -124.5 q-109 -142 -238 -142q-27 0 -61 43q-33 39 -33 72q0 10 28 35q-12 12 -34 12q14 59 59 182l6 -14q18 18 66 129q36 85 94 100q-3 19 -23 19q68 45 84 57q-3 16 -20 19q4 5 36 39t42 47t23 42.5t12 57.5q295 14 319 14q12 0 49 -4t49 -4t46 10.5t46 10.5q11 0 52.5 -12.5 t54.5 -12.5q79 0 141 -6zM440 563q0 7 -4 30t-4 28q-48 -29 -113 -129q-78 -117 -106 -142q-86 -177 -86 -225v-57q17 7 63 20q51 39 150 227q100 184 100 248z" />
<glyph unicode="&#xf7;" horiz-adv-x="712" d="M754 457v-35q0 -50 -258 -96q-220 -41 -320 -41q-33 0 -60.5 26t-27.5 58q0 61 504 88q40 3 74 0h88zM582 686q0 -81 -66 -129l-27 31q-16 -16 -16 -31h-31q-2 5 -21.5 43t-35.5 68q66 84 96 84q8 0 29 -15.5t29 -15.5q6 0 12 2.5t10 4.5l4 3l5 -8q4 -8 8 -18.5t4 -18.5z M369 10q0 -41 -34 -68.5t-75 -27.5q-26 0 -53 26t-27 54v94q22 7 56 17l51 16q16 0 49 -45q33 -44 33 -66z" />
<glyph unicode="&#xf8;" horiz-adv-x="747" />
<glyph unicode="&#xf9;" horiz-adv-x="1189" d="M578 1159q-3 -18 -3 -33l50 -49q27 -35 30 -61h-14q-15 0 -27 -41q7 -1 -4 -2h-39q-11 0 -22.5 12t-21.5 27.5t-13 17.5q-35 23 -92 103q-21 28 -43.5 58.5t-31 42t-9.5 13.5q4 24 12 68h12q7 0 30 4t30 4q33 0 156 -164zM1278 326q-64 -25 -180 -154l-23 6 q-27 0 -86 -33q0 -18 19 -18q-87 -40 -152 -68q-12 -26 -25 -26q-4 0 -4 12q-3 5 -6 2q-46 -49 -119 -49q-189 0 -192 235q-24 -24 -111 -94l-30 -4q-6 -48 -105 -106q-98 -58 -151 -58q-4 0 -17.5 7.5t-17.5 7.5q-5 0 -9 -7.5t-8 -7.5t-27 14.5t-32 14.5q0 9 -10 44t-10 44 q0 73 79 180q86 118 95 164q64 101 108 166q89 127 123 127q10 -4 33 -14q13 -5 26 -9.5t15 -5.5v-59q-27 -12 -80 -86q-70 -98 -74 -102q-8 8 -16 8q-3 -44 -62 -127q-56 -76 -59 -117l-6 14q-6 -12 -22.5 -52.5t-28.5 -68.5q7 -10 16 -10q62 0 250 164l246 221q3 22 67 86 q65 68 82 68q4 0 15.5 -7t15.5 -7q8 0 11 4t11 4l2 -2q41 -21 41 -52q0 -43 -59 -96q-23 -19 -46 -38.5t-33 -28t-13 -11.5q-29 -44 -55 -114q-25 -77 -25 -123q0 -55 43 -55q28 0 111 22q74 21 106 35q17 9 131 82q106 69 111 69q4 0 6 -4t6 -4l2 1q2 2 7.5 6t13 9t19 12.5 t24 15.5t30.5 20q31 -36 29 -47z" />
<glyph unicode="&#xfa;" horiz-adv-x="1153" d="M893 1032q-12 2 -33 2q-18 -14 -51 -47q-36 -28 -61 -31v13q0 15 -41 30v41q0 22 20 33q30 18 37 25q26 34 104 90q116 81 117 82q14 0 68 -13l-2 -14q0 -7 4 -30t4 -27q0 -29 -70 -84q-27 -19 -96 -70zM1278 326q-64 -25 -180 -154l-23 6q-27 0 -86 -33q0 -18 19 -18 q-87 -40 -152 -68q-12 -26 -25 -26q-4 0 -4 12q-3 5 -6 2q-46 -49 -119 -49q-189 0 -192 235q-24 -24 -111 -94l-30 -4q-6 -48 -105 -106q-98 -58 -151 -58q-4 0 -17.5 7.5t-17.5 7.5q-5 0 -9 -7.5t-8 -7.5t-27 14.5t-32 14.5q0 9 -10 44t-10 44q0 73 79 180q86 118 95 164 q64 101 108 166q89 127 123 127q10 -4 33 -14q13 -5 26 -9.5t15 -5.5v-59q-27 -12 -80 -86q-70 -98 -74 -102q-8 8 -16 8q-3 -44 -62 -127q-56 -76 -59 -117l-6 14q-6 -12 -22.5 -52.5t-28.5 -68.5q7 -10 16 -10q62 0 250 164l246 221q3 22 67 86q65 68 82 68q4 0 15.5 -7 t15.5 -7q8 0 11 4t11 4l2 -2q41 -21 41 -52q0 -43 -59 -96q-23 -19 -46 -38.5t-33 -28t-13 -11.5q-29 -44 -55 -114q-25 -77 -25 -123q0 -55 43 -55q28 0 111 22q74 21 106 35q17 9 131 82q106 69 111 69q4 0 6 -4t6 -4l2 1q2 2 7.5 6t13 9t19 12.5t24 15.5t30.5 20 q31 -36 29 -47z" />
<glyph unicode="&#xfb;" horiz-adv-x="1146" d="M1278 326q-64 -25 -180 -154l-23 6q-27 0 -86 -33q0 -18 19 -18q-87 -40 -152 -68q-12 -26 -25 -26q-4 0 -4 12q-3 5 -6 2q-46 -49 -119 -49q-189 0 -192 235q-24 -24 -111 -94l-30 -4q-6 -48 -105 -106q-98 -58 -151 -58q-4 0 -17.5 7.5t-17.5 7.5q-5 0 -9 -7.5t-8 -7.5 q-7 0 -29 14.5t-30 14.5q0 9 -10 44t-10 44q0 73 79 180q86 118 95 164q64 101 108 166q89 127 123 127q10 -4 33 -14q13 -5 26 -9.5t15 -5.5v-59q-27 -12 -80 -86q-70 -98 -74 -102q-8 8 -16 8q-3 -44 -62 -127q-56 -76 -59 -117l-6 14q-6 -12 -22.5 -52.5t-28.5 -68.5 q7 -10 16 -10q62 0 250 164l246 221q3 22 67 86q65 68 82 68q4 0 15.5 -7t15.5 -7q8 0 11 4t11 4l2 -2q41 -21 41 -52q0 -43 -59 -96q-23 -19 -46 -38.5t-33 -28t-13 -11.5q-29 -44 -55 -114q-25 -77 -25 -123q0 -55 43 -55q28 0 111 22q74 21 106 35q17 9 131 82 q106 69 111 69q4 0 6 -4t6 -4l2 1q2 2 7.5 6t13 9t19 12.5t24 15.5t30.5 20q31 -36 29 -47zM1038 1032q-11 -20 -30 -65q-2 7 -5.5 12t-11 7t-12 3t-15.5 1.5t-14 0.5q-2 1 -9 16t-13 15q-8 3 -8 -2h2q0 -4 -9 -4t-65 114q-56 115 -84 115q-131 -94 -193 -106 q-12 -21 -34 -45l-11 -4q-12 -5 -20 -7q-141 -108 -162 -108q-34 0 -61 18q-35 21 -35 51q0 19 57 64q63 50 82 57q11 2 55 13q11 3 203 139q147 102 199 102q12 0 39 -24q28 -22 28 -33l-2 -7q-3 -13 -6 -24q22 -70 135 -299z" />
</font>
</defs>
</svg>
