<?xml version="1.0" encoding="utf-8"?><svg xmlns:xlink="http://www.w3.org/1999/xlink" id="Scene_1" image-rendering="auto" baseProfile="basic" version="1.1" x="0px" y="0px" width="100" height="100" viewBox="0 0 100 100" xmlns="http://www.w3.org/2000/svg"><g id="Scene 1_5.0"><path fill="#22AAE8" d="M81.5,24.7Q81.4,23.55 81.3,24.7L81.1,26.75Q80.9,29.05 80.9,31.05L80.9,35.45Q80.9,36.2 80.55,36.2 80.2,36.2 80.2,35.45L80.2,31.05Q80.2,28.45 80.05,26.75L79.85,24.7Q79.75,23.55 79.6,24.7L79.4,26.75Q79.2,29.05 79.2,31.05L79.2,37.45Q79.2,38.9 80,39.95L80.55,40.55Q80.9,40.8 81.15,42.35 81.4,44.1 81.35,46.15 81.35,47.3 80.65,59.8 80.25,68.05 80.7,73.45 80.8,74.15 81.25,74.75 81.7,75.25 82.25,75.25 82.75,75.25 83.25,74.75 83.7,74.15 83.75,73.45 84.2,68.05 83.8,59.8 83.15,47.3 83.15,46.15 83.05,44.1 83.4,42.35 83.6,40.8 83.9,40.55L84.5,39.95Q85.25,38.9 85.25,37.45L85.25,31.05Q85.25,29.05 85.05,26.75L84.85,24.7Q84.75,23.55 84.65,24.7L84.45,26.75Q84.3,28.45 84.3,31.05L84.3,35.45Q84.3,36.2 83.9,36.2 83.6,36.2 83.6,35.45L83.6,31.05Q83.6,29.05 83.4,26.75L83.2,24.7Q83.05,23.55 82.95,24.7L82.75,26.75Q82.6,28.45 82.6,31.05L82.6,35.45Q82.6,36.2 82.25,36.2 81.85,36.2 81.85,35.45L81.85,31.05Q81.85,28.45 81.7,26.75L81.5,24.7"/><path fill="#22AAE8" d="M65.85,32.75Q58.85,25.7 48.85,25.7 38.95,25.7 31.85,32.75 24.8,39.8 24.8,49.75 24.8,59.75 31.85,66.75 38.95,73.8 48.85,73.8 58.85,73.8 65.85,66.75 72.95,59.75 72.95,49.75 72.95,39.8 65.85,32.75 M62.3,36.35Q67.85,41.9 67.85,49.75 67.85,57.65 62.3,63.2 56.7,68.8 48.85,68.8 40.95,68.8 35.45,63.2 29.85,57.65 29.85,49.75 29.85,41.9 35.45,36.35 40.95,30.75 48.85,30.75 56.7,30.75 62.3,36.35"/><path fill="#22AAE8" d="M61.55,37.1Q56.3,31.8 48.85,31.8 41.45,31.8 36.15,37.1 30.9,42.3 30.9,49.75 30.9,57.2 36.15,62.45 41.45,67.75 48.85,67.75 56.3,67.75 61.55,62.45 66.8,57.15 66.8,49.75 66.8,42.3 61.55,37.1 M62.3,36.35Q67.85,41.9 67.85,49.75 67.85,57.65 62.3,63.2 56.7,68.8 48.85,68.8 40.95,68.8 35.45,63.2 29.85,57.65 29.85,49.75 29.85,41.9 35.45,36.35 40.95,30.75 48.85,30.75 56.7,30.75 62.3,36.35"/><path fill="#22AAE8" d="M15.75,24.2Q13.5,24.2 12.2,26.65 10.95,28.9 10.95,32.45 10.95,36.65 13.35,39.2 14.9,40.65 14.9,43.05 14.95,46.85 14.3,58.2 13.7,67.75 14.25,73.4 14.35,74.15 14.75,74.75 15.25,75.25 15.75,75.25 16.3,75.25 16.75,74.75 17.25,74.15 17.3,73.4 17.8,67.75 17.25,58.2 16.6,46.85 16.65,43.05 16.65,40.65 18.15,39.2 20.65,36.6 20.65,32.45 20.65,28.9 19.35,26.65 18,24.2 15.75,24.2"/></g><defs/></svg>