<?xml version="1.0" encoding="utf-8"?><svg xmlns:xlink="http://www.w3.org/1999/xlink" id="Scene_1" image-rendering="auto" baseProfile="basic" version="1.1" x="0px" y="0px" width="100" height="100" viewBox="0 0 100 100" xmlns="http://www.w3.org/2000/svg"><g id="Scene 1_9.0"><path fill="#22AAE8" d="M57.8,30.2Q56.05,33.15 55.5,36.8 55.7,36.95 57.6,38.25 59.2,39.35 60.15,40.05 61.7,41.25 64.35,43.7 67.85,42.3 70.25,39.9 68.05,37.75 64.25,34.75 60.4,31.75 57.8,30.2"/><path fill="#22AAE8" d="M59.15,28.3L58.45,29.35Q61.05,30.95 64.9,33.95 68.7,36.95 70.9,39.05L71.75,38.1Q73.8,35.5 73.45,32.35 73.15,29.15 70.35,26.95 67.6,24.8 64.35,25.25 61.2,25.7 59.15,28.3"/><path fill="#22AAE8" d="M59.35,41.1L59.35,41.05Q55.8,38.3 54.7,37.85 54.6,38.35 54,39.15 37.1,63.35 36.95,64 36.75,64.45 37.3,65.25L35.35,68.7Q34.55,70.25 34.85,71.2L34.9,71.2Q35.25,71.2 35.6,71.5L35.65,71.55Q36,71.8 36.1,72.15L36.15,72.25Q37.2,72.35 38.4,71.1L41.3,68.35Q42.15,68.65 42.65,68.45 43.2,68.1 62.5,45.75 63.35,44.9 63.55,44.75 62.85,43.8 59.35,41.1 M55.3,45.15Q55.7,45.05 56.05,45.3L56.05,45.35Q56.4,45.6 56.45,46.1 56.5,46.45 56.25,46.8L52.95,51.05Q52.7,51.35 52.25,51.45 51.8,51.5 51.45,51.25L51.45,51.2Q51.1,50.95 51.1,50.5 51,50.05 51.25,49.75L54.55,45.5Q54.8,45.15 55.3,45.15"/><path fill="#22AAE8" d="M35.1,72.25Q34.75,71.95 34.35,71.95 30.65,76.95 31.3,80.7 31.8,84.2 36.35,87.7L38.65,89.3Q38.95,89.55 39.4,88.9 39.75,88.25 39.45,88.05 33.4,84.05 32.7,80.4 32.25,77.5 35.6,72.95 35.5,72.5 35.1,72.25"/></g><defs/></svg>