<?xml version="1.0" encoding="utf-8"?><svg xmlns:xlink="http://www.w3.org/1999/xlink" id="Scene_1" image-rendering="auto" baseProfile="basic" version="1.1" x="0px" y="0px" width="100" height="100" viewBox="0 0 100 100" xmlns="http://www.w3.org/2000/svg"><g id="Scene 1_11.0"><path fill="#22AAE8" d="M46.85,46.95Q53.3,46.8 59.85,47.4L54.25,52.1Q53.45,52.85 47.65,57.3 52.9,57.55 58.8,57L72.9,40.45 75.2,39.9Q76.9,39.4 76.55,37.75 76.4,36.9 75.9,36.2 74.2,34.35 73.05,34.65L72.3,35.35 70.85,38.05 61.85,45.65Q55.65,44.9 47,44.95 36.65,45.25 29.6,47.4 22.45,49.55 22.45,52.45 22,56.25 23.6,61 26.8,70.5 36.95,75.25L37,75.6Q36.95,76.1 36.65,76.6 36.6,76.7 35.6,77.05 34.65,77.35 34.65,77.65 34.65,79.65 48.45,79.65 62.45,79.65 62.45,77.65 62.45,77.35 62.1,77.05 61.65,76.6 61.6,76.6 61.35,76.1 61.85,75.6 62.1,75.4 62.4,75.25 71.85,70.85 75.35,62.35 77.25,57.5 76.95,52.85L77.05,52.45Q77.05,50.35 73.05,48.55 71.85,47.7 68.2,46.8L66.85,48.35Q69.8,48.95 71.55,49.8 74.8,51.15 74.8,52.6 74.8,54.95 67.5,56.6 60.2,58.3 49.9,58.3 39.65,58.3 32.35,56.6 25.05,54.95 25.05,52.6 25.05,50.4 31.35,48.85 37.55,47.25 46.85,46.95"/></g><defs/></svg>