<?xml version="1.0" encoding="utf-8"?><svg xmlns:xlink="http://www.w3.org/1999/xlink" id="Scene_1" image-rendering="auto" baseProfile="basic" version="1.1" x="0px" y="0px" width="100" height="100" viewBox="0 0 100 100" xmlns="http://www.w3.org/2000/svg"><g id="Scene 1_1.0"><path fill="#22AAE8" d="M53.35,35.15Q53.35,31.15 52.3,28.3 51.3,25.4 49.85,25.4 48.45,25.4 47.4,28.3 46.35,31.15 46.35,35.15 46.35,37.75 46.85,40 47.3,42.2 48.05,43.45 47.7,42.15 47.7,40.75 47.7,38.65 48.35,37.15 48.95,35.65 49.85,35.65 50.75,35.65 51.35,37.15 52,38.6 52,40.75 52,42.15 51.7,43.45 52.45,42.2 52.95,40 53.35,37.75 53.35,35.15"/><path fill="#22AAE8" d="M43.2,42.2Q42.7,41.3 42.4,40.15 37.65,40.6 34.3,41.6 30.95,42.6 29.85,43.8 29.5,44.2 29.5,44.5L29.5,69.95Q29.5,71.45 35.4,72.45 41.4,73.5 49.85,73.5 58.3,73.5 64.3,72.45 70.3,71.45 70.3,69.95L70.3,44.5Q70.3,44.15 69.85,43.8 68.8,42.55 65.45,41.55 62.15,40.6 57.3,40.15 57.05,41.3 56.5,42.2 60.85,42.55 63.5,43.25 66.2,43.95 66.2,44.8 66.2,46 61.45,46.85 56.65,47.7 49.85,47.7 43.15,47.7 38.3,46.85 33.55,46 33.55,44.8 33.55,43.95 36.25,43.25 38.85,42.55 43.2,42.2"/></g><defs/></svg>