<?xml version="1.0" encoding="utf-8"?><svg xmlns:xlink="http://www.w3.org/1999/xlink" id="Scene_1" image-rendering="auto" baseProfile="basic" version="1.1" x="0px" y="0px" width="100" height="100" viewBox="0 0 100 100" xmlns="http://www.w3.org/2000/svg"><g id="Scene 1_15.0"><path fill="#22AAE8" d="M55.1,14.15Q53,12.05 50.05,12.05 47.1,12.05 45,14.15 42.85,16.25 42.85,19.25L42.85,27Q43.2,31.65 41.75,36.3 39.1,44.65 31.9,45.15 32,42.4 32.9,39.9 34.3,36.1 32.2,34.5 31.2,33.65 29.55,33.7 27.95,33.75 26.55,34.65 25.3,35.4 24.85,36.6 24.35,37.8 24.65,39.1 24.85,39.8 25.75,41.05 26.7,42.4 26.75,43.2 26.85,44.1 26.6,44.65 26.4,45.1 25.65,45.95L25.5,46.05Q23.4,48.35 22.8,49.7 21.85,52 23.6,54.1 23.8,54.25 23.95,54.25 24.15,54.25 24.3,54.15 24.6,53.8 24.35,53.5 22.95,51.85 23.75,49.95 24.2,48.85 26.2,46.65L26.3,46.55Q27.15,45.65 27.45,45.05 27.8,44.25 27.7,43.15 27.6,42.1 26.5,40.5 25.7,39.45 25.55,38.85 25,36.75 27.05,35.4 28.2,34.65 29.5,34.6 30.85,34.55 31.7,35.25 33.25,36.45 32.05,39.55 31.1,42.2 30.95,45.15L30.95,73.2Q30.95,75.85 32.85,77.75 34.8,79.65 37.45,79.65L62.65,79.65Q65.3,79.65 67.2,77.75 69.1,75.85 69.1,73.2L69.1,44.45Q69.1,41.85 69.25,40.8 69.5,38.85 70.45,37.55L70.8,37.05Q71.6,35.95 71.8,35.4 72.15,34.45 71.95,33.15 71.8,32.3 71,30.85 70.45,29.85 70.3,29.4 70.1,28.55 70.3,27.75 70.75,26.5 71.75,26 72.7,25.5 73.85,25.85 75.1,26.25 75.35,27.45 75.6,28.35 75.25,30.45 75,32.6 75.15,33.45 75.35,34.95 76.8,35.5 77.2,35.65 77.4,35.25 77.55,34.8 77.1,34.65 76.15,34.3 76.05,33.25 75.9,32.5 76.15,30.6 76.5,28.3 76.25,27.3 75.9,25.55 74.1,24.95 72.6,24.5 71.35,25.2 69.95,25.9 69.45,27.5 69.15,28.55 69.4,29.55 69.6,30.2 70.2,31.3 70.95,32.65 71.05,33.35 71.2,34.4 70.95,35.1 70.75,35.6 70.1,36.5L69.7,37.05Q68.65,38.5 68.35,40.6 68.2,41.8 68.2,44.45L68.2,45.15Q61,44.6 58.35,36.3 57,31.95 57.2,27L57.25,27 57.25,19.25Q57.25,16.25 55.1,14.15 M45.85,15Q47.55,13.25 50.05,13.25 52.5,13.25 54.25,15 56,16.75 56,19.25L56,26.85 44.1,26.85 44.1,19.25Q44.1,16.75 45.85,15 M58.45,45.65L58.45,56.3Q58.45,57.45 57.6,58.3 56.8,59.15 55.6,59.15L44.5,59.15Q43.3,59.15 42.45,58.3 41.65,57.45 41.65,56.3L41.65,45.65 58.45,45.65"/><path fill="#22AAE8" d="M43.65,49.1L43.2,49.1 43.2,50.55 43.65,50.55 43.65,49.1 M58.45,45.65L58.45,56.3Q58.45,57.45 57.6,58.3 56.8,59.15 55.6,59.15L44.5,59.15Q43.3,59.15 42.45,58.3 41.65,57.45 41.65,56.3L41.65,45.65 58.45,45.65"/><path fill="#22AAE8" d="M43.2,47.8L43.65,47.8 43.65,47.1 43.2,47.1 43.2,47.8 M58.45,45.65L58.45,56.3Q58.45,57.45 57.6,58.3 56.8,59.15 55.6,59.15L44.5,59.15Q43.3,59.15 42.45,58.3 41.65,57.45 41.65,56.3L41.65,45.65 58.45,45.65"/><path fill="#22AAE8" d="M56.45,47.8L56.9,47.8 56.9,47.1 56.45,47.1 56.45,47.8 M58.45,45.65L58.45,56.3Q58.45,57.45 57.6,58.3 56.8,59.15 55.6,59.15L44.5,59.15Q43.3,59.15 42.45,58.3 41.65,57.45 41.65,56.3L41.65,45.65 58.45,45.65"/><path fill="#22AAE8" d="M56.9,49.1L56.45,49.1 56.45,50.55 56.9,50.55 56.9,49.1 M58.45,45.65L58.45,56.3Q58.45,57.45 57.6,58.3 56.8,59.15 55.6,59.15L44.5,59.15Q43.3,59.15 42.45,58.3 41.65,57.45 41.65,56.3L41.65,45.65 58.45,45.65"/><path fill="#22AAE8" d="M56.9,53.3L56.9,51.8 56.45,51.8 56.45,53.3 56.9,53.3 M58.45,45.65L58.45,56.3Q58.45,57.45 57.6,58.3 56.8,59.15 55.6,59.15L44.5,59.15Q43.3,59.15 42.45,58.3 41.65,57.45 41.65,56.3L41.65,45.65 58.45,45.65"/><path fill="#22AAE8" d="M56.9,54.5L56.45,54.5 56.45,55.45 56.35,55.9 56.85,56.05 56.9,54.5 M58.45,45.65L58.45,56.3Q58.45,57.45 57.6,58.3 56.8,59.15 55.6,59.15L44.5,59.15Q43.3,59.15 42.45,58.3 41.65,57.45 41.65,56.3L41.65,45.65 58.45,45.65"/><path fill="#22AAE8" d="M53.5,57.9L53.5,57.45 52,57.45 52,57.9 53.5,57.9 M58.45,45.65L58.45,56.3Q58.45,57.45 57.6,58.3 56.8,59.15 55.6,59.15L44.5,59.15Q43.3,59.15 42.45,58.3 41.65,57.45 41.65,56.3L41.65,45.65 58.45,45.65"/><path fill="#22AAE8" d="M54.65,57.4L54.75,57.9Q55.65,57.8 56.15,57.2L55.85,56.85Q55.3,57.4 54.65,57.4 M58.45,45.65L58.45,56.3Q58.45,57.45 57.6,58.3 56.8,59.15 55.6,59.15L44.5,59.15Q43.3,59.15 42.45,58.3 41.65,57.45 41.65,56.3L41.65,45.65 58.45,45.65"/><path fill="#22AAE8" d="M50.8,57.9L50.8,57.45 49.3,57.45 49.3,57.9 50.8,57.9 M58.45,45.65L58.45,56.3Q58.45,57.45 57.6,58.3 56.8,59.15 55.6,59.15L44.5,59.15Q43.3,59.15 42.45,58.3 41.65,57.45 41.65,56.3L41.65,45.65 58.45,45.65"/><path fill="#22AAE8" d="M43.2,51.8L43.2,53.25 43.65,53.25 43.65,51.8 43.2,51.8 M58.45,45.65L58.45,56.3Q58.45,57.45 57.6,58.3 56.8,59.15 55.6,59.15L44.5,59.15Q43.3,59.15 42.45,58.3 41.65,57.45 41.65,56.3L41.65,45.65 58.45,45.65"/><path fill="#22AAE8" d="M43.65,55.45L43.65,54.5 43.2,54.5 43.25,56 43.7,55.9 43.65,55.45 M58.45,45.65L58.45,56.3Q58.45,57.45 57.6,58.3 56.8,59.15 55.6,59.15L44.5,59.15Q43.3,59.15 42.45,58.3 41.65,57.45 41.65,56.3L41.65,45.65 58.45,45.65"/><path fill="#22AAE8" d="M45.4,57.4Q44.8,57.4 44.25,56.85L43.9,57.2Q44.55,57.8 45.35,57.9L45.4,57.4 M58.45,45.65L58.45,56.3Q58.45,57.45 57.6,58.3 56.8,59.15 55.6,59.15L44.5,59.15Q43.3,59.15 42.45,58.3 41.65,57.45 41.65,56.3L41.65,45.65 58.45,45.65"/><path fill="#22AAE8" d="M48.1,57.45L46.6,57.45 46.6,57.9 48.1,57.9 48.1,57.45 M58.45,45.65L58.45,56.3Q58.45,57.45 57.6,58.3 56.8,59.15 55.6,59.15L44.5,59.15Q43.3,59.15 42.45,58.3 41.65,57.45 41.65,56.3L41.65,45.65 58.45,45.65"/></g><defs/></svg>