<?xml version="1.0" encoding="utf-8"?><svg xmlns:xlink="http://www.w3.org/1999/xlink" id="Scene_1" image-rendering="auto" baseProfile="basic" version="1.1" x="0px" y="0px" width="100" height="100" viewBox="0 0 100 100" xmlns="http://www.w3.org/2000/svg"><g id="Scene 1_13.0"><path fill="#22AAE8" d="M87.55,42.7L85.5,42.7 85.5,45 77.25,45 77.25,42.7 47.3,42.7 45.1,38.05 23.35,38.05 23.35,42.7 13.5,42.7 13.5,45 11.75,45 11.75,49.85 13.5,49.85 13.5,52.05 22.75,52.05 20.75,75 33.85,71.75 33.85,62.45 35.3,62.5Q40.3,62.5 43.85,59.5 47.4,56.4 47.4,52.05L59.85,52.05 59.85,64.55 61,65.2Q62.55,65.8 64.7,65.75 68.1,65.65 69.5,64.55L69.5,52.05 77.25,52.05 77.25,49.85 87.55,49.85 87.55,42.7 M65.4,44.7L65.4,46.15 54.65,46.15 54.65,44.7 65.4,44.7 M33.85,54L42.8,54Q42.05,56.05 40,57.4 37.9,58.8 35.3,58.8L33.85,58.7 33.85,54"/></g><defs/></svg>