<?xml version="1.0" encoding="utf-8"?><svg xmlns:xlink="http://www.w3.org/1999/xlink" id="Scene_1" image-rendering="auto" baseProfile="basic" version="1.1" x="0px" y="0px" width="100" height="100" viewBox="0 0 100 100" xmlns="http://www.w3.org/2000/svg"><g id="Scene 1_3.0"><path fill="#22AAE8" d="M57.75,35.8Q56.15,35.15 48.5,31.7 41.3,28.45 39.05,27.5L39.05,66.25Q45.7,69 57.75,74.3L57.75,35.8 M47.75,38.55L50.2,40.9 52.6,38.45Q52.85,38.15 53.2,38.15 53.5,38.15 53.75,38.4 54,38.6 54,39 54,39.35 53.75,39.6L51.45,42.05 53.9,44.45Q54.15,44.65 54.15,45 54.15,45.4 53.9,45.65 53.7,45.85 53.35,45.85 53,45.85 52.8,45.65L50.25,43.3 47.9,45.8Q47.75,46 47.35,46.05 47,46.05 46.75,45.8 46.5,45.55 46.5,45.25 46.5,44.85 46.75,44.6L49.05,42.15 46.6,39.8Q46.35,39.55 46.35,39.2 46.35,38.9 46.55,38.6 46.8,38.35 47.2,38.35 47.55,38.35 47.75,38.55 M51.6,58.3Q51.9,58.1 52.25,58.1 52.85,58.1 53.25,58.55 54.05,59.9 55.4,60.9 55.8,61.25 55.8,61.7 55.9,62.15 55.6,62.55 55.3,62.95 54.7,63L54.65,63Q54.3,63 53.95,62.75 52.45,61.5 51.25,59.85 51,59.45 51.1,58.95 51.2,58.5 51.6,58.3"/><path fill="#22AAE8" d="M75.6,26.85Q75.35,26.85 75.2,26.9 75.05,26.9 75.05,27L58.9,35.9 58.9,74.4 75.85,65.75Q75.9,65.75 75.9,65.7 77.35,65.05 77.35,63.4L77.35,28.75Q77.3,27.85 76.75,27.3 76.25,26.85 75.6,26.85 M66.75,41.85Q66.9,42.3 66.7,42.75 66.35,43.4 65.65,43.4L65.5,43.4 65.15,43.25Q63.7,42.55 62.35,42.35L62.1,42.3Q61.6,42.2 61.3,41.8 61,41.5 61.1,41 61.15,40.5 61.55,40.25 61.85,40.05 62.25,40.05L62.45,40.05 62.75,40.1Q64.45,40.35 66.2,41.25 66.6,41.45 66.75,41.85 M70.6,45.05Q71.2,45.05 71.55,45.5 72.7,47.1 73.35,49 73.5,49.45 73.3,49.85 73.1,50.35 72.65,50.5L72.25,50.5Q71.4,50.5 71.15,49.7 70.6,48.05 69.7,46.9 69.4,46.5 69.5,46.05 69.55,45.55 69.95,45.25 70.15,45.05 70.6,45.05 M72.65,55.3Q73.1,55.45 73.35,55.9 73.5,56.4 73.4,56.8 72.7,58.7 71.55,60.3 71.25,60.75 70.65,60.75 70.25,60.75 69.95,60.55 69.6,60.25 69.5,59.75 69.45,59.3 69.75,58.9 70.65,57.65 71.15,56.05 71.3,55.7 71.6,55.5 71.9,55.25 72.25,55.25L72.65,55.3 M65.2,64.8Q63.65,65.3 61.9,65.35L61.3,65.35Q60.85,65.35 60.5,64.95 60.15,64.6 60.15,64.15 60.2,63.7 60.55,63.4 60.85,63.05 61.35,63.05L61.6,63.05Q63.15,63.05 64.5,62.6L64.85,62.55Q65.75,62.55 66,63.4 66.15,63.85 65.9,64.2 65.65,64.65 65.2,64.8"/><path fill="#22AAE8" d="M37.85,27.8Q35.1,29.3 23.75,34.9 22.75,35.3 22.25,36.2 21.85,36.85 21.95,37.55L21.95,72Q21.95,72.95 22.5,73.5 23,74 23.65,74 24.1,74 24.45,73.8L37.85,66.6 37.85,27.8"/></g><defs/></svg>