<?xml version="1.0" encoding="utf-8"?><svg xmlns:xlink="http://www.w3.org/1999/xlink" id="Scene_1" image-rendering="auto" baseProfile="basic" version="1.1" x="0px" y="0px" width="100" height="100" viewBox="0 0 100 100" xmlns="http://www.w3.org/2000/svg"><g id="Scene 1_7.0"><path fill="#22AAE8" d="M84.45,29.15Q82.65,27.7 81.1,28.65 79.4,29.5 75.05,33.9 70.25,38.75 67.35,42.8 63.25,48.55 59.75,56.4L59.95,57Q60.25,57.75 61.1,58.35 62.45,59.35 63.6,59.2 65.15,58.25 67.25,56.6 71.4,53.35 73.95,50 77.1,46 80.85,40.25 84.65,34.45 85.45,32.55 86.2,30.55 84.45,29.15"/><path fill="#22AAE8" d="M13.65,69.45Q9.95,70.75 14.9,70.75 22.85,70.8 47.55,70.5L44.6,69.35 34.1,69.4 43.95,69.1 43.15,68.8 27.7,68.9 42.4,68.45 42.1,68.3 18.35,68.1Q15.55,68.85 13.65,69.45"/><path fill="#22AAE8" d="M62.2,64.3Q63.2,62.6 63.3,61.2 61.65,61.35 60,60.05 58.6,58.85 58.2,57.8 58,57.25 58.05,56.95 57.25,56.9 56.25,57.15 54.25,57.7 53.35,59.4 52.7,60.8 51.95,63.45 51.05,65.6 49.2,66.3 46.4,67.4 44.8,66.95 46.05,67.95 48.1,68.75 52.15,70.25 56.2,69 60.25,67.75 62.2,64.3"/></g><defs/></svg>