<?xml version="1.0" encoding="utf-8"?><svg xmlns:xlink="http://www.w3.org/1999/xlink" id="Scene_1" image-rendering="auto" baseProfile="basic" version="1.1" x="0px" y="0px" width="100" height="100" viewBox="0 0 100 100" xmlns="http://www.w3.org/2000/svg"><g id="Scene 1_10.0"><path fill="#22AAE8" d="M91.8,44.75L89.6,44.75 89.6,55.4 91.8,55.4 91.8,52.6 98.25,52.6 98.25,48.25 91.8,48.25 91.8,44.75"/><path fill="#22AAE8" d="M86,36.1L84.65,36.1Q83.75,36.1 83.1,36.75 82.45,37.4 82.45,38.2L82.45,62.25Q82.45,63.2 83.1,63.75 83.75,64.35 84.65,64.35L86,64.35Q86.9,64.35 87.45,63.75 88.1,63.2 88.1,62.25L88.1,38.2Q88.1,37.4 87.45,36.75 86.9,36.1 86,36.1"/><path fill="#22AAE8" d="M71.55,44.75L71.55,48.15 27.85,48.15 27.85,44.75 25.6,44.75 25.6,55.45 27.8,55.45 27.8,52.6 71.45,52.6 71.45,55.4 73.7,55.4 73.7,44.75 71.55,44.75"/><path fill="#22AAE8" d="M77.4,33.75Q76.45,33.75 75.75,34.35 75.05,34.9 75.05,35.85L75.05,66Q75.05,66.9 75.75,67.45 76.45,68.1 77.4,68.1L78,68.1Q78.95,68.1 79.65,67.45 80.35,66.9 80.35,66L80.35,35.85Q80.35,34.9 79.65,34.35 78.95,33.75 78,33.75L77.4,33.75"/><path fill="#22AAE8" d="M20,34.35Q19.3,34.9 19.3,35.85L19.3,66Q19.3,66.9 20,67.45 20.7,68.1 21.7,68.1L22.25,68.1Q23.2,68.1 23.95,67.45 24.65,66.9 24.65,66L24.65,35.85Q24.65,34.9 23.95,34.35 23.2,33.75 22.25,33.75L21.7,33.75Q20.7,33.75 20,34.35"/><path fill="#22AAE8" d="M7.85,48.25L1.4,48.25 1.4,52.6 7.8,52.6 7.8,55.4 10.05,55.4 10.05,44.75 7.85,44.75 7.85,48.25"/><path fill="#22AAE8" d="M16.5,38.1Q15.95,37.45 15,37.45L13.7,37.45Q12.8,37.45 12.2,38.1 11.6,38.7 11.6,39.55L11.6,63.6Q11.6,64.5 12.2,65.05 12.8,65.7 13.7,65.7L15,65.7Q15.95,65.7 16.5,65.05 17.1,64.5 17.1,63.6L17.1,39.55Q17.1,38.7 16.5,38.1"/></g><defs/></svg>