<?xml version="1.0" encoding="utf-8"?><svg xmlns:xlink="http://www.w3.org/1999/xlink" id="Scene_1" image-rendering="auto" baseProfile="basic" version="1.1" x="0px" y="0px" width="100" height="100" viewBox="0 0 100 100" xmlns="http://www.w3.org/2000/svg"><g id="Scene 1_8.0"><path fill="#22AAE8" d="M46.85,21.7L46.5,23.65Q46.1,23.65 45.7,23.65 44.85,23.65 44.85,23.7 44.85,23.75 46.25,24.95 46.95,25.55 47.65,26.15 48,25.7 48.65,25.15 49.85,24.1 51,23.85L49.15,20.45 48.45,22.1 46.85,21.7"/><path fill="#22AAE8" d="M46.7,29Q45.35,31.3 42.9,37.5 38.1,49.7 32.85,55.15 31.3,56.7 29.8,57.65 28.75,58.25 28.75,58.3 31.7,63.3 34.7,66.2 41.2,72.6 49.85,73.2 57.35,73.75 63.3,69.4 68.65,65.55 70.25,59.9 71.5,55.5 70.7,50.45 70.15,46.95 68.4,42.45 66.55,37.75 64.85,34.55 64,35.5 63.3,35.8 62.25,36.35 61.3,35.65 60.45,35.05 60.3,33.85 60.2,32.9 61.25,32.35 61.75,32.1 63.25,31.75 62.25,30.15 61.2,28.75 59.25,26.1 56.8,25.1 54.25,24.1 51.35,24.85 48.8,25.5 46.7,29 M51.35,32.7Q51.65,32.55 52,32.95 52.35,33.25 52.55,33.85 52.75,34.45 52.7,34.95 52.65,35.4 52.35,35.55 52.05,35.65 51.7,35.3 51.35,34.95 51.15,34.35 50.95,33.75 51,33.3 51.05,32.8 51.35,32.7 M39.1,57.75L39.55,57.55 40.5,56.95 41.8,55.8Q42.05,55.55 42.2,55.4 42.45,55.1 42.6,54.95L43.25,54.05Q43.65,53.45 43.85,53.15 44.15,52.55 44.3,52.3 44.55,51.8 44.65,51.55 44.65,51.5 44.9,50.95L45.1,50.4 45.2,50.45 45.2,51Q45.2,51.45 45.15,51.65 45.1,52.15 44.95,52.55L44.65,53.55Q44.4,54.15 44.15,54.6 43.9,55 43.45,55.65 43.25,55.85 43,56.1 42.7,56.45 42.55,56.6L42.05,57.05 41,57.75 39.4,58.5Q38.65,58.65 38.35,58.75 37.55,58.8 37.45,58.8 36.9,58.75 36.8,58.7L36.2,58.55 36.25,58.5 36.8,58.45Q37,58.45 37.45,58.35 37.65,58.3 38.2,58.15 39,57.85 39.1,57.75"/><path fill="#22AAE8" d="M63.65,32L63.4,32.05Q62.1,32.4 61.8,32.5 60.95,32.95 61.1,33.75 61.15,34.15 61.35,34.55 61.6,35.05 61.9,35.25 62.5,35.75 63.2,35.3 63.65,35.05 64.35,34.25L64.55,34Q65.2,33.25 65.5,32.9 66,32.15 65.9,31.7 65.7,31.35 64.8,31.6 63.85,31.95 63.65,32"/><path fill="#22AAE8" d="M53.2,74.65L50.25,74.7 50.9,78.9 48.35,79.1 48.6,80.85 53.2,80 53.2,74.65"/><path fill="#22AAE8" d="M61.55,78.25L65.15,77.65 65.6,75.85 62.6,76.2 61.9,72.05 58.75,73.4 61.55,78.25"/></g><defs/></svg>