<?xml version="1.0" encoding="utf-8"?><svg xmlns:xlink="http://www.w3.org/1999/xlink" id="Scene_1" image-rendering="auto" baseProfile="basic" version="1.1" x="0px" y="0px" width="100" height="100" viewBox="0 0 100 100" xmlns="http://www.w3.org/2000/svg"><g id="Scene 1_14.0"><path fill="#22AAE8" d="M44.5,18.4Q43.15,18.15 41.65,19.75 40.15,21.2 38.8,24.05 37.8,26.05 36.85,29.05L21.65,68.35 22,68.4 35.05,34.8 35.35,34.85 22.65,68.15Q24.55,67.9 28.35,68.65 33.15,69.55 34.2,70.45L38.5,47.45Q38.5,47.2 38.75,47.05 38.95,46.9 39.2,46.95 39.45,47 39.6,47.2 39.75,47.45 39.75,47.65L35.45,70.65Q37,70.25 41.25,71.05 45.15,71.75 46.6,72.6L46.5,35.95 46.85,35.95 47.15,73.15 47.65,73.25 47.65,32.05Q48.05,28.05 47.7,24.85 47,18.85 44.5,18.4 M46.8,23.95Q47.2,28.4 46.15,34.1L46.1,34.45 36.9,32.7 36.95,32.4Q38.05,26.7 40.05,22.7 42.25,18.35 44.3,18.75 46.35,19.15 46.8,23.95 M43.2,34.75L43.25,34.7 43.35,34.7 45.55,35.1 45.1,43.5 43.25,34.75 43.2,34.75 M44.75,44.3Q44.45,45.4 42.7,45.65 41.35,45.9 39.3,45.5 37.4,45.15 36.15,44.45 34.65,43.55 34.75,42.45L34.7,42.45 34.75,42.15 44.85,44 44.75,44.3 M39.5,34.05L39.45,34.05 34.6,41.6Q35,40 35.65,38.05 36.4,35.75 37.25,33.55L39.4,33.9 39.5,33.95 39.5,34.05"/><path fill="#22AAE8" d="M45.6,24.3Q45.2,20.7 43.8,20.45 42.35,20.15 40.7,23.35 39,26.55 38.1,31.35L45.15,32.7Q46,27.9 45.6,24.3 M46.8,23.95Q47.2,28.4 46.15,34.1L46.1,34.45 36.9,32.7 36.95,32.4Q38.05,26.7 40.05,22.7 42.25,18.35 44.3,18.75 46.35,19.15 46.8,23.95"/><path fill="#22AAE8" d="M56.55,19.8Q54.9,18.4 53.6,18.7 51.1,19.3 50.8,25.3 50.6,28.15 51.2,32.5L53.65,73.6 54.15,73.5 52.25,36.35 52.6,36.35 54.65,72.95Q56.1,72 59.9,71.05 64.4,69.95 65.8,70.35L60.2,48.05Q60.05,47.45 60.7,47.25 60.9,47.2 61.15,47.35 61.4,47.5 61.45,47.75L67.05,70Q68.25,69 72.65,67.9 76.6,66.95 78.35,67.1L63.7,34.6 64,34.5 78.95,67.35 79.3,67.2 61.85,28.9Q60.6,25.75 59.65,24 58.05,21.25 56.55,19.8 M58.35,22.7Q60.55,26.6 61.95,32.2L62.05,32.55 57.45,33.6Q54.6,34.3 53.25,34.7L52.95,34.8 52.85,34.45Q51.45,28.85 51.65,24.35 51.8,19.5 53.85,19 55.9,18.5 58.35,22.7 M55.8,34.95L54.45,43.85 53.55,35.45 55.7,34.85 55.8,34.85 55.85,34.95 55.8,34.95 M59.5,34.05L59.5,33.95 59.6,33.9 61.75,33.45 64.85,41.25 59.55,34 59.5,34.05 M54.85,44.6L54.8,44.6 54.75,44.25 64.7,41.8 64.8,42.15 64.75,42.15Q64.9,43.25 63.45,44.2 62.25,45 60.35,45.5 58.45,45.9 56.95,45.8 55.2,45.6 54.85,44.6"/><path fill="#22AAE8" d="M57.7,23.55Q55.95,20.55 54.55,20.95 53.15,21.3 53,24.75 52.75,28.2 53.9,32.8L60.6,31.15Q59.5,26.55 57.7,23.55 M58.35,22.7Q60.55,26.6 61.95,32.2L62.05,32.55 57.45,33.6Q54.6,34.3 53.25,34.7L52.95,34.8 52.85,34.45Q51.45,28.85 51.65,24.35 51.8,19.5 53.85,19 55.9,18.5 58.35,22.7"/></g><defs/></svg>