<?xml version="1.0" encoding="utf-8"?><svg xmlns:xlink="http://www.w3.org/1999/xlink" id="Scene_1" image-rendering="auto" baseProfile="basic" version="1.1" x="0px" y="0px" width="100" height="100" viewBox="0 0 100 100" xmlns="http://www.w3.org/2000/svg"><g id="Scene 1_12.0"><path fill="#22AAE8" d="M86.6,29.4Q86.6,27.6 86.2,25.95 85.45,22.9 83.5,21.65 81.55,20.4 79.1,20.9 77.85,21.2 76.7,21.7 75.8,22 76.05,22.45 76.3,22.7 76.75,23.65 77.2,24.55 77.3,24.85 77.55,25.55 78.6,25.45 78.85,25.35 79.9,25.1 80.85,24.95 81.5,25.5 82.2,26 82.35,27.5 82.45,28.3 82.45,29.2 82.45,30.1 83.55,30.1L85.95,30.2Q86.6,30.2 86.6,29.4"/><path fill="#22AAE8" d="M82.95,34.15L85.05,34.15Q86.2,32.25 85.5,32.2L83.1,31.85Q82.65,31.8 82.15,31.95 81.4,32.25 81.35,32.8 81.25,34.15 82.95,34.15"/><path fill="#22AAE8" d="M84.25,36.4Q82.55,35.85 81.85,35.5 81.4,35.25 80.75,35.5 80.3,35.65 80.05,35.9 79.85,36.15 79.8,36.6 79.65,37.2 80.15,37.55 80.8,38.15 83.1,38.6 83.25,38.65 84.25,36.4"/><path fill="#22AAE8" d="M81.55,41.15Q82.35,39.9 82.2,39.8 81.6,39.4 80.4,39.1 79.15,38.75 78.5,39 77.95,39.15 77.7,39.85 77.5,40.5 77.9,40.65L80.55,42.35Q80.7,42.4 81.55,41.15"/><path fill="#22AAE8" d="M74.25,22.8Q74.05,22.15 72.4,23.65L72.8,25.7Q72.9,26.4 73.35,26.8 73.8,27.25 74.4,27.05 75,26.85 75.1,26.1 75.2,25.5 75.05,25.15L74.25,22.8"/><path fill="#22AAE8" d="M42.5,46.7Q42.75,47 43.05,47L45.7,47.5Q46.35,47.75 46.2,46.75 46.45,45.5 46.35,44.25 46.15,41.7 44.45,40.2 42.7,38.65 39.5,38.8 37.75,38.85 36.05,39.4 35.5,39.55 35.5,40.2L36.2,42.55Q36.55,43.55 37.4,43.35 38.95,42.95 39.05,42.95 40.55,42.7 41.2,43.15 41.95,43.6 42.1,44.65 42.2,45.15 42.15,45.95 42.2,46.35 42.5,46.7"/><path fill="#22AAE8" d="M41.05,49.05Q41.3,48.55 41.15,48.25 40.55,46.55 39.95,46.55 39.75,46.55 39.5,46.95 39.3,47.4 39.45,47.75 39.6,48.15 40.1,48.75 40.6,49.45 40.7,49.45 40.9,49.45 41.05,49.05"/><path fill="#22AAE8" d="M45.85,49.4L43.45,49.3Q43,49.25 42.4,49.5 41.75,49.8 41.75,50.45 41.75,51.75 43.5,51.65L45.55,51.4Q46.55,49.4 45.85,49.4"/><path fill="#22AAE8" d="M55.4,45.55Q54.2,47.15 54.2,47.4 57.05,49.55 57.85,48.75 58.65,47.9 55.4,45.55"/><path fill="#22AAE8" d="M60,45.9Q60.55,45.3 60.55,44.9 60.55,44.6 60.2,44.25L58.05,42.5Q56.35,44.6 56.2,44.65 56.2,44.7 56.85,45 57.6,45.4 57.8,45.65 59.15,46.95 60,45.9"/><path fill="#22AAE8" d="M60.5,36.45Q59.75,37.65 59.75,37.85 59.75,37.95 61.3,38.25 62.85,38.6 63.25,38.6 63.7,38.55 64.3,37.65 64.85,36.8 64.4,36.6L61.35,35.35Q61.2,35.25 60.5,36.45"/><path fill="#22AAE8" d="M76.7,26.95Q76.35,26.9 75.95,27.3 75.6,27.6 75.65,27.8 75.8,28.1 77.6,28.5 78,28.6 78.35,28.25 78.7,27.9 78.65,27.65 78.5,27.2 76.7,26.95"/><path fill="#22AAE8" d="M76.3,30.35Q76.65,29.95 76.45,29.8 76.3,29.6 75.15,29.4 73.95,29.15 73.8,29.2 72.5,30.05 72.5,30.3 72.5,30.45 73.6,30.8 74.8,31.15 75.4,31 75.95,30.8 76.3,30.35"/><path fill="#22AAE8" d="M80.6,29.5Q80.25,28.8 79.95,28.75 79.65,28.75 79.45,29.15 79.15,29.55 79.3,29.9 79.45,30.3 79.85,31 80.25,31.7 80.35,31.7 80.55,31.8 80.75,31.3 81.05,30.9 81,30.6 80.85,30.05 80.6,29.5"/><path fill="#22AAE8" d="M71.6,28.85Q71.85,28.6 71.9,28.1 72,27.45 71.65,27.05L70.3,24.85Q68.35,26.25 68.4,26.35 69.25,28.5 69.95,29.1 70.75,29.7 71.6,28.85"/><path fill="#22AAE8" d="M75.5,35.1Q75.05,35.6 75.2,36.2 75.4,36.75 75.9,37.85 76.45,39 76.6,39.05 76.75,39.15 77.2,38.45 77.65,37.8 77.6,37.5 77.4,36.8 77.15,36.25 76.75,35.15 76.3,34.85 75.95,34.65 75.5,35.1"/><path fill="#22AAE8" d="M72.25,33.75Q72.8,33.8 73.2,33.2 73.6,32.65 73.3,32.4 72.55,31.6 70.45,31.6 70.25,31.55 69.65,32.1 69.05,32.7 69.15,32.8 69.2,33 70.45,33.3 71.55,33.6 72.25,33.75"/><path fill="#22AAE8" d="M79.3,33.85Q79.4,33.6 78.9,32.5 78.45,31.45 78.3,31.3 78.1,31.15 77.7,31.55 77.3,31.95 77.25,32.5 77.15,33.45 78.45,35.25 78.65,35.2 79.3,33.85"/><path fill="#22AAE8" d="M68.85,30.9Q68.95,30.3 68.4,29.1 67.9,27.95 67.35,27.5 67.15,27.2 65.15,29.55 65.25,29.7 67.3,31.85 67.6,32.2 68.15,31.9 68.8,31.55 68.85,30.9"/><path fill="#22AAE8" d="M63.2,34.25Q64,34.95 64.35,35 65.65,35.15 66.2,34.35 66.75,33.75 66.1,32.9 64,31.15 63.8,31.05L62.45,33.4Q62.45,33.55 63.2,34.25"/><path fill="#22AAE8" d="M70.75,34.65Q70.75,34.6 70,34.4L68.05,33.95Q66.75,35.5 67.3,35.8 68,36.05 68.95,36.15 70.25,36.15 70.75,35.5 71.25,34.85 70.75,34.65"/><path fill="#22AAE8" d="M65.8,37.65Q64.3,38.25 65.1,39 66.6,40.15 68.25,37.75 67.35,37.05 65.8,37.65"/><path fill="#22AAE8" d="M61.4,48.9Q61.65,48.45 61.25,48.25 60.8,48.05 60.55,48.45 60.35,48.9 60.75,49.05 61.05,49.35 61.4,48.9"/><path fill="#22AAE8" d="M65.35,48.25Q64.6,47.85 64.2,48.55 63.8,49.3 64.55,49.7 65.2,50.1 65.65,49.4 66.05,48.65 65.35,48.25"/><path fill="#22AAE8" d="M61.6,46.35Q61.2,47.05 61.9,47.45 62.6,47.85 63,47.15 63.4,46.45 62.75,46.05 62.05,45.65 61.6,46.35"/><path fill="#22AAE8" d="M74.05,41.35Q74.4,41.9 75.7,40.3L74.85,38.45Q74.7,38 74.5,37.8 74.2,37.35 73.65,37.95 73.15,38.6 73.45,39.85 73.65,40.8 74.05,41.35"/><path fill="#22AAE8" d="M72.45,43.15Q72.75,41.55 71.95,40.8 69.9,42.9 71.3,44.15 72.15,44.8 72.45,43.15"/><path fill="#22AAE8" d="M72.05,45.9Q72.1,46.3 72.7,47.75 73.3,49.25 73.45,49.15 75.7,47.35 75.55,47.15 74.5,45.35 73.8,44.4 73.45,44 72.75,44.75 72,45.45 72.05,45.9"/><path fill="#22AAE8" d="M76.3,45.15Q77.1,45.8 77.25,45.75L79.3,43.95Q78.1,42.7 77.05,42.1 76.2,41.5 75.6,42.2 74.9,42.95 75.4,44.15 75.5,44.5 76.3,45.15"/><path fill="#22AAE8" d="M28.5,48.05Q27.9,46.95 27.4,46.5 27.2,46.35 26.15,47.5 25.2,48.7 25.3,48.85 25.45,49 27.7,50.9 28.05,51.25 28.6,50.85 29.15,50.45 29.15,49.8 29.15,49.15 28.5,48.05"/><path fill="#22AAE8" d="M28.25,45.3Q28.4,45.7 28.9,46.55 29.6,47.55 30.05,47.9 30.5,48.2 31.1,47.95 31.55,47.75 31.65,47.45 31.85,47.25 31.9,46.7 31.9,46.05 31.55,45.7L29.95,43.6Q29.3,44.15 28.9,44.5 28.2,45.15 28.25,45.3"/><path fill="#22AAE8" d="M32.7,41.4Q31.9,41.95 31.95,42.25L32.55,44.2Q33.05,45.9 34.3,45.4 34.8,45.15 34.85,44.4 34.95,43.8 34.7,43.4 34.2,42.65 33.75,41.2 33.55,40.8 32.7,41.4"/><path fill="#22AAE8" d="M33.85,47.65Q32.7,48.55 32.7,48.85 34.8,49.55 35.65,49.25 36.25,49 36.55,48.5 36.75,48.1 36.6,47.85 36.4,47.75 35.2,47.65 34,47.5 33.85,47.65"/><path fill="#22AAE8" d="M38.35,46.2Q38.65,45.85 38.55,45.55 38.35,45.1 36.55,45.1 36.2,45.1 35.85,45.5 35.5,45.85 35.55,46.05 35.8,46.3 37.6,46.55 38,46.55 38.35,46.2"/><path fill="#22AAE8" d="M39.85,51.7Q39.9,51.45 39.35,50.35 38.8,49.35 38.6,49.25 38.35,49.1 38,49.5 37.65,49.95 37.65,50.6 37.65,51.15 38.35,52.25 39,53.25 39.15,53.2 39.4,53.1 39.85,51.7"/><path fill="#22AAE8" d="M38.5,55.5Q37.8,53.4 36.95,52.95 36.6,52.8 36.2,53.35 35.75,53.85 35.95,54.4 36.25,55 36.85,56.05 37.5,57.05 37.65,57.1 37.85,57.2 38.25,56.45 38.6,55.75 38.5,55.5"/><path fill="#22AAE8" d="M31.45,54.15Q31.9,53.5 31.4,53.3 30.75,53.25 30.65,53.2 29.1,52.8 28.7,52.9 27.5,54.55 28.1,54.8 28.8,55 29.8,54.95 31,54.85 31.45,54.15"/><path fill="#22AAE8" d="M32.75,52.25Q33.35,52.25 33.65,51.65 34,51.05 33.75,50.85 33.15,50.3 30.8,50.3 30.6,50.3 30,50.95 29.5,51.6 29.6,51.7 30,52.1 32.75,52.25"/><path fill="#22AAE8" d="M33.95,61.65Q34.15,60 33.2,59.35 31.3,61.6 32.95,62.75 33.85,63.35 33.95,61.65"/><path fill="#22AAE8" d="M34.65,56.3Q34.2,57 34.6,58.2 34.85,59.15 35.35,59.65 35.8,60.15 36.85,58.45 36.75,58.05 35.9,56.7 35.25,55.4 34.65,56.3"/><path fill="#22AAE8" d="M38.4,60.1Q37.55,59.6 37,60.35 36.4,61.2 37,62.35 37.15,62.65 38,63.2 38.8,63.75 39,63.7L40.9,61.7Q39.4,60.5 38.4,60.1"/><path fill="#22AAE8" d="M39.55,56.85Q39.05,57.05 38.9,57.75 38.7,58.45 39.1,58.6 39.7,58.8 41.9,60.05 43.6,57.45 43.3,57.3 42.7,56.95 41.45,56.8 40.15,56.6 39.55,56.85"/><path fill="#22AAE8" d="M26.85,53.45Q27.4,52.7 26.6,52.1 25.85,51.35 24.15,50.45 23.05,52.7 23.05,52.9 23.05,53.05 23.85,53.7 24.7,54.25 25.05,54.25 26.3,54.4 26.85,53.45"/><path fill="#22AAE8" d="M20.8,57.6Q20.8,57.7 22.35,57.85 23.9,58.05 24.35,58 24.8,57.85 25.25,57 25.7,56.05 25.25,55.85L22.1,54.95Q21.95,54.9 21.35,56.15 20.8,57.4 20.8,57.6"/><path fill="#22AAE8" d="M29.2,56.65Q28.3,56.05 26.8,56.85 25.25,57.6 26.15,58.2 27.85,59.2 29.2,56.65"/><path fill="#22AAE8" d="M26.8,66.95Q26.25,66.4 25.6,66.95 25.1,67.6 25.6,68.15 26.25,68.7 26.8,68.15 27.4,67.6 26.8,66.95"/><path fill="#22AAE8" d="M22,64.7Q22,64.35 21.6,64.05L19.3,62.5Q17.75,64.8 17.7,64.85 17.65,64.9 18.3,65.15 19.1,65.4 19.35,65.65 20.8,66.8 21.55,65.75 22.05,65.1 22,64.7"/><path fill="#22AAE8" d="M22.75,65.1Q22.5,65.3 22.5,65.65 22.5,66 22.75,66.2 23.35,66.85 23.95,66.2 24.5,65.65 23.95,65 23.3,64.5 22.75,65.1"/><path fill="#22AAE8" d="M22.55,68Q22.9,67.65 22.55,67.3 22.25,66.95 21.9,67.3 21.6,67.7 21.9,68 22.25,68.35 22.55,68"/><path fill="#22AAE8" d="M25.1,69.7Q25.35,69.3 25.1,69.05 24.7,68.75 24.4,69.05 24.05,69.35 24.4,69.7 24.75,70.05 25.1,69.7"/><path fill="#22AAE8" d="M23.85,70.85Q23.45,70.55 23.15,70.9 22.95,71.05 22.95,71.25 22.95,71.5 23.15,71.6 23.5,71.95 23.85,71.6 24.1,71.25 23.85,70.85"/><path fill="#22AAE8" d="M21.3,69.2Q20.9,68.8 20.65,69.2 20.45,69.3 20.45,69.55 20.45,69.75 20.65,69.9 20.9,70.3 21.3,69.9 21.65,69.55 21.3,69.2"/><path fill="#22AAE8" d="M21.3,72.55Q20.8,73.2 21.35,73.7 21.95,74.3 22.45,73.7 23.1,73.1 22.45,72.55 22,72 21.3,72.55"/><path fill="#22AAE8" d="M20.35,72.3Q20.95,71.65 20.35,71.15 19.9,70.55 19.2,71.15 18.7,71.75 19.25,72.3 19.8,72.85 20.35,72.3"/><path fill="#22AAE8" d="M29.25,73.85Q26.1,71.35 25.55,72.4 24.95,73.35 27.85,75.5 28,75.5 29.25,73.85"/><path fill="#22AAE8" d="M27.65,69.6Q26.9,70.65 28.5,71.55 29.1,71.9 29.9,72.8 31.4,70.75 31.5,70.45L29.2,68.85Q28.75,68.6 28.5,68.75 28.1,68.85 27.65,69.6"/><path fill="#22AAE8" d="M34.65,66.15Q35.4,67.55 35.5,67.5 37.6,65.5 37.45,65.3 36.2,63.55 35.4,62.75 35.05,62.4 34.35,63.2 33.75,63.95 33.85,64.4 33.9,64.8 34.65,66.15"/><path fill="#22AAE8" d="M16.4,66.85Q15.95,67.65 16,67.75 19,69.65 19.7,68.75 20.45,67.8 16.95,65.9 16.8,66.1 16.4,66.85"/><path fill="#22AAE8" d="M17.15,69.55Q16.35,69.25 15.4,69.15L15,70.8Q18.35,72 18.7,70.8 18.85,70.05 17.15,69.55"/><path fill="#22AAE8" d="M18.2,72.4Q17.95,72.45 16.35,72.45 14.9,72.4 14.85,72.5 14.7,75.95 17.9,78.1 19.95,79.5 22.3,79.15 24.25,78.9 24.25,78.3 24.15,77.85 22.8,75.1 20.5,75.25 19.55,74.65 18.55,73.95 18.2,72.4"/><path fill="#22AAE8" d="M25.35,77.5L26.8,76.5Q25.05,73.35 24.05,74.1 23.05,74.85 25.35,77.5"/><path fill="#22AAE8" d="M66.95,50.2Q66.55,49.9 66.3,49.95 65.95,50.05 65.35,50.7 64.55,51.75 66.05,52.8 66.55,53.2 67.25,54.2 68.95,52.25 69.1,52 67.4,50.5 66.95,50.2"/><path fill="#22AAE8" d="M63.75,50.85Q64,50.45 63.55,50.2 63.15,49.9 62.9,50.35 62.7,50.85 63.1,51 63.4,51.3 63.75,50.85"/><path fill="#22AAE8" d="M62.1,51.9Q61.7,51.7 61.4,52.1 61.2,52.55 61.65,52.8 62.05,53 62.35,52.6 62.55,52.15 62.1,51.9"/><path fill="#22AAE8" d="M60.8,54.5Q60.95,54.2 60.9,53.85 60.8,53.5 60.5,53.4 60.2,53.25 59.95,53.3 59.6,53.4 59.4,53.7 59.05,54.3 59.7,54.8 60,54.95 60.35,54.85 60.65,54.8 60.8,54.5"/><path fill="#22AAE8" d="M62.35,58.4L63.8,57.55Q62.4,54.25 61.3,54.9 60.25,55.5 62.35,58.4"/><path fill="#22AAE8" d="M64.95,56.6Q65.1,56.65 65.75,56 66.35,55.4 66.5,55.1 63.65,52.4 62.95,53.3 62.3,54.25 64.95,56.6"/><path fill="#22AAE8" d="M59.15,50.15Q58.8,50.6 59.3,50.85 59.7,51.05 60,50.65 60.2,50.15 59.75,49.95 59.3,49.75 59.15,50.15"/><path fill="#22AAE8" d="M57.35,52.65Q57.45,53 57.75,53.1 58.45,53.5 58.85,52.85 59.25,52.15 58.55,51.75 57.95,51.4 57.45,52.05 57.3,52.3 57.35,52.65"/><path fill="#22AAE8" d="M57.4,55.1Q56.5,54.4 56,52.1 53,51.6 52.55,51.7 52,51.85 52.25,53.8 52.55,56.1 54.5,57.7 57.45,60.15 60.75,59.05 60.8,59 60.4,57.6 59.95,56.1 59.95,55.75 58.35,55.85 57.4,55.1"/><path fill="#22AAE8" d="M53,50.3Q56.15,51.8 56.6,50.65 57,49.5 53.6,48.65L53,50.3"/><path fill="#22AAE8" d="M42.55,53.05Q42,52.9 41.45,53.2 40.95,53.4 40.8,53.65 40.6,53.9 40.6,54.4 40.55,54.95 41,55.3 41.45,55.65 42.7,55.8 43.6,56 44.1,56 44.25,56.05 45,53.75 43.3,53.35 42.55,53.05"/></g><defs/></svg>