<?xml version="1.0" encoding="utf-8"?><svg xmlns:xlink="http://www.w3.org/1999/xlink" id="Scene_1" image-rendering="auto" baseProfile="basic" version="1.1" x="0px" y="0px" width="100" height="100" viewBox="0 0 100 100" xmlns="http://www.w3.org/2000/svg"><g id="Scene 1_33.0"><path fill="#22AAE8" fill-opacity="0.996" d="M49.9,33.3Q46.35,33.3 42.75,33.3 39.85,33.25 37,33.4 36.9,33.4 36.7,33.45 34.8,34 34.45,36.15L34.4,36.15Q34.4,36.3 34.4,36.45L34.4,36.5Q34.4,37.7 34.4,38.9L34.4,38.95Q37.95,38.95 41.55,38.95 45.15,38.95 48.7,38.95 52.3,38.95 55.85,38.95 59.45,38.95 63,38.95 65.65,38.95 68.2,38.95 68.3,37.05 68,35.5 67.95,35.25 67.85,35.05 67,33.2 64.2,33.25 60.65,33.3 57.05,33.3 53.45,33.3 49.9,33.3"/><path fill="#22AAE8" fill-opacity="0.996" d="M50.2,40.7Q46.6,40.7 43,40.7 39.45,40.7 35.9,40.7 35.9,42.3 35.9,43.85 34.15,44.8 32.75,46.1 30.95,47.85 30.4,50.85 30.4,51.6 30.4,52.3 30.4,55.9 30.4,59.5 30.4,63.05 30.3,66.6 30.3,68.55 30.75,69.9 31.7,72.5 33.7,74.1 34.7,74.9 35.85,75.55 38.1,76.85 41.75,76.85 45.35,76.8 48.9,76.8 52.5,76.8 56.05,76.8 57.85,76.8 59.65,76.85 63,77 65.25,76.15 67.85,75.15 69.65,73.4 70.1,72.95 70.5,72.5 72.25,70.6 72.25,67 72.2,63.4 72.2,59.85 72.2,56.25 72.25,52.7 72.25,51.5 72.1,50.55 71.75,48.45 70.65,47.1 69.1,45.1 66.75,43.85L66.75,43.8Q66.75,42.25 66.75,40.7 65.65,40.7 64.5,40.7 60.9,40.7 57.35,40.7 53.75,40.7 50.2,40.7 M34.6,52.9Q38.15,52.9 41.75,52.9 45.35,52.9 48.9,52.9 52.5,52.9 56.05,52.9 59.65,52.9 63.2,52.9 65.65,52.9 68,52.9 68,56.45 68,60.05 68,63.6 68,67.2 68,67.65 68,68.15 65.65,68.15 63.2,68.15 59.65,68.15 56.05,68.15 52.5,68.15 48.9,68.15 45.35,68.15 41.75,68.15 38.15,68.15 34.6,68.15 34.6,67.65 34.6,67.2 34.6,63.6 34.6,60.05 34.6,56.45 34.6,52.9"/></g><defs/></svg>