<?xml version="1.0" encoding="utf-8"?><svg xmlns:xlink="http://www.w3.org/1999/xlink" id="Scene_1" image-rendering="auto" baseProfile="basic" version="1.1" x="0px" y="0px" width="100" height="100" viewBox="0 0 100 100" xmlns="http://www.w3.org/2000/svg"><g id="Scene 1_38.0"><path fill="#22AAE8" d="M51.6,30.55Q65.2,38.3 68.15,48.5 69.95,54.85 69.55,62.8 69.35,66.7 68.85,69.35 74.65,61.2 76.3,50.75 79.65,29.8 58.8,18.55 54.2,16.1 50.55,16.6 47.45,17.1 46.2,19.65 45,22.15 46.25,25.1 47.7,28.4 51.6,30.55"/><path fill="#22AAE8" d="M62.25,44Q57.35,37.55 50.4,37.55 43.5,37.55 38.65,44 33.75,50.4 33.75,59.55 33.75,68 39.85,75.05 45.35,81.4 50.4,81.4 55.8,81.4 61.25,75.05 67.15,68.1 67.15,59.55 67.15,50.4 62.25,44 M38.6,54.05Q40.15,52.55 42.35,52.55 44.5,52.55 46.1,54.05 47.65,55.65 47.65,57.85 47.65,60 46.1,61.6 44.5,63.15 42.35,63.15 40.15,63.15 38.6,61.6 37.05,60 37.05,57.85 37.05,55.65 38.6,54.05 M61.45,61.6Q59.85,63.15 57.7,63.15 55.5,63.15 53.9,61.6 52.35,60 52.35,57.85 52.35,55.65 53.9,54.05 55.5,52.55 57.7,52.55 59.85,52.55 61.45,54.05 63,55.65 63,57.85 63,60 61.45,61.6 M45.8,71.15Q45.95,71.1 47.5,69.85 48.5,69 50,69.7 51.45,69 52.55,69.85 54.15,71.1 54.25,71.15 53.9,71.3 52.75,72.8 51.4,74.25 50,74.25 48.55,74.25 47.3,72.8 46.1,71.3 45.8,71.15"/><path fill="#22AAE8" d="M43.35,34.25Q46.5,32.2 48,31.35 43.15,30.05 40.1,26.3 38.65,24.45 38.1,22.85 31.3,26.95 27.2,34.75 19.1,50.3 32.8,68.75 30.1,53.3 33.9,44.95 36.95,38.35 43.35,34.25"/></g><g id="Scene 1_37.0"><path fill="#22AAE8" d="M39.1,57Q39.05,57.1 39.1,57.3L39.2,57.75 39.5,58.15Q39.85,58.75 40.55,58.95L41.9,59.3Q42.4,59.35 43.35,59.2L44.5,58.95 45.6,58.55 44.45,58.55Q42.6,58.55 42.05,58.45L40.85,58.15Q40.05,57.85 39.9,57.7 39.45,57.35 39.1,57"/><path fill="#22AAE8" d="M60.9,57.3Q60.95,57.1 60.9,57 60.6,57.35 60.1,57.7 59.95,57.85 59.15,58.15L58,58.45Q57.4,58.55 55.55,58.55L54.45,58.55 55.5,58.95 56.65,59.2Q57.6,59.35 58.1,59.3L59.5,58.95Q60.2,58.75 60.55,58.15L60.8,57.75 60.9,57.3"/></g><defs/></svg>