<?xml version="1.0" encoding="utf-8"?><svg xmlns:xlink="http://www.w3.org/1999/xlink" id="Scene_1" image-rendering="auto" baseProfile="basic" version="1.1" x="0px" y="0px" width="100" height="100" viewBox="0 0 100 100" xmlns="http://www.w3.org/2000/svg"><g id="Scene 1_31.0"><path fill="#22AAE8" d="M96.85,45.65Q95.95,39.55 91.35,39.2 88.1,38.95 62.7,43.85 62.9,41.6 62.6,39.35 61.95,34.2 58.05,33.75 55.15,33.45 31.2,37.5 19.95,39.35 9.15,41.35L8.95,41.3 8.7,41.3Q5.85,41.25 3.7,43.5 2.1,45.3 1.45,48.05 0.55,53.3 3.2,56.5 4.4,57.85 6,58.5 6.9,58.85 8.65,59 9.85,59 10.2,58.9L10.8,58.85 10.8,58.8Q17.55,58.2 25.7,56.95 25.65,57.2 25.55,57.5 25,60.2 25.55,62.85 26.15,65.45 27.7,67.15 29.05,68.75 31.05,69.5 32.35,69.95 34,69.95L34.9,69.95Q35,69.95 35.15,69.95L36.45,69.85Q46.1,68.75 57.95,66.4 83.6,61.45 96,54.25 96.75,53.85 89.9,55.85 80.05,58.7 73.1,60.15 57.8,63.4 39.45,66 38.6,67.6 37.75,68.25 37,68.9 36.4,69.3L35.9,69.25Q35.5,69.3 34.1,69.15 32.45,68.8 31.45,68.3 29.95,67.6 28.95,66.15 27.9,64.6 27.55,62.5 27.25,60.5 27.85,58 28.5,55.55 29.95,53.9 31.65,51.9 33.7,51.85 35.45,51.55 36.5,54.35 37.45,56.55 37.3,59.15 37.25,60.2 36.8,61.2 36.4,62.3 35.8,62.5L35.65,62.5 35.4,62.55 34,62.5Q32.95,62.3 32.45,61.8 31.2,60.85 31.45,59.05 31.6,57.55 32.5,56.85 33,56.55 33.8,56.85L34.3,57.3 34.65,56.85Q34.6,56.7 34.2,56.4 33.95,56.1 33.35,56 32.75,55.75 32,56.1 30.8,56.8 30.3,58.85 29.7,61.2 31.35,62.95 32.35,63.8 33.65,64.1L34.9,64.3 35.9,64.3 36.1,64.25Q37.75,64.45 42.75,63.85 52.7,62.85 69.15,59.4 81.6,56.8 90.5,54 94.95,52.6 96.85,51.7 97.35,48.75 96.85,45.65 M10,44.1Q10.6,44.65 10.95,45.65 11.65,47.55 11.45,49.65 11.45,50.6 11.1,51.45 10.7,52.35 10.2,52.4L10.15,52.45 8.8,52.4Q8.05,52.35 7.5,51.85 6.55,51.05 6.7,49.55 6.9,48.2 7.65,47.75 8.05,47.4 8.7,47.75L9,48.1 9.45,47.7 9,47.25Q8.7,46.95 8.35,46.85 7.7,46.75 7.15,47 5.95,47.6 5.55,49.3 5.1,51.45 6.45,52.9 7.3,53.7 8.4,54L9.45,54.2 10.35,54.2 10.7,54.05Q10.8,54.05 10.85,54.05 12.4,54.2 16.15,53.85 21.1,53.45 27.85,52.45 27.35,53.05 26.9,53.75 19.4,54.9 13.3,55.6 12.6,56.95 11.95,57.5 11.3,58 10.8,58.3L10.2,58.3 8.7,58.05Q7.2,57.7 6.55,57.35 5.25,56.7 4.5,55.5 3.65,54.2 3.4,52.35 3.2,50.6 3.75,48.6 4.35,46.75 5.6,45.25 7.05,43.65 8.8,43.6 9.45,43.6 10,44.1"/></g><defs/></svg>