<?xml version="1.0" encoding="utf-8"?><svg xmlns:xlink="http://www.w3.org/1999/xlink" id="Scene_1" image-rendering="auto" baseProfile="basic" version="1.1" x="0px" y="0px" width="100" height="100" viewBox="0 0 100 100" xmlns="http://www.w3.org/2000/svg"><g id="Scene 1_27.0"><path fill="#22AAE8" d="M89.75,55.6Q88.75,54.9 87.65,54.85 86.65,54.8 85.15,54.75 84.25,54.75 83.6,54.75L83.6,54.7 30.3,54.7Q19.15,54.7 13.55,54.7 12.45,54.7 11.6,54.85 10.4,55 9.7,55.5 8.85,56.05 8.55,57.15L8.55,57.9Q8.65,57.95 8.8,57.95 8.95,57.95 9.05,57.95L75.5,57.95Q75.55,57.95 75.65,57.95 75.75,57.95 75.8,57.95 75.85,57.95 79.75,58 83.65,58 83.65,57.95 85.95,57.95 90.5,57.95 90.65,57.95 90.7,57.85L90.7,57.65Q90.75,56.4 89.75,55.6"/><path fill="#22AAE8" d="M87.25,58.85Q87.3,58.8 87.3,58.7 73.1,58.8 57.1,58.85 25.15,58.9 11.95,58.65L12.05,58.95Q13.1,61.7 15.05,67.1 15.7,68.8 16.2,69.9 16.9,71.45 17.65,72.6 18.8,74.4 20.15,75.65 21.65,76.95 23.45,77.7L24.1,77.9 22.95,82.1Q23.35,82.1 24.1,82.1 24.75,82.1 25.2,82.1 25.45,82.15 25.65,82.05 25.75,81.95 25.9,81.65 26.15,81 26.55,80.1 26.95,79.05 27.2,78.5 27.75,78.6 28.85,78.7 29.9,78.85 30.55,78.9 31.8,78.95 34.25,79.2 36.4,79.4 37.95,79.45 42.25,79.65 46.8,79.65 53.45,79.65 58.7,79.55 60.45,79.5 62.65,79.35 63.6,79.3 66.65,79.1 67.75,79 69.25,78.85 70.15,78.75 71.85,78.55 72,78.5 72.1,78.6 72.15,78.65 72.2,78.75L72.85,80.3Q73.2,81.2 73.45,81.85 73.55,82 73.65,82.05 73.75,82.1 73.9,82.1 74.35,82.1 74.95,82.1 75.3,82.1 76,82.1 76.05,82.1 76.3,82.1L75.2,77.95Q75.4,77.85 75.45,77.85 77.9,76.95 79.8,74.95 81,73.7 82,72.1 82.8,70.65 83.55,68.85 84.3,66.85 85.4,63.9 86,62.2 87.25,58.85"/><path fill="#22AAE8" d="M47.5,42.1Q47,42.1 46.65,42.4 46.3,42.8 46.3,43.25 46.3,43.75 46.65,44.15 47,44.5 47.5,44.5 48,44.5 48.35,44.15 48.7,43.75 48.7,43.25 48.7,42.8 48.35,42.4 48,42.1 47.5,42.1"/><path fill="#22AAE8" d="M45,48.05Q44.2,48.05 43.6,48.6 43.05,49.15 43.05,50 43.05,50.75 43.6,51.35 44.2,51.9 45,51.9 45.8,51.9 46.35,51.35 46.9,50.75 46.9,50 46.9,49.15 46.35,48.6 45.8,48.05 45,48.05"/><path fill="#22AAE8" d="M40.65,48.5Q41.15,48.5 41.5,48.15 41.85,47.8 41.85,47.3 41.85,46.8 41.5,46.4 41.15,46.1 40.65,46.1 40.15,46.1 39.8,46.4 39.45,46.8 39.45,47.3 39.45,47.8 39.8,48.15 40.15,48.5 40.65,48.5"/><path fill="#22AAE8" d="M56.9,39.75Q56.55,39.75 56.35,39.95 56.1,40.2 56.1,40.55 56.1,40.85 56.35,41.1 56.55,41.3 56.9,41.3 57.2,41.3 57.45,41.1 57.7,40.85 57.7,40.55 57.7,40.2 57.45,39.95 57.2,39.75 56.9,39.75"/><path fill="#22AAE8" d="M52.7,47.15Q53.5,47.15 54.1,46.6 54.65,46.05 54.65,45.2 54.65,44.4 54.1,43.85 53.5,43.25 52.7,43.25 51.9,43.25 51.35,43.85 50.8,44.4 50.8,45.2 50.8,46.05 51.35,46.6 51.9,47.15 52.7,47.15"/><path fill="#22AAE8" d="M58.1,49.25Q58.6,49.25 58.95,48.9 59.3,48.55 59.3,48.05 59.3,47.5 58.95,47.2 58.6,46.8 58.1,46.8 57.6,46.8 57.25,47.2 56.9,47.5 56.9,48.05 56.9,48.55 57.25,48.9 57.6,49.25 58.1,49.25"/><path fill="#22AAE8" d="M61.75,46.05Q61.45,46.05 61.2,46.3 60.95,46.5 60.95,46.8 60.95,47.15 61.2,47.4 61.45,47.6 61.75,47.6 62.1,47.6 62.3,47.4 62.55,47.15 62.55,46.8 62.55,46.5 62.3,46.3 62.1,46.05 61.75,46.05"/><path fill="#22AAE8" d="M64.9,48.75Q64.4,48.75 64,49.15 63.7,49.45 63.7,50 63.7,50.45 64,50.8 64.4,51.15 64.9,51.15 65.35,51.15 65.75,50.8 66.05,50.45 66.05,50 66.05,49.45 65.75,49.15 65.35,48.75 64.9,48.75"/><path fill="#22AAE8" d="M36,48.25Q35.75,48.05 35.4,48.05 35.1,48.05 34.9,48.25 34.65,48.5 34.65,48.8 34.65,49.15 34.9,49.4 35.1,49.6 35.4,49.6 35.75,49.6 36,49.4 36.2,49.15 36.2,48.8 36.2,48.5 36,48.25"/><path fill="#22AAE8" d="M51.15,50.75Q51.15,51.05 51.4,51.3 51.6,51.55 51.9,51.55 52.25,51.55 52.5,51.3 52.7,51.05 52.7,50.75 52.7,50.45 52.5,50.2 52.25,50 51.9,50 51.6,50 51.4,50.2 51.15,50.45 51.15,50.75"/></g><defs/></svg>