<?xml version="1.0" encoding="utf-8"?><svg xmlns:xlink="http://www.w3.org/1999/xlink" id="Scene_1" image-rendering="auto" baseProfile="basic" version="1.1" x="0px" y="0px" width="100" height="100" viewBox="0 0 100 100" xmlns="http://www.w3.org/2000/svg"><g id="Scene 1_29.0"><path fill="#22AAE8" d="M52.95,34.35Q52.95,30.45 51.95,27.75 50.95,25 49.5,25 48.1,25 47.1,27.75 46.1,30.45 46.1,34.35 46.1,36.85 46.5,39 47,41.1 47.7,42.35 47.4,41.1 47.4,39.7 47.4,37.7 48,36.25 48.65,34.85 49.5,34.85 50.35,34.85 51,36.25 51.6,37.7 51.6,39.7 51.6,41.1 51.3,42.35 52.05,41.1 52.55,39 52.95,36.85 52.95,34.35"/><path fill="#22AAE8" d="M43,41.15Q42.5,40.25 42.2,39.15 37.5,39.6 34.25,40.55 30.95,41.45 29.9,42.65 29.5,43.05 29.5,43.4L29.5,67.75Q29.5,69.2 35.35,70.25 41.25,71.25 49.5,71.25 57.8,71.25 63.65,70.25 69.55,69.2 69.55,67.75L69.55,43.4Q69.55,43 69.1,42.65 68.1,41.45 64.8,40.55 61.55,39.6 56.8,39.15 56.6,40.25 56,41.15 60.3,41.45 62.9,42.1 65.55,42.85 65.55,43.65 65.55,44.8 60.85,45.6 56.15,46.4 49.5,46.4 42.9,46.4 38.2,45.6 33.5,44.8 33.5,43.65 33.5,42.85 36.15,42.1 38.75,41.45 43,41.15"/></g><defs/></svg>