<?xml version="1.0" encoding="utf-8"?><svg xmlns:xlink="http://www.w3.org/1999/xlink" id="Scene_1" image-rendering="auto" baseProfile="basic" version="1.1" x="0px" y="0px" width="100" height="100" viewBox="0 0 100 100" xmlns="http://www.w3.org/2000/svg"><g id="Scene 1_39.0"><path fill="#22AAE8" d="M47.4,42.85Q53.9,42.65 60.55,43.25L54.85,48Q54.05,48.75 48.2,53.25 53.5,53.55 59.45,52.95L73.75,36.25 76.05,35.7Q77.75,35.2 77.4,33.5 77.25,32.7 76.75,31.95 75,30.1 73.9,30.4L73.1,31.1 71.65,33.85 62.55,41.5Q56.25,40.75 47.55,40.8 37.05,41.1 29.95,43.25 22.75,45.45 22.75,48.4 22.3,52.2 23.9,57 27.1,66.6 37.4,71.45L37.45,71.8Q37.4,72.3 37.1,72.8 37,72.9 36,73.25 35.05,73.55 35.05,73.85 35.05,75.85 49,75.85 63.15,75.85 63.15,73.85 63.15,73.55 62.8,73.25 62.35,72.8 62.3,72.8 62.05,72.3 62.55,71.8 62.8,71.6 63.1,71.45 72.65,67 76.2,58.35 78.15,53.45 77.85,48.75L77.9,48.4Q77.9,46.25 73.85,44.4 72.65,43.55 69,42.65L67.65,44.25Q70.6,44.85 72.35,45.7 75.6,47.05 75.6,48.55 75.6,50.9 68.25,52.6 60.85,54.3 50.5,54.3 40.1,54.3 32.7,52.6 25.35,50.9 25.35,48.55 25.35,46.35 31.75,44.7 38,43.1 47.4,42.85"/></g><defs/></svg>