<?xml version="1.0" encoding="utf-8"?><svg xmlns:xlink="http://www.w3.org/1999/xlink" id="Scene_1" image-rendering="auto" baseProfile="basic" version="1.1" x="0px" y="0px" width="100" height="100" viewBox="0 0 100 100" xmlns="http://www.w3.org/2000/svg"><g id="Scene 1_25.0"><path fill="#22AAE8" d="M68.2,23.55Q68.2,21.1 66.45,19.4 64.7,17.65 62.25,17.65 59.8,17.65 58.05,19.4 56.3,21.1 56.3,23.55 56.3,26 58.05,27.75 59.8,29.5 62.25,29.5 64.7,29.5 66.45,27.75 68.2,26 68.2,23.55"/><path fill="#22AAE8" d="M43.9,20.15Q43.9,17.55 42.05,15.7 40.2,13.85 37.65,13.85 35.05,13.85 33.2,15.7 31.35,17.55 31.35,20.15 31.35,22.75 33.2,24.55 35.05,26.4 37.65,26.4 40.2,26.4 42.05,24.55 43.9,22.75 43.9,20.15"/><path fill="#22AAE8" d="M56.7,31.85Q55.25,31.85 54.25,32.8 53.2,33.75 53.2,35.2L51.2,57.3Q51.2,58.8 52.25,59.85 53.25,60.9 54.7,60.9L55.85,60.9 58.55,79.45Q58.55,80.35 59.2,80.9 59.8,81.45 60.7,81.45L63.8,81.45Q64.7,81.45 65.3,80.9 65.95,80.35 65.95,79.45L68.65,60.9 69.75,60.9Q71.2,60.9 72.25,59.85 73.3,58.8 73.3,57.3L71.3,35.2Q71.3,33.75 70.25,32.8 69.25,31.85 67.75,31.85L56.7,31.85"/><path fill="#22AAE8" d="M49.35,46.85L47.25,32.5Q47.25,30.95 46.15,29.95 45.15,29 43.8,28.95L43.55,28.9 31.5,28.95Q30.1,29 29.15,29.95 28.05,30.95 28.05,32.5L25.95,46.85Q25.95,48.45 27.05,49.55 28.15,50.7 29.65,50.7L30.85,50.7 33.75,79.35Q33.75,80.25 34.4,80.9 35.05,81.45 36,81.45L39.3,81.45Q40.25,81.45 40.9,80.9 41.55,80.25 41.55,79.35L44.45,50.7 45.6,50.7Q47.15,50.7 48.25,49.55 49.35,48.45 49.35,46.85"/></g><defs/></svg>