<?xml version="1.0" encoding="utf-8"?><svg xmlns:xlink="http://www.w3.org/1999/xlink" id="Scene_1" image-rendering="auto" baseProfile="basic" version="1.1" x="0px" y="0px" width="100" height="100" viewBox="0 0 100 100" xmlns="http://www.w3.org/2000/svg"><g id="Scene 1_35.0"><path fill="#22AAE8" fill-opacity="0.992" d="M55.9,21.4L55.85,21.4Q55.65,21.4 55.4,21.4 55.4,21.45 55.35,21.5 53.5,22.3 53.3,24.75 53,28.6 55.2,29.9 55.35,30 55.4,30 57.1,30 57.55,28.75 57.6,28.6 57.7,28.3 58.4,26.6 58,24.35 57.65,22.15 55.9,21.4"/><path fill="#22AAE8" fill-opacity="0.992" d="M44.85,23.2Q44.4,22.55 43.65,22.2 43.1,22 42.65,22.25 41.15,23 40.95,25.05 40.95,25.25 40.95,25.45L40.95,25.5 40.9,25.5Q40.9,26.05 40.9,26.6L40.95,26.6Q41.1,29.4 42.9,30.55 43.3,30.8 43.8,30.65 45.45,30.05 45.7,28 46.1,25.15 44.85,23.2"/><path fill="#22AAE8" fill-opacity="0.992" d="M59.45,27.2Q59.4,28 59.6,28.55 59.75,29.1 60.2,29.4 61.35,30.25 62.1,29.1 62.3,28.8 62.35,28.5 62.8,26.5 61.55,25.7 61.35,25.55 61.1,25.55 59.65,25.7 59.45,27.2"/><path fill="#22AAE8" fill-opacity="0.992" d="M52,35.5Q52,35.8 52,36.05L52,36.1Q52.25,40.4 53.2,43.95 54.15,47.6 55.1,51.15 56.05,54.7 56.25,59 56.3,60.1 56.1,61.1 55.75,63 55.05,64.6 54,66.9 53.85,70.1 53.7,73.6 54.8,75.8 56.35,78.85 59.35,80.4 60.9,81.2 63.15,80.95 67.2,80.55 69.1,77.9 70.5,75.9 70.45,72.5 70.4,68 70.45,63.5 70.5,59 71.1,55.05 71.5,52.65 72.15,50.45 72.95,47.9 73.25,44.8 73.45,42.55 72.85,40.8 71.6,37.45 68.8,35.8 65.9,34.15 62.55,32.9 61.75,32.6 61.05,32.2 58.8,31.1 55.7,31.3 54.35,31.4 53.6,32.05 52.2,33.15 52.05,35.5L52,35.5"/><path fill="#22AAE8" fill-opacity="0.992" d="M45.2,32.2Q44.95,32.15 44.75,32.1 41.85,31.7 39.8,32.8 38.3,33.55 36.75,34.25 33.65,35.7 31,37.55 28.3,39.4 27.75,43.4 27.75,43.75 27.75,44.05L27.75,44.1 27.7,44.1Q27.7,44.6 27.7,45.15L27.75,45.15Q28.2,49.25 29.55,52.4 30.95,55.55 31.85,59.15 32.75,62.8 32.7,67.35 32.7,68.15 32.7,69L32.65,69Q32.65,69.95 32.7,70.9 32.5,75.65 34.15,78.6 35.7,81.45 39.7,82.05 39.95,82.1 40.3,82.1 40.95,82.15 41.65,82.1L41.7,82.1Q44.6,81.65 46.3,79.95 48,78.25 48.85,75.7 49.25,74.45 49.35,72.9 49.45,72.75 49.4,72.5 49.4,72.45 49.4,72.4 49.25,69 48.05,66.55 47.2,64.65 46.4,62.65 46,61.55 45.9,60.35 45.55,57.35 45.9,54.45 46.4,50.45 47.1,46.55 47.75,42.7 48.05,38.45 48.4,33.55 45.2,32.2"/><path fill="#22AAE8" fill-opacity="0.992" d="M72.15,34.6Q72.5,32.85 71.3,32.3L71.25,32.3Q71.05,32.3 70.85,32.3L70.85,32.35Q70.15,32.65 69.9,33.45L69.9,33.5Q69.85,35.05 70.85,35.5L70.9,35.5Q71.15,35.5 71.4,35.5 71.8,35.3 72,34.9 72.1,34.7 72.15,34.6"/><path fill="#22AAE8" fill-opacity="0.992" d="M67.55,30.05L67.55,30.1Q66.75,30.4 66.55,31.3 66.4,32.85 67.2,33.4 67.45,33.55 67.9,33.55 68.8,33.4 69,32.55 69.5,30.7 68.1,30.05 67.8,30.05 67.55,30.05"/><path fill="#22AAE8" fill-opacity="0.992" d="M64.55,28.1Q64.25,28.1 64,28.1L64,28.15Q63.2,28.55 63,29.5 62.9,30.75 63.6,31.35 64.5,32.15 65.25,31.25 65.4,31.05 65.45,30.75 66,28.85 64.55,28.1"/><path fill="#22AAE8" fill-opacity="0.992" d="M38.35,30.9Q40.05,30.5 39.75,28.25 39.55,26.75 37.85,26.65 36.9,27.1 36.75,28.25 36.6,30.4 38.05,30.95 38.2,30.95 38.35,30.9"/><path fill="#22AAE8" fill-opacity="0.992" d="M35.35,29.65Q34.15,29.45 33.85,30.75 33.85,30.85 33.85,31L33.85,31.05 33.8,31.05Q33.8,31.3 33.8,31.5L33.85,31.5 33.85,31.55Q33.95,32.8 34.95,33.2L35,33.2Q35.2,33.2 35.4,33.2 35.75,33 36,32.7 36.75,31.6 36.15,30.3 35.95,29.8 35.35,29.65"/><path fill="#22AAE8" fill-opacity="0.992" d="M31.5,31.8Q30.7,32.15 30.45,32.95 30.45,33.1 30.45,33.2 30.45,33.5 30.45,33.75L30.45,33.8Q30.65,34.95 31.6,35.3 32.9,35.3 33.05,34.15 33.25,32.35 31.95,31.8L31.9,31.8Q31.7,31.8 31.5,31.8"/><path fill="#22AAE8" fill-opacity="0.992" d="M28.3,34.4L28.3,34.45Q27.7,34.75 27.55,35.5L27.55,35.55Q27.5,37.05 28.5,37.5L28.55,37.5Q28.8,37.5 29.05,37.5 29.65,37.3 29.75,36.7 30.2,34.95 28.95,34.35 28.9,34.35 28.85,34.35 28.55,34.3 28.3,34.4"/></g><defs/></svg>