<?xml version="1.0" encoding="utf-8"?><svg xmlns:xlink="http://www.w3.org/1999/xlink" id="Scene_1" image-rendering="auto" baseProfile="basic" version="1.1" x="0px" y="0px" width="80" height="80" viewBox="0 0 80 80" xmlns="http://www.w3.org/2000/svg"><g id="Scene 1_8.0"><path fill="#FFF" d="M80,80L80,0 0,0 0,80 80,80"/></g><g><g id="Body" transform="matrix(0.385 0 0 0.385 17.25 11.5)"><animateTransform attributeName="transform" additive="replace" type="translate" repeatCount="indefinite" dur="0.4s" keyTimes="0;0.083;0.167;0.25;0.333;0.417;0.5;0.583;0.667;0.75;0.833;0.917;1" values="40.151,38.002;40.152,38.05;40.095,38.153;40.155,38.25;40.148,38.34;40.09,38.455;40.143,38.586;40.146,38.75;40.163,38.493;40.154,38.302;40.156,38.038;40.151,38.002;40.151,38.002" calcMode="discrete"/><animateTransform attributeName="transform" additive="sum" type="scale" repeatCount="indefinite" dur="0.4s" keyTimes="0;0.083;0.167;0.25;0.333;0.417;0.5;0.583;0.667;0.75;0.833;0.917;1" values="0.385,0.385;0.387,0.384;0.388,0.382;0.39,0.38;0.393,0.377;0.395,0.374;0.399,0.371;0.402,0.367;0.396,0.373;0.391,0.378;0.388,0.382;0.385,0.385;0.385,0.385" calcMode="discrete"/><animateTransform attributeName="transform" additive="sum" type="translate" repeatCount="indefinite" dur="0.4s" keyTimes="0;0.083;0.167;0.25;0.333;0.417;0.5;0.583;0.667;0.75;0.833;0.917;1" values="-59.45,-68.8;-59.5,-68.8;-59.35,-68.75;-59.45,-68.75;-59.45,-68.8;-59.4,-68.85;-59.45,-68.75;-59.45,-68.8;-59.6,-68.7;-59.4,-68.85;-59.45,-68.75;-59.45,-68.8;-59.45,-68.8" calcMode="discrete"/><path fill="#1595D3" d="M118.35,73.15Q116.8,63.35 111.85,50.55 102.6,26.9 91.5,11.85 86.05,4.5 79.05,1.7 71.95,-1.2 63.75,0.85 56.5,2.7 50.6,12.65 46.85,19.05 39.95,36.55 26.35,71 11.45,86.35 7.1,90.8 2.85,93.4 -0.05,95.15 0,95.25 8.3,109.4 16.75,117.65 35.1,135.6 59.4,137.35 80.65,138.9 97.45,126.65 112.45,115.7 117.05,99.75 120.65,87.35 118.35,73.15"/></g></g><g><g id="LeftFoot" transform="matrix(0.385 0 0 0.385 38.5 66)"><animateTransform attributeName="transform" additive="replace" type="translate" repeatCount="indefinite" dur="0.4s" keyTimes="0;0.083;0.167;0.25;0.333;0.417;0.5;0.583;0.667;0.75;0.833;0.917;1" values="42.506,61.994;42.402,62.01;42.253,61.955;42.12,61.886;41.906,61.883;41.697,61.846;41.451,61.798;41.211,61.744;41.654,61.875;42.051,61.839;42.357,61.96;42.506,61.994;42.506,61.994" calcMode="discrete"/><animateTransform attributeName="transform" additive="sum" type="rotate" repeatCount="indefinite" dur="0.4s" keyTimes="0;0.083;0.167;0.25;0.333;0.417;0.5;0.583;0.667;0.75;0.833;0.917;1" values="0,0,0;-0.511,0,0;-1.058,0,0;-2.013,0,0;-3.002,0,0;-4.026,0,0;-5.272,0,0;-6.702,0,0;-4.288,0,0;-2.502,0,0;-1.01,0,0;0,0,0;0,0,0" calcMode="discrete"/><animateTransform attributeName="transform" additive="sum" type="scale" repeatCount="indefinite" dur="0.4s" keyTimes="0;1" values="0.385,0.385;0.385,0.385" calcMode="discrete"/><animateTransform attributeName="transform" additive="sum" type="translate" repeatCount="indefinite" dur="0.4s" keyTimes="0;0.083;0.167;0.25;0.333;0.417;0.5;0.583;0.667;0.75;0.833;0.917;1" values="-10.4,10.399;-10.35,10.399;-10.45,10.449;-10.55,10.449;-10.45,10.549;-10.35,10.349;-10.35,10.399;-10.35,10.199;-10.4,10.099;-10.45,10.099;-10.45,10.049;-10.4,10.399;-10.4,10.399" calcMode="discrete"/><path fill="#1595D3" d="M13.6,15.1L13.65,0 5.3,0.1 7.2,12 0,12.6 0.75,17.5 13.6,15.1"/></g></g><g><g id="RightFoot" transform="matrix(0.385 0 0 0.385 49.85 63.2)"><animateTransform attributeName="transform" additive="replace" type="translate" repeatCount="indefinite" dur="0.4s" keyTimes="0;0.083;0.167;0.25;0.333;0.417;0.5;0.583;0.667;0.75;0.833;0.917;1" values="50.1,60.754;50.182,60.658;50.363,60.534;50.538,60.452;50.734,60.292;50.963,60.145;51.197,59.936;51.517,59.753;51.053,60.152;50.706,60.398;50.254,60.58;50.1,60.754;50.1,60.754" calcMode="discrete"/><animateTransform attributeName="transform" additive="sum" type="rotate" repeatCount="indefinite" dur="0.4s" keyTimes="0;0.083;0.167;0.25;0.333;0.417;0.5;0.583;0.667;0.75;0.833;0.917;1" values="0,0,0;0.758,0,0;1.752,0,0;2.793,0,0;4.26,0,0;5.777,0,0;7.528,0,0;9.552,0,0;6.258,0,0;3.521,0,0;1.309,0,0;0,0,0;0,0,0" calcMode="discrete"/><animateTransform attributeName="transform" additive="sum" type="scale" repeatCount="indefinite" dur="0.4s" keyTimes="0;1" values="0.385,0.385;0.385,0.385" calcMode="discrete"/><animateTransform attributeName="transform" additive="sum" type="translate" repeatCount="indefinite" dur="0.4s" keyTimes="0;0.083;0.167;0.25;0.333;0.417;0.5;0.583;0.667;0.75;0.833;0.917;1" values="-0.65,6.349;-0.65,6.349;-0.75,6.299;-0.7,6.399;-0.65,6.449;-0.7,6.349;-0.7,6.549;-0.7,6.299;-0.75,6.349;-0.8,6.299;-0.65,6.299;-0.65,6.349;-0.65,6.349" calcMode="discrete"/><path fill="#1595D3" d="M10.95,11.65L8.85,0 0,3.7 7.9,17.4 18.1,15.75 19.35,10.7 10.95,11.65"/></g></g><g><g id="BlackWing" transform="matrix(0.385 0 0 0.385 61 32.8)"><animateTransform attributeName="transform" additive="replace" type="translate" repeatCount="indefinite" dur="0.4s" keyTimes="0;0.083;0.167;0.25;0.333;0.417;0.5;0.583;0.667;0.75;0.833;0.917;1" values="60.962,32.8;60.943,32.852;60.961,32.933;60.962,33.054;60.962,33.156;60.944,33.262;60.963,33.41;60.958,33.545;60.982,33.256;60.936,33.05;60.943,32.903;60.962,32.8;60.962,32.8" calcMode="discrete"/><animateTransform attributeName="transform" additive="sum" type="rotate" repeatCount="indefinite" dur="0.4s" keyTimes="0;0.083;0.167;0.25;0.333;0.417;0.5;0.583;0.667;0.75;0.833;0.917;1" values="0,0,0;-1.516,0,0;-3.507,0,0;-5.784,0,0;-8.536,0,0;-11.76,0,0;-15.272,0,0;-19.202,0,0;-12.534,0,0;-7.054,0,0;-3.002,0,0;0,0,0;0,0,0" calcMode="discrete"/><animateTransform attributeName="transform" additive="sum" type="scale" repeatCount="indefinite" dur="0.4s" keyTimes="0;1" values="0.385,0.385;0.385,0.385" calcMode="discrete"/><animateTransform attributeName="transform" additive="sum" type="translate" repeatCount="indefinite" dur="0.4s" keyTimes="0;0.083;0.167;0.25;0.333;0.417;0.5;0.583;0.667;0.75;0.833;0.917;1" values="0.099,0;0.149,0;0.099,0.049;0.099,0;0.099,0;0.149,0;0.099,0;0.099,0.049;0.149,0.149;0.149,0.149;0.149,0;0.099,0;0.099,0" calcMode="discrete"/><path fill="#1595D3" d="M11,17.4Q4.55,11.2 0,0 -28.846,22.273 4.05,24.4 7.6,25.05 12.45,23.3 14.9,22.4 16.6,21.4 14.25,20.55 11,17.4"/></g></g><g><g id="WhiteWing" transform="matrix(0.385 0 0 0.385 25.35 39.65)"><animateTransform attributeName="transform" additive="replace" type="translate" repeatCount="indefinite" dur="0.4s" keyTimes="0;0.083;0.167;0.25;0.333;0.417;0.5;0.583;0.667;0.75;0.833;0.917;1" values="35.154,39.65;35.149,39.704;35.157,39.798;35.137,39.897;35.148,39.991;35.135,40.103;35.141,40.257;35.127,40.407;35.201,40.216;35.095,39.957;35.157,39.791;35.154,39.65;35.154,39.65" calcMode="discrete"/><animateTransform attributeName="transform" additive="sum" type="rotate" repeatCount="indefinite" dur="0.4s" keyTimes="0;0.083;0.167;0.25;0.333;0.417;0.5;0.583;0.667;0.75;0.833;0.917;1" values="0,0,0;1.298,0,0;3.064,0,0;5.293,0,0;7.801,0,0;10.776,0,0;14.03,0,0;17.687,0,0;11.535,0,0;6.535,0,0;2.754,0,0;0,0,0;0,0,0" calcMode="discrete"/><animateTransform attributeName="transform" additive="sum" type="scale" repeatCount="indefinite" dur="0.4s" keyTimes="0;1" values="0.385,0.385;0.385,0.385" calcMode="discrete"/><animateTransform attributeName="transform" additive="sum" type="translate" repeatCount="indefinite" dur="0.4s" keyTimes="0;0.083;0.167;0.25;0.333;0.417;0.5;0.583;0.667;0.75;0.833;0.917;1" values="-25.45,0;-25.45,-0.1;-25.5,0.049;-25.4,0;-25.55,0.099;-25.35,0.049;-25.3,0;-25.3,-0.05;-25.6,0;-25.35,0;-25.5,-0.05;-25.45,0;-25.45,0" calcMode="discrete"/><path fill="#FFF" d="M25.3,0.05L25.05,0 24.45,1.5Q23.85,3 23.75,3.2L22.75,5.3Q22,6.9 21.45,7.7 19.9,10.15 19.85,10.25L18.95,11.55Q18.25,12.35 17.95,12.8L16.85,14.05Q15.95,15.05 15.75,15.25L10.7,19.3 8.1,20.75Q7.55,21.05 5.6,21.8 4.05,22.3 3.4,22.4 1.65,22.65 1.6,22.65L0.05,22.75 0,23 1.6,23.4Q1.9,23.5 3.5,23.6 4.45,23.65 6,23.5 8.85,22.85 8.9,22.85L12,21.6Q12.25,21.5 13.5,20.75 14.65,20.05 15,19.75L16.5,18.65 20.35,14.75Q21.9,12.55 22.3,11.8 23.05,10.55 23.75,8.8 23.95,8.45 24.3,7.4L24.7,6.05 25.15,3.55Q25.3,2.85 25.3,1.7 25.35,0.65 25.3,0.05"/></g></g><g><g id="Eye" transform="matrix(-0.365 0.122 -0.122 -0.365 43.65 23.2)"><animateTransform attributeName="transform" additive="replace" type="translate" repeatCount="indefinite" dur="0.4s" keyTimes="0;0.083;0.167;0.25;0.333;0.417;0.5;0.583;0.667;0.75;0.833;0.917;1" values="42.816,23.496;42.766,23.545;42.748,23.601;42.808,23.749;42.803,23.866;42.8,23.897;42.756,24.096;42.8,24.261;42.804,24.047;42.75,23.779;42.804,23.618;42.816,23.496;42.816,23.496" calcMode="discrete"/><animateTransform attributeName="transform" additive="sum" type="rotate" repeatCount="indefinite" dur="0.4s" keyTimes="0;0.083;0.333;0.417;0.5;0.583;0.667;0.833;0.917;1" values="161.51,0,0;161.672,0,0;161.672,0,0;161.671,0,0;161.672,0,0;161.51,0,0;161.672,0,0;161.672,0,0;161.51,0,0;161.51,0,0" calcMode="discrete"/><animateTransform attributeName="transform" additive="sum" type="skewX" repeatCount="indefinite" dur="0.4s" keyTimes="0;0.083;0.167;0.25;0.333;0.417;0.5;0.583;0.667;0.75;0.833;0.917;1" values="0;0.002;0.001;0.001;0;0.002;0;0;0.002;0.002;-0.001;0;0" calcMode="discrete"/><animateTransform attributeName="transform" additive="sum" type="scale" repeatCount="indefinite" dur="0.4s" keyTimes="0;0.083;0.167;0.25;0.333;0.417;0.5;0.583;0.667;0.75;0.833;0.917;1" values="0.385,0.385;0.384,0.376;0.384,0.367;0.384,0.355;0.384,0.341;0.384,0.325;0.384,0.307;0.385,0.287;0.384,0.32;0.384,0.348;0.384,0.369;0.385,0.385;0.385,0.385" calcMode="discrete"/><animateTransform attributeName="transform" additive="sum" type="translate" repeatCount="indefinite" dur="0.4s" keyTimes="0;0.083;0.167;0.25;0.333;0.417;0.5;0.583;0.667;0.75;0.833;0.917;1" values="-2.3,0.049;-2.3,0.049;-2.35,0.049;-2.2,0.099;-2.35,0.099;-2.3,-0.1;-2.45,0;-2.35,0.099;-2.25,0.249;-2.45,-0.05;-2.35,0.099;-2.3,0.049;-2.3,0.049" calcMode="discrete"/><g transform="matrix(0.945 0.326 -0.326 0.945 1.1 -0.349)"><path fill="#FFF" d="M4.45,3.4Q3.85,1.7 2.85,0.75 1.85,-0.25 1.05,0.05 0.25,0.35 0.05,1.75 -0.1,3.1 0.5,4.8 1.05,6.45 2.05,7.45 3.1,8.4 3.9,8.1 4.75,7.85 4.9,6.45 5.05,5.05 4.45,3.4"/></g></g></g><g><g id="Hat" transform="matrix(0.385 0 0 0.385 34.7 7.05)"><animateTransform attributeName="transform" additive="replace" type="translate" repeatCount="indefinite" dur="0.4s" keyTimes="0;0.25;0.333;0.417;0.5;0.583;0.667;0.75;0.833;0.917;1" values="37.994,10.151;37.994,10.151;37.994,10.401;37.994,10.801;37.994,11.301;37.994,11.901;37.994,11.301;37.994,10.801;37.994,10.401;37.994,10.151;37.994,10.151" calcMode="discrete"/><animateTransform attributeName="transform" additive="sum" type="scale" repeatCount="indefinite" dur="0.4s" keyTimes="0;1" values="0.385,0.385;0.385,0.385" calcMode="discrete"/><animateTransform attributeName="transform" additive="sum" type="translate" repeatCount="indefinite" dur="0.4s" keyTimes="0;1" values="-8.55,-8.05;-8.55,-8.05" calcMode="discrete"/><path fill="#1595D3" d="M12.2,0L10.2,4.6 5.65,3.6 4.7,9Q3.5,9 2.35,9 -0.05,9.05 0,9.15 0,9.3 3.95,12.7 5.95,14.4 7.9,16.05 9,14.75 10.7,13.25 14.15,10.3 17.3,9.6L12.2,0"/></g></g><g><g id="Beak" transform="matrix(0.385 0 0 0.385 51.55 18.65)"><animateTransform attributeName="transform" additive="replace" type="translate" repeatCount="indefinite" dur="0.4s" keyTimes="0;0.083;0.167;0.25;0.333;0.417;0.5;0.583;0.667;0.75;0.833;0.917;1" values="52.109,21.154;52.109,21.254;52.109,21.335;52.109,21.454;52.109,21.585;52.109,21.754;52.109,21.954;52.109,22.154;52.109,21.804;52.109,21.554;52.109,21.304;52.109,21.154;52.109,21.154" calcMode="discrete"/><animateTransform attributeName="transform" additive="sum" type="scale" repeatCount="indefinite" dur="0.4s" keyTimes="0;1" values="0.385,0.385;0.385,0.385" calcMode="discrete"/><animateTransform attributeName="transform" additive="sum" type="translate" repeatCount="indefinite" dur="0.4s" keyTimes="0;0.083;0.167;0.25;0.333;0.417;1" values="-1.45,-6.5;-1.45,-6.5;-1.45,-6.45;-1.45,-6.5;-1.45,-6.45;-1.45,-6.5;-1.45,-6.5" calcMode="discrete"/><g transform="matrix(1 0 0 1 1 0.65)"><path fill="#1595D3" d="M15.8,0.75Q15.4,-0.2 13.5,0.1 11.9,0.35 6.25,2.05 1.85,3.4 1.2,3.9 -0.8,5.35 0.65,8.85 1.95,11.9 3.95,12.65 6.35,13.6 9.05,10.75 12.45,7.3 14.3,4.55 16.2,1.75 15.8,0.75"/></g><path fill="#FFF" d="M17.95,1.3Q17.95,1.2 17.9,1.1 17.85,1 17.8,0.9 16.85,-0.45 13.7,0.25 10.05,1.4 9.2,1.65 5.25,2.5 3.25,3.35 -0.3,4.85 0,7.75 0.35,11.1 2.85,12.95 5.45,14.85 8.45,13.35 10.25,12.45 12.2,10.35 13.3,9.15 15.25,6.55 16.65,4.85 17.1,4.05 18.1,2.4 17.95,1.3 M14.25,5.6Q13.8,6.2 11.35,8.9 9.4,11.15 8.2,11.85 6.1,13.2 4.4,11.8 3.65,11.15 3,9.85 2.4,8.65 2.2,7.5 1.8,5.1 4.6,3.9 6.15,3.25 9.45,2.55 10,2.4 12.7,1.45 15.25,0.8 15.7,1.7 16,3.2 14.25,5.6"/></g></g><defs/></svg>