<?xml version="1.0" standalone="no"?>
<!DOCTYPE svg PUBLIC "-//W3C//DTD SVG 1.1//EN" "http://www.w3.org/Graphics/SVG/1.1/DTD/svg11.dtd" >
<svg>
<metadata>
Created by FontForge 20110222 at Fri Feb 27 04:18:04 2015
 By deploy user
Copyright 2004, SUDTIPOS. Expanded and digitized from the Bluemlein Script collection by Alejandro Paul. All rights reserved.
</metadata>
<defs>
<font id="MrSheffield" horiz-adv-x="321" >
  <font-face 
    font-family="Mr Sheffield"
    font-weight="400"
    font-stretch="normal"
    units-per-em="1000"
    panose-1="2 0 6 5 4 0 0 2 0 4"
    ascent="800"
    descent="-200"
    x-height="139"
    cap-height="711"
    bbox="-452 -799 1474 935"
    underline-thickness="50"
    underline-position="-50"
    unicode-range="U+0020-FB02"
  />
<missing-glyph horiz-adv-x="200" 
 />
    <glyph glyph-name=".notdef" horiz-adv-x="200" 
 />
    <glyph glyph-name="eth" unicode="&#xf0;" horiz-adv-x="345" 
d="M362 337q0 -3 -4.5 -7.5t-9.5 -5.5q-8 -1 -26.5 -1h-26.5h-21t-20 2q-3 -11 -6.5 -22t-7.5 -22q19 1 36 2t30 1q5 0 5 -5q0 -10 -1.5 -12.5t-3.5 -2.5h-19.5t-24.5 -1q-14 -1 -30 -1q-15 -37 -33 -69.5t-33 -59t-25 -46t-10 -29.5q0 -17 11 -28.5t39 -11.5q18 0 40 7.5
t44 18.5t41 25t31 26l10 -11q-10 -11 -31.5 -26t-47.5 -28.5t-54 -23t-51 -9.5q-32 0 -43.5 12.5t-11.5 30.5q0 12 3.5 25.5t8.5 26.5q1 2 -16.5 -13.5t-42 -35t-51.5 -36t-45 -16.5q-21 0 -21 23q0 15 10 35t30 39.5t49.5 36.5t69.5 25q4 0 7.5 -2t3.5 -9q0 -8 -15 -11
q-24 -3 -48 -16.5t-43.5 -30t-31.5 -33t-12 -26.5q0 -11 14 -11q9 0 27.5 9.5t43.5 29.5t54.5 51t60.5 74q14 20 26 41.5t21 44.5q-17 -2 -32.5 -3t-29.5 -2q-2 0 -2 7q0 10 4 10q14 2 31.5 3t36.5 3q5 12 8 24l6 24q-75 12 -119 51t-44 96q0 26 8.5 46.5t22 35t31 22.5
t35.5 8q24 0 43 -13.5t31.5 -36.5t19 -54t6.5 -66q0 -20 -2.5 -39t-7.5 -39q23 -3 46 -3t38 2t20 2q1 -1 1 -2zM247 431q0 61 -21.5 101.5t-65.5 40.5q-27 0 -48.5 -25t-21.5 -68q0 -24 10.5 -46t30 -40t46.5 -31.5t60 -20.5q5 23 7.5 45.5t2.5 43.5z" />
    <glyph glyph-name="Lslash" unicode="&#x141;" horiz-adv-x="735" 
d="M938 712q0 -19 -29 -48t-78.5 -61t-114.5 -64t-137 -56q-28 -38 -56 -79t-56 -83l30 2q13 1 26 1.5t23 0.5q3 0 5.5 -1t2.5 -7q-1 -14 -3 -17t-5 -3q-47 0 -98 -3q-18 -26 -36.5 -51.5t-36.5 -50.5q63 -5 115 -23.5t88.5 -48t56.5 -68.5t20 -84q0 -15 -5 -36.5t-13.5 -41
t-18.5 -33.5t-21 -14q-4 0 -4 4q0 5 4 9q8 7 13.5 20t9.5 27t6 27.5t2 23.5q0 53 -21 92.5t-57.5 66.5t-84.5 42.5t-102 20.5q-36 -46 -73.5 -86t-76.5 -69.5t-80.5 -46.5t-85.5 -17q-43 0 -63 14t-20 36q0 26 26.5 58.5t75 61t117 48t151.5 19.5h9q18 23 36 47.5t36 50.5
q-23 -2 -44.5 -3.5t-40.5 -3.5q-2 0 -3 2t-1 11q0 7 2 9.5t4 2.5q21 2 47.5 4.5t54.5 4.5q28 39 55.5 77.5t56.5 76.5q-56 -17 -111.5 -27t-109.5 -10q-48 0 -76.5 8.5t-44.5 19.5q-18 12 -27 27q0 5 5.5 7.5t9.5 2.5h4q1 0 2 -1l10 -7t29.5 -15.5t48.5 -15t67 -6.5
q51 0 103 9t103 25q39 51 79 96t80.5 78.5t83 53t85.5 19.5q27 0 39 -7t12 -18zM904 704q0 15 -26 15q-38 0 -75 -17t-72.5 -46t-70 -69t-68.5 -86q65 23 121.5 52t99 58t67 54t24.5 39zM331 178q-6 1 -12.5 1h-12.5q-64 0 -123 -18.5t-104 -45t-72 -55.5t-27 -52
q0 -17 17 -27.5t55 -10.5q36 0 71 16t69.5 44t69.5 66t69 82z" />
    <glyph glyph-name="lslash" unicode="&#x142;" horiz-adv-x="261" 
d="M442 606q0 -21 -19.5 -57.5t-51.5 -81t-73.5 -93.5t-85.5 -96.5t-88 -90t-80 -73.5q26 2 49.5 3.5t40.5 1.5q3 0 5.5 -1t2.5 -7q-1 -14 -3 -17t-5 -3q-28 0 -59 -1.5t-63 -3.5v-7q0 -35 17 -54.5t57 -19.5q17 0 40.5 9.5t47 23t45 29.5t33.5 28l10 -11q-10 -11 -32 -28
t-49 -32.5t-55.5 -26.5t-51.5 -11q-47 0 -67 23.5t-20 64.5v7q0 2 1 4q-19 -2 -36.5 -3t-33.5 -3q-2 0 -3 2t-1 11q0 7 2 9.5t4 2.5q15 1 33 2.5t38 3.5q8 47 32.5 103.5t59.5 114.5t78 112.5t87 97t87 68t78 25.5q29 0 29 -25zM419 600q0 17 -17 17q-25 0 -61.5 -25
t-77 -66.5t-81.5 -94.5t-75.5 -109.5t-59 -111t-32.5 -98.5h2q32 23 74 63t87 88t88 99t77 97.5t55 84t21 56.5z" />
    <glyph glyph-name="Scaron" unicode="&#x160;" horiz-adv-x="716" 
d="M1099 791q0 -1 -9 -6.5t-22.5 -13t-28.5 -16.5t-27 -18q-6 -5 -9 -6t-8 -1q-3 0 -6.5 5.5t-8 14.5t-10 19.5t-13.5 20.5q0 2 2 3.5t4 1.5q4 0 10 -6t13 -14q8 -9 16 -21q12 8 27 15.5t28.5 13t24 9t13.5 3.5q4 0 4 -4zM1047 660q0 -28 -29 -64.5t-79.5 -79t-118.5 -90.5
t-147 -98q-10 -41 -22 -80t-28.5 -75t-38 -68t-51.5 -58q51 0 95 8t80 39q1 1 3 1q4 0 4.5 -5.5t0.5 -7.5q-21 -18 -42 -27.5t-42.5 -14t-44.5 -5.5t-49 -1h-22q-47 -35 -115.5 -55.5t-168.5 -20.5q-42 0 -76 6t-61 16q-50 -30 -93 -57t-81 -53q-1 -1 -4 -2.5t-4 -1.5
q-5 0 -5 4q0 3 7 10q21 17 63 44.5t99 62.5q-43 20 -63 45.5t-20 46.5q0 29 46 29q18 0 67.5 -10t117.5 -22q100 60 211 127t215 134q5 20 9.5 41t9.5 42q15 68 55 118.5t88 84.5t97.5 51t84.5 17q23 0 37.5 -7.5t14.5 -23.5zM1026 654q0 12 -10.5 18t-27.5 6
q-28 0 -70.5 -15.5t-84.5 -44.5t-77.5 -71t-50.5 -96q-7 -24 -13 -48t-12 -47q72 47 135.5 91t110 83t73.5 70.5t27 53.5zM643 310q-94 -60 -194.5 -120t-198.5 -118q58 -10 121.5 -17t125.5 -8q60 48 93 117t53 146zM482 35q-75 2 -138.5 8.5t-116.5 14.5q-60 -36 -117 -69
q24 -8 56.5 -13.5t75.5 -5.5q79 0 137.5 17.5t102.5 47.5zM202 62q-57 9 -94 16.5t-51 7.5q-30 0 -30 -13q0 -17 14 -38t51 -38z" />
    <glyph glyph-name="scaron" unicode="&#x161;" horiz-adv-x="222" 
d="M219 294q0 -1 -9 -6.5t-22.5 -13t-28.5 -16.5t-27 -18q-6 -5 -9 -6t-8 -1q-3 0 -6.5 5.5t-8 14.5t-10 19.5t-13.5 20.5q0 2 2 3.5t4 1.5q4 0 10 -6t13 -14q8 -9 16 -21q12 8 27 15.5t28.5 13t24 9t13.5 3.5q4 0 4 -4zM227 85l-5 -5q-2 -2 -5.5 -4.5t-8.5 -6.5
q-18 -14 -45 -28t-57 -25.5t-60 -19t-53 -7.5q-21 0 -34 7.5t-13 24.5q0 8 6 14t14 6t9 -8q2 -11 5 -15t8 -5q17 1 35.5 14.5t34 32t25.5 37.5t10 30t-10 11q-11 0 -29 -12.5t-38 -29.5l-23 -20h-23q6 5 11 9.5t11 9.5q43 40 65 54t38 14q25 0 25 -23q0 -13 -7 -29.5
t-19.5 -34t-29 -34.5t-34.5 -29q42 5 89 22.5t86 49.5h22z" />
    <glyph glyph-name="Yacute" unicode="&#xdd;" horiz-adv-x="495" 
d="M631 820q0 -5 -9.5 -11.5t-24 -13.5t-31.5 -13t-31 -11q-6 2 -6 3q0 3 8 7.5t20 11.5t26.5 16.5t28.5 21.5q3 3 6 3q5 0 9 -4.5t4 -9.5zM697 665q0 -7 -6.5 -15t-15.5 -19q-17 -18 -48.5 -63t-74 -109t-94.5 -143t-109 -166q79 43 162 77q1 0 3 -1q3 -1 3 -6q0 -6 -8 -9
q-84 -30 -172 -80q-61 -93 -126 -189t-130 -186t-127 -169t-117.5 -138.5t-102 -93.5t-79.5 -34q-32 0 -47 14t-15 40q0 35 25.5 88t72 117t111.5 135t143 142t167 138.5t183 123.5q44 66 84 127.5t75 114t63.5 95t49.5 69.5q0 3 -2 3q-4 0 -6 -4q-21 -25 -56.5 -59.5
t-78.5 -71.5t-90.5 -73.5t-93 -65.5t-85.5 -47t-68 -18q-26 0 -37 10.5t-11 28.5q0 25 18 62t45.5 78.5t60 83.5t61 76.5t49 58.5t23.5 29q2 2 2 5q0 2 -2 2t-3 -1q-16 -11 -47 -29.5t-73 -40t-92.5 -44t-103.5 -40t-107 -29t-104 -11.5q-51 0 -84 7.5t-52 17.5t-26.5 20.5
t-7.5 15.5q0 13 10 13q8 0 20.5 -8.5t33 -18.5t51.5 -18.5t76 -8.5q61 0 124 15t123 38t113 50.5t95 53.5t70 46t36 27q14 12 23 12q5 0 8.5 -3t3.5 -8q0 -7 -8 -15q-15 -17 -44 -50.5t-63 -75.5t-69.5 -88t-64.5 -88.5t-47.5 -78t-18.5 -56.5q0 -23 25 -23q20 0 52 14.5
t71.5 38.5t83 56.5t87 68.5t84 73.5t72.5 72.5q21 23 40.5 45.5t34.5 40.5t24.5 30t10.5 14q5 7 12.5 14.5t15.5 7.5q6 0 11 -5t5 -10zM281 97q-84 -52 -165.5 -116.5t-155.5 -132.5t-137 -137t-109 -130.5t-72 -111.5t-26 -82q0 -44 51 -44q26 0 65.5 32t89 87t106 128.5
t116 157.5t120 173.5t117.5 175.5z" />
    <glyph glyph-name="yacute" unicode="&#xfd;" horiz-adv-x="293" 
d="M227 281q0 -5 -9.5 -11.5t-24 -13.5t-31.5 -13t-31 -11q-6 2 -6 3q0 3 8 7.5t20 11.5t26.5 16.5t28.5 21.5q3 3 6 3q5 0 9 -4.5t4 -9.5zM295 84q-15 -16 -48 -37q-53 -31 -106.5 -61.5t-105.5 -62.5q-30 -39 -64.5 -80.5t-70 -81.5t-70.5 -76t-66.5 -63t-58 -43
t-44.5 -16q-20 0 -28 8t-8 21q0 31 30 68.5t82 80t122.5 89t150.5 95.5q19 24 35 44.5t27 35.5q13 18 24 31l4 5.5t8 12t7 12l3 5.5q0 3 -2 3q-1 0 -17 -10.5t-38.5 -23.5t-46.5 -23.5t-39 -10.5q-22 0 -22 20q0 14 10 33.5t23.5 37t27 30t21.5 12.5q5 0 9.5 -2.5t4.5 -4.5
q0 -1 -5 -6l-17 -17t-21.5 -24t-18.5 -26.5t-8 -24.5q0 -7 11 -7q20 0 48.5 15.5t55.5 35.5t48.5 39.5t28.5 26.5q17 18 25 18q5 0 7.5 -3.5t2.5 -8.5q0 -6 -10 -19t-22 -27t-23 -26.5t-14 -16.5q-11 -18 -31.5 -45t-46.5 -62q42 25 84 49t86 50q17 10 31 21t25 21z
M-15 -108q-69 -43 -130 -84t-106.5 -79t-72 -71t-26.5 -59q0 -18 25 -18q20 0 56 29.5t79 75.5t89 101t86 105z" />
    <glyph glyph-name="Thorn" unicode="&#xde;" horiz-adv-x="428" 
d="M810 502q0 -34 -21 -75.5t-58.5 -83t-88 -79t-110.5 -63.5q39 -3 82 -3q5 0 9 -3.5t4 -5.5t-5 -2q-32 0 -60.5 1t-53.5 3q-38 -14 -77.5 -22.5t-80.5 -8.5q-38 0 -59.5 13.5t-21.5 27.5q0 11 13 18.5t41 7.5q17 0 65.5 -8.5t115.5 -15.5q58 24 107.5 61.5t85.5 80
t56.5 84.5t20.5 75q0 30 -19 48.5t-62 18.5q-83 0 -163.5 -35t-155.5 -89q-28 -51 -60 -105.5t-65.5 -106t-66.5 -97.5t-63 -81t-56 -55t-45 -20t-19 24q0 28 26.5 82.5t74.5 119.5t114.5 133t145.5 123q35 70 63 129.5t42 96.5q2 3 4.5 3.5t4.5 0.5q6 0 6 -10q0 -9 -6 -27
t-17.5 -44t-27 -58t-34.5 -68q70 44 145.5 70.5t155.5 26.5q60 0 87 -23t27 -59zM479 194q-60 6 -98.5 13t-62.5 7q-30 0 -30 -13q0 -9 18.5 -18.5t53.5 -9.5q31 0 60.5 5.5t58.5 15.5zM335 417q-69 -55 -127.5 -119t-101 -121.5t-66.5 -102t-24 -61.5q0 -9 7 -9
q18 0 40.5 17t48.5 46.5t54.5 69t57 85.5t57 96t54.5 99z" />
    <glyph glyph-name="thorn" unicode="&#xfe;" horiz-adv-x="264" 
d="M266 84q-55 -52 -113 -72t-104 -20q-30 0 -51.5 6.5t-28.5 14.5q-50 -80 -102.5 -158t-102 -139.5t-93.5 -99.5t-78 -38q-45 0 -45 34q0 24 20 60.5t54 79.5t78.5 89.5t93 90.5t98 83t92.5 66l46.5 77.5t42 69.5t35.5 57.5t27 41.5q12 17 20.5 27t13.5 10t8.5 -5t3.5 -9
q0 -9 -9 -20q-29 -41 -66 -99t-78 -124q44 23 71 23q26 0 37 -8t11 -22q0 -13 -9 -27t-22.5 -26.5t-28.5 -22.5t-26 -14q49 1 102 24.5t93 60.5zM115 97q0 18 -21 18q-15 0 -35 -8t-44 -22q-9 -14 -18 -29t-19 -29q6 -3 15 -9t34 -8q15 5 31 15t28.5 22t20.5 25t8 25z
M-32 55q-41 -28 -87 -66.5t-90.5 -80.5t-85 -85.5t-71.5 -82.5t-49 -71t-18 -51q0 -23 28 -23q30 0 73.5 42t93.5 108.5t103.5 148t102.5 161.5z" />
    <glyph glyph-name="Zcaron" unicode="&#x17d;" horiz-adv-x="766" 
d="M889 815q0 -1 -9 -6.5t-22.5 -13t-28.5 -16.5t-27 -18q-6 -5 -9 -6t-8 -1q-3 0 -6.5 5.5t-8 14.5t-10 19.5t-13.5 20.5q0 2 2 3.5t4 1.5q4 0 10 -6t13 -14q8 -9 16 -21q12 8 27 15.5t28.5 13t24 9t13.5 3.5q4 0 4 -4zM895 605q0 -43 -35 -97.5t-101.5 -108.5t-162 -102.5
t-215.5 -78.5q0 -4 10 -4q85 0 127.5 -29t53.5 -80q17 4 33.5 6t32.5 4q8 0 8 -8q0 -6 -4 -8.5t-17 -2.5q-22 0 -50 -5q1 -5 1 -11v-12q0 -51 -22.5 -113t-61.5 -129t-91.5 -136t-113.5 -133t-127 -120.5t-132 -98.5t-129 -66t-117 -24q-28 0 -53.5 5t-45 19t-31 38.5
t-11.5 63.5q0 62 41.5 134t112 146t162.5 145t193.5 131.5t205 105t196.5 65.5q-8 46 -48 73t-118 28q-23 0 -50.5 -4t-38.5 -7q-8 0 -11.5 1.5t-5.5 3.5q-3 3 -3 5t2 4t7 3q122 20 226.5 67.5t181.5 106t120.5 118.5t43.5 105q0 33 -26.5 53.5t-84.5 20.5q-53 0 -125 -24
t-149 -66.5t-151.5 -101t-133.5 -127.5t-95.5 -147t-36.5 -158q0 -15 3.5 -25t7.5 -17t7.5 -12.5t3.5 -12.5q0 -3 -3 -4.5t-5 -1.5q-10 8 -19 21q-8 11 -14 29.5t-6 45.5q0 77 34.5 152.5t92 144t132.5 127.5t155.5 102.5t161 68t149.5 24.5q72 0 105.5 -25t33.5 -67z
M553 87q-60 -12 -129.5 -39t-143 -65t-147.5 -85.5t-142 -100t-127.5 -108.5t-103 -112t-68.5 -109.5t-25 -100.5q0 -48 29 -73.5t78 -25.5q47 0 106.5 24t124 66t131.5 97.5t129 119t116.5 131.5t94 133.5t60.5 125.5t18 108z" />
    <glyph glyph-name="zcaron" unicode="&#x17e;" horiz-adv-x="242" 
d="M219 291q0 -1 -9 -6.5t-22.5 -13t-28.5 -16.5t-27 -18q-6 -5 -9 -6t-8 -1q-3 0 -6.5 5.5t-8 14.5t-10 19.5t-13.5 20.5q0 2 2 3.5t4 1.5q4 0 10 -6t13 -14q8 -9 16 -21q12 8 27 15.5t28.5 13t24 9t13.5 3.5q4 0 4 -4zM244 84q-7 -8 -20 -17.5t-28 -19.5
q-46 -31 -103.5 -69.5t-118.5 -81.5q-16 -42 -43.5 -83t-61 -78t-70 -68.5t-72 -54.5t-66 -36t-51.5 -13q-33 0 -33 18t33 52.5t87 77.5t122 92.5t138 97.5q11 35 11 67q0 21 -4 36v9q22 1 46 14.5t43 31.5t31.5 36.5t12.5 30.5t-14 12q-11 0 -29 -12.5t-38 -29.5l-23 -20
h-23q41 38 73 62.5t52 24.5q25 0 25 -23q0 -15 -12 -36.5t-30.5 -42.5t-41 -38t-44.5 -23v-10q0 -37 -10 -71q54 37 104 71t92 63q16 11 30.5 21.5t25.5 20.5zM-53 -122q-64 -45 -125 -89.5t-108.5 -82.5t-76.5 -67t-29 -43q0 -11 19 -11q12 0 35.5 11t53.5 31t63.5 47.5
t65 60t58.5 69t44 74.5z" />
    <glyph glyph-name="minus" unicode="&#x2212;" horiz-adv-x="209" 
d="M183 93q0 -5 -2.5 -10t-5.5 -5h-153q-15 0 -18 0.5t-3 2.5q0 5 1.5 11t7.5 6h170q3 0 3 -5z" />
    <glyph glyph-name="space" unicode=" " horiz-adv-x="200" 
 />
    <glyph glyph-name="exclam" unicode="!" horiz-adv-x="259" 
d="M329 517q0 -3 -1 -5q-1 -3 -15 -26.5t-34.5 -59t-45.5 -79.5t-50 -87.5t-46.5 -83t-35.5 -65.5q-11 -14 -14 -17.5t-7 -3.5t-4 7q0 2 15.5 32t39 74.5t50.5 96.5t50.5 96t38.5 73.5t14 30.5q7 16 15 22t15 6q6 0 10.5 -3t4.5 -8zM67 29q0 -9 -7.5 -19.5t-18.5 -10.5
q-8 0 -12 4.5t-4 10.5q0 10 8 20t21 10t13 -15z" />
    <glyph glyph-name="quotedbl" unicode="&#x22;" horiz-adv-x="243" 
d="M259 511q0 -3 -3 -9l-55 -71q-2 -5 -8 -5q-7 0 -7 8l1 2t5.5 9.5t14.5 24.5t28 47q2 3 4 5q4 4 9 4t8 -5t3 -10zM206 511q0 -3 -3 -9l-55 -71q-2 -5 -8 -5q-7 0 -7 8l1 2t5.5 9.5t14.5 24.5t28 47q2 3 4 5q4 4 9 4t8 -5t3 -10z" />
    <glyph glyph-name="numbersign" unicode="#" horiz-adv-x="259" 
d="M254 110q-1 -5 -4 -8t-14 -4q-9 -1 -26.5 -1h-37.5l-19 -37h69q2 0 2 -2q-2 -4 -3 -7.5t-6 -4.5q-16 0 -34.5 -0.5t-36.5 -1.5l-34 -64q-3 -4 -5 -4q-3 0 -5 3.5t-2 6.5q15 27 29 58q-11 -1 -21.5 -1h-20.5l-32 -63q-4 -4 -6 -4q-4 0 -5.5 3.5t-1.5 6.5q8 14 15 28.5
t13 28.5h-48q-11 0 -13.5 1.5t-2.5 3.5t2 6.5t7 4.5h65q5 10 9 19t9 18h-46q-12 0 -14.5 1.5t-2.5 3.5q2 2 3.5 6.5t6.5 4.5h61l30 55q5 10 8 13t5 3q4 0 6 -3t2 -6l-34 -62h42q15 30 26.5 50.5t16.5 20.5q3 0 5 -3t2 -6l-33 -62h71q3 0 3 -2zM155 97q-11 -1 -21 -1h-20
l-19 -36h41z" />
    <glyph glyph-name="dollar" unicode="$" horiz-adv-x="195" 
d="M190 256l-1.5 -2.5t-5.5 -9.5t-11.5 -19.5t-19.5 -33.5q12 -3 20 -10.5t8 -21.5q0 -3 -5.5 -5.5t-10.5 -2.5q-7 0 -7 6q0 14 -13 19q-8 -14 -18.5 -32t-22.5 -39q12 -8 22 -16.5t10 -25.5q0 -16 -9.5 -30t-24.5 -24t-32.5 -16t-33.5 -6l-31 -55q-2 -4 -6.5 -8.5
t-7.5 -4.5q-6 0 -6 4q0 2 1 4.5t2 4.5t10 17t23 39q-14 2 -23.5 10t-9.5 25q0 23 13 41t23 18q4 0 8.5 -2.5t4.5 -5.5t-5 -5.5t-10.5 -7t-10.5 -12.5t-5 -22q0 -21 23 -26l54 92q-12 8 -21.5 19t-9.5 28q0 11 8.5 20t21.5 16.5t29 11.5t30 4q14 23 22 38t10 17q1 3 4 6
q5 5 10 5q4 0 4 -2zM132 179q-10 0 -21 -3t-20 -7.5t-14.5 -10.5t-5.5 -13q0 -12 6.5 -20t15.5 -14q11 18 20.5 35t18.5 33zM114 58q0 9 -6.5 15.5t-15.5 13.5l-50 -87q12 0 25 4.5t23.5 12t17 18t6.5 23.5z" />
    <glyph glyph-name="percent" unicode="%" horiz-adv-x="381" 
d="M333 100q0 -15 -8.5 -33.5t-23.5 -34.5t-35 -26.5t-43 -10.5q-18 0 -26 8.5t-8 22.5q0 15 9 34t24 35t34.5 27t41.5 11q18 0 26.5 -9.5t8.5 -23.5zM302 274q0 -5 -4 -11q-54 -77 -101.5 -145.5t-90.5 -145.5q-3 -6 -7.5 -12t-9.5 -6q-7 0 -8.5 2.5t-1.5 4.5q0 5 6 13
l195 298q6 8 13 8q3 0 6 -2t3 -4zM169 168q0 -15 -8.5 -33.5t-23.5 -34.5t-35 -26.5t-43 -10.5q-18 0 -26 8.5t-8 22.5q0 15 9 34t24 35t34.5 27t41.5 11q18 0 26.5 -9.5t8.5 -23.5zM313 103q0 20 -18 20q-15 0 -30.5 -11t-27.5 -26.5t-20 -33t-8 -29.5q0 -18 17 -18
t32.5 10.5t27.5 25.5t19.5 32t7.5 30zM149 171q0 20 -18 20q-15 0 -30.5 -11t-27.5 -26.5t-20 -33t-8 -29.5q0 -18 17 -18t32.5 10.5t27.5 25.5t19.5 32t7.5 30z" />
    <glyph glyph-name="ampersand" unicode="&#x26;" horiz-adv-x="717" 
d="M689 -6q0 -9 -8.5 -16t-23 -11.5t-32 -7t-35.5 -2.5q-33 0 -57.5 13t-40.5 35t-25.5 51.5t-12.5 62.5q-26 -32 -57 -60t-65.5 -49t-72.5 -33.5t-79 -12.5q-29 0 -52 10.5t-39 28.5t-24.5 41t-8.5 48q0 61 29 111t69 89.5t83 67.5t71 45q4 2 7.5 4t6.5 4q2 1 -2.5 2.5
t-8.5 1.5q-42 4 -60.5 20t-18.5 40q0 16 6 32q-76 -24 -147 -39t-125 -15q-39 0 -67.5 4.5t-48 11t-31 13t-15.5 10.5q-5 3 -5 12q0 5 4.5 10.5t9.5 5.5q3 0 8 -3q35 -21 70 -28t81 -7q68 0 137.5 12t136.5 32q21 39 66 76.5t96.5 66t101 46t79.5 17.5q32 0 32 -21
q0 -16 -29.5 -40t-78.5 -50t-112.5 -53t-130.5 -50q-9 -21 -9 -40q0 -23 16.5 -37t54.5 -14q11 0 29.5 5t37 11t32.5 11t16 5q9 0 9 -6q0 -3 -1.5 -6t-9 -7t-24 -10t-46.5 -15q-40 -11 -89 -42t-92.5 -74.5t-73 -95.5t-29.5 -105q0 -66 27 -93t74 -27q40 0 76.5 12.5
t69.5 34.5t61.5 50.5t52.5 60.5v25q0 48 8.5 95.5t22 85.5t30.5 61.5t34 23.5q28 0 28 -43q0 -21 -7.5 -50t-21 -62t-33.5 -68t-45 -68q3 -33 11.5 -62.5t23.5 -51.5t37.5 -35t53.5 -13q21 0 36.5 4t26.5 9t17 9t7 4q8 0 8 -8zM596 709q0 13 -21 13q-23 0 -64 -15
t-85.5 -40.5t-85 -59t-61.5 -69.5q66 21 124 46t100.5 49t67.5 44t25 32zM560 382q0 26 -14 26q-15 0 -29 -20t-25.5 -52.5t-18 -74t-6.5 -83.5v-19q22 32 39.5 65t29.5 62.5t18 54.5t6 41z" />
    <glyph glyph-name="quotesingle" unicode="'" horiz-adv-x="190" 
d="M206 511q0 -3 -3 -9l-55 -71q-2 -5 -8 -5q-7 0 -7 8l1 2t5.5 9.5t14.5 24.5t28 47q2 3 4 5q4 4 9 4t8 -5t3 -10z" />
    <glyph glyph-name="parenleft" unicode="(" horiz-adv-x="317" 
d="M764 775q0 -6 -2 -8.5t-10 -2.5q-76 0 -154.5 -40t-151.5 -105.5t-137 -148.5t-111.5 -168.5t-75 -166t-27.5 -140.5q0 -54 24 -85.5t78 -31.5q9 0 9 -6q0 -3 -4 -6t-12 -3q-58 0 -84 35.5t-26 95.5q0 64 26.5 146.5t73.5 170t110.5 172t136.5 151t153.5 107t160.5 40.5
q15 0 19 -1t4 -5z" />
    <glyph glyph-name="parenright" unicode=")" horiz-adv-x="317" 
d="M458 639q0 -64 -25.5 -147t-70.5 -169t-107.5 -168.5t-136.5 -147.5t-157 -104.5t-169 -39.5q-15 0 -19 1t-4 5q0 6 2 8.5t10 2.5q82 0 162.5 39.5t153 104.5t135 147t108 167t71 165t25.5 141q0 56 -24 89t-76 33q-9 0 -9 6q0 3 4 6t12 3q60 0 87.5 -39t27.5 -103z" />
    <glyph glyph-name="asterisk" unicode="*" horiz-adv-x="295" 
d="M249 367q0 -10 -14 -10h-1.5t-6 1t-14.5 3t-28 6q18 -26 21.5 -32.5t3.5 -9.5q0 -9 -12 -9q-6 0 -11 9l-16 37l-23 -37l-3 -3q-3 -3 -8 -3t-7.5 3.5t-2.5 6.5q0 4 2 7l33 34l-54 4q1 0 -5.5 2t-6.5 7q0 10 13 10l51 -11q-9 14 -14.5 22t-8 12.5t-3.5 6t-1 2.5q0 7 11 9
q10 0 12 -7l18 -41l24 38l3 3q3 3 8 3q10 0 10 -10q0 -1 -0.5 -2t-4 -5l-10.5 -12t-20 -22l53 -3q3 0 6 -2q6 -4 6 -7z" />
    <glyph glyph-name="plus" unicode="+" horiz-adv-x="209" 
d="M183 93q0 -5 -2.5 -10t-5.5 -5h-78l-27 -75q-1 -4 -4 -4t-6.5 3.5t-3.5 7.5q7 21 12.5 37t10.5 31h-57q-15 0 -18 0.5t-3 2.5q0 5 1.5 11t7.5 6h76l20 60q4 12 7 15.5t5 3.5q4 0 7.5 -3.5t3.5 -7.5l-25 -68h76q3 0 3 -5z" />
    <glyph glyph-name="comma" unicode="," horiz-adv-x="182" 
d="M70 20q0 -14 -12.5 -30t-32 -29.5t-43 -22t-46.5 -8.5q-6 4 -6 7t7 3q6 1 21.5 3.5t31 9t27.5 18t12 30.5q0 5 -1 8.5t-1 7.5q0 9 6.5 15t13.5 6q16 0 19.5 -6.5t3.5 -11.5z" />
    <glyph glyph-name="hyphen" unicode="-" horiz-adv-x="500" 
d="M354 81q-1 -11 -4 -14.5t-8 -3.5q-3 0 -21 0.5t-40 0.5q-51 0 -102 -4.5t-97 -4.5q-2 0 -3 1.5t-1 8.5t2.5 8.5t4.5 1.5q9 0 36 1.5t58.5 3t59.5 2.5t38 1q2 1 12 1.5t21.5 1t21.5 1t12 0.5q3 0 6.5 -0.5t3.5 -5.5z" />
    <glyph glyph-name="period" unicode="." horiz-adv-x="188" 
d="M67 29q0 -9 -7.5 -19.5t-18.5 -10.5q-8 0 -12 4.5t-4 10.5q0 10 8 20t21 10t13 -15z" />
    <glyph glyph-name="slash" unicode="/" horiz-adv-x="421" 
d="M574 722q0 -3 -8 -12t-10 -12q-64 -96 -119.5 -180.5t-108.5 -166t-106 -163.5t-110 -173q-8 -14 -13 -21.5t-16 -6.5q-9 0 -12 3t-3 7q0 5 7 13t12 14q1 2 20.5 31.5t50 76.5t69.5 107t79.5 123t80 124.5t71.5 110.5t52.5 82t24.5 39q7 13 22 13q5 0 11 -2t6 -7z" />
    <glyph glyph-name="zero" unicode="0" horiz-adv-x="209" 
d="M189 134q0 -21 -11.5 -46.5t-32 -47t-48 -36.5t-59.5 -15q-25 0 -35.5 11.5t-10.5 30.5q0 21 12 47t32.5 48.5t47.5 37.5t57 15q26 0 37 -12.5t11 -32.5zM170 135q0 14 -8 22t-25 8q-21 0 -42.5 -14.5t-39.5 -35.5t-29.5 -44.5t-11.5 -40.5q0 -12 6.5 -19.5t21.5 -7.5
q23 0 45.5 14t41 34.5t30 43t11.5 40.5z" />
    <glyph glyph-name="one" unicode="1" horiz-adv-x="159" 
d="M140 170q-21 -26 -40 -56t-34 -56q-18 -30 -33 -60q-2 -5 -6 -7t-6 -2q-4 0 -7.5 1.5t-3.5 6.5q1 0 1 1v2v2q8 16 19.5 36t24.5 40.5t25 39t21 31.5q-13 -9 -25.5 -16.5t-23.5 -12.5q-12 -6 -23 -12q-2 -1 -5 -1q-6 0 -6 6q0 9 11 14q16 6 34 15q15 8 32 18t34 24
q0 1 2 2t7 1q2 0 5.5 -0.5t3.5 -5.5z" />
    <glyph glyph-name="two" unicode="2" horiz-adv-x="202" 
d="M173 153q0 -25 -21.5 -45t-49.5 -36.5t-56 -32t-40 -32.5q13 4 37.5 8.5t50.5 4.5q14 0 25.5 -4.5t11.5 -12.5q0 -9 -8 -9q-5 0 -15.5 3.5t-36.5 3.5q-32 0 -55 -5.5t-28 -5.5t-7 3t-2 6q0 10 12.5 20.5t31.5 22.5t41.5 24.5t41.5 26.5t31.5 28.5t12.5 29.5q0 11 -6 15.5
t-15 4.5q-11 0 -24.5 -5t-25 -13t-19.5 -16.5t-8 -16.5q0 -2 1.5 -4t9.5 -2q12 0 25 6q6 2 8 2q5 0 5 -4q0 -6 -8 -9q-9 -4 -19 -6.5t-19 -2.5q-11 0 -17.5 4t-6.5 13q0 10 9.5 21.5t24.5 21t34 15.5t38 6q14 0 25 -6t11 -22z" />
    <glyph glyph-name="three" unicode="3" horiz-adv-x="184" 
d="M169 155q0 -9 -7 -22.5t-22.5 -28t-38.5 -28t-54 -22.5q25 -2 36.5 -12.5t11.5 -26.5q0 -17 -12.5 -37.5t-34 -38t-51.5 -29t-66 -11.5q-2 0 -2 4t2.5 9t7.5 5l14 -1q26 -2 47.5 7t36.5 23t23.5 30.5t8.5 30.5t-10 24t-33 10h-8q-15 0 -15 4q0 7 4.5 9.5t6.5 2.5
q34 8 59 20.5t41 26t24 26.5t8 22q0 11 -6.5 16t-16.5 5q-11 0 -24.5 -5t-25 -12.5t-19.5 -16t-8 -16.5q0 -2 1.5 -4t9.5 -2q12 0 25 6q6 2 8 2q5 0 5 -4q0 -5 -6 -8.5t-14 -5.5t-15.5 -3t-10.5 -1q-11 0 -17.5 4t-6.5 13t10.5 21t26.5 22t35 17t35 7q15 0 25.5 -7.5
t11.5 -24.5z" />
    <glyph glyph-name="four" unicode="4" horiz-adv-x="244" 
d="M229 177q0 -3 -7.5 -15t-19.5 -31.5t-28 -44.5t-33 -53q7 1 12.5 1h10.5q14 0 25.5 -4.5t11.5 -12.5q0 -9 -8 -9q-5 0 -15.5 3.5t-36.5 3.5h-11q-16 -27 -30.5 -55t-25.5 -55q-2 -4 -5.5 -6t-6.5 -2q-10 0 -10 9q0 5 18 36.5t42 71.5q-18 -1 -37.5 -3.5t-36 -4t-28 -3
t-13.5 -1.5q-9 0 -9 10q0 4 1 6t2 3q32 23 63.5 48t58.5 47.5t48.5 40.5t33.5 27q2 1 5 3q5 3 10 3t12 -4t7 -9zM202 162q0 3 -3 3h-3q-1 0 -1 -1q-17 -13 -32 -24.5t-32.5 -26.5t-41 -34.5t-56.5 -48.5q-2 -2 -3.5 -3t-1.5 -3q0 -3 7 -3q9 2 35 5.5t53 5.5z" />
    <glyph glyph-name="five" unicode="5" horiz-adv-x="197" 
d="M192 166q0 -8 -11.5 -12.5t-25.5 -4.5q-26 0 -44 3t-32 8q-4 0 -6 -3q-1 -2 -2 -3q-5 -20 -13 -38t-15 -32q-8 -17 -17 -31q10 5 28.5 11.5t35.5 6.5q16 0 27 -8t11 -29q0 -17 -15.5 -40.5t-41.5 -44.5t-59 -35.5t-69 -14.5q-3 0 -3 3q0 2 2.5 8.5t6.5 6.5h10
q29 0 54.5 12t45 29t31 36t11.5 33t-5 19t-16 5q-10 0 -24.5 -3.5t-33.5 -8.5q-4 -1 -7.5 -1.5t-8.5 -2.5q-3 0 -7.5 1t-4.5 4q0 2 4 6q11 14 22 35t19 41q10 23 19 48q0 3 3.5 6t8.5 3t17.5 -5.5t44.5 -5.5q26 0 36.5 3.5t15.5 3.5q8 0 8 -9z" />
    <glyph glyph-name="six" unicode="6" horiz-adv-x="217" 
d="M229 253q0 -5 -4.5 -11t-6.5 -6h-9q-36 0 -72 -21t-64.5 -51t-46 -63t-17.5 -57q0 -17 9.5 -27t31.5 -10q21 0 40.5 12.5t34 30.5t23 38t8.5 34q0 20 -17 20q-11 0 -25 -9.5t-28 -23t-25.5 -26.5t-16.5 -21q-10 -14 -14 -14q-3 0 -3.5 3.5t-0.5 7.5v6q9 17 25 33.5
t35 29.5t37.5 21.5t32.5 8.5q11 0 17.5 -5.5t6.5 -19.5q0 -18 -12.5 -43t-33 -47.5t-45.5 -38.5t-50 -16q-28 0 -40 12.5t-12 32.5q0 29 21.5 67.5t55 73.5t75.5 59.5t84 24.5q6 0 6 -5z" />
    <glyph glyph-name="seven" unicode="7" horiz-adv-x="184" 
d="M191 169q0 -5 -6 -10q-18 -19 -46.5 -44.5t-59.5 -56t-58.5 -66t-42.5 -74.5q-1 -5 -7.5 -8.5t-11.5 -3.5q-7 0 -7 6q5 22 22 48t40 52t48.5 51t46.5 45t35 34t14 18h1q-8 1 -24 2t-36 1h-14t-14 -1q-26 -3 -35.5 -7t-14.5 -5q-5 0 -6.5 1.5t-3.5 6.5q0 8 10.5 13.5
t24.5 7.5q7 1 16 1h20q15 0 30.5 -0.5t29.5 -1t25 -1.5t16 -2q2 0 4 -1q4 -2 4 -5z" />
    <glyph glyph-name="eight" unicode="8" horiz-adv-x="208" 
d="M237 272q0 -2 -5 -2.5t-10 -0.5q-60 -3 -89 -20.5t-30 -43.5q-1 -14 6 -24.5t15 -20.5q29 15 50 31.5t21 36.5q0 11 -5.5 14t-16.5 3q-4 0 -4 5q0 2 3 4t12 2q16 0 25 -4.5t9 -21.5q0 -23 -25.5 -42.5t-59.5 -38.5q10 -12 17.5 -26t7.5 -34q0 -22 -11 -41t-27.5 -33
t-37 -22t-38.5 -8q-22 0 -38.5 13t-14.5 43q1 19 11.5 34.5t27 28.5t36.5 24.5t40 21.5q-9 11 -16 22t-7 27q0 17 11 33t30 28t43.5 19t52.5 7q5 0 11 -4.5t6 -9.5zM139 85q0 18 -7 30.5t-16 23.5q-19 -10 -37 -21t-32.5 -23t-24 -25t-10.5 -27q1 -23 12.5 -32.5t27.5 -9.5
q14 0 29.5 6.5t28 18t21 27t8.5 32.5z" />
    <glyph glyph-name="nine" unicode="9" horiz-adv-x="235" 
d="M193 110q0 -27 -24 -63.5t-60 -69.5t-77.5 -55.5t-77.5 -22.5q-3 0 -3 3q0 2 2.5 8.5t6.5 6.5h6q30 0 65 20.5t64 48.5t48.5 56t19.5 42q-11 -13 -28 -26.5t-35.5 -24.5t-37 -18.5t-32.5 -7.5q-13 0 -21 7.5t-8 24.5t17 40.5t43 44.5t56.5 36t58.5 15q5 0 11 -4.5t6 -9.5
q0 -2 -5 -2t-10 -1q-27 -4 -54.5 -18t-49 -31t-35 -34.5t-13.5 -29.5q0 -19 17 -19q12 0 29.5 8.5t35 21.5t33 28t24.5 28q6 10 11 13t9 3q2 -1 4 -3q4 -4 4 -15z" />
    <glyph glyph-name="colon" unicode=":" horiz-adv-x="188" 
d="M118 139q0 -9 -7.5 -19.5t-18.5 -10.5q-8 0 -12 4.5t-4 10.5q0 10 8 20t21 10t13 -15zM67 29q0 -9 -7.5 -19.5t-18.5 -10.5q-8 0 -12 4.5t-4 10.5q0 10 8 20t21 10t13 -15z" />
    <glyph glyph-name="semicolon" unicode=";" horiz-adv-x="182" 
d="M118 139q0 -9 -7.5 -19.5t-18.5 -10.5q-8 0 -12 4.5t-4 10.5q0 10 8 20t21 10t13 -15zM70 20q0 -14 -12.5 -30t-32 -29.5t-43 -22t-46.5 -8.5q-6 4 -6 7t7 3q6 1 21.5 3.5t31 9t27.5 18t12 30.5q0 5 -1 8.5t-1 7.5q0 9 6.5 15t13.5 6q16 0 19.5 -6.5t3.5 -11.5z" />
    <glyph glyph-name="less" unicode="&#x3c;" horiz-adv-x="301" 
d="M249 162q0 -8 -20 -16l-180 -76l175 -54q3 -1 5.5 -4.5t2.5 -5.5t-2 -2q-5 0 -23 4t-41.5 10.5t-50 14t-49 14t-38 11.5t-17.5 6q0 1 -1 2q-2 2 -2 5q0 6 7 10l222 90q3 0 6 -2q6 -4 6 -7z" />
    <glyph glyph-name="equal" unicode="=" horiz-adv-x="223" 
d="M195 118q0 -5 -2 -10t-6 -5h-153q-15 0 -18 0.5t-3 2.5q0 5 1.5 11t7.5 6h170q3 0 3 -5zM176 67q0 -5 -2 -10t-6 -5h-153q-15 0 -18 0.5t-3 2.5q0 5 1.5 11t7.5 6h170q3 0 3 -5z" />
    <glyph glyph-name="greater" unicode="&#x3e;" horiz-adv-x="311" 
d="M256 80q0 -7 -5 -10q-3 -2 -6 -3q-2 -1 -19.5 -6t-43.5 -11.5l-56 -14t-57 -14t-47 -10.5t-26 -4q0 2 1 4q3 5 11 8l205 54l-138 76q-14 7 -14 13q0 5 9 9q4 2 9 3l174 -90q3 -1 3 -4z" />
    <glyph glyph-name="question" unicode="?" horiz-adv-x="337" 
d="M474 498q0 -32 -24 -62.5t-60.5 -60t-79.5 -59t-81.5 -61.5t-66 -66.5t-32.5 -72.5q-1 -5 -3.5 -7t-4.5 -4q-3 -2 -6 -2q-10 8 -10 25q0 31 24.5 60.5t61 59.5t79.5 59.5t79.5 60t61 62t24.5 65.5q0 25 -17 38.5t-39 19.5t-41.5 7t-24.5 1q-48 0 -90 -17t-74 -42
t-50.5 -52.5t-18.5 -47.5q0 -14 9.5 -22.5t31.5 -8.5q28 0 63.5 9.5t70.5 30.5q2 2 4 3q4 2 8 2q5 0 5 -5q0 -9 -19 -21t-46.5 -22t-59.5 -17t-58 -7q-20 0 -29 9.5t-9 24.5q0 25 21.5 60t59.5 67.5t89 55t111 22.5q9 0 32 -1.5t47.5 -9.5t43 -25t18.5 -49zM107 29
q0 -9 -7.5 -19.5t-18.5 -10.5q-8 0 -12 4.5t-4 10.5q0 10 8 20t21 10t13 -15z" />
    <glyph glyph-name="at" unicode="@" horiz-adv-x="464" 
d="M401 159q0 -27 -14 -55.5t-36.5 -52.5t-51 -39t-58.5 -15q-25 0 -36 16.5t-11 37.5v6q-15 -12 -32.5 -23.5t-33.5 -21t-30 -15t-23 -5.5q-28 0 -28 25q0 17 14.5 41t40.5 46t61.5 37.5t78.5 15.5q22 0 26 -4t4 -8t-2.5 -7.5t-9.5 -3.5q-8 1 -14 1h-11q-37 0 -67 -12.5
t-51 -29.5t-32.5 -35t-11.5 -30q0 -13 13 -13q11 0 27 7.5t33 17t31 19.5t20 14q5 17 15.5 30t26.5 13q7 0 7 -5q0 -6 -10 -17t-26 -25q1 -28 14.5 -39.5t34.5 -11.5q21 2 41 14.5t35.5 31.5t25 41t9.5 43q0 15 -5.5 29t-18 24.5t-33 16.5t-49.5 6q-60 0 -110.5 -19.5
t-87 -49.5t-57 -66.5t-20.5 -70.5q0 -22 9.5 -41.5t29 -34t50.5 -23t74 -8.5q23 0 38 2t20 2q1 -1 1 -2q0 -3 -7 -9.5t-12 -7.5q-8 -1 -15.5 -1h-15.5q-53 0 -91 9.5t-62 26t-35.5 39t-11.5 47.5q0 38 23.5 78.5t65 74t98 55t122.5 21.5q71 0 101 -25.5t30 -61.5z" />
    <glyph glyph-name="A" unicode="A" horiz-adv-x="598" 
d="M733 692q0 -8 -6 -8q-12 4 -25 5.5t-27 1.5q-60 0 -131.5 -30t-143.5 -80t-140 -115t-120 -134t-83.5 -138.5t-31.5 -127.5q0 -42 15 -60t42 -18q31 0 74.5 22t94 59t104 86t105 103.5t98 111.5t81.5 109q7 11 16.5 17t14.5 6q8 0 8 -8q0 -5 -3.5 -12.5t-13.5 -21.5
q-55 -78 -91.5 -141t-58.5 -112.5t-31 -86.5t-9 -64q0 -38 14 -57.5t31 -26.5q3 -2 3 -4q0 -3 -2 -5t-4 -2q-10 0 -21 7.5t-20 21t-14.5 31.5t-5.5 38q0 43 17 93.5t38 95.5q25 52 55 105q-86 -103 -160.5 -177t-136.5 -120.5t-110.5 -68.5t-83.5 -22q-40 0 -60.5 26
t-20.5 74q0 38 17.5 86t48.5 101t74 108.5t94.5 107.5t109 97.5t118.5 79.5t123 54t122 20q20 0 28 -9.5t8 -17.5z" />
    <glyph glyph-name="B" unicode="B" horiz-adv-x="710" 
d="M856 635q0 -31 -25 -70t-68 -78t-101 -73t-124 -54h10q11 0 32 -2t42 -10t36.5 -25t15.5 -46q0 -31 -16.5 -63.5t-44.5 -64t-65 -60t-77 -51.5q9 -1 18.5 -1h19.5q54 0 104 11.5t90 46.5l9 -11q-42 -37 -91.5 -49t-118.5 -12q-14 0 -27.5 0.5t-26.5 1.5
q-44 -22 -86.5 -34.5t-77.5 -12.5q-31 0 -53 9.5t-35 24t-19 31t-6 31.5t5.5 24.5t13.5 9.5q5 0 14 -3t17 -7q44 -20 103 -36t123 -22q37 20 71.5 46t61.5 56t43 62t16 65q0 23 -8 38t-21.5 23.5t-31 12t-36.5 3.5q-35 0 -67.5 -6t-48.5 -6q-11 0 -11 4q0 2 2.5 4.5t7.5 3.5
q83 12 154.5 45.5t124 76t82 86.5t29.5 77q0 26 -19 41t-61 15q-65 0 -132 -24.5t-132 -65t-126.5 -94t-115.5 -111.5t-99 -116t-77 -109t-50 -90.5t-18 -59.5q0 -17 14 -17q11 0 33.5 25t52 65t62 89t62.5 96.5t53.5 88.5t35.5 65q5 12 13 12q10 0 10 -8v-5q0 -1 -1 -2
q-11 -27 -35.5 -70.5t-56 -92.5t-66.5 -99t-68 -90t-60.5 -65t-43.5 -25q-21 0 -21 28q0 25 16.5 67.5t47 95.5t74 112.5t97 117.5t117 111t133.5 93.5t146 64.5t155 24q54 0 77.5 -17t23.5 -46zM424 28q-48 6 -88.5 16t-69.5 21q-34 12 -62 26q-4 0 -4.5 -4t-0.5 -8
q0 -48 26 -67.5t67 -19.5q28 0 62 9.5t70 26.5z" />
    <glyph glyph-name="C" unicode="C" horiz-adv-x="403" 
d="M790 625q0 -25 -17 -55t-45 -60.5t-64 -59.5t-74 -51.5t-75.5 -36t-68.5 -13.5q-26 0 -26 30q0 26 28.5 69t101.5 98q8 4 15 4q6 0 10.5 -2t4.5 -7q0 -7 -22 -25t-48.5 -41.5t-48.5 -50.5t-22 -51q0 -11 16 -11q26 0 58.5 12.5t66.5 33.5t66.5 48t58 55.5t41 56.5
t15.5 51q0 26 -23 41.5t-79 15.5q-77 0 -154.5 -31.5t-148.5 -82.5t-132 -116t-106 -131.5t-71 -129t-26 -109.5q0 -49 30.5 -69t75.5 -20q33 0 70.5 9t74 24t69 34.5t54.5 40.5l10 -11q-68 -57 -144.5 -89t-140.5 -32q-57 0 -93.5 28t-36.5 88q0 37 15.5 83t43 96t67 101.5
t87.5 99.5t103 90t115.5 73.5t124 49.5t127.5 18q63 0 90 -18t27 -47z" />
    <glyph glyph-name="D" unicode="D" horiz-adv-x="735" 
d="M761 210q0 -3 -4.5 -7.5t-9.5 -5.5q-8 -1 -15.5 -1h-15.5h-26q-28 -61 -69.5 -106.5t-89.5 -74.5t-97.5 -43.5t-93.5 -14.5q-30 0 -55 6.5t-44 19t-29.5 31t-10.5 42.5v8.5t1 8.5q-34 -28 -67 -51q-28 -20 -56.5 -36t-46.5 -16q-13 0 -22 7t-9 23q0 39 30 97t75.5 122.5
t100.5 129.5t105 120q-17 56 -17 106q0 46 11 79.5t30 55t45 32t55 10.5q48 0 100 -25.5t95.5 -72t71.5 -111.5t28 -144q0 -56 -9.5 -103t-26.5 -88h7q23 0 38 2t20 2q1 -1 1 -2zM703 383q0 81 -26.5 145.5t-67 109.5t-88.5 68.5t-91 23.5q-49 0 -82.5 -32.5t-33.5 -100.5
q0 -52 19 -105q42 45 73.5 76.5t43.5 42.5q4 4 12 4t15 -5q2 -1 2 -4q0 -5 -5 -10.5t-10 -10.5q-18 -16 -49.5 -48t-70.5 -75q20 -45 50.5 -88t72 -78t92 -58t110.5 -29q16 38 25 81t9 93zM664 198q-67 7 -122 29t-97.5 54.5t-73 73.5t-48.5 84q-51 -56 -105 -121
t-99 -125.5t-74 -110.5t-29 -76q0 -10 6.5 -14t14.5 -4q25 0 54.5 19t56.5 41.5t48 41.5t29 19q3 0 3.5 -10t0.5 -21q0 -54 34.5 -80.5t86.5 -26.5q39 0 83.5 14.5t87 43t80.5 71t63 98.5z" />
    <glyph glyph-name="E" unicode="E" horiz-adv-x="709" 
d="M805 704q0 -3 -2.5 -6t-7.5 -3q-8 1 -14.5 1h-11.5q-45 0 -91 -20.5t-84 -50.5t-62 -64t-24 -62q0 -24 21.5 -39.5t71.5 -15.5q32 0 57 9.5t33 9.5q9 0 9 -11q0 -7 -11 -9q-69 -12 -136 -50t-120.5 -88.5t-86 -105t-32.5 -99.5q0 -56 38 -82.5t95 -26.5q60 0 128.5 26.5
t125.5 77.5l11 -10q-73 -63 -142 -89.5t-126 -26.5q-36 0 -66 9t-51 25.5t-33 39t-12 48.5q0 44 28.5 94.5t73.5 97.5t100 86t109 59q-66 0 -93.5 18t-27.5 46q0 26 21 57.5t54.5 61t77 54.5t88.5 38q6 2 6 5q0 2 -5 2.5t-19 0.5q-81 0 -154 -45t-144.5 -115.5
t-144.5 -156.5t-154.5 -168.5t-174.5 -151.5t-204 -105q-2 -1 -4 -1t-2 3q0 4 3.5 9.5t5.5 6.5q69 18 134 59t126.5 96.5t120.5 120t117.5 129t116 124t117 106t120.5 74t126 27.5q35 0 55.5 -2t31.5 -4.5t14.5 -6t3.5 -6.5z" />
    <glyph glyph-name="F" unicode="F" horiz-adv-x="653" 
d="M850 289q-3 -11 -8.5 -14.5t-13.5 -3.5q-10 0 -45.5 0.5t-82.5 0.5h-41t-41 -1q-53 -67 -115 -127t-132 -104q21 -2 42 -3.5t42 -1.5q51 0 98.5 12.5t92.5 47.5q1 1 3 1q4 0 6 -4.5t2 -6.5q-48 -39 -96.5 -51.5t-100.5 -12.5q-21 0 -45.5 1.5t-66.5 4.5
q-53 -30 -108.5 -47.5t-112.5 -18.5q-27 0 -56.5 6t-54.5 18t-41.5 30t-16.5 41q0 9 6.5 18t27.5 11q12 0 46.5 -5t82 -11.5t103 -13.5t109.5 -12q69 42 132.5 101t117.5 126q-73 -2 -144.5 -5t-136.5 -3q-5 0 -7.5 1.5t-2.5 9.5q1 7 6 8.5t9 1.5q13 0 45.5 1t74 2t87.5 2
t85 2q42 54 76.5 107.5t59 101t38 86t13.5 62.5q0 33 -32 33q-25 0 -65.5 -14.5t-97 -31.5t-129.5 -31.5t-163 -14.5q-3 0 -19.5 1t-40.5 3t-50.5 5t-49.5 8t-38 11.5t-15 14.5q0 2 1 5t2 8q3 9 11 9q37 -10 78 -19q35 -8 80.5 -13.5t93.5 -5.5q71 0 134.5 13t116 28t92 28
t62.5 13q20 0 34.5 -13.5t14.5 -33.5q0 -27 -12 -67t-34.5 -87t-54.5 -99.5t-72 -105.5q20 0 35.5 0.5t24.5 0.5q4 1 24.5 1.5t44 1t44 1t24.5 0.5q6 0 13 -1t7 -6zM310 29q-54 5 -107 11.5t-96 12.5q-50 7 -96 14q-9 0 -16 -5t-7 -15q0 -12 10 -24.5t28 -22.5t44 -16.5
t57 -6.5q46 0 92 14t91 38z" />
    <glyph glyph-name="G" unicode="G" horiz-adv-x="833" 
d="M835 84q-46 -39 -100.5 -50t-111.5 -11h-34.5t-33.5 2q-45 -26 -94 -42.5t-100 -16.5q-37 0 -74 8t-66.5 21.5t-47.5 32.5t-18 41q0 29 46 29q15 0 49 -7.5t81 -17t103.5 -19t117.5 -14.5q43 28 77.5 63.5t59 73t38 73.5t13.5 64q0 29 -14.5 46.5t-46.5 17.5
q-12 0 -26.5 -4t-31 -8.5t-34 -8.5t-33.5 -4q-39 0 -57.5 24.5t-21.5 64.5q-72 -68 -153.5 -137.5t-167 -132t-171.5 -114.5t-165 -86l-4 -2q-2 -1 -4 -1h-4q-3 0 -5 2q-1 1 -1 3q0 5 15 12q93 45 184 102t175.5 120t160.5 129t140 129q1 35 11.5 75.5t28.5 80.5t42 76.5
t52.5 65t60 45.5t64.5 17q26 0 26 -22q0 -19 -19 -53.5t-53.5 -79t-82.5 -97t-105 -108.5q-1 -5 -1 -10v-10q0 -35 16 -56.5t51 -21.5q16 0 33 3.5t33.5 8t30.5 8t24 3.5q49 0 71 -20.5t22 -53.5q0 -29 -15.5 -65.5t-42.5 -74t-64.5 -74t-81.5 -65.5q14 -1 27 -1h27
q55 0 105.5 13t89.5 45q1 1 3 1q4 0 5.5 -5t1.5 -7zM730 799q0 13 -13 13q-26 0 -59 -31t-64 -78.5t-55.5 -103t-34.5 -104.5q52 53 94 101t71 88t45 69.5t16 45.5zM531 26q-62 5 -114.5 14.5t-95 18.5t-74 16t-51.5 7q-17 0 -17 -11q0 -10 14 -25.5t38 -30.5t57 -25.5
t71 -10.5q47 0 90.5 13t81.5 34z" />
    <glyph glyph-name="H" unicode="H" horiz-adv-x="572" 
d="M872 748q0 -4 -2.5 -7.5t-6.5 -8.5q-19 -25 -60 -79t-92.5 -123.5t-107.5 -147t-105 -149.5q26 -3 45 -3h49q9 0 9 -4q-2 -3 -5 -7q-5 -7 -8 -7q-4 -4 -21 -4q-11 0 -32.5 3.5t-45.5 8.5q-11 -17 -22 -32.5t-21 -30.5q11 -33 11 -62t-11 -53t-26.5 -41.5t-32.5 -27
t-29 -9.5q-17 0 -17 17q0 25 22.5 71.5t59.5 106.5q-8 23 -22 46t-35 47q-16 5 -16 10q0 3 5 3t12.5 -2.5l16.5 -5.5q17 -6 40.5 -11t48.5 -9q44 67 95.5 139t102 140.5t96.5 129t79 104.5q2 3 5 5q6 4 10 4q5 0 8 -3.5t3 -7.5zM584 694q0 -3 -4 -8q-25 -39 -56 -90.5
t-66.5 -110.5t-74 -121t-78.5 -121t-80 -111t-79 -91.5t-75 -62.5t-68 -23q-34 0 -47.5 20.5t-13.5 50.5q0 29 9 62t21 61t24 46.5t18 18.5q2 0 2 -8q-1 -6 -5.5 -21.5t-4.5 -38.5q0 -13 1.5 -20t3 -12t2.5 -9t1 -10t-5 -6q-7 0 -10.5 9t-5 20t-2.5 20t-2 9t-5 -7
q-10 -26 -18.5 -54t-8.5 -54q0 -12 2.5 -23.5t8.5 -20.5t15.5 -15t24.5 -6q34 0 76.5 35.5t90 94.5t97.5 134.5t99 155.5t95.5 158.5t85.5 142.5q2 4 7 8t10 4q3 0 9 -2t6 -4zM465 224q-22 5 -38 8.5t-20 5.5q-4 0 -10 3q24 -29 40 -60q7 11 13.5 21.5t14.5 21.5zM437 88
q0 21 -6 45q-32 -51 -51.5 -89t-19.5 -54q0 -10 7 -10t19 9.5t23 24.5t19.5 34.5t8.5 39.5z" />
    <glyph glyph-name="I" unicode="I" horiz-adv-x="755" 
d="M1018 686q0 -25 -22 -70.5t-62 -103t-95.5 -122.5t-121.5 -128t-141.5 -119.5t-154.5 -98.5v-1q32 -5 64 -8.5t63 -3.5q57 0 107.5 14t90.5 49q1 1 3 1q4 0 5.5 -5t1.5 -7q-45 -39 -100.5 -55t-116.5 -16q-31 0 -61.5 3t-62.5 8q-11 -37 -18 -72.5t-9 -69.5
q-1 -17 -6 -17q-6 0 -8 6q-1 3 -1 7q0 35 5.5 72.5t16.5 77.5q-2 1 -5 1q-64 -30 -128.5 -47.5t-128.5 -17.5q-28 0 -58 7t-55.5 22.5t-43.5 41t-22 62.5q0 17 8 29.5t22 12.5q36 0 83 -10t100 -24t110.5 -29.5t115.5 -26.5l9 5q22 74 58.5 151.5t83 151t101 138t112 113
t117 76.5t115.5 28q10 0 19.5 -5.5t9.5 -19.5zM1003 683q0 14 -20 14q-38 0 -86.5 -26t-101 -70.5t-106 -105.5t-102 -130.5t-89.5 -145.5t-68 -151q75 43 146 101t135 120.5t117.5 125.5t92.5 117t60.5 94t21.5 57zM364 34q-54 12 -106.5 26.5t-100 28t-89 22.5t-73.5 9
q-11 0 -13.5 -10.5t-2.5 -22.5q0 -24 13 -43.5t36.5 -33.5t55.5 -21.5t70 -7.5q51 0 103.5 14t106.5 39z" />
    <glyph glyph-name="J" unicode="J" horiz-adv-x="690" 
d="M830 682q0 -18 -20.5 -66t-57 -116.5t-87 -154t-110.5 -180.5q76 19 152 21q14 -1 14 -4q0 -9 -13 -12.5t-21 -3.5q-35 0 -71.5 -6.5t-74.5 -17.5q-54 -84 -112.5 -170t-120.5 -171q32 5 62.5 16.5t56 24.5t44.5 25.5t28 19.5q12 9 22 9q6 0 6 -2q0 -1 -4 -5q-2 -2 -5 -4
q-9 -6 -29.5 -19.5t-49.5 -28.5t-64.5 -28t-74.5 -19q-85 -118 -171 -224.5t-165.5 -187.5t-148 -129t-117.5 -48q-46 0 -66.5 20.5t-20.5 57.5q0 49 35 122t96.5 157t145 172t180.5 168q-18 45 -18 101q0 70 25.5 151t71.5 162t111 156.5t145 133t172 92.5t192 35
q23 0 43 -10.5t20 -36.5zM811 683q0 12 -8.5 21.5t-33.5 9.5q-91 0 -177.5 -35.5t-164 -94t-142.5 -134t-111.5 -156.5t-73 -161t-26.5 -147q0 -39 11 -75q102 81 211.5 145t220.5 98q63 98 117 187t93.5 160t61.5 118.5t22 63.5zM501 129q-101 -35 -204 -99t-201 -144
q20 -42 62 -65.5t109 -23.5h7q60 83 117 166.5t110 165.5zM258 -214q-66 0 -110 23.5t-67 63.5q-94 -78 -176 -163.5t-143 -166t-96 -149t-35 -113.5q0 -30 18 -47.5t56 -17.5q28 0 65 21t81 59t94 90.5t103 116t108 135.5t110 148h-8z" />
    <glyph glyph-name="K" unicode="K" horiz-adv-x="502" 
d="M839 715q0 -8 -22 -33t-62 -58.5t-95.5 -70.5t-121.5 -70t-141.5 -57t-154.5 -31q-23 -33 -44 -65.5t-43 -65.5q21 -50 55.5 -103.5t81.5 -98t106.5 -73t130.5 -28.5q31 0 58 4.5t48 9.5t35 9.5t18 4.5q9 0 9 -6q0 -3 -4 -5t-18 -7t-36 -10.5t-50.5 -10t-61.5 -4.5
q-69 0 -129 26.5t-109.5 68.5t-87.5 94t-63 103q-35 -54 -70.5 -109t-72.5 -114q-8 -14 -13 -21.5t-16 -6.5q-9 0 -12 3t-3 7q0 5 3.5 12t8.5 13q1 2 14.5 22t35 53t50.5 77.5t62 93.5q-17 38 -25 72t-8 59q0 16 9 16q22 -3 43.5 -5.5t43.5 -1.5l29 1q37 57 72 110.5
t62.5 95.5t45.5 69.5t21 33.5q7 13 22 13q5 0 11 -2t6 -7q0 -3 -2.5 -7t-4.5 -7q-54 -81 -102.5 -153.5t-95.5 -143.5q84 8 161.5 37t147.5 71t133 94.5t117 108.5q9 9 14 9t9.5 -5.5t4.5 -10.5zM188 393q-29 0 -59 3q-6 0 -6 -6q0 -17 4.5 -41t15.5 -53q16 24 31.5 48.5
t32.5 48.5h-19z" />
    <glyph glyph-name="L" unicode="L" horiz-adv-x="735" 
d="M938 712q0 -19 -29 -48t-78.5 -61t-114.5 -64t-137 -56q-51 -69 -101 -145t-103 -146q63 -5 115 -23.5t88.5 -48t56.5 -68.5t20 -84q0 -15 -5 -36.5t-13.5 -41t-18.5 -33.5t-21 -14q-4 0 -4 4q0 5 4 9q8 7 13.5 20t9.5 27t6 27.5t2 23.5q0 53 -21 92.5t-57.5 66.5
t-84.5 42.5t-102 20.5q-36 -46 -73.5 -86t-76.5 -69.5t-80.5 -46.5t-85.5 -17q-43 0 -63 14t-20 36q0 26 26.5 58.5t75 61t117 48t151.5 19.5h9q51 66 101 138t102 141q-56 -17 -111.5 -27t-109.5 -10q-48 0 -76.5 8.5t-44.5 19.5q-18 12 -27 27q0 5 5.5 7.5t9.5 2.5h4
q1 0 2 -1l10 -7t29.5 -15.5t48.5 -15t67 -6.5q51 0 103 9t103 25q39 51 79 96t80.5 78.5t83 53t85.5 19.5q27 0 39 -7t12 -18zM904 704q0 15 -26 15q-38 0 -75 -17t-72.5 -46t-70 -69t-68.5 -86q65 23 121.5 52t99 58t67 54t24.5 39zM331 178q-6 1 -12.5 1h-12.5
q-64 0 -123 -18.5t-104 -45t-72 -55.5t-27 -52q0 -17 17 -27.5t55 -10.5q36 0 71 16t69.5 44t69.5 66t69 82z" />
    <glyph glyph-name="M" unicode="M" horiz-adv-x="1112" 
d="M1114 84q-13 -16 -36.5 -34.5t-51 -34.5t-56.5 -26.5t-53 -10.5q-29 0 -47 18t-18 62q0 20 8.5 54t19 72t19 74.5t8.5 60.5q0 20 -8 32t-28 12q-36 0 -82.5 -29t-94.5 -72q-28 -56 -60 -106.5t-62 -89t-55.5 -61t-40.5 -22.5q-17 0 -17 16t17 45.5t46 65.5t66.5 75
t78.5 74q18 36 33 74t26.5 74.5t18 71.5t6.5 66t-7.5 57t-23.5 44.5t-42 29t-64 10.5t-84 -16q-17 -83 -44 -166.5t-62 -160t-76.5 -142.5t-87 -114.5t-94 -76t-96.5 -27.5q-53 0 -76 24.5t-23 66.5q0 41 20.5 94.5t57 112t86.5 118t108 112t122.5 94.5t129.5 65
q14 66 21 127t7 113q0 25 13 25q12 -2 15 -10.5t3 -19.5v-13q0 -51 -5.5 -103.5t-16.5 -106.5q23 6 46 9.5t46 3.5q43 0 72.5 -11t48 -31t26.5 -47.5t8 -60.5q0 -55 -19.5 -120t-50.5 -131q47 36 90.5 58.5t76.5 22.5q30 0 41.5 -14t11.5 -38t-8.5 -59.5t-19 -73.5t-19 -75
t-8.5 -65t12.5 -39.5t32.5 -11.5q21 0 47.5 10t52.5 24.5t48.5 31.5t36.5 30zM646 217q-33 -33 -63.5 -67.5t-53 -63.5t-36 -50t-13.5 -28q0 -3 3 -3q11 0 29 16.5t40 45t46.5 67.5t47.5 83zM491 655q-57 -26 -116 -69t-114 -95.5t-104 -111t-85.5 -115t-57.5 -107.5
t-21 -88q0 -33 19 -52.5t62 -19.5q47 0 91.5 27.5t85.5 75.5t77.5 112t67 137t54.5 151.5t41 154.5z" />
    <glyph glyph-name="N" unicode="N" horiz-adv-x="646" 
d="M648 84q-13 -16 -36.5 -35.5t-51.5 -37t-57 -29t-53 -11.5q-28 0 -46 19.5t-18 67.5q0 32 11.5 77t26 91.5t26 88.5t11.5 67q0 29 -19 29q-15 0 -39.5 -13t-53.5 -35t-61.5 -51t-64.5 -61q-25 -51 -52.5 -98.5t-53 -84.5t-47.5 -59t-36 -22q-9 0 -9 10q0 16 14 43.5
t38 61.5t56 71.5t67 74.5q19 36 36 72.5t29.5 70.5t20 64.5t7.5 53.5q0 53 -30 88.5t-77 63t-102.5 51t-107.5 51t-92 64t-55 89.5q0 3 3 6q5 5 19 5q7 0 9 -7q20 -52 61 -87.5t90.5 -62.5t102.5 -50.5t96 -51t71 -64t28 -89.5q0 -40 -19.5 -101t-49.5 -127q30 28 59.5 52.5
t56.5 43t50.5 29t41.5 10.5q19 0 26.5 -10.5t7.5 -29.5q0 -26 -11.5 -65.5t-25.5 -84.5t-25.5 -92.5t-11.5 -89.5q0 -33 12.5 -46.5t32.5 -13.5q21 0 47.5 11.5t52.5 27.5t48.5 34.5t36.5 31.5zM174 200q-27 -29 -50 -57t-40.5 -52t-27.5 -42.5t-10 -29.5q0 -3 3 -3
q4 0 16 14.5t29.5 39.5t38 58.5t41.5 71.5z" />
    <glyph glyph-name="O" unicode="O" horiz-adv-x="513" 
d="M758 665q0 -21 -8.5 -52.5t-25 -69.5t-40 -81.5t-53.5 -88.5q2 -20 6 -37.5t12 -33.5q1 -2 1 -7q0 -6 -3 -6t-8 8q-13 24 -19 59q-47 -70 -106.5 -137.5t-127 -120.5t-141 -86t-149.5 -33q-55 0 -80 26t-25 70q0 50 28 116.5t76.5 137.5t113 140t136.5 123.5t148 88
t148 33.5q15 0 19 -1t4 -5q0 -6 -2 -8.5t-10 -2.5q-62 0 -134 -33.5t-143.5 -87.5t-137.5 -121.5t-116.5 -137t-81 -133.5t-30.5 -110q0 -37 22 -58.5t72 -21.5q70 0 141 36.5t138 94t127 129.5t107 143v9q0 4 -0.5 8t-0.5 6q0 48 9.5 98t26 90.5t37.5 66.5t45 26
q25 0 25 -36zM743 668q0 21 -14 21q-13 0 -29.5 -24.5t-31.5 -63.5t-25.5 -87t-12.5 -95q53 82 83 149.5t30 99.5z" />
    <glyph glyph-name="P" unicode="P" horiz-adv-x="387" 
d="M890 623q0 -34 -21 -75.5t-58.5 -83t-88 -79t-110.5 -63.5q39 -3 82 -3q5 0 9 -3.5t4 -5.5t-5 -2q-32 0 -60.5 1t-53.5 3q-38 -14 -77.5 -22.5t-80.5 -8.5q-38 0 -59.5 13.5t-21.5 27.5q0 11 13 18.5t41 7.5q17 0 65.5 -8.5t115.5 -15.5q58 24 107.5 61.5t85.5 80
t56.5 84.5t20.5 75q0 30 -19 48.5t-62 18.5q-64 0 -130 -26t-131.5 -69.5t-127.5 -99.5t-116.5 -116t-100.5 -119.5t-79.5 -110t-52 -87.5t-18.5 -52q0 -8 6 -8q15 0 41.5 23.5t59 61.5t68.5 86.5t69 98.5t60.5 97.5t43.5 82.5q2 3 4.5 3.5t4.5 0.5q6 0 6 -10
q0 -22 -22.5 -65t-57.5 -95t-77.5 -106t-83 -98.5t-73.5 -73t-48 -28.5q-16 0 -16 21q0 22 18 64t50.5 95.5t78 114.5t100.5 121.5t118 116t130.5 97.5t138 67.5t140.5 25.5q60 0 87 -23t27 -59zM559 314q-60 6 -98.5 13.5t-62.5 7.5q-30 0 -30 -13q0 -9 18.5 -18.5
t53.5 -9.5q61 0 119 20z" />
    <glyph glyph-name="Q" unicode="Q" horiz-adv-x="476" 
d="M645 689q-2 -6 -7 -8t-8 -2q-5 0 -12.5 2.5t-30.5 2.5q-63 0 -126.5 -22t-122.5 -57.5t-110 -79.5t-89 -88t-60 -83.5t-22 -65.5q0 -37 44 -37q29 0 71 17.5t90 46t98 65.5t95.5 75.5t83 76.5t58.5 69q7 6 14 6q2 0 5.5 -2.5t3.5 -5.5q0 -5 -5 -12l-6 -8
q-60 -109 -144 -228.5t-168 -240.5q12 -1 25 -1.5t27 -0.5q29 0 47 3.5t26 5.5q4 1 6.5 1.5t4.5 0.5q6 0 6 -6q0 -3 -5 -5q-4 -2 -22.5 -6t-57.5 -4q-34 0 -63 3q-8 -11 -15.5 -22.5t-15.5 -22.5q1 -10 1.5 -19.5t0.5 -20.5q0 -67 -16 -128.5t-42 -114.5t-58 -96.5t-64 -74
t-61 -47t-48 -16.5q-27 0 -27 32q0 24 25 74.5t66 118t94 146.5t108 160q-2 11 -4.5 22t-6.5 21q-62 17 -96 42t-34 42t30 17q45 0 74 -26t44 -69q6 -2 11.5 -3t11.5 -2q36 53 71 104t66.5 97t57.5 86t44 71v1q0 1 -1 1q-3 0 -9 -6q-82 -65 -158 -117q-32 -22 -66.5 -43
t-66.5 -37.5t-61 -26.5t-51 -10q-31 0 -45.5 14t-14.5 37q0 31 22 74t60.5 90t91.5 93t114.5 82.5t129.5 59.5t137 23q8 0 17.5 -0.5t17.5 -2.5t14 -5.5t6 -9.5zM263 106q-5 0 -13 2q1 -4 2 -7.5t2 -8.5zM224 124q-14 35 -39 56t-60 21q-9 0 -9 -6q0 -11 27 -33t81 -38z
M244 8v12.5t-1 12.5q-57 -82 -108 -156.5t-89 -134.5t-60.5 -102t-22.5 -59q0 -24 19 -24q16 0 41.5 17t54.5 47t58.5 72t53.5 92t39 106.5t15 116.5z" />
    <glyph glyph-name="R" unicode="R" horiz-adv-x="710" 
d="M866 631q0 -26 -18 -58.5t-49 -66t-72 -65t-86.5 -56.5t-92.5 -40t-91 -15q-8 0 -15 0.5t-15 1.5q-10 0 -10 -6q8 -34 20.5 -74t30.5 -80t42 -77.5t54.5 -66t68 -46t83.5 -17.5q20 0 31 1.5t17 4t9 4t6 1.5t6 -4t3 -7q0 -5 -18 -11t-43 -6q-71 0 -124 28t-91 70.5
t-62 92.5t-38.5 94t-20 76t-5.5 37q0 11 7 11q4 0 14 -5q3 -2 17 -6t38 -4q68 0 132 32t114.5 77.5t81 95t30.5 85.5q0 23 -14 36.5t-46 13.5q-66 0 -134.5 -25t-135.5 -67t-130 -97t-119 -113.5t-103 -117.5t-80.5 -109.5t-52.5 -89t-19 -55.5q0 -12 10 -12q16 0 44 29
t61.5 73t69 97t66 101.5t53 85.5t28.5 50q4 10 12 10t10 -2.5t2 -5.5q0 -11 -19.5 -49t-51 -88t-70.5 -105t-78 -101.5t-74.5 -76.5t-59.5 -30q-20 0 -20 23t19 65t53 94.5t81.5 112t104.5 118t121.5 112.5t133.5 95t140 65.5t140 24.5q56 0 80 -17.5t24 -45.5z" />
    <glyph glyph-name="S" unicode="S" horiz-adv-x="716" 
d="M1047 660q0 -28 -29 -64.5t-79.5 -79t-118.5 -90.5t-147 -98q-10 -41 -22 -80t-28.5 -75t-38 -68t-51.5 -58q51 0 95 8t80 39q1 1 3 1q4 0 4.5 -5.5t0.5 -7.5q-21 -18 -42 -27.5t-42.5 -14t-44.5 -5.5t-49 -1h-22q-47 -35 -115.5 -55.5t-168.5 -20.5q-42 0 -76 6t-61 16
q-50 -30 -93 -57t-81 -53q-1 -1 -4 -2.5t-4 -1.5q-5 0 -5 4q0 3 7 10q21 17 63 44.5t99 62.5q-43 20 -63 45.5t-20 46.5q0 29 46 29q18 0 67.5 -10t117.5 -22q100 60 211 127t215 134q5 20 9.5 41t9.5 42q15 68 55 118.5t88 84.5t97.5 51t84.5 17q23 0 37.5 -7.5t14.5 -23.5
zM1026 654q0 12 -10.5 18t-27.5 6q-28 0 -70.5 -15.5t-84.5 -44.5t-77.5 -71t-50.5 -96q-7 -24 -13 -48t-12 -47q72 47 135.5 91t110 83t73.5 70.5t27 53.5zM643 310q-94 -60 -194.5 -120t-198.5 -118q58 -10 121.5 -17t125.5 -8q60 48 93 117t53 146zM482 35
q-75 2 -138.5 8.5t-116.5 14.5q-60 -36 -117 -69q24 -8 56.5 -13.5t75.5 -5.5q79 0 137.5 17.5t102.5 47.5zM202 62q-57 9 -94 16.5t-51 7.5q-30 0 -30 -13q0 -17 14 -38t51 -38z" />
    <glyph glyph-name="T" unicode="T" horiz-adv-x="654" 
d="M806 650q0 -30 -15 -76.5t-43 -101.5t-67.5 -115t-87.5 -117.5t-104.5 -109.5t-117.5 -90q21 -2 42 -3.5t42 -1.5q51 0 98.5 12.5t92.5 47.5q1 1 3 1q4 0 6 -4.5t2 -6.5q-48 -39 -96.5 -51.5t-100.5 -12.5q-21 0 -45.5 1.5t-66.5 4.5q-53 -30 -108.5 -47.5t-112.5 -18.5
q-27 0 -56.5 6t-54.5 18t-41.5 30t-16.5 41q0 9 6.5 18t27.5 11q12 0 46.5 -5t82 -11.5t103 -13.5t109.5 -12q61 37 118.5 88.5t107.5 109.5t92 119t72 115.5t46.5 99.5t16.5 72q0 33 -32 33q-25 0 -65.5 -14.5t-97 -31.5t-129.5 -31.5t-163 -14.5q-3 0 -19.5 1t-40.5 3
t-50.5 5t-49.5 8t-38 11.5t-15 14.5q0 2 1 5t2 8q3 9 11 9q37 -10 78 -19q35 -8 80.5 -13.5t93.5 -5.5q71 0 134.5 13t116 28t92 28t62.5 13q20 0 34.5 -13.5t14.5 -33.5zM310 29q-54 5 -107 11.5t-96 12.5q-50 7 -96 14q-9 0 -16 -5t-7 -15q0 -12 10 -24.5t28 -22.5
t44 -16.5t57 -6.5q46 0 92 14t91 38z" />
    <glyph glyph-name="U" unicode="U" horiz-adv-x="651" 
d="M749 468q0 -4 -7 -15q-12 -17 -34.5 -48.5t-49 -71t-54 -83.5t-50 -86.5t-37 -80.5t-14.5 -64v-8t1 -11q0 -4 -1 -7.5t-5 -3.5q-7 0 -8.5 7t-1.5 18q0 42 14 84.5t35.5 83.5t46.5 80t47 73l-1 1q-2 0 -13 -11q-4 -5 -33.5 -32.5t-73.5 -66t-97.5 -82.5t-106 -80.5
t-99 -61t-76.5 -24.5q-20 0 -30.5 12t-10.5 39q0 34 16 77.5t42.5 92t60.5 99t69 99t69 91.5t60.5 75.5t42.5 53t16 22.5t-2 2q-4 0 -9 -4q-5 -5 -31.5 -22t-68.5 -39.5t-96 -48t-113 -46.5t-120.5 -35t-117.5 -14q-18 0 -45.5 3.5t-53.5 10.5t-45 18t-19 26q0 13 11 13
q4 0 6 -1t3 -1q13 -6 27.5 -14t34 -14.5t45.5 -11t63 -4.5q46 0 99 10.5t107.5 28.5t108.5 41.5t102.5 50t89.5 53.5t70 52q5 5 13 5q9 0 9 -10q0 -7 -6 -14q-27 -35 -69 -88.5t-88.5 -115.5t-93 -127.5t-84 -124.5t-61 -107t-23.5 -74q0 -40 33 -40q27 0 71.5 24.5t96 62
t105.5 82.5t101 87t81.5 75.5t46.5 46.5q16 17 30 32.5t25 27.5t18.5 20.5t8.5 9.5q9 10 15 10q8 0 8 -7z" />
    <glyph glyph-name="V" unicode="V" horiz-adv-x="537" 
d="M1171 804q0 -8 -6.5 -10.5t-10.5 -4.5q-97 -24 -180 -72.5t-154 -110.5t-133 -133.5t-117.5 -142.5t-106.5 -136.5t-101 -116t-100.5 -80.5t-105.5 -30q-43 0 -61.5 17.5t-18.5 48.5q0 36 22 86.5t57 107.5t78 115.5t85 111.5t78.5 96t57.5 67l-1 1q-1 0 -27 -15
t-68.5 -37t-98 -48.5t-116.5 -48.5t-123 -37t-117 -15q-38 0 -69 7t-52.5 17.5t-33.5 21.5t-12 18q0 5 3.5 10.5t11.5 5.5q5 0 7 -3q14 -19 37 -30t47.5 -16t47 -6t34.5 -1q50 0 106 12.5t113.5 32.5t112 44.5t101 49t82 46t54.5 34.5q11 8 20.5 13.5t14.5 5.5q4 0 4 -7
q0 -6 -18.5 -29.5t-49.5 -60t-70 -83t-79.5 -97t-79.5 -103t-70 -100.5t-49.5 -90t-18.5 -71q0 -26 15.5 -40t52.5 -14q49 0 98 32t99.5 84.5t104 121.5t111.5 142.5t122 147t135 135.5t150.5 107.5t169.5 64.5q16 0 16 -15z" />
    <glyph glyph-name="W" unicode="W" horiz-adv-x="875" 
d="M1474 835q0 -10 -4 -14.5t-9 -4.5q-88 -29 -164 -81t-144 -117t-128 -138.5t-115 -146t-106 -138.5t-100.5 -116.5t-98.5 -80.5t-100 -30q-35 0 -49.5 18t-14.5 48t12 68.5t30 79t39.5 80t40.5 72t33.5 53.5t17.5 26q4 5 4 8q0 2 -1 2q-2 0 -6 -4q-6 -6 -37.5 -41.5
t-78 -84.5t-103 -105t-112 -103t-105 -78t-83.5 -31q-21 0 -30 10.5t-9 29.5q0 26 15 64.5t40 84.5t56.5 96.5t65 99.5t66 94t58 80t42.5 57t19 26q0 2 -1 2q-2 0 -4 -1q-88 -57 -181 -102q-40 -19 -84.5 -37.5t-91.5 -33t-95 -23.5t-93 -9t-76 9t-50 20t-27 21t-8 12
q0 5 4 7t7 2t13.5 -7.5t31 -16.5t54 -16.5t83.5 -7.5q63 0 139.5 21.5t153.5 55.5t147.5 75.5t121.5 81.5q13 11 23 11q3 0 4.5 -3t1.5 -6q0 -6 -6 -14q-15 -15 -40 -45t-55.5 -70t-65.5 -87.5t-69 -97t-65 -98.5t-54.5 -92.5t-37.5 -79t-14 -58.5q0 -31 29 -31q21 0 56 21
t77 55t89 77.5t92 88.5q106 106 228 242q27 32 53 64t48 59.5t37.5 46.5t20.5 25q4 4 11.5 10t12.5 6q6 0 6 -8q0 -7 -6 -17t-24.5 -31.5t-57.5 -72.5q-7 -9 -31.5 -42.5t-57 -81t-68.5 -104t-66 -112.5t-50 -106t-20 -84q0 -24 12 -38t39 -14q44 0 92 32.5t99 87t106 125.5
t114 147t122 152t130.5 140.5t139.5 112.5t148 69q3 0 6 -2q2 -2 4 -4.5t2 -8.5z" />
    <glyph glyph-name="X" unicode="X" horiz-adv-x="707" 
d="M916 681q0 -3 -6 -8q-2 -1 -23 -16l-56 -40t-82 -58.5t-101.5 -72t-114 -80.5t-119.5 -84q-20 -57 -35 -110t-15 -93q0 -35 8 -59t22.5 -38.5t33.5 -21t40 -6.5q24 0 49 6.5t48.5 16.5t44 23t34.5 25q6 5 9 5t3 -4q0 -6 -3 -9q-7 -10 -27.5 -25t-49 -28.5t-61 -23
t-62.5 -9.5q-34 0 -56 9.5t-35 27t-18 42t-5 55.5q0 35 15 88t35 112q-81 -57 -157 -110.5t-135 -95t-95 -67t-39 -27.5q-11 -7 -13 -7t-5 3t-3 6q0 5 4 9q2 2 5 3q7 5 47.5 33t102 71.5t139 98t159.5 111.5q12 36 24.5 70.5t22.5 66t16 57t6 43.5q0 15 -5.5 21t-16.5 6
q-20 0 -54 -18t-75 -39.5t-84 -39.5t-81 -18q-22 0 -36.5 13.5t-14.5 37.5q0 21 14 47.5t46.5 57.5t87 63.5t135.5 65.5q5 0 10.5 -6t5.5 -11t-15 -12q-65 -22 -115 -49.5t-84.5 -56t-52 -55t-17.5 -46.5q0 -16 12 -25.5t38 -9.5q22 0 48 9.5t53.5 23.5t55.5 30.5t53.5 30.5
t47.5 23.5t38 9.5q14 0 23 -10t9 -33q-4 -42 -25.5 -103t-44.5 -127q87 62 171 121t150 106t107.5 76t43.5 31q6 4 11 4q9 0 9 -7z" />
    <glyph glyph-name="Y" unicode="Y" horiz-adv-x="495" 
d="M697 665q0 -7 -6.5 -15t-15.5 -19q-17 -18 -48.5 -63t-74 -109t-94.5 -143t-109 -166q79 43 162 77q1 0 3 -1q3 -1 3 -6q0 -6 -8 -9q-84 -30 -172 -80q-61 -93 -126 -189t-130 -186t-127 -169t-117.5 -138.5t-102 -93.5t-79.5 -34q-32 0 -47 14t-15 40q0 35 25.5 88
t72 117t111.5 135t143 142t167 138.5t183 123.5q44 66 84 127.5t75 114t63.5 95t49.5 69.5q0 3 -2 3q-4 0 -6 -4q-21 -25 -56.5 -59.5t-78.5 -71.5t-90.5 -73.5t-93 -65.5t-85.5 -47t-68 -18q-26 0 -37 10.5t-11 28.5q0 25 18 62t45.5 78.5t60 83.5t61 76.5t49 58.5t23.5 29
q2 2 2 5q0 2 -2 2t-3 -1q-16 -11 -47 -29.5t-73 -40t-92.5 -44t-103.5 -40t-107 -29t-104 -11.5q-51 0 -84 7.5t-52 17.5t-26.5 20.5t-7.5 15.5q0 13 10 13q8 0 20.5 -8.5t33 -18.5t51.5 -18.5t76 -8.5q61 0 124 15t123 38t113 50.5t95 53.5t70 46t36 27q14 12 23 12
q5 0 8.5 -3t3.5 -8q0 -7 -8 -15q-15 -17 -44 -50.5t-63 -75.5t-69.5 -88t-64.5 -88.5t-47.5 -78t-18.5 -56.5q0 -23 25 -23q20 0 52 14.5t71.5 38.5t83 56.5t87 68.5t84 73.5t72.5 72.5q21 23 40.5 45.5t34.5 40.5t24.5 30t10.5 14q5 7 12.5 14.5t15.5 7.5q6 0 11 -5t5 -10z
M281 97q-84 -52 -165.5 -116.5t-155.5 -132.5t-137 -137t-109 -130.5t-72 -111.5t-26 -82q0 -44 51 -44q26 0 65.5 32t89 87t106 128.5t116 157.5t120 173.5t117.5 175.5z" />
    <glyph glyph-name="Z" unicode="Z" horiz-adv-x="729" 
d="M895 605q0 -43 -35 -97.5t-101.5 -108.5t-162 -102.5t-215.5 -78.5q0 -4 10 -4q85 0 127.5 -29t53.5 -80q17 4 33.5 6t32.5 4q8 0 8 -8q0 -6 -4 -8.5t-17 -2.5q-22 0 -50 -5q1 -5 1 -11v-12q0 -51 -22.5 -113t-61.5 -129t-91.5 -136t-113.5 -133t-127 -120.5t-132 -98.5
t-129 -66t-117 -24q-28 0 -53.5 5t-45 19t-31 38.5t-11.5 63.5q0 62 41.5 134t112 146t162.5 145t193.5 131.5t205 105t196.5 65.5q-8 46 -48 73t-118 28q-23 0 -50.5 -4t-38.5 -7q-8 0 -11.5 1.5t-5.5 3.5q-3 3 -3 5t2 4t7 3q122 20 226.5 67.5t181.5 106t120.5 118.5
t43.5 105q0 33 -26.5 53.5t-84.5 20.5q-53 0 -125 -24t-149 -66.5t-151.5 -101t-133.5 -127.5t-95.5 -147t-36.5 -158q0 -15 3.5 -25t7.5 -17t7.5 -12.5t3.5 -12.5q0 -3 -3 -4.5t-5 -1.5q-10 8 -19 21q-8 11 -14 29.5t-6 45.5q0 77 34.5 152.5t92 144t132.5 127.5
t155.5 102.5t161 68t149.5 24.5q72 0 105.5 -25t33.5 -67zM553 87q-60 -12 -129.5 -39t-143 -65t-147.5 -85.5t-142 -100t-127.5 -108.5t-103 -112t-68.5 -109.5t-25 -100.5q0 -48 29 -73.5t78 -25.5q47 0 106.5 24t124 66t131.5 97.5t129 119t116.5 131.5t94 133.5
t60.5 125.5t18 108z" />
    <glyph glyph-name="bracketleft" unicode="[" horiz-adv-x="370" 
d="M586 739q-1 -3 -4 -7q-5 -7 -18 -7h-167q-78 -211 -162.5 -426.5t-162.5 -426.5h172q4 0 8 -1q7 -2 7 -8q0 -5 -6 -9t-17 -4h-179q-3 -1 -7 1q-7 3 -7 11l329 866q2 7 8 13.5t9 6.5h181q4 0 8 -1q8 -2 8 -8z" />
    <glyph glyph-name="backslash" unicode="\" horiz-adv-x="421" 
d="M278 -68q0 -7 -1 -12t-4 -5t-11 3q-10 5 -10 13.5t-1 25.5q-4 107 -9 204.5t-10 194t-11 198t-13 216.5q-1 5 -2.5 11t-1.5 12q0 10 7 10q11 0 18 -7.5t7 -18.5q0 -7 1.5 -46t4.5 -97.5t6.5 -131t7.5 -147.5t7.5 -146.5t6.5 -128t5 -91.5t2 -37q0 -3 0.5 -8.5t0.5 -11.5z
" />
    <glyph glyph-name="bracketright" unicode="]" horiz-adv-x="370" 
d="M150 -130q-2 -7 -8 -13.5t-9 -6.5h-181q-4 0 -8 1q-8 2 -8 8q1 3 4 7q5 7 18 7h167q78 211 162.5 426.5t162.5 426.5h-172q-3 0 -7 1q-8 2 -8 8q0 5 6 9t17 4h179q3 1 7 -1q7 -3 7 -11z" />
    <glyph glyph-name="underscore" unicode="_" horiz-adv-x="373" 
d="M252 -11q-1 -9 -4 -12t-8 -3l-260 -4q-2 0 -3 1.5t-1 8.5t2 8t4 1h270z" />
    <glyph glyph-name="grave" unicode="`" horiz-adv-x="409" 
d="M249 235q0 -1 -6 -3q-14 5 -31 11t-31.5 13t-24 13.5t-9.5 11.5t4 9.5t9 4.5q3 0 6 -3q14 -12 28.5 -21.5t26.5 -16.5t20 -11.5t8 -7.5z" />
    <glyph glyph-name="a" unicode="a" 
d="M323 84q-10 -11 -31.5 -26t-47.5 -28.5t-54 -23t-51 -9.5q-26 0 -36.5 16t-10.5 37v6q-15 -12 -32.5 -23.5t-33.5 -20.5t-30 -14.5t-23 -5.5q-28 0 -28 25q0 17 14.5 41t40.5 46t61.5 37.5t78.5 15.5q22 0 26 -4t4 -8q0 -8 -6 -9.5t-8 -1.5q-6 1 -12 1h-11
q-37 0 -67 -12.5t-51 -29.5t-32.5 -35t-11.5 -30q0 -13 13 -13q10 0 26.5 7.5t33 17t30.5 19.5t20 14q5 17 16 30t27 13q7 0 7 -4q0 -5 -10 -16.5t-26 -25.5q1 -29 14.5 -40.5t34.5 -11.5q18 0 40 7.5t43.5 18.5t40.5 24.5t32 26.5z" />
    <glyph glyph-name="b" unicode="b" horiz-adv-x="284" 
d="M405 616q0 -33 -21.5 -79t-56.5 -97.5t-79 -105t-89 -102t-86.5 -88.5t-71.5 -64q-3 -12 -5 -22.5t-2 -18.5q0 -31 25 -31q15 0 29 8t26 19t22 23t16 21q-3 6 -4 12.5t-1 12.5q0 17 8.5 29.5t25.5 12.5q6 0 8 -4.5t2 -9.5q0 -20 -19 -50q9 -13 24 -19t33 -6
q23 0 46.5 9.5t40.5 28.5l10 -11q-23 -23 -50 -34t-53 -11q-23 0 -38 7t-24 18q-10 -15 -23 -28.5t-27 -24t-28.5 -17t-27.5 -6.5q-22 0 -31.5 13.5t-9.5 36.5q0 38 22 97t57.5 125.5t80.5 133t90.5 120.5t88 87.5t73.5 33.5q11 0 15 -5.5t4 -13.5zM387 611q0 10 -8 10
q-18 0 -48 -26t-65.5 -68.5t-74 -97t-73.5 -111.5t-63.5 -111.5t-44.5 -98.5q34 28 75 69.5t83 89.5t81.5 99t70 97.5t49 85t18.5 62.5z" />
    <glyph glyph-name="c" unicode="c" horiz-adv-x="207" 
d="M209 84q-10 -11 -33.5 -28t-52.5 -32.5t-59 -26.5t-53 -11q-31 0 -44 11t-13 28q0 19 13.5 41.5t33.5 42t44.5 32.5t46.5 13q8 0 14 -4.5t6 -12.5t-5 -16.5t-14 -8.5t-9 8q0 2 1.5 4t1.5 5q0 5 -7 5q-13 0 -30.5 -10.5t-33 -26t-26 -33t-10.5 -31.5q0 -12 10 -20t33 -8
q17 0 42 9.5t50.5 23t48.5 29.5t35 28z" />
    <glyph glyph-name="d" unicode="d" horiz-adv-x="345" 
d="M462 589q0 -5 -4.5 -15.5t-16.5 -29.5q-21 -32 -51 -77t-64.5 -95t-69.5 -101.5t-65 -96.5q-8 -13 -18.5 -28.5t-19.5 -32t-15.5 -32t-6.5 -28.5q0 -16 11 -25.5t39 -9.5q18 0 40 7.5t44 18.5t41 25t31 26l10 -11q-10 -11 -31.5 -26t-47.5 -28.5t-54 -23t-51 -9.5
q-32 0 -43.5 12.5t-11.5 30.5q0 12 3.5 25.5t8.5 26.5q1 2 -16.5 -13.5t-42 -35t-51.5 -36t-45 -16.5q-21 0 -21 23q0 15 10 35t30 39.5t49.5 36.5t69.5 25q3 0 7 -1.5t4 -9.5t-15 -11q-24 -3 -48 -16.5t-43.5 -30t-31.5 -33t-12 -26.5q0 -11 14 -11q10 0 29 10t45.5 31.5
t58 56.5t66.5 84q39 56 98 147t138 213q17 25 27 35t15 10q3 0 5 -3t2 -6z" />
    <glyph glyph-name="e" unicode="e" horiz-adv-x="192" 
d="M194 84q-10 -11 -32 -28t-49 -32.5t-55.5 -26.5t-51.5 -11q-17 0 -32 11.5t-15 32.5q0 22 13.5 42.5t32.5 36t39.5 25t34.5 9.5q11 0 15 -5t4 -12q0 -9 -10 -20.5t-26 -24t-36.5 -24.5t-40.5 -23q0 -13 7 -21t26 -8q17 0 40.5 9.5t47 23t45 29.5t33.5 28zM74 119
q0 6 -8 6q-12 0 -24 -7t-23 -18t-19 -24t-12 -26q38 19 62 38t24 31z" />
    <glyph glyph-name="f" unicode="f" horiz-adv-x="284" 
d="M407 574q0 -3 -14.5 -26t-36.5 -56.5t-48.5 -72.5t-50 -73t-40.5 -58.5t-20 -29.5q-3 -4 -13.5 -20t-25 -37.5t-30 -45.5t-28.5 -44q1 -5 1 -14q0 -17 -3.5 -34t-8.5 -37q13 -8 31 -8t40 7.5t44 18.5t41 25t31 26l10 -11q-10 -11 -31.5 -26t-47.5 -28.5t-54 -23t-51 -9.5
q-13 0 -20 4q-15 -45 -39 -93t-53 -94t-60 -87.5t-60 -72.5t-53 -49t-39 -18q-8 0 -14 4.5t-6 10.5q0 12 18 46t46 79.5t62 97.5t67 101.5t61 90.5t43 64q2 12 7.5 21t15.5 14q12 18 26 40t27 41t21.5 33t9.5 15t1 3t-2 2q-1 0 -3 -2q-8 -13 -29 -36.5t-45.5 -49.5
t-49.5 -50t-41 -36h-23q6 5 11 9.5t11 9.5q56 51 96.5 92.5t66.5 70.5q31 34 52 62q2 2 13.5 19.5t29 43t37 55t37.5 56.5t31 47t17 26q12 19 23 19q5 0 8.5 -3.5t3.5 -8.5zM81 82q-2 -2 -2.5 -4.5t-2.5 -4.5t-3 -4q-2 -2 -2 -3q0 -8 2 -13.5t4 -10.5q2 10 3 20t1 20zM69 11
q-11 12 -14 33q-16 -24 -42.5 -63.5t-56.5 -85t-60.5 -93.5t-55.5 -88t-40.5 -68.5t-15.5 -35.5q0 -2 2 -2q10 0 31 17t48.5 46.5t57.5 69t58.5 84.5t51.5 92.5t36 93.5z" />
    <glyph glyph-name="g" unicode="g" horiz-adv-x="253" 
d="M255 84q-15 -16 -48 -37q-53 -31 -102 -61.5t-95 -61.5q-34 -57 -73 -121t-79 -117t-78.5 -88t-71.5 -35q-20 0 -28 8t-8 21q0 31 23 70t65.5 82.5t102.5 91.5t135 98q14 22 24 40.5t18 32.5q9 16 16 29q0 3 -1 3h-2q-6 -4 -17.5 -11.5t-24.5 -14.5t-26 -12t-23 -5
q-21 0 -21 25q0 21 21 45t48 44.5t52.5 34.5t35.5 14q5 0 11 -4.5t6 -9.5q0 -2 -13 -6q-23 -6 -47.5 -20.5t-44 -30.5t-32 -31t-12.5 -23q0 -14 18 -14q12 0 28.5 9.5t33 23t31 28t21.5 24.5q12 16 20 16q3 0 6 -2t3 -6t-2 -10q-1 -2 -4.5 -8t-8 -12.5t-9 -12.5t-6.5 -9
q-13 -17 -30.5 -44.5t-38.5 -61.5q38 24 78 48.5t83 49.5q17 10 31.5 21t24.5 21zM-22 -99q-62 -44 -114 -86.5t-89 -81.5t-57.5 -73t-20.5 -61q0 -18 25 -18q21 0 52 31t66.5 78.5t71.5 104t66 106.5z" />
    <glyph glyph-name="h" unicode="h" horiz-adv-x="342" 
d="M445 620q0 -26 -25 -70t-64.5 -96t-89 -108t-98 -106.5t-92 -91t-70.5 -62.5q-8 -19 -12.5 -33t-4.5 -23q0 -7 2.5 -12t6.5 -5q12 0 38.5 16.5t54 37t50.5 37t27 16.5t6 -2q5 -4 5 -9q0 -6 -4.5 -13t-9.5 -15t-9 -16.5t-4 -17.5q0 -17 7.5 -23t18.5 -6q18 0 40 7.5
t44 18.5t41 25t31 26l10 -11q-10 -11 -31.5 -26t-47.5 -28.5t-54 -23t-51 -9.5q-20 0 -28 13.5t-8 30.5q0 13 3 25q0 2 -2 2q-4 0 -22 -12t-40 -26t-42.5 -26t-29.5 -12q-25 0 -25 30q0 24 15.5 63.5t42 87.5t61 102t72.5 106.5t77 100t75 84t65 58t48 21.5q8 0 15.5 -5.5
t7.5 -19.5zM428 615q0 15 -14 15q-17 0 -47 -26t-66.5 -68.5t-77 -97t-78.5 -112t-71 -112t-54 -98.5q37 33 81.5 76.5t89.5 91.5t88 97.5t76 94t53 81t20 58.5z" />
    <glyph glyph-name="i" unicode="i" horiz-adv-x="179" 
d="M146 280q0 -8 -8 -18t-16 -10q-9 0 -9 10q0 8 8.5 17.5t17.5 9.5q7 0 7 -9zM180 83q-10 -11 -31.5 -26t-47.5 -28.5t-54 -23t-51 -9.5q-17 0 -23.5 8t-6.5 21q0 16 8.5 36.5t19.5 38.5t22 30t16 12q4 0 7 -4q2 -4 2 -7q0 -4 -7.5 -15.5t-16.5 -26t-16.5 -29.5t-7.5 -26
q0 -17 21 -17q18 0 40 7.5t44 18.5t41 25t31 26z" />
    <glyph glyph-name="j" unicode="j" horiz-adv-x="200" 
d="M146 280q0 -8 -9 -19.5t-17 -11.5q-9 0 -9 10q0 8 9.5 19t18.5 11q7 0 7 -9zM196 79q-7 -8 -18.5 -16.5t-27.5 -19.5q-41 -27 -97.5 -66.5t-118.5 -85.5q-44 -66 -92 -133t-92.5 -121.5t-81.5 -88.5t-58 -34q-22 0 -22 42q0 28 27.5 67t73.5 84.5t106 95t124 97.5
q28 42 52 80t42 68t28 50t10 25l-1 1q-3 0 -9.5 -5t-14.5 -12.5t-17.5 -16.5t-19.5 -16l-14 5q35 35 60.5 62t43.5 27q5 0 6.5 -4.5t1.5 -8.5t-3 -12q-4 -10 -15 -31t-27.5 -49t-37.5 -62t-45 -71q48 35 93.5 66t87.5 58q14 9 25.5 18t20.5 18zM-109 -141
q-53 -41 -103 -83.5t-89 -81.5t-62.5 -72t-23.5 -57q0 -22 13 -22q15 0 43.5 28t64.5 73t77 101.5t80 113.5z" />
    <glyph glyph-name="k" unicode="k" horiz-adv-x="390" 
d="M422 599q0 -29 -28.5 -72.5t-74 -92.5t-102 -99.5t-111.5 -93.5q-28 -42 -52.5 -80t-42.5 -68.5t-28 -51t-10 -26.5q14 0 32 15.5t38 38.5t43 50.5t47 50.5t49 38.5t50 15.5q15 0 26.5 -12t11.5 -28q0 -22 -14.5 -38.5t-35 -27.5t-41.5 -18t-34 -11q-11 -3 -11 -17
q0 -29 19 -40.5t46 -11.5q18 0 38.5 4t39 10t33.5 12.5t24 11.5q30 19 48 37l10 -11q-7 -8 -19 -17.5t-29 -19.5q-12 -7 -30 -15.5t-38.5 -15.5t-42.5 -11.5t-42 -4.5q-17 0 -32.5 4t-27 13.5t-18 25.5t-6.5 39q0 6 3 9q2 2 11.5 4t23.5 6l25.5 8.5t32.5 16t27.5 26
t11.5 38.5q0 8 -5 14t-12 6q-20 0 -42.5 -16.5t-46.5 -40.5t-48 -53t-47 -53t-44 -40.5t-38 -16.5q-5 0 -10 4t-5 9q0 11 16 43t43 77t62.5 99t74 109t78.5 106.5t75.5 91.5t64.5 64t46 24q6 0 12 -3t6 -15zM404 594q0 6 -4 6q-12 0 -39.5 -27t-63.5 -71t-77 -100t-81 -113
q65 49 114.5 98.5t83 91.5t50.5 72.5t17 42.5z" />
    <glyph glyph-name="l" unicode="l" horiz-adv-x="261" 
d="M442 606q0 -23 -22.5 -63t-58.5 -88.5t-82 -102t-94 -103.5t-93.5 -92t-79.5 -68v-10q0 -35 17 -54.5t57 -19.5q17 0 40.5 9.5t47 23t45 29.5t33.5 28l10 -11q-10 -11 -32 -28t-49 -32.5t-55.5 -26.5t-51.5 -11q-47 0 -67 23.5t-20 64.5q0 44 21 102.5t56 120.5t80 122
t92 107t93.5 76t83.5 29q29 0 29 -25zM419 600q0 17 -17 17q-25 0 -61.5 -25.5t-77 -67t-81.5 -94.5t-75.5 -109.5t-59 -111t-32.5 -98.5q32 23 74 62.5t87 87.5t88.5 99.5t78 98.5t55.5 84.5t21 56.5z" />
    <glyph glyph-name="m" unicode="m" horiz-adv-x="541" 
d="M543 84q-10 -11 -33 -26.5t-51.5 -29.5t-59 -24t-54.5 -10q-18 0 -29.5 7.5t-11.5 24.5q0 9 3.5 19t7.5 18q1 1 -8 -4t-23 -13t-31 -18t-33.5 -18.5t-30.5 -14.5t-21 -6q-14 0 -19 9.5t-5 18.5q0 18 7 30.5t7 17.5q0 2 -2 2q-12 -6 -33.5 -19t-43.5 -26t-41.5 -22.5
t-27.5 -9.5t-13.5 6t-5.5 11q0 8 7 22.5t15.5 30t15.5 29t7 18.5q0 2 -2 2q-5 0 -13 -8q-7 -7 -14 -13l-14 -12h-23q6 5 11 9.5t11 9.5q4 4 11.5 11t16.5 13.5t18 11t16 4.5q12 0 12 -17q0 -7 -7 -21l-15 -30l-15 -30t-7 -22q0 -4 3 -4q28 11 57.5 28.5t55.5 35t45.5 30
t27.5 12.5q4 0 6 -4.5t2 -7.5q0 -6 -8 -15t-18 -20.5t-18 -24.5t-8 -27q0 -11 8 -11t24 7.5t35.5 19.5t39.5 25t37.5 25t29.5 19.5t14 7.5q4 0 6 -5.5t2 -8.5q0 -4 -5 -12t-11 -18t-11 -20.5t-5 -18.5q0 -20 26 -20q18 0 43.5 9t50.5 22t47.5 28.5t34.5 27.5z" />
    <glyph glyph-name="n" unicode="n" horiz-adv-x="372" 
d="M374 84q-10 -11 -33 -26.5t-51.5 -29.5t-59 -24t-54.5 -10q-18 0 -29.5 7.5t-11.5 24.5q0 9 3.5 19t7.5 18q1 2 -18 -8.5t-44 -24t-49 -25t-35 -11.5q-15 0 -15 14q0 11 8.5 28t18.5 33t18 28.5t7 13.5q-3 0 -8 -4t-11.5 -9.5t-13 -11.5t-11.5 -10h-23q6 5 11 9.5t11 9.5
q4 4 11.5 11t16.5 13.5t18 11t16 4.5q12 0 12 -17q0 -5 -7.5 -17.5t-17 -27.5t-17 -29t-7.5 -22q0 -4 3 -4q5 0 18.5 6.5t30.5 16.5t35.5 21.5t34.5 21.5t27.5 16.5t13.5 6.5q4 0 6 -5.5t2 -8.5q0 -4 -4 -11.5t-9 -17t-9 -19t-4 -17.5q0 -20 26 -20q18 0 43.5 9t50.5 22
t47.5 28.5t34.5 27.5z" />
    <glyph glyph-name="o" unicode="o" horiz-adv-x="253" 
d="M255 84q-23 -23 -50.5 -34.5t-53.5 -11.5q-20 0 -37 7.5t-29 21.5q-8 -15 -19.5 -29t-26 -25t-30.5 -17.5t-32 -6.5q-30 0 -30 29q0 21 22.5 53t77.5 67q9 -4 9 -13q0 -3 -3 -6q-8 -4 -21.5 -14t-27 -24t-23.5 -30t-10 -33q0 -13 14 -13q12 0 25.5 7.5t26 19.5t22.5 26.5
t14 29.5q-3 9 -5 19t-2 23q0 3 1.5 7.5t6.5 4.5q10 0 16.5 -13t6.5 -22q0 -4 -0.5 -7t-1.5 -7q7 -18 23.5 -27t38.5 -9q23 0 46.5 9.5t41.5 28.5z" />
    <glyph glyph-name="p" unicode="p" horiz-adv-x="264" 
d="M266 84q-55 -52 -113 -72t-104 -20q-29 0 -50 6t-29 14q-46 -74 -95 -151t-97.5 -140t-95.5 -103t-89 -40q-45 0 -45 34q0 23 20 59.5t54 79t78 89t92 90.5t97 83t92 67q16 26 30 47.5t25 38.5q12 17 20.5 27t13.5 10t8.5 -5t3.5 -9q0 -9 -9 -20q-10 -14 -20 -29t-21 -31
q20 10 37 15.5t30 5.5q26 0 37 -8t11 -22q0 -15 -10.5 -29.5t-24.5 -27t-28 -21.5t-22 -12q49 2 101.5 25t92.5 60zM115 97q0 18 -21 18q-14 0 -33.5 -7.5t-42.5 -20.5q-10 -15 -19.5 -30t-19.5 -31q6 -3 15 -8.5t32 -7.5q16 5 32 15t28.5 22t20.5 25t8 25zM-34 54
q-41 -29 -86.5 -67t-90 -80t-85 -85.5t-71 -82.5t-48.5 -70.5t-18 -50.5q0 -23 28 -23q24 0 54 21.5t62 57.5t66 83t67 98t64 102.5t58 96.5z" />
    <glyph glyph-name="q" unicode="q" horiz-adv-x="278" 
d="M280 84q-30 -28 -63.5 -48.5t-65.5 -34t-61 -20.5t-50 -7h-9q-2 0 -3 1l-2 -2q5 -25 5 -47q0 -43 -14 -87.5t-36 -86.5t-49.5 -79t-55 -64.5t-52.5 -43.5t-41 -16q-33 0 -33 37q0 29 24.5 74t62 98.5t82.5 111.5t85 113q-6 4 -6 12q0 7 7 7q2 0 4 -1q4 -2 7 -2l16 24
q-1 -1 -9 -6t-19.5 -9.5t-24.5 -8.5t-23 -4t-16.5 4.5t-6.5 15.5q0 21 20 42.5t46 39t50 28t32 10.5q3 0 6 -1q7 -2 7 -7q0 -13 -9 -13q-19 -1 -42 -11.5t-43.5 -25.5t-34 -30.5t-13.5 -26.5t14 -12q11 0 27 7.5t32.5 20t33 28.5t29.5 33q4 5 8 6.5t8 1.5q12 0 12 -13
q0 -10 -8.5 -19.5t-13.5 -15.5q-19 -24 -50 -62q1 -1 3 -1h9q17 0 39 4t49 15t58.5 31t67.5 51zM14 -94q0 23 -6 46q-38 -47 -79.5 -100.5t-76.5 -103.5t-58 -93t-23 -69q0 -16 14 -16q16 0 39.5 14.5t49 39.5t50.5 58t45 70.5t32.5 77t12.5 76.5z" />
    <glyph glyph-name="r" unicode="r" horiz-adv-x="260" 
d="M262 84q-10 -11 -31.5 -26t-47.5 -28.5t-54 -23t-51 -9.5q-18 0 -32 8.5t-14 27.5q0 11 11.5 29.5t26.5 34.5q-26 6 -31 22q-11 -11 -23 -22t-23 -21h-23q6 5 11 9.5t11 9.5q17 15 31.5 31t20.5 30q6 10 14 17t17 9q7 0 7 -4q0 -3 -3.5 -7t-7.5 -8.5t-7.5 -10t-3.5 -10.5
q0 -11 6 -17.5t24 -8.5q11 9 18 9q4 0 6 -3.5t2 -6.5q0 -4 -9 -13t-20 -20.5t-20 -25t-9 -27.5q0 -8 7.5 -13t15.5 -5q26 0 58 13.5t57 28.5q17 10 31.5 21t24.5 21z" />
    <glyph glyph-name="s" unicode="s" horiz-adv-x="222" 
d="M227 85l-5 -5q-2 -2 -5.5 -4.5t-8.5 -6.5q-18 -14 -45 -28t-57 -25.5t-60 -19t-53 -7.5q-21 0 -34 7.5t-13 24.5q0 8 6 14t14 6t9 -8q2 -11 5 -15t8 -5q17 1 35.5 14.5t34 32t25.5 37.5t10 30t-10 11q-11 0 -29 -12.5t-38 -29.5l-23 -20h-23q6 5 11 9.5t11 9.5
q43 40 65 54t38 14q25 0 25 -23q0 -13 -7 -29.5t-19.5 -34t-29 -34.5t-34.5 -29q42 5 89 22.5t86 49.5h22z" />
    <glyph glyph-name="t" unicode="t" horiz-adv-x="178" 
d="M460 295q0 -9 -5 -14t-22 -5q-5 1 -31.5 2t-66 2t-87.5 2t-97 2q-31 -40 -61.5 -80.5t-54.5 -74.5t-39 -59t-15 -36q0 -22 16 -22q18 0 43 8.5t49.5 21t46.5 27t34 26.5l10 -11q-10 -11 -31.5 -26t-47.5 -28.5t-54 -23t-51 -9.5q-14 0 -24 6.5t-10 22.5q0 15 13.5 42
t35.5 61.5t50.5 74.5t58.5 80q-51 1 -94 1.5t-72 0.5q-68 0 -121.5 -0.5t-85.5 -0.5q-11 0 -22 3.5t-11 9.5q1 4 4.5 6t7.5 3t10 1h25h49.5t65 -0.5t71.5 -0.5q84 -1 189 -2q31 42 59.5 80.5t49.5 69.5q11 17 19 21t12 4q3 0 6 -2t3 -6q0 -7 -7 -18q-18 -26 -47.5 -65
t-63.5 -84h67t91 -1q54 -1 115 -1q8 0 14 -1.5t6 -6.5z" />
    <glyph glyph-name="u" unicode="u" horiz-adv-x="290" 
d="M292 84q-10 -11 -31.5 -26.5t-48.5 -29t-55 -23t-51 -9.5q-13 0 -18 7.5t-5 18.5q0 19 11 46q-8 -6 -25 -18.5t-35.5 -25t-35 -22t-25.5 -9.5q-20 0 -20 19q0 15 12 38.5t27 45.5t29 37.5t19 15.5t7.5 -4.5t2.5 -7.5t-11 -15.5t-23.5 -29t-23.5 -34.5t-11 -32q0 -6 6 -6
q10 0 28 10.5t37 24.5t36 28t24 21q12 21 24.5 36t20.5 15q13 0 13 -4t-2 -7q-1 -2 -11 -14.5t-22 -29.5t-21.5 -34.5t-9.5 -30.5q0 -8 5 -13.5t22 -5.5q18 0 39.5 8t42 20t39 25.5t30.5 25.5z" />
    <glyph glyph-name="v" unicode="v" horiz-adv-x="262" 
d="M265 84q-23 -23 -50 -34t-53 -11q-19 0 -29.5 10.5t-13.5 27.5q-17 -17 -36.5 -33t-38.5 -28t-36.5 -19.5t-29.5 -7.5q-14 0 -19 6.5t-5 17.5q0 15 8 34t19.5 36t22.5 29t17 12q11 0 11 -10q0 -5 -9 -15t-20 -24t-20 -30t-9 -33q0 -6 8 -6q15 0 34.5 10.5t38.5 24.5
t36 29t27 25q0 14 4 28t11 25.5t16 19t20 7.5q6 0 8 -4.5t2 -9.5q0 -11 -11.5 -28.5t-30.5 -37.5q0 -20 11 -29t28 -9q19 0 40.5 10t38.5 28z" />
    <glyph glyph-name="w" unicode="w" horiz-adv-x="391" 
d="M394 84q-23 -23 -50 -34t-53 -11q-20 0 -30 11t-13 28q-17 -16 -36.5 -31t-38.5 -27t-36.5 -19t-29.5 -7q-13 0 -19 8.5t-6 19.5q0 14 9.5 25.5t9.5 16.5q0 3 -3 3q-7 -4 -23 -13t-34.5 -18t-36.5 -16t-28 -7q-16 0 -16 17q0 18 13.5 39.5t30 40t31 31.5t17.5 13
q5 0 8 -3.5t3 -7.5t-12.5 -16t-27 -28t-27 -33t-12.5 -30q0 -4 5 -4q14 0 37.5 11.5t46.5 26.5t41.5 28t21.5 16q11 10 19 10q11 0 11 -10q0 -6 -6 -15.5t-13.5 -19.5t-15.5 -19t-13 -15t-10 -14.5t-5 -13.5q0 -6 8 -6q16 0 36 11t39.5 26t36 30.5t24.5 23.5q1 13 5.5 26
t11 23.5t15.5 17t19 6.5q6 0 8 -4.5t2 -9.5q0 -11 -11.5 -28t-30.5 -36q0 -21 11 -30.5t28 -9.5q19 0 40.5 10t38.5 28z" />
    <glyph glyph-name="x" unicode="x" horiz-adv-x="279" 
d="M281 84q-10 -11 -32 -28t-49 -32.5t-55.5 -26.5t-51.5 -11q-34 0 -44.5 16t-10.5 38q-21 -14 -41 -26.5l-36 -22.5q-18 -11 -34 -21q-2 0 -5 1.5t-3 5.5q0 7 8.5 14.5t15.5 11.5q28 17 51.5 31t43.5 28q1 8 2 16.5t1 16.5q0 4 -1.5 9t-4.5 5q-5 0 -13 -8q-7 -7 -14 -13
l-14 -12h-23q6 5 11 9.5t11 9.5q4 4 11.5 11t16.5 13.5t18 11t16 4.5q12 0 12 -17q0 -8 -1 -18.5t-3 -21.5q42 28 67.5 44.5t37.5 16.5q7 0 7 -6q0 -1 -9.5 -8.5t-25 -18t-35.5 -23.5t-42 -27q0 -21 8 -36t34 -15q17 0 40.5 9.5t47 23t45 29.5t33.5 28z" />
    <glyph glyph-name="y" unicode="y" horiz-adv-x="293" 
d="M295 84q-15 -16 -48 -37q-53 -31 -106.5 -61.5t-105.5 -62.5q-30 -39 -64.5 -80.5t-70 -81.5t-70.5 -76t-66.5 -63t-58 -43t-44.5 -16q-20 0 -28 8t-8 21q0 31 30 68.5t82 80t122.5 89t150.5 95.5q19 24 35 44.5t27 35.5q13 18 24 31l4 5.5t8 12t7 12l3 5.5q0 3 -2 3
q-1 0 -17 -10.5t-38.5 -23.5t-46.5 -23.5t-39 -10.5q-22 0 -22 20q0 14 10 33.5t23.5 37t27 30t21.5 12.5q5 0 9.5 -2.5t4.5 -4.5q0 -1 -5 -6l-17 -17t-21.5 -24t-18.5 -26.5t-8 -24.5q0 -7 11 -7q20 0 48.5 15.5t55.5 35.5t48.5 39.5t28.5 26.5q17 18 25 18q5 0 7.5 -3.5
t2.5 -8.5q0 -6 -10 -19t-22 -27t-23 -26.5t-14 -16.5q-11 -18 -31.5 -45t-46.5 -62q42 25 84 49t86 50q17 10 31 21t25 21zM-15 -108q-69 -43 -130 -84t-106.5 -79t-72 -71t-26.5 -59q0 -18 25 -18q20 0 56 29.5t79 75.5t89 101t86 105z" />
    <glyph glyph-name="z" unicode="z" horiz-adv-x="242" 
d="M244 84q-7 -8 -20 -17.5t-28 -19.5q-46 -31 -103.5 -69.5t-118.5 -81.5q-16 -42 -43.5 -83t-61 -78t-70 -68.5t-72 -54.5t-66 -36t-51.5 -13q-33 0 -33 18t33 52.5t87 77.5t122 92.5t138 97.5q11 35 11 67q0 21 -4 36v9q22 1 46 14.5t43 31.5t31.5 36.5t12.5 30.5t-14 12
q-11 0 -29 -12.5t-38 -29.5l-23 -20h-23q41 38 73 62.5t52 24.5q25 0 25 -23q0 -15 -12 -36.5t-30.5 -42.5t-41 -38t-44.5 -23v-10q0 -37 -10 -71q54 37 104 71t92 63q16 11 30.5 21.5t25.5 20.5zM-53 -122q-64 -45 -125 -89.5t-108.5 -82.5t-76.5 -67t-29 -43q0 -11 19 -11
q12 0 35.5 11t53.5 31t63.5 47.5t65 60t58.5 69t44 74.5z" />
    <glyph glyph-name="braceleft" unicode="{" horiz-adv-x="312" 
d="M540 710q0 -5 -5 -5q-25 11 -45.5 16t-38.5 5q-43 0 -69 -21.5t-42 -55t-24.5 -74.5t-16.5 -81t-18 -74.5t-29 -54.5q-13 -14 -28.5 -22t-30.5 -14q5 -12 10 -25t5 -28q0 -20 -12 -43.5t-30.5 -49.5t-40.5 -54.5t-41 -58.5t-32.5 -61t-15.5 -63q-2 -31 23.5 -57t85.5 -46
q2 0 2 -2q0 -3 -5 -6.5t-10 -3.5q-65 20 -96 45.5t-31 60.5q0 27 12.5 56t32 58.5t41.5 60t41.5 60.5t32 59.5t12.5 57.5q0 16 -4.5 22.5t-10.5 9.5t-10.5 6t-4.5 10q0 5 9 6q32 2 49 11.5t26 20.5q22 26 34 64t20.5 79.5t17 82.5t23.5 73.5t40.5 53t67.5 20.5q41 0 101 -26
q2 -4 3.5 -5.5t1.5 -4.5v-2z" />
    <glyph glyph-name="bar" unicode="|" horiz-adv-x="318" 
d="M443 606q0 -6 -6 -12q-54 -82 -103 -155.5l-96 -144t-93.5 -141.5t-94.5 -148q-8 -12 -11.5 -18t-12.5 -6q-8 1 -10.5 3t-2.5 5q0 5 3 11t7 11q1 2 17.5 27t43 65t60.5 91t69 105t69 106t61.5 94t45.5 70t21 33q6 11 19 11q4 0 9 -1t5 -6z" />
    <glyph glyph-name="braceright" unicode="}" horiz-adv-x="312" 
d="M395 643q0 -27 -12.5 -56t-32 -58.5t-41.5 -60t-41.5 -60.5t-32 -59.5t-12.5 -57.5q0 -16 4.5 -22.5t10.5 -9.5t10.5 -5.5t4.5 -10.5q0 -5 -9 -6q-32 -2 -49 -11.5t-26 -20.5q-22 -26 -34 -64t-20.5 -79.5t-17 -82.5t-23.5 -73.5t-40.5 -53t-67.5 -20.5q-41 0 -101 26
q-2 4 -3.5 5.5t-1.5 4.5v2q0 5 5 5q25 -11 45.5 -16t38.5 -5q43 0 69 21.5t42 55t24.5 74.5t16.5 81t18 74.5t29 54.5q13 14 28.5 22t30.5 14q-5 12 -10 25t-5 28q0 20 12 43.5t30.5 49.5t40.5 54.5t41 58.5t32.5 61t15.5 63q2 31 -23.5 57t-85.5 46q-2 0 -2 2q0 3 5 6.5
t10 3.5q65 -20 96 -45.5t31 -60.5z" />
    <glyph glyph-name="Adieresis" unicode="&#xc4;" horiz-adv-x="598" 
d="M746 815q0 -8 -8 -18t-16 -10q-9 0 -9 10q0 8 8.5 17.5t17.5 9.5q7 0 7 -9zM656 815q0 -8 -8 -18t-16 -10q-9 0 -9 10q0 8 8.5 17.5t17.5 9.5q7 0 7 -9zM733 692q0 -8 -6 -8q-12 4 -25 5.5t-27 1.5q-60 0 -131.5 -30t-143.5 -80t-140 -115t-120 -134t-83.5 -138.5
t-31.5 -127.5q0 -42 15 -60t42 -18q31 0 74.5 22t94 59t104 86t105 103.5t98 111.5t81.5 109q7 11 16.5 17t14.5 6q8 0 8 -8q0 -5 -3.5 -12.5t-13.5 -21.5q-55 -78 -91.5 -141t-58.5 -112.5t-31 -86.5t-9 -64q0 -38 14 -57.5t31 -26.5q3 -2 3 -4q0 -3 -2 -5t-4 -2
q-10 0 -21 7.5t-20 21t-14.5 31.5t-5.5 38q0 43 17 93.5t38 95.5q25 52 55 105q-86 -103 -160.5 -177t-136.5 -120.5t-110.5 -68.5t-83.5 -22q-40 0 -60.5 26t-20.5 74q0 38 17.5 86t48.5 101t74 108.5t94.5 107.5t109 97.5t118.5 79.5t123 54t122 20q20 0 28 -9.5t8 -17.5z
" />
    <glyph glyph-name="Aring" unicode="&#xc5;" horiz-adv-x="598" 
d="M746 810q0 -9 -4.5 -17.5t-12 -16t-16.5 -12t-18 -4.5q-14 0 -21 8.5t-7 19.5q0 6 3 15t9.5 17.5t16 14.5t21.5 6q14 0 21.5 -9t7.5 -22zM733 692q0 -8 -6 -8q-12 4 -25 5.5t-27 1.5q-60 0 -131.5 -30t-143.5 -80t-140 -115t-120 -134t-83.5 -138.5t-31.5 -127.5
q0 -42 15 -60t42 -18q31 0 74.5 22t94 59t104 86t105 103.5t98 111.5t81.5 109q7 11 16.5 17t14.5 6q8 0 8 -8q0 -5 -3.5 -12.5t-13.5 -21.5q-55 -78 -91.5 -141t-58.5 -112.5t-31 -86.5t-9 -64q0 -38 14 -57.5t31 -26.5q3 -2 3 -4q0 -3 -2 -5t-4 -2q-10 0 -21 7.5t-20 21
t-14.5 31.5t-5.5 38q0 43 17 93.5t38 95.5q25 52 55 105q-86 -103 -160.5 -177t-136.5 -120.5t-110.5 -68.5t-83.5 -22q-40 0 -60.5 26t-20.5 74q0 38 17.5 86t48.5 101t74 108.5t94.5 107.5t109 97.5t118.5 79.5t123 54t122 20q20 0 28 -9.5t8 -17.5zM729 806q0 8 -4 13
t-12 5q-14 0 -21.5 -11.5t-7.5 -19.5q0 -5 4.5 -10.5t12.5 -5.5q11 0 19.5 9t8.5 20z" />
    <glyph glyph-name="Ccedilla" unicode="&#xc7;" horiz-adv-x="403" 
d="M790 625q0 -25 -17 -55t-45 -60.5t-64 -59.5t-74 -51.5t-75.5 -36t-68.5 -13.5q-26 0 -26 30q0 26 28.5 69t101.5 98q8 4 15 4q6 0 10.5 -2t4.5 -7q0 -7 -22 -25t-48.5 -41.5t-48.5 -50.5t-22 -51q0 -11 16 -11q26 0 58.5 12.5t66.5 33.5t66.5 48t58 55.5t41 56.5
t15.5 51q0 26 -23 41.5t-79 15.5q-77 0 -154.5 -31.5t-148.5 -82.5t-132 -116t-106 -131.5t-71 -129t-26 -109.5q0 -49 30.5 -69t75.5 -20q33 0 70.5 9t74 24t69 34.5t54.5 40.5l10 -11q-68 -57 -144.5 -89t-140.5 -32q-19 0 -36 3l-3 -5q6 -2 10 -6q4 -3 7 -7t3 -10
q0 -15 -9.5 -26t-23.5 -17.5t-29.5 -9.5t-27.5 -3q-7 0 -7 5q0 4 4 4q11 0 23 3t22.5 8t17.5 13t7 18q0 8 -4 11.5t-9 5.5q-4 0 -4 5q0 2 1 5t6 10q-35 11 -56.5 37.5t-21.5 71.5q0 37 15.5 83t43 96t67 101.5t87.5 99.5t103 90t115.5 73.5t124 49.5t127.5 18q63 0 90 -18
t27 -47z" />
    <glyph glyph-name="Eacute" unicode="&#xc9;" horiz-adv-x="709" 
d="M815 859q0 -5 -9.5 -11.5t-24 -13.5t-31.5 -13t-31 -11q-6 2 -6 3q0 3 8 7.5t20 11.5t26.5 16.5t28.5 21.5q3 3 6 3q5 0 9 -4.5t4 -9.5zM805 704q0 -3 -2.5 -6t-7.5 -3q-8 1 -14.5 1h-11.5q-45 0 -91 -20.5t-84 -50.5t-62 -64t-24 -62q0 -24 21.5 -39.5t71.5 -15.5
q32 0 57 9.5t33 9.5q9 0 9 -11q0 -7 -11 -9q-69 -12 -136 -50t-120.5 -88.5t-86 -105t-32.5 -99.5q0 -56 38 -82.5t95 -26.5q60 0 128.5 26.5t125.5 77.5l11 -10q-73 -63 -142 -89.5t-126 -26.5q-36 0 -66 9t-51 25.5t-33 39t-12 48.5q0 44 28.5 94.5t73.5 97.5t100 86
t109 59q-66 0 -93.5 18t-27.5 46q0 26 21 57.5t54.5 61t77 54.5t88.5 38q6 2 6 5q0 2 -5 2.5t-19 0.5q-81 0 -154 -45t-144.5 -115.5t-144.5 -156.5t-154.5 -168.5t-174.5 -151.5t-204 -105q-2 -1 -4 -1t-2 3q0 4 3.5 9.5t5.5 6.5q69 18 134 59t126.5 96.5t120.5 120
t117.5 129t116 124t117 106t120.5 74t126 27.5q35 0 55.5 -2t31.5 -4.5t14.5 -6t3.5 -6.5z" />
    <glyph glyph-name="Ntilde" unicode="&#xd1;" horiz-adv-x="646" 
d="M543 564q0 -9 -14 -17.5t-27 -8.5q-16 0 -26 5t-18 10.5t-16.5 10.5t-20.5 5t-18 -8.5t-11 -8.5t-5 5q0 8 13 18.5t27 10.5q13 0 23.5 -5t20 -11.5t18 -11.5t17.5 -5q12 0 19 9.5t12 9.5q3 0 4.5 -3t1.5 -5zM648 84q-13 -16 -36.5 -35.5t-51.5 -37t-57 -29t-53 -11.5
q-28 0 -46 19.5t-18 67.5q0 32 11.5 77t26 91.5t26 88.5t11.5 67q0 29 -19 29q-15 0 -39.5 -13t-53.5 -35t-61.5 -51t-64.5 -61q-25 -51 -52.5 -98.5t-53 -84.5t-47.5 -59t-36 -22q-9 0 -9 10q0 16 14 43.5t38 61.5t56 71.5t67 74.5q19 36 36 72.5t29.5 70.5t20 64.5
t7.5 53.5q0 53 -30 88.5t-77 63t-102.5 51t-107.5 51t-92 64t-55 89.5q0 3 3 6q5 5 19 5q7 0 9 -7q20 -52 61 -87.5t90.5 -62.5t102.5 -50.5t96 -51t71 -64t28 -89.5q0 -40 -19.5 -101t-49.5 -127q30 28 59.5 52.5t56.5 43t50.5 29t41.5 10.5q19 0 26.5 -10.5t7.5 -29.5
q0 -26 -11.5 -65.5t-25.5 -84.5t-25.5 -92.5t-11.5 -89.5q0 -33 12.5 -46.5t32.5 -13.5q21 0 47.5 11.5t52.5 27.5t48.5 34.5t36.5 31.5zM174 200q-27 -29 -50 -57t-40.5 -52t-27.5 -42.5t-10 -29.5q0 -3 3 -3q4 0 16 14.5t29.5 39.5t38 58.5t41.5 71.5z" />
    <glyph glyph-name="Odieresis" unicode="&#xd6;" horiz-adv-x="513" 
d="M736 800q0 -8 -8 -18t-16 -10q-9 0 -9 10q0 8 8.5 17.5t17.5 9.5q7 0 7 -9zM646 800q0 -8 -8 -18t-16 -10q-9 0 -9 10q0 8 8.5 17.5t17.5 9.5q7 0 7 -9zM758 665q0 -21 -8.5 -52.5t-25 -69.5t-40 -81.5t-53.5 -88.5q2 -20 6 -37.5t12 -33.5q1 -2 1 -7q0 -6 -3 -6t-8 8
q-13 24 -19 59q-47 -70 -106.5 -137.5t-127 -120.5t-141 -86t-149.5 -33q-55 0 -80 26t-25 70q0 50 28 116.5t76.5 137.5t113 140t136.5 123.5t148 88t148 33.5q15 0 19 -1t4 -5q0 -6 -2 -8.5t-10 -2.5q-62 0 -134 -33.5t-143.5 -87.5t-137.5 -121.5t-116.5 -137t-81 -133.5
t-30.5 -110q0 -37 22 -58.5t72 -21.5q70 0 141 36.5t138 94t127 129.5t107 143v9q0 4 -0.5 8t-0.5 6q0 48 9.5 98t26 90.5t37.5 66.5t45 26q25 0 25 -36zM743 668q0 21 -14 21q-13 0 -29.5 -24.5t-31.5 -63.5t-25.5 -87t-12.5 -95q53 82 83 149.5t30 99.5z" />
    <glyph glyph-name="Udieresis" unicode="&#xdc;" horiz-adv-x="651" 
d="M787 758q0 -8 -8 -18t-16 -10q-9 0 -9 10q0 8 8.5 17.5t17.5 9.5q7 0 7 -9zM697 758q0 -8 -8 -18t-16 -10q-9 0 -9 10q0 8 8.5 17.5t17.5 9.5q7 0 7 -9zM749 468q0 -4 -7 -15q-12 -17 -34.5 -48.5t-49 -71t-54 -83.5t-50 -86.5t-37 -80.5t-14.5 -64v-8t1 -11
q0 -4 -1 -7.5t-5 -3.5q-7 0 -8.5 7t-1.5 18q0 42 14 84.5t35.5 83.5t46.5 80t47 73l-1 1q-2 0 -13 -11q-4 -5 -33.5 -32.5t-73.5 -66t-97.5 -82.5t-106 -80.5t-99 -61t-76.5 -24.5q-20 0 -30.5 12t-10.5 39q0 34 16 77.5t42.5 92t60.5 99t69 99t69 91.5t60.5 75.5t42.5 53
t16 22.5t-2 2q-4 0 -9 -4q-5 -5 -31.5 -22t-68.5 -39.5t-96 -48t-113 -46.5t-120.5 -35t-117.5 -14q-18 0 -45.5 3.5t-53.5 10.5t-45 18t-19 26q0 13 11 13q4 0 6 -1t3 -1q13 -6 27.5 -14t34 -14.5t45.5 -11t63 -4.5q46 0 99 10.5t107.5 28.5t108.5 41.5t102.5 50t89.5 53.5
t70 52q5 5 13 5q9 0 9 -10q0 -7 -6 -14q-27 -35 -69 -88.5t-88.5 -115.5t-93 -127.5t-84 -124.5t-61 -107t-23.5 -74q0 -40 33 -40q27 0 71.5 24.5t96 62t105.5 82.5t101 87t81.5 75.5t46.5 46.5q16 17 30 32.5t25 27.5t18.5 20.5t8.5 9.5q9 10 15 10q8 0 8 -7z" />
    <glyph glyph-name="aacute" unicode="&#xe1;" 
d="M212 281q0 -5 -9.5 -11.5t-24 -13.5t-31.5 -13t-31 -11q-6 2 -6 3q0 3 8 7.5t20 11.5t26.5 16.5t28.5 21.5q3 3 6 3q5 0 9 -4.5t4 -9.5zM323 84q-10 -11 -31.5 -26t-47.5 -28.5t-54 -23t-51 -9.5q-26 0 -36.5 16t-10.5 37v6q-15 -12 -32.5 -23.5t-33.5 -20.5t-30 -14.5
t-23 -5.5q-28 0 -28 25q0 17 14.5 41t40.5 46t61.5 37.5t78.5 15.5q22 0 26 -4t4 -8q0 -8 -6 -9.5t-8 -1.5q-6 1 -12 1h-11q-37 0 -67 -12.5t-51 -29.5t-32.5 -35t-11.5 -30q0 -13 13 -13q10 0 26.5 7.5t33 17t30.5 19.5t20 14q5 17 16 30t27 13q7 0 7 -4q0 -5 -10 -16.5
t-26 -25.5q1 -29 14.5 -40.5t34.5 -11.5q18 0 40 7.5t43.5 18.5t40.5 24.5t32 26.5z" />
    <glyph glyph-name="agrave" unicode="&#xe0;" 
d="M212 235q0 -1 -6 -3q-14 5 -31 11t-31.5 13t-24 13.5t-9.5 11.5t4 9.5t9 4.5q3 0 6 -3q14 -12 28.5 -21.5t26.5 -16.5t20 -11.5t8 -7.5zM323 84q-10 -11 -31.5 -26t-47.5 -28.5t-54 -23t-51 -9.5q-26 0 -36.5 16t-10.5 37v6q-15 -12 -32.5 -23.5t-33.5 -20.5t-30 -14.5
t-23 -5.5q-28 0 -28 25q0 17 14.5 41t40.5 46t61.5 37.5t78.5 15.5q22 0 26 -4t4 -8q0 -8 -6 -9.5t-8 -1.5q-6 1 -12 1h-11q-37 0 -67 -12.5t-51 -29.5t-32.5 -35t-11.5 -30q0 -13 13 -13q10 0 26.5 7.5t33 17t30.5 19.5t20 14q5 17 16 30t27 13q7 0 7 -4q0 -5 -10 -16.5
t-26 -25.5q1 -29 14.5 -40.5t34.5 -11.5q18 0 40 7.5t43.5 18.5t40.5 24.5t32 26.5z" />
    <glyph glyph-name="acircumflex" unicode="&#xe2;" 
d="M236 237q0 -2 -2 -3.5t-4 -1.5q-3 0 -9.5 6.5t-13.5 14.5q-8 9 -16 20q-12 -8 -27 -15.5t-28.5 -13t-24 -9t-13.5 -3.5q-4 0 -4 4q0 1 9 6.5t22.5 13t28.5 16.5t27 18q6 5 9 6t8 1q3 0 6.5 -5.5t8 -14.5t10.5 -19.5t13 -20.5zM323 84q-10 -11 -31.5 -26t-47.5 -28.5
t-54 -23t-51 -9.5q-26 0 -36.5 16t-10.5 37v6q-15 -12 -32.5 -23.5t-33.5 -20.5t-30 -14.5t-23 -5.5q-28 0 -28 25q0 17 14.5 41t40.5 46t61.5 37.5t78.5 15.5q22 0 26 -4t4 -8q0 -8 -6 -9.5t-8 -1.5q-6 1 -12 1h-11q-37 0 -67 -12.5t-51 -29.5t-32.5 -35t-11.5 -30
q0 -13 13 -13q10 0 26.5 7.5t33 17t30.5 19.5t20 14q5 17 16 30t27 13q7 0 7 -4q0 -5 -10 -16.5t-26 -25.5q1 -29 14.5 -40.5t34.5 -11.5q18 0 40 7.5t43.5 18.5t40.5 24.5t32 26.5z" />
    <glyph glyph-name="adieresis" unicode="&#xe4;" 
d="M222 280q0 -8 -8 -18t-16 -10q-9 0 -9 10q0 8 8.5 17.5t17.5 9.5q7 0 7 -9zM132 280q0 -8 -8 -18t-16 -10q-9 0 -9 10q0 8 8.5 17.5t17.5 9.5q7 0 7 -9zM323 84q-10 -11 -31.5 -26t-47.5 -28.5t-54 -23t-51 -9.5q-26 0 -36.5 16t-10.5 37v6q-15 -12 -32.5 -23.5
t-33.5 -20.5t-30 -14.5t-23 -5.5q-28 0 -28 25q0 17 14.5 41t40.5 46t61.5 37.5t78.5 15.5q22 0 26 -4t4 -8q0 -8 -6 -9.5t-8 -1.5q-6 1 -12 1h-11q-37 0 -67 -12.5t-51 -29.5t-32.5 -35t-11.5 -30q0 -13 13 -13q10 0 26.5 7.5t33 17t30.5 19.5t20 14q5 17 16 30t27 13
q7 0 7 -4q0 -5 -10 -16.5t-26 -25.5q1 -29 14.5 -40.5t34.5 -11.5q18 0 40 7.5t43.5 18.5t40.5 24.5t32 26.5z" />
    <glyph glyph-name="atilde" unicode="&#xe3;" 
d="M237 257q0 -9 -14 -17.5t-27 -8.5q-16 0 -26 5t-18 10.5t-16.5 10.5t-20.5 5t-18 -8.5t-11 -8.5t-5 5q0 8 13 18.5t27 10.5q13 0 23.5 -5t20 -11.5t18 -11.5t17.5 -5q12 0 19 9.5t12 9.5q3 0 4.5 -3t1.5 -5zM323 84q-10 -11 -31.5 -26t-47.5 -28.5t-54 -23t-51 -9.5
q-26 0 -36.5 16t-10.5 37v6q-15 -12 -32.5 -23.5t-33.5 -20.5t-30 -14.5t-23 -5.5q-28 0 -28 25q0 17 14.5 41t40.5 46t61.5 37.5t78.5 15.5q22 0 26 -4t4 -8q0 -8 -6 -9.5t-8 -1.5q-6 1 -12 1h-11q-37 0 -67 -12.5t-51 -29.5t-32.5 -35t-11.5 -30q0 -13 13 -13
q10 0 26.5 7.5t33 17t30.5 19.5t20 14q5 17 16 30t27 13q7 0 7 -4q0 -5 -10 -16.5t-26 -25.5q1 -29 14.5 -40.5t34.5 -11.5q18 0 40 7.5t43.5 18.5t40.5 24.5t32 26.5z" />
    <glyph glyph-name="aring" unicode="&#xe5;" 
d="M200 264q0 -9 -4.5 -17.5t-12 -16t-16.5 -12t-18 -4.5q-14 0 -21 8.5t-7 19.5q0 6 3 15t9.5 17.5t16 14.5t21.5 6q14 0 21.5 -9t7.5 -22zM323 84q-10 -11 -31.5 -26t-47.5 -28.5t-54 -23t-51 -9.5q-26 0 -36.5 16t-10.5 37v6q-15 -12 -32.5 -23.5t-33.5 -20.5t-30 -14.5
t-23 -5.5q-28 0 -28 25q0 17 14.5 41t40.5 46t61.5 37.5t78.5 15.5q22 0 26 -4t4 -8q0 -8 -6 -9.5t-8 -1.5q-6 1 -12 1h-11q-37 0 -67 -12.5t-51 -29.5t-32.5 -35t-11.5 -30q0 -13 13 -13q10 0 26.5 7.5t33 17t30.5 19.5t20 14q5 17 16 30t27 13q7 0 7 -4q0 -5 -10 -16.5
t-26 -25.5q1 -29 14.5 -40.5t34.5 -11.5q18 0 40 7.5t43.5 18.5t40.5 24.5t32 26.5zM183 260q0 8 -4 13t-12 5q-14 0 -21.5 -11.5t-7.5 -19.5q0 -5 4.5 -10.5t12.5 -5.5q11 0 19.5 9t8.5 20z" />
    <glyph glyph-name="ccedilla" unicode="&#xe7;" horiz-adv-x="207" 
d="M209 84q-10 -11 -33.5 -28t-52.5 -32.5t-59 -26.5t-53 -11q-7 0 -11 1l-6 -10q6 -1 10 -5q4 -3 7 -7t3 -11q0 -15 -9.5 -26t-23.5 -17.5t-29.5 -9.5t-27.5 -3q-7 0 -7 5q0 4 4 4q10 0 22.5 3t23 8t17.5 13t7 18q0 13 -13 17q-4 0 -4 5q0 2 1.5 5.5t8.5 12.5q-30 9 -30 36
q0 19 13.5 41.5t33.5 42t44.5 32.5t46.5 13q8 0 14 -4.5t6 -12.5t-5 -16.5t-14 -8.5t-9 8q0 2 1.5 4t1.5 5q0 5 -7 5q-13 0 -30.5 -10.5t-33 -26t-26 -33t-10.5 -31.5q0 -12 10 -20t33 -8q17 0 42 9.5t50.5 23t48.5 29.5t35 28z" />
    <glyph glyph-name="eacute" unicode="&#xe9;" horiz-adv-x="192" 
d="M170 281q0 -5 -9.5 -11.5t-24 -13.5t-31.5 -13t-31 -11q-6 2 -6 3q0 3 8 7.5t20 11.5t26.5 16.5t28.5 21.5q3 3 6 3q5 0 9 -4.5t4 -9.5zM194 84q-10 -11 -32 -28t-49 -32.5t-55.5 -26.5t-51.5 -11q-17 0 -32 11.5t-15 32.5q0 22 13.5 42.5t32.5 36t39.5 25t34.5 9.5
q11 0 15 -5t4 -12q0 -9 -10 -20.5t-26 -24t-36.5 -24.5t-40.5 -23q0 -13 7 -21t26 -8q17 0 40.5 9.5t47 23t45 29.5t33.5 28zM74 119q0 6 -8 6q-12 0 -24 -7t-23 -18t-19 -24t-12 -26q38 19 62 38t24 31z" />
    <glyph glyph-name="egrave" unicode="&#xe8;" horiz-adv-x="192" 
d="M147 235q0 -1 -6 -3q-14 5 -31 11t-31.5 13t-24 13.5t-9.5 11.5t4 9.5t9 4.5q3 0 6 -3q14 -12 28.5 -21.5t26.5 -16.5t20 -11.5t8 -7.5zM194 84q-10 -11 -32 -28t-49 -32.5t-55.5 -26.5t-51.5 -11q-17 0 -32 11.5t-15 32.5q0 22 13.5 42.5t32.5 36t39.5 25t34.5 9.5
q11 0 15 -5t4 -12q0 -9 -10 -20.5t-26 -24t-36.5 -24.5t-40.5 -23q0 -13 7 -21t26 -8q17 0 40.5 9.5t47 23t45 29.5t33.5 28zM74 119q0 6 -8 6q-12 0 -24 -7t-23 -18t-19 -24t-12 -26q38 19 62 38t24 31z" />
    <glyph glyph-name="ecircumflex" unicode="&#xea;" horiz-adv-x="192" 
d="M167 237q0 -2 -2 -3.5t-4 -1.5q-3 0 -9.5 6.5t-13.5 14.5q-8 9 -16 20q-12 -8 -27 -15.5t-28.5 -13t-24 -9t-13.5 -3.5q-4 0 -4 4q0 1 9 6.5t22.5 13t28.5 16.5t27 18q6 5 9 6t8 1q3 0 6.5 -5.5t8 -14.5t10.5 -19.5t13 -20.5zM194 84q-10 -11 -32 -28t-49 -32.5
t-55.5 -26.5t-51.5 -11q-17 0 -32 11.5t-15 32.5q0 22 13.5 42.5t32.5 36t39.5 25t34.5 9.5q11 0 15 -5t4 -12q0 -9 -10 -20.5t-26 -24t-36.5 -24.5t-40.5 -23q0 -13 7 -21t26 -8q17 0 40.5 9.5t47 23t45 29.5t33.5 28zM74 119q0 6 -8 6q-12 0 -24 -7t-23 -18t-19 -24
t-12 -26q38 19 62 38t24 31z" />
    <glyph glyph-name="edieresis" unicode="&#xeb;" horiz-adv-x="192" 
d="M158 280q0 -8 -8 -18t-16 -10q-9 0 -9 10q0 8 8.5 17.5t17.5 9.5q7 0 7 -9zM68 280q0 -8 -8 -18t-16 -10q-9 0 -9 10q0 8 8.5 17.5t17.5 9.5q7 0 7 -9zM194 84q-10 -11 -32 -28t-49 -32.5t-55.5 -26.5t-51.5 -11q-17 0 -32 11.5t-15 32.5q0 22 13.5 42.5t32.5 36t39.5 25
t34.5 9.5q11 0 15 -5t4 -12q0 -9 -10 -20.5t-26 -24t-36.5 -24.5t-40.5 -23q0 -13 7 -21t26 -8q17 0 40.5 9.5t47 23t45 29.5t33.5 28zM74 119q0 6 -8 6q-12 0 -24 -7t-23 -18t-19 -24t-12 -26q38 19 62 38t24 31z" />
    <glyph glyph-name="iacute" unicode="&#xed;" horiz-adv-x="179" 
d="M163 281q0 -5 -9.5 -11.5t-24 -13.5t-31.5 -13t-31 -11q-6 2 -6 3q0 3 8 7.5t20 11.5t26.5 16.5t28.5 21.5q3 3 6 3q5 0 9 -4.5t4 -9.5zM180 83q-10 -11 -31.5 -26t-47.5 -28.5t-54 -23t-51 -9.5q-17 0 -23.5 8t-6.5 21q0 16 8.5 36.5t19.5 38.5t22 30t16 12q4 0 7 -4
q2 -4 2 -7q0 -4 -7.5 -15.5t-16.5 -26t-16.5 -29.5t-7.5 -26q0 -17 21 -17q18 0 40 7.5t44 18.5t41 25t31 26z" />
    <glyph glyph-name="igrave" unicode="&#xec;" horiz-adv-x="179" 
d="M141 235q0 -1 -6 -3q-14 5 -31 11t-31.5 13t-24 13.5t-9.5 11.5t4 9.5t9 4.5q3 0 6 -3q14 -12 28.5 -21.5t26.5 -16.5t20 -11.5t8 -7.5zM180 83q-10 -11 -31.5 -26t-47.5 -28.5t-54 -23t-51 -9.5q-17 0 -23.5 8t-6.5 21q0 16 8.5 36.5t19.5 38.5t22 30t16 12q4 0 7 -4
q2 -4 2 -7q0 -4 -7.5 -15.5t-16.5 -26t-16.5 -29.5t-7.5 -26q0 -17 21 -17q18 0 40 7.5t44 18.5t41 25t31 26z" />
    <glyph glyph-name="icircumflex" unicode="&#xee;" horiz-adv-x="179" 
d="M161 237q0 -2 -2 -3.5t-4 -1.5q-3 0 -9.5 6.5t-13.5 14.5q-8 9 -16 20q-12 -8 -27 -15.5t-28.5 -13t-24 -9t-13.5 -3.5q-4 0 -4 4q0 1 9 6.5t22.5 13t28.5 16.5t27 18q6 5 9 6t8 1q3 0 6.5 -5.5t8 -14.5t10.5 -19.5t13 -20.5zM180 83q-10 -11 -31.5 -26t-47.5 -28.5
t-54 -23t-51 -9.5q-17 0 -23.5 8t-6.5 21q0 16 8.5 36.5t19.5 38.5t22 30t16 12q4 0 7 -4q2 -4 2 -7q0 -4 -7.5 -15.5t-16.5 -26t-16.5 -29.5t-7.5 -26q0 -17 21 -17q18 0 40 7.5t44 18.5t41 25t31 26z" />
    <glyph glyph-name="idieresis" unicode="&#xef;" horiz-adv-x="179" 
d="M151 280q0 -8 -8 -18t-16 -10q-9 0 -9 10q0 8 8.5 17.5t17.5 9.5q7 0 7 -9zM61 280q0 -8 -8 -18t-16 -10q-9 0 -9 10q0 8 8.5 17.5t17.5 9.5q7 0 7 -9zM180 83q-10 -11 -31.5 -26t-47.5 -28.5t-54 -23t-51 -9.5q-17 0 -23.5 8t-6.5 21q0 16 8.5 36.5t19.5 38.5t22 30
t16 12q4 0 7 -4q2 -4 2 -7q0 -4 -7.5 -15.5t-16.5 -26t-16.5 -29.5t-7.5 -26q0 -17 21 -17q18 0 40 7.5t44 18.5t41 25t31 26z" />
    <glyph glyph-name="ntilde" unicode="&#xf1;" horiz-adv-x="372" 
d="M263 257q0 -9 -14 -17.5t-27 -8.5q-16 0 -26 5t-18 10.5t-16.5 10.5t-20.5 5t-18 -8.5t-11 -8.5t-5 5q0 8 13 18.5t27 10.5q13 0 23.5 -5t20 -11.5t18 -11.5t17.5 -5q12 0 19 9.5t12 9.5q3 0 4.5 -3t1.5 -5zM374 84q-10 -11 -33 -26.5t-51.5 -29.5t-59 -24t-54.5 -10
q-18 0 -29.5 7.5t-11.5 24.5q0 9 3.5 19t7.5 18q1 2 -18 -8.5t-44 -24t-49 -25t-35 -11.5q-15 0 -15 14q0 11 8.5 28t18.5 33t18 28.5t7 13.5q-3 0 -8 -4t-11.5 -9.5t-13 -11.5t-11.5 -10h-23q6 5 11 9.5t11 9.5q4 4 11.5 11t16.5 13.5t18 11t16 4.5q12 0 12 -17
q0 -5 -7.5 -17.5t-17 -27.5t-17 -29t-7.5 -22q0 -4 3 -4q5 0 18.5 6.5t30.5 16.5t35.5 21.5t34.5 21.5t27.5 16.5t13.5 6.5q4 0 6 -5.5t2 -8.5q0 -4 -4 -11.5t-9 -17t-9 -19t-4 -17.5q0 -20 26 -20q18 0 43.5 9t50.5 22t47.5 28.5t34.5 27.5z" />
    <glyph glyph-name="oacute" unicode="&#xf3;" horiz-adv-x="253" 
d="M193 281q0 -5 -9.5 -11.5t-24 -13.5t-31.5 -13t-31 -11q-6 2 -6 3q0 3 8 7.5t20 11.5t26.5 16.5t28.5 21.5q3 3 6 3q5 0 9 -4.5t4 -9.5zM255 84q-23 -23 -50.5 -34.5t-53.5 -11.5q-20 0 -37 7.5t-29 21.5q-8 -15 -19.5 -29t-26 -25t-30.5 -17.5t-32 -6.5q-30 0 -30 29
q0 21 22.5 53t77.5 67q9 -4 9 -13q0 -3 -3 -6q-8 -4 -21.5 -14t-27 -24t-23.5 -30t-10 -33q0 -13 14 -13q12 0 25.5 7.5t26 19.5t22.5 26.5t14 29.5q-3 9 -5 19t-2 23q0 3 1.5 7.5t6.5 4.5q10 0 16.5 -13t6.5 -22q0 -4 -0.5 -7t-1.5 -7q7 -18 23.5 -27t38.5 -9
q23 0 46.5 9.5t41.5 28.5z" />
    <glyph glyph-name="ograve" unicode="&#xf2;" horiz-adv-x="253" 
d="M178 235q0 -1 -6 -3q-14 5 -31 11t-31.5 13t-24 13.5t-9.5 11.5t4 9.5t9 4.5q3 0 6 -3q14 -12 28.5 -21.5t26.5 -16.5t20 -11.5t8 -7.5zM255 84q-23 -23 -50.5 -34.5t-53.5 -11.5q-20 0 -37 7.5t-29 21.5q-8 -15 -19.5 -29t-26 -25t-30.5 -17.5t-32 -6.5q-30 0 -30 29
q0 21 22.5 53t77.5 67q9 -4 9 -13q0 -3 -3 -6q-8 -4 -21.5 -14t-27 -24t-23.5 -30t-10 -33q0 -13 14 -13q12 0 25.5 7.5t26 19.5t22.5 26.5t14 29.5q-3 9 -5 19t-2 23q0 3 1.5 7.5t6.5 4.5q10 0 16.5 -13t6.5 -22q0 -4 -0.5 -7t-1.5 -7q7 -18 23.5 -27t38.5 -9
q23 0 46.5 9.5t41.5 28.5z" />
    <glyph glyph-name="ocircumflex" unicode="&#xf4;" horiz-adv-x="253" 
d="M178 237q0 -2 -2 -3.5t-4 -1.5q-3 0 -9.5 6.5t-13.5 14.5q-8 9 -16 20q-12 -8 -27 -15.5t-28.5 -13t-24 -9t-13.5 -3.5q-4 0 -4 4q0 1 9 6.5t22.5 13t28.5 16.5t27 18q6 5 9 6t8 1q3 0 6.5 -5.5t8 -14.5t10.5 -19.5t13 -20.5zM255 84q-23 -23 -50.5 -34.5t-53.5 -11.5
q-20 0 -37 7.5t-29 21.5q-8 -15 -19.5 -29t-26 -25t-30.5 -17.5t-32 -6.5q-30 0 -30 29q0 21 22.5 53t77.5 67q9 -4 9 -13q0 -3 -3 -6q-8 -4 -21.5 -14t-27 -24t-23.5 -30t-10 -33q0 -13 14 -13q12 0 25.5 7.5t26 19.5t22.5 26.5t14 29.5q-3 9 -5 19t-2 23q0 3 1.5 7.5
t6.5 4.5q10 0 16.5 -13t6.5 -22q0 -4 -0.5 -7t-1.5 -7q7 -18 23.5 -27t38.5 -9q23 0 46.5 9.5t41.5 28.5z" />
    <glyph glyph-name="odieresis" unicode="&#xf6;" horiz-adv-x="253" 
d="M178 280q0 -8 -8 -18t-16 -10q-9 0 -9 10q0 8 8.5 17.5t17.5 9.5q7 0 7 -9zM88 280q0 -8 -8 -18t-16 -10q-9 0 -9 10q0 8 8.5 17.5t17.5 9.5q7 0 7 -9zM255 84q-23 -23 -50.5 -34.5t-53.5 -11.5q-20 0 -37 7.5t-29 21.5q-8 -15 -19.5 -29t-26 -25t-30.5 -17.5t-32 -6.5
q-30 0 -30 29q0 21 22.5 53t77.5 67q9 -4 9 -13q0 -3 -3 -6q-8 -4 -21.5 -14t-27 -24t-23.5 -30t-10 -33q0 -13 14 -13q12 0 25.5 7.5t26 19.5t22.5 26.5t14 29.5q-3 9 -5 19t-2 23q0 3 1.5 7.5t6.5 4.5q10 0 16.5 -13t6.5 -22q0 -4 -0.5 -7t-1.5 -7q7 -18 23.5 -27t38.5 -9
q23 0 46.5 9.5t41.5 28.5z" />
    <glyph glyph-name="otilde" unicode="&#xf5;" horiz-adv-x="253" 
d="M203 257q0 -9 -14 -17.5t-27 -8.5q-16 0 -26 5t-18 10.5t-16.5 10.5t-20.5 5t-18 -8.5t-11 -8.5t-5 5q0 8 13 18.5t27 10.5q13 0 23.5 -5t20 -11.5t18 -11.5t17.5 -5q12 0 19 9.5t12 9.5q3 0 4.5 -3t1.5 -5zM255 84q-23 -23 -50.5 -34.5t-53.5 -11.5q-20 0 -37 7.5
t-29 21.5q-8 -15 -19.5 -29t-26 -25t-30.5 -17.5t-32 -6.5q-30 0 -30 29q0 21 22.5 53t77.5 67q9 -4 9 -13q0 -3 -3 -6q-8 -4 -21.5 -14t-27 -24t-23.5 -30t-10 -33q0 -13 14 -13q12 0 25.5 7.5t26 19.5t22.5 26.5t14 29.5q-3 9 -5 19t-2 23q0 3 1.5 7.5t6.5 4.5
q10 0 16.5 -13t6.5 -22q0 -4 -0.5 -7t-1.5 -7q7 -18 23.5 -27t38.5 -9q23 0 46.5 9.5t41.5 28.5z" />
    <glyph glyph-name="uacute" unicode="&#xfa;" horiz-adv-x="290" 
d="M196 281q0 -5 -9.5 -11.5t-24 -13.5t-31.5 -13t-31 -11q-6 2 -6 3q0 3 8 7.5t20 11.5t26.5 16.5t28.5 21.5q3 3 6 3q5 0 9 -4.5t4 -9.5zM292 84q-10 -11 -31.5 -26.5t-48.5 -29t-55 -23t-51 -9.5q-13 0 -18 7.5t-5 18.5q0 19 11 46q-8 -6 -25 -18.5t-35.5 -25t-35 -22
t-25.5 -9.5q-20 0 -20 19q0 15 12 38.5t27 45.5t29 37.5t19 15.5t7.5 -4.5t2.5 -7.5t-11 -15.5t-23.5 -29t-23.5 -34.5t-11 -32q0 -6 6 -6q10 0 28 10.5t37 24.5t36 28t24 21q12 21 24.5 36t20.5 15q13 0 13 -4t-2 -7q-1 -2 -11 -14.5t-22 -29.5t-21.5 -34.5t-9.5 -30.5
q0 -8 5 -13.5t22 -5.5q18 0 39.5 8t42 20t39 25.5t30.5 25.5z" />
    <glyph glyph-name="ugrave" unicode="&#xf9;" horiz-adv-x="290" 
d="M176 235q0 -1 -6 -3q-14 5 -31 11t-31.5 13t-24 13.5t-9.5 11.5t4 9.5t9 4.5q3 0 6 -3q14 -12 28.5 -21.5t26.5 -16.5t20 -11.5t8 -7.5zM292 84q-10 -11 -31.5 -26.5t-48.5 -29t-55 -23t-51 -9.5q-13 0 -18 7.5t-5 18.5q0 19 11 46q-8 -6 -25 -18.5t-35.5 -25t-35 -22
t-25.5 -9.5q-20 0 -20 19q0 15 12 38.5t27 45.5t29 37.5t19 15.5t7.5 -4.5t2.5 -7.5t-11 -15.5t-23.5 -29t-23.5 -34.5t-11 -32q0 -6 6 -6q10 0 28 10.5t37 24.5t36 28t24 21q12 21 24.5 36t20.5 15q13 0 13 -4t-2 -7q-1 -2 -11 -14.5t-22 -29.5t-21.5 -34.5t-9.5 -30.5
q0 -8 5 -13.5t22 -5.5q18 0 39.5 8t42 20t39 25.5t30.5 25.5z" />
    <glyph glyph-name="ucircumflex" unicode="&#xfb;" horiz-adv-x="290" 
d="M206 237q0 -2 -2 -3.5t-4 -1.5q-3 0 -9.5 6.5t-13.5 14.5q-8 9 -16 20q-12 -8 -27 -15.5t-28.5 -13t-24 -9t-13.5 -3.5q-4 0 -4 4q0 1 9 6.5t22.5 13t28.5 16.5t27 18q6 5 9 6t8 1q3 0 6.5 -5.5t8 -14.5t10.5 -19.5t13 -20.5zM292 84q-10 -11 -31.5 -26.5t-48.5 -29
t-55 -23t-51 -9.5q-13 0 -18 7.5t-5 18.5q0 19 11 46q-8 -6 -25 -18.5t-35.5 -25t-35 -22t-25.5 -9.5q-20 0 -20 19q0 15 12 38.5t27 45.5t29 37.5t19 15.5t7.5 -4.5t2.5 -7.5t-11 -15.5t-23.5 -29t-23.5 -34.5t-11 -32q0 -6 6 -6q10 0 28 10.5t37 24.5t36 28t24 21
q12 21 24.5 36t20.5 15q13 0 13 -4t-2 -7q-1 -2 -11 -14.5t-22 -29.5t-21.5 -34.5t-9.5 -30.5q0 -8 5 -13.5t22 -5.5q18 0 39.5 8t42 20t39 25.5t30.5 25.5z" />
    <glyph glyph-name="udieresis" unicode="&#xfc;" horiz-adv-x="290" 
d="M216 280q0 -8 -8 -18t-16 -10q-9 0 -9 10q0 8 8.5 17.5t17.5 9.5q7 0 7 -9zM126 280q0 -8 -8 -18t-16 -10q-9 0 -9 10q0 8 8.5 17.5t17.5 9.5q7 0 7 -9zM292 84q-10 -11 -31.5 -26.5t-48.5 -29t-55 -23t-51 -9.5q-13 0 -18 7.5t-5 18.5q0 19 11 46q-8 -6 -25 -18.5
t-35.5 -25t-35 -22t-25.5 -9.5q-20 0 -20 19q0 15 12 38.5t27 45.5t29 37.5t19 15.5t7.5 -4.5t2.5 -7.5t-11 -15.5t-23.5 -29t-23.5 -34.5t-11 -32q0 -6 6 -6q10 0 28 10.5t37 24.5t36 28t24 21q12 21 24.5 36t20.5 15q13 0 13 -4t-2 -7q-1 -2 -11 -14.5t-22 -29.5
t-21.5 -34.5t-9.5 -30.5q0 -8 5 -13.5t22 -5.5q18 0 39.5 8t42 20t39 25.5t30.5 25.5z" />
    <glyph glyph-name="dagger" unicode="&#x2020;" horiz-adv-x="284" 
d="M209 145q0 -5 -2.5 -10t-5.5 -5h-71l-90 -320q-1 -4 -4 -4t-6.5 3.5t-3.5 7.5q5 17 14.5 53t21 80.5t24 92t23.5 87.5h-61q-15 0 -18 0.5t-3 2.5q0 5 1.5 11t7.5 6h78q5 19 9.5 34t8.5 26q4 12 7 15.5t5 3.5q4 0 7.5 -3.5t3.5 -7.5l-20 -68h71q3 0 3 -5z" />
    <glyph glyph-name="degree" unicode="&#xb0;" horiz-adv-x="189" 
d="M137 172q0 -9 -4.5 -17.5t-12 -16t-16.5 -12t-18 -4.5q-14 0 -21 8.5t-7 19.5q0 6 3 15t9.5 17.5t16 14.5t21.5 6q14 0 21.5 -9t7.5 -22zM120 168q0 8 -4 13t-12 5q-14 0 -21.5 -11.5t-7.5 -19.5q0 -5 4.5 -10.5t12.5 -5.5q11 0 19.5 9t8.5 20z" />
    <glyph glyph-name="cent" unicode="&#xa2;" horiz-adv-x="188" 
d="M190 256l-2 -4t-9.5 -16t-21.5 -35.5t-37 -64.5q11 -2 11 -12q0 -6 -3.5 -13t-11.5 -7q-7 0 -7 6q0 2 1 3.5t1 3.5v2l-26 -45.5t-32 -55.5h7q11 0 27.5 5.5t34.5 14.5l6 2q4 0 4 -5q0 -6 -5 -9q-20 -10 -40 -16.5t-36 -6.5h-7q-10 -17 -19.5 -34t-20.5 -37
q-2 -4 -6.5 -8.5t-7.5 -4.5q-6 0 -6 4q0 2 1 4.5t2 4.5l43 73q-25 6 -25 28q0 14 9.5 31t24.5 32t33 26.5t35 13.5l65 111q1 3 4 6q5 5 10 5q4 0 4 -2zM98 120q-11 -3 -24 -12t-23.5 -20.5t-17.5 -24t-7 -23.5q0 -13 14 -19q14 23 28.5 48t29.5 51z" />
    <glyph glyph-name="sterling" unicode="&#xa3;" horiz-adv-x="272" 
d="M292 218q0 -7 -8 -17t-23 -20.5t-36 -21t-47 -18.5q-7 -8 -13 -17t-12 -17h45q5 0 5 -3t-2 -6t-3 -3q-14 -1 -26.5 -1h-26.5l-10 -14h49q5 0 5 -3t-2 -6t-3 -3q-15 -1 -29.5 -1h-28.5l-11 -14q37 -6 62 -27t25 -50q0 -5 -2 -12.5t-6 -14t-9 -11t-10 -4.5q-4 0 -4 2
q0 1 5 6q5 4 7 14t2 16q0 32 -23.5 48t-57.5 20q-22 -30 -48 -50.5t-55 -20.5q-16 0 -25.5 5.5t-9.5 14.5t10 20t27 21t40 16.5t50 7.5l8 12h-42q-1 1 -1 2q0 10 3 10q11 1 23.5 1t26.5 1q3 3 5.5 6t5.5 7h-49q-1 1 -1 2q0 10 3 10q11 1 26 1t31 1q5 6 9 12t9 13
q-30 -8 -60 -8q-16 0 -26.5 3t-15.5 7q-6 4 -9 10q0 8 9 8q10 0 20 -7t31 -7q15 0 31 2.5t32 7.5q26 33 54 57.5t56 24.5q20 0 20 -12zM276 212q0 4 -7 4q-20 0 -40 -17.5t-40 -42.5q37 14 62 31t25 25zM80 41q-20 0 -38.5 -5.5t-32.5 -13t-22 -16t-8 -14.5q0 -11 23 -11
q21 0 40.5 17t37.5 43z" />
    <glyph glyph-name="section" unicode="&#xa7;" horiz-adv-x="195" 
d="M215 214q0 -3 -5.5 -5.5t-10.5 -2.5q-7 0 -7 6q0 12 -8 17t-20 5q-19 0 -38.5 -10t-19.5 -24q0 -15 10 -23.5t22 -16t22 -16.5t10 -26t-10 -30.5t-25 -23.5v-1q0 -16 -10 -30.5t-25 -24.5t-33 -16t-35 -6q-19 0 -32 8.5t-13 28.5q0 23 13 41t23 18q4 0 8.5 -2.5t4.5 -5.5
t-5 -5.5t-10.5 -7t-10.5 -12.5t-5 -22t10 -20.5t25 -6.5q12 0 25 4t24 11.5t18 18.5t7 24q0 12 -10 20t-21.5 16t-21.5 18.5t-10 27.5q0 11 10.5 21.5t26.5 18.5q-2 8 -2 15q0 10 8.5 19.5t21 16.5t28 11.5t29.5 4.5q17 0 29.5 -7.5t12.5 -25.5zM149 113q0 9 -6 15.5t-15 13
t-18.5 13t-15.5 15.5q-23 -11 -23 -25q0 -13 8 -21.5t18 -15t20.5 -13.5t14.5 -18q17 15 17 36z" />
    <glyph glyph-name="bullet" unicode="&#x2022;" horiz-adv-x="260" 
d="M159 69q0 -12 -6.5 -24.5t-16.5 -22.5t-22 -16.5t-24 -6.5q-19 0 -29 11.5t-10 27.5q0 8 4 20.5t12.5 24.5t21.5 20.5t30 8.5q20 0 30 -13t10 -30z" />
    <glyph glyph-name="paragraph" unicode="&#xb6;" horiz-adv-x="278" 
d="M352 433q0 -2 -2 -6q-34 -62 -76 -116t-84 -105.5t-82 -104t-70.5 -111t-49.5 -125.5t-19 -149q-1 -4 -1 -10.5t-9 -8.5q-2 -1 -5 -1q-6 0 -9 4.5t-5 8.5q2 48 10 91t21 82q-25 6 -25 36q0 21 13 50.5t35 64.5t50.5 74t59.5 80l62 82t58 79l4 7q-1 -1 -9.5 -6t-20 -9.5
t-24 -8.5t-23.5 -4q-22 0 -22 20q0 17 15.5 37.5t38 38t48 29.5t45.5 12q16 0 26 -9t10 -31q0 -8 -25.5 -41t-64 -80.5t-83 -103.5t-83 -109.5t-64 -99t-25.5 -72.5q0 -13 11 -16q28 75 70.5 139t91.5 125.5t99.5 125.5t93.5 137q7 11 13 11t6 -7z" />
    <glyph glyph-name="germandbls" unicode="&#xdf;" horiz-adv-x="366" 
d="M531 621q0 -22 -21.5 -54.5t-53.5 -70.5t-69 -79t-69 -79.5t-53.5 -72t-21.5 -57.5q0 -7 2 -16.5t5 -20t5 -20.5t2 -16q0 -13 -7.5 -29.5t-19.5 -33.5t-27 -32.5t-31 -26.5q42 5 89 22.5t86 49.5h22l-5 -5q-2 -2 -5.5 -4.5t-8.5 -6.5q-18 -14 -45 -28t-57 -25.5t-60 -19
t-53 -7.5q-21 0 -34 7.5t-13 24.5q0 8 6 14t14 6t9 -8q2 -11 5 -15t8 -5q18 1 36 12.5t32 28t22.5 35t8.5 33.5q0 7 -2 17t-5 20.5t-5 21t-2 17.5q0 24 21.5 60t53.5 77t69.5 84t69.5 81.5t53.5 70t21.5 49.5q0 17 -21 17q-9 0 -19 -5.5t-20 -14.5t-19.5 -20.5t-17.5 -22.5
q0 -3 -14.5 -26t-36.5 -56.5t-48.5 -72.5t-50 -73t-40.5 -58.5t-20 -29.5q-3 -3 -13 -18.5t-23.5 -36t-28.5 -43.5t-27.5 -43t-21.5 -33.5t-10 -14.5q-7 -9 -31 -45l-56 -84t-67.5 -103t-65.5 -102.5t-49.5 -82t-19.5 -42.5q0 -10 -7 -17t-10 -7q-6 0 -8 8q-1 4 -1 8
q0 12 18 46t46 79.5t62.5 98t67.5 102t61 90.5t43 64l23 34.5t35 53.5t32.5 50.5t15.5 24.5q1 1 1 3t-2 2q-1 0 -3 -2q-8 -13 -29 -36.5t-45.5 -49.5t-49.5 -50t-41 -36h-23q6 5 11 9.5t11 9.5q56 51 96.5 92.5t66.5 70.5q31 34 52 62q2 2 13.5 19.5t29 43t37 55t37.5 56.5
t31 47t17 26q27 42 57 63.5t53 21.5q49 0 49 -31z" />
    <glyph glyph-name="registered" unicode="&#xae;" horiz-adv-x="360" 
d="M330 177q0 -30 -17.5 -66t-47.5 -67t-69 -51.5t-81 -20.5q-50 0 -71 20t-21 49q0 30 19.5 65.5t51.5 66t72.5 51t82.5 20.5q43 0 62 -19t19 -48zM309 168q0 25 -16 41.5t-51 16.5q-37 0 -73 -18.5t-64 -45.5t-45.5 -58.5t-17.5 -57.5q0 -25 18 -41t60 -16q38 0 72.5 18
t60.5 45t41 58.5t15 57.5zM262 180q0 -9 -8 -20.5t-21 -21.5t-28.5 -17t-30.5 -7q-8 0 -12 1q2 -12 6 -25t11.5 -24t17.5 -18t24 -7q8 0 9.5 0.5t3.5 0.5q3 0 3 -2q0 -3 -4 -4.5t-9 -1.5q-24 0 -38.5 9.5t-22 22.5t-9.5 26.5t-2 21.5v8q0 1 4 1q3 -3 13 -3q14 0 27.5 6
t23.5 15t16 19t6 17q0 10 -13 10q-28 0 -56 -19t-50.5 -43.5t-37 -47t-14.5 -29.5q0 -3 2 -3q4 0 14 12.5t21 28.5t20 31t11 19q0 1 2 1h3q0 -4 -7.5 -20t-18.5 -33.5t-24 -31.5t-24 -14q-10 0 -10 11q0 14 14.5 38.5t39 48.5t56 42t65.5 18q27 0 27 -16z" />
    <glyph glyph-name="copyright" unicode="&#xa9;" horiz-adv-x="360" 
d="M330 177q0 -30 -17.5 -66t-47.5 -67t-69 -51.5t-81 -20.5q-50 0 -71 20t-21 49q0 30 19.5 65.5t51.5 66t72.5 51t82.5 20.5q43 0 62 -19t19 -48zM309 168q0 25 -16 41.5t-51 16.5q-37 0 -73 -18.5t-64 -45.5t-45.5 -58.5t-17.5 -57.5q0 -25 18 -41t60 -16q38 0 72.5 18
t60.5 45t41 58.5t15 57.5zM276 185q0 -10 -8.5 -23t-22 -24t-28.5 -19t-29 -8q-9 0 -9 10q0 11 9.5 25t24.5 19q1 0 2 0.5t3 0.5q4 0 4 -3q0 -2 -5.5 -6.5t-12 -10t-12 -11.5t-5.5 -11q0 -3 6 -3q9 0 21 6.5t23.5 15.5t19 19.5t7.5 18.5q0 6 -5 9t-19 3q-22 0 -48 -16.5
t-49 -39t-38.5 -47t-15.5 -40.5q0 -20 24 -20q16 0 35.5 8t32.5 18l9 -6q-19 -14 -42 -23t-40 -9q-19 0 -27.5 8t-8.5 22q0 20 15.5 46.5t40 50.5t56 41t62.5 17q30 0 30 -18z" />
    <glyph glyph-name="acute" unicode="&#xb4;" horiz-adv-x="409" 
d="M249 281q0 -5 -9.5 -11.5t-24 -13.5t-31.5 -13t-31 -11q-6 2 -6 3q0 3 8 7.5t20 11.5t26.5 16.5t28.5 21.5q3 3 6 3q5 0 9 -4.5t4 -9.5z" />
    <glyph glyph-name="dieresis" unicode="&#xa8;" horiz-adv-x="179" 
d="M166 280q0 -8 -8 -18t-16 -10q-9 0 -9 10q0 8 8.5 17.5t17.5 9.5q7 0 7 -9zM76 280q0 -8 -8 -18t-16 -10q-9 0 -9 10q0 8 8.5 17.5t17.5 9.5q7 0 7 -9z" />
    <glyph glyph-name="AE" unicode="&#xc6;" horiz-adv-x="921" 
d="M1017 704q0 -3 -2.5 -6t-7.5 -3q-8 1 -14.5 1h-11.5q-45 0 -91 -20.5t-84 -50.5t-62 -64t-24 -62q0 -24 21.5 -39.5t71.5 -15.5q32 0 57 9.5t33 9.5q9 0 9 -11q0 -7 -11 -9q-69 -12 -136 -50t-120.5 -88.5t-86 -105t-32.5 -99.5q0 -56 38 -82.5t95 -26.5q60 0 128.5 26.5
t125.5 77.5l11 -10q-73 -63 -142 -89.5t-126 -26.5q-36 0 -66 9t-51 25.5t-33 39t-12 48.5q0 44 28.5 94.5t73.5 97.5t100 86t109 59q-66 0 -94 18.5t-28 47.5q0 27 20.5 58.5t54.5 61.5t76.5 55.5t87.5 38.5q8 2 26 5t35 3q14 0 24 -2.5t10 -9.5zM733 692q0 -8 -6 -8
q-12 4 -25 5.5t-27 1.5q-60 0 -131.5 -30t-143.5 -80t-140 -115t-120 -134t-83.5 -138.5t-31.5 -127.5q0 -42 15 -60t42 -18q31 0 74.5 22t94 59t104 86t105 103.5t98 111.5t81.5 109q7 11 16.5 17t14.5 6q8 0 8 -8q0 -5 -3.5 -12.5t-13.5 -21.5q-55 -78 -91.5 -141
t-58.5 -112.5t-31 -86.5t-9 -64q0 -38 14 -57.5t31 -26.5q3 -2 3 -4q0 -3 -2 -5t-4 -2q-10 0 -21 7.5t-20 21t-14.5 31.5t-5.5 38q0 43 17 93.5t38 95.5q25 52 55 105q-86 -103 -160.5 -177t-136.5 -120.5t-110.5 -68.5t-83.5 -22q-40 0 -60.5 26t-20.5 74q0 38 17.5 86
t48.5 101t74 108.5t94.5 107.5t109 97.5t118.5 79.5t123 54t122 20q20 0 28 -9.5t8 -17.5z" />
    <glyph glyph-name="Oslash" unicode="&#xd8;" horiz-adv-x="513" 
d="M758 665q0 -21 -8.5 -52.5t-25 -69.5t-40 -81.5t-53.5 -88.5q2 -20 6 -37.5t12 -33.5q1 -2 1 -7q0 -6 -3 -6t-8 8q-13 24 -19 59q-43 -64 -97 -126.5t-114.5 -114t-127 -87t-135.5 -45.5q-12 -19 -23.5 -37.5t-22.5 -35.5q-8 -14 -13 -21.5t-16 -6.5q-9 0 -12 3t-3 7
q0 5 7 13t12 14q1 2 11.5 18t27.5 43q-5 -1 -9 -1h-9q-55 0 -80 26t-25 70q0 46 24 106.5t66.5 126t99 130.5t121 120t134.5 95t138 54q27 43 44.5 70.5t20.5 32.5q7 13 22 13q5 0 11 -2t6 -7q0 -3 -8 -12t-10 -12q-13 -19 -25.5 -38.5t-26.5 -39.5q8 1 16.5 1.5t16.5 0.5
q15 0 19 -1t4 -5q0 -6 -2 -8.5t-10 -2.5q-14 0 -28.5 -2t-29.5 -5q-53 -81 -109.5 -170t-113.5 -179t-111.5 -177t-103.5 -164q64 13 127.5 52.5t123.5 94.5t113 120.5t96 129.5v9q0 4 -0.5 8t-0.5 6q0 48 9.5 98t26 90.5t37.5 66.5t45 26q25 0 25 -36zM743 668q0 21 -14 21
q-13 0 -29.5 -24.5t-31.5 -63.5t-25.5 -87t-12.5 -95q53 82 83 149.5t30 99.5zM557 679q-61 -21 -125 -62.5t-125 -95.5t-115 -115.5t-95 -121.5t-64.5 -115t-23.5 -95q0 -37 22 -59.5t72 -20.5h7q3 0 6.5 0.5t6.5 0.5q24 38 57.5 90.5t71.5 112.5t79.5 125t81.5 128.5
t77 122t67 105.5z" />
    <glyph glyph-name="yen" unicode="&#xa5;" horiz-adv-x="228" 
d="M279 218q0 -2 -3.5 -6.5t-5.5 -5.5q-15 -3 -32.5 -14t-37 -27t-39.5 -36t-39 -42h43q5 0 5 -3t-2 -6t-3 -3q-14 -1 -27 -1h-27l-11 -14h51q5 0 5 -3t-2 -6t-3 -3q-16 -1 -31 -1h-30q-19 -26 -33.5 -50.5t-21.5 -44.5q-3 -7 -10 -7q-5 0 -9.5 3.5t-4.5 8.5
q12 20 27.5 42.5t33.5 46.5h-46q-1 1 -1 2q0 10 3 10q11 1 25 1t29 1l10 13h-52q-1 1 -1 2q0 10 3 10q12 1 28 1t33 1q1 1 1 2q-2 12 -7 31.5t-13.5 39t-19.5 33.5t-25 14q-3 2 -3 6q0 6 6 10t8 4q15 0 25.5 -14.5t18 -34.5t12.5 -42t7 -36q38 44 78.5 80t79.5 47
q2 0 5 -1.5t3 -7.5z" />
    <glyph glyph-name="ordfeminine" unicode="&#xaa;" horiz-adv-x="240" 
d="M259 135q-7 -8 -22 -18.5t-33.5 -20t-38 -16t-35.5 -6.5q-19 0 -26 12.5t-7 28.5q-22 -17 -46.5 -31t-36.5 -14q-20 0 -20 18q0 12 10 29t28.5 32.5t43.5 26t55 10.5q15 0 18 -3t3 -6q0 -7 -8 -7q-5 1 -9.5 1h-8.5q-26 0 -47 -9t-36 -21t-23 -24.5t-8 -20.5q0 -9 9 -9
q8 0 19 5t23 11.5t22 13.5t14 10q3 12 11 21t19 9q5 0 5 -3q0 -5 -7.5 -13t-18.5 -17q1 -20 11 -28t24 -8q13 0 28.5 5t30.5 13.5t28 18t22 18.5z" />
    <glyph glyph-name="ordmasculine" unicode="&#xba;" horiz-adv-x="150" 
d="M95 163q0 -12 -7.5 -26.5t-19 -27t-26.5 -21t-31 -8.5q-21 0 -21 21q0 15 16 36.5t54 46.5q6 -1 6 -9q0 -2 -2 -4q-5 -3 -14.5 -10t-19 -16.5t-16.5 -21t-7 -23.5q0 -9 10 -9q8 0 17.5 5t18 13.5t15.5 18.5t10 20q-2 5 -4 12.5t-2 14.5q0 12 7 12t11.5 -9t4.5 -15z" />
    <glyph glyph-name="ae" unicode="&#xe6;" horiz-adv-x="328" 
d="M330 84q-10 -11 -32 -28t-49 -32.5t-55.5 -26.5t-51.5 -11q-24 0 -38 17.5t-14 40.5q0 8 1 12q-15 -12 -32 -23.5t-33 -20.5t-30 -14.5t-23 -5.5q-28 0 -28 25q0 17 14.5 41t40.5 46t61.5 37.5t78.5 15.5q22 0 26 -4t4 -8t-2.5 -7.5t-9.5 -3.5q-8 1 -14 1h-11
q-37 0 -67 -12.5t-51 -29.5t-32.5 -35t-11.5 -30q0 -13 13 -13q10 0 26.5 7.5t33.5 17t31 19.5t20 14q5 18 16 30.5t26 12.5q7 0 7 -5q18 14 37.5 23t33.5 9q11 0 15 -5t4 -12q0 -9 -10 -20.5t-26.5 -24t-36.5 -24.5t-41 -23q0 -13 7.5 -21t26.5 -8q17 0 40.5 9.5t47 23
t45 29.5t33.5 28zM210 119q0 6 -8 6q-12 0 -24 -7t-23 -18t-19.5 -24t-12.5 -26q39 19 63 38t24 31z" />
    <glyph glyph-name="oslash" unicode="&#xf8;" horiz-adv-x="253" 
d="M255 84q-23 -23 -50.5 -34.5t-53.5 -11.5q-20 0 -37 7.5t-29 21.5q-14 -25 -37 -46.5t-50 -28.5q-8 -14 -16.5 -28t-16.5 -28q-3 -6 -7.5 -12t-9.5 -6q-7 0 -8.5 2.5t-1.5 4.5q0 5 6 13l34 51q-31 0 -31 29q0 21 22.5 53t77.5 67q9 -4 9 -13q0 -3 -3 -6q-8 -4 -21.5 -14
t-27 -24t-23.5 -30t-10 -33q0 -13 14 -13h3l78 119v6q0 3 1.5 7.5t6.5 4.5q2 0 3 -1l62 95q6 8 13 8q3 0 6 -2t3 -4q0 -5 -4 -11q-18 -26 -34.5 -49.5t-33.5 -47.5q4 -5 6 -11.5t2 -11.5q0 -4 -0.5 -7t-1.5 -7q7 -18 23.5 -27t38.5 -9q23 0 46.5 9.5t41.5 28.5zM73 88l-2 6
t-2 7q-16 -22 -30.5 -44t-28.5 -45q20 11 38.5 32t24.5 44z" />
    <glyph glyph-name="questiondown" unicode="&#xbf;" horiz-adv-x="284" 
d="M218 171q0 -10 -8 -20t-21 -10t-13 15q0 9 7.5 19.5t18.5 10.5q8 0 12 -4.5t4 -10.5zM231 -193q0 -25 -21.5 -60t-59.5 -67.5t-89 -55t-111 -22.5q-9 0 -32 1.5t-47.5 9.5t-43 25t-18.5 49t24 62.5t60.5 60t79.5 59t81.5 61.5t66 66.5t32.5 72.5q1 5 3.5 7t4.5 4q3 2 6 2
q6 -5 8 -11t2 -14q0 -31 -24.5 -60.5t-61 -59.5t-79.5 -59.5t-79.5 -60t-61 -62.5t-24.5 -65q0 -25 17 -38.5t39 -19.5t41.5 -7t24.5 -1q48 0 90 17t74 42t50.5 52.5t18.5 47.5q0 14 -9.5 22.5t-31.5 8.5q-28 0 -63.5 -9.5t-70.5 -30.5q-2 -2 -4 -3q-4 -2 -8 -2q-5 0 -5 5
q0 9 19 21t46.5 22t59.5 17t58 7q20 0 29 -9.5t9 -24.5z" />
    <glyph glyph-name="exclamdown" unicode="&#xa1;" horiz-adv-x="221" 
d="M181 175q0 -10 -8 -20t-21 -10t-13 15q0 9 7.5 19.5t18.5 10.5q8 0 12 -4.5t4 -10.5zM130 92q0 -2 -15.5 -32t-39 -74.5t-50.5 -96.5t-50.5 -96t-38.5 -73.5t-14 -30.5q-7 -16 -15 -22t-15 -6q-6 0 -10.5 3t-4.5 8q0 3 1 5q1 3 15 26.5t34.5 59t45.5 79.5t50 87.5
t46.5 83t35.5 65.5q11 14 14 17.5t7 3.5t4 -7z" />
    <glyph glyph-name="guillemotleft" unicode="&#xab;" horiz-adv-x="478" 
d="M376 119q0 -8 -20 -16l-127 -53l127 -38q3 -1 5.5 -4.5t2.5 -5.5t-2 -2q-8 0 -34.5 6.5t-56 14t-53.5 15t-27 8.5q0 1 -1 2q-2 2 -2 5q0 6 7 10l169 67q3 0 6 -2q6 -4 6 -7zM295 136q0 -8 -20 -16l-180 -76l175 -54q3 -1 5.5 -4.5t2.5 -5.5t-2 -2q-5 0 -23 4t-41.5 10.5
t-50 14t-49 14t-38 11.5t-17.5 6q0 1 -1 2q-2 2 -2 5q0 6 7 10l222 90q3 0 6 -2q6 -4 6 -7z" />
    <glyph glyph-name="guillemotright" unicode="&#xbb;" horiz-adv-x="397" 
d="M291 53q0 -7 -5 -10q-3 -2 -6 -3q-2 -1 -19.5 -6t-43.5 -11.5l-56 -14t-57 -14t-47.5 -10.5t-25.5 -4q0 2 1 4q2 3 11 8l205 54l-138 76q-14 7 -14 13q0 5 9 9q4 2 9 3l174 -90q3 -1 3 -4zM170 57q0 -7 -5 -10q-3 -2 -6 -3t-27 -7.5t-53 -13.5t-56 -12.5t-35 -5.5
q0 2 1 4t3.5 4t7.5 4l127 33l-108 60q-14 7 -14 13q0 5 9 9q4 2 9 3l144 -74q3 -1 3 -4z" />
    <glyph glyph-name="ellipsis" unicode="&#x2026;" horiz-adv-x="408" 
d="M287 29q0 -9 -7.5 -19.5t-18.5 -10.5q-8 0 -12 4.5t-4 10.5q0 10 8 20t21 10t13 -15zM177 29q0 -9 -7.5 -19.5t-18.5 -10.5q-8 0 -12 4.5t-4 10.5q0 10 8 20t21 10t13 -15zM67 29q0 -9 -7.5 -19.5t-18.5 -10.5q-8 0 -12 4.5t-4 10.5q0 10 8 20t21 10t13 -15z" />
    <glyph glyph-name="Agrave" unicode="&#xc0;" horiz-adv-x="598" 
d="M793 800q0 -1 -6 -3q-14 5 -31 11t-31.5 13t-24 13.5t-9.5 11.5t4 9.5t9 4.5q3 0 6 -3q14 -12 28.5 -21.5t26.5 -16.5t20 -11.5t8 -7.5zM733 692q0 -8 -6 -8q-12 4 -25 5.5t-27 1.5q-60 0 -131.5 -30t-143.5 -80t-140 -115t-120 -134t-83.5 -138.5t-31.5 -127.5
q0 -42 15 -60t42 -18q31 0 74.5 22t94 59t104 86t105 103.5t98 111.5t81.5 109q7 11 16.5 17t14.5 6q8 0 8 -8q0 -5 -3.5 -12.5t-13.5 -21.5q-55 -78 -91.5 -141t-58.5 -112.5t-31 -86.5t-9 -64q0 -38 14 -57.5t31 -26.5q3 -2 3 -4q0 -3 -2 -5t-4 -2q-10 0 -21 7.5t-20 21
t-14.5 31.5t-5.5 38q0 43 17 93.5t38 95.5q25 52 55 105q-86 -103 -160.5 -177t-136.5 -120.5t-110.5 -68.5t-83.5 -22q-40 0 -60.5 26t-20.5 74q0 38 17.5 86t48.5 101t74 108.5t94.5 107.5t109 97.5t118.5 79.5t123 54t122 20q20 0 28 -9.5t8 -17.5z" />
    <glyph glyph-name="Atilde" unicode="&#xc3;" horiz-adv-x="598" 
d="M784 801q0 -9 -14 -17.5t-27 -8.5q-16 0 -26 5t-18 10.5t-16.5 10.5t-20.5 5t-18 -8.5t-11 -8.5t-5 5q0 8 13 18.5t27 10.5q13 0 23.5 -5t20 -11.5t18 -11.5t17.5 -5q12 0 19 9.5t12 9.5q3 0 4.5 -3t1.5 -5zM733 692q0 -8 -6 -8q-12 4 -25 5.5t-27 1.5q-60 0 -131.5 -30
t-143.5 -80t-140 -115t-120 -134t-83.5 -138.5t-31.5 -127.5q0 -42 15 -60t42 -18q31 0 74.5 22t94 59t104 86t105 103.5t98 111.5t81.5 109q7 11 16.5 17t14.5 6q8 0 8 -8q0 -5 -3.5 -12.5t-13.5 -21.5q-55 -78 -91.5 -141t-58.5 -112.5t-31 -86.5t-9 -64q0 -38 14 -57.5
t31 -26.5q3 -2 3 -4q0 -3 -2 -5t-4 -2q-10 0 -21 7.5t-20 21t-14.5 31.5t-5.5 38q0 43 17 93.5t38 95.5q25 52 55 105q-86 -103 -160.5 -177t-136.5 -120.5t-110.5 -68.5t-83.5 -22q-40 0 -60.5 26t-20.5 74q0 38 17.5 86t48.5 101t74 108.5t94.5 107.5t109 97.5t118.5 79.5
t123 54t122 20q20 0 28 -9.5t8 -17.5z" />
    <glyph glyph-name="Otilde" unicode="&#xd5;" horiz-adv-x="513" 
d="M779 793q0 -9 -14 -17.5t-27 -8.5q-16 0 -26 5t-18 10.5t-16.5 10.5t-20.5 5t-18 -8.5t-11 -8.5t-5 5q0 8 13 18.5t27 10.5q13 0 23.5 -5t20 -11.5t18 -11.5t17.5 -5q12 0 19 9.5t12 9.5q3 0 4.5 -3t1.5 -5zM758 665q0 -21 -8.5 -52.5t-25 -69.5t-40 -81.5t-53.5 -88.5
q2 -20 6 -37.5t12 -33.5q1 -2 1 -7q0 -6 -3 -6t-8 8q-13 24 -19 59q-47 -70 -106.5 -137.5t-127 -120.5t-141 -86t-149.5 -33q-55 0 -80 26t-25 70q0 50 28 116.5t76.5 137.5t113 140t136.5 123.5t148 88t148 33.5q15 0 19 -1t4 -5q0 -6 -2 -8.5t-10 -2.5q-62 0 -134 -33.5
t-143.5 -87.5t-137.5 -121.5t-116.5 -137t-81 -133.5t-30.5 -110q0 -37 22 -58.5t72 -21.5q70 0 141 36.5t138 94t127 129.5t107 143v9q0 4 -0.5 8t-0.5 6q0 48 9.5 98t26 90.5t37.5 66.5t45 26q25 0 25 -36zM743 668q0 21 -14 21q-13 0 -29.5 -24.5t-31.5 -63.5t-25.5 -87
t-12.5 -95q53 82 83 149.5t30 99.5z" />
    <glyph glyph-name="OE" unicode="&#x152;" horiz-adv-x="926" 
d="M1022 705q0 -4 -5.5 -7t-9.5 -3q-8 1 -14.5 1h-11.5q-45 0 -91 -20.5t-84 -50.5t-62 -64t-24 -62q0 -24 21.5 -39.5t71.5 -15.5q32 0 57 9.5t33 9.5q9 0 9 -11q0 -7 -11 -9q-69 -12 -135 -49.5t-119 -86.5q0 -3 2 -5q2 -6 2 -8q0 -7 -4 -7t-8 10l-1 1
q-51 -49 -81.5 -101.5t-30.5 -96.5q0 -56 38 -82.5t95 -26.5q60 0 128.5 26.5t125.5 77.5l11 -10q-73 -63 -142 -89.5t-126 -26.5q-36 0 -66 9t-51 25.5t-33 39t-12 48.5t10.5 54.5t28.5 57.5t43 58t54 56q-3 9 -5.5 18.5t-4.5 20.5q-47 -70 -106.5 -137.5t-127 -120.5
t-141 -86t-149.5 -33q-55 0 -80 26t-25 70q0 50 28 116.5t76.5 137.5t113 140t136.5 123.5t148 88t148 33.5q15 0 19 -1t4 -5q0 -6 -2 -8.5t-10 -2.5q-62 0 -134 -33.5t-143.5 -87.5t-137.5 -121.5t-116.5 -137t-81 -133.5t-30.5 -110q0 -37 22 -58.5t72 -21.5
q70 0 141 36.5t138 94t127 129.5t107 143v18q0 55 10 106.5t26 91.5t37.5 64t43.5 24q25 0 25 -37q0 -28 -13 -67q21 23 51 43.5t63 37t67 26t62 9.5q19 0 32 -4q2 -2 2 -4zM743 668q0 21 -14 21q-13 0 -29.5 -24.5t-31.5 -63.5t-25.5 -87t-12.5 -95q20 32 37 61t31 58
q22 44 33.5 77t11.5 53zM805 428q-52 0 -79.5 11t-36.5 30q-13 -23 -27 -47t-31 -49q3 -25 9 -48q39 34 81 60.5t84 42.5z" />
    <glyph glyph-name="oe" unicode="&#x153;" horiz-adv-x="285" 
d="M287 84q-10 -11 -32 -28t-49 -32.5t-55.5 -26.5t-51.5 -11q-16 0 -30.5 10t-16.5 28q-17 -16 -36 -25.5t-39 -9.5q-30 0 -30 29q0 21 22.5 53t77.5 67q9 -4 9 -13q0 -3 -3 -6q-8 -4 -21.5 -14t-27 -24t-23.5 -30t-10 -33q0 -13 14 -13q17 0 37.5 14.5t34.5 35.5
q4 10 12 23q2 4 4 10q-3 9 -5 19.5t-2 22.5q0 3 1.5 7.5t6.5 4.5q10 0 16.5 -13t6.5 -22q19 17 39.5 26.5t35.5 9.5q11 0 15 -5t4 -12q0 -9 -10 -20.5t-26.5 -24t-36.5 -24.5t-41 -23q0 -13 7.5 -21t26.5 -8q17 0 40.5 9.5t47 23t45 29.5t33.5 28zM167 119q0 6 -8 6
q-12 0 -24 -7t-23 -18t-19.5 -24t-12.5 -26q39 19 63 38t24 31z" />
    <glyph glyph-name="endash" unicode="&#x2013;" horiz-adv-x="448" 
d="M302 81q0 -11 -2.5 -14.5t-6.5 -3.5q-2 0 -17 0.5t-33 0.5q-42 0 -83.5 -4.5t-78.5 -4.5q-2 0 -2.5 1.5t-0.5 8.5t2 8.5t4 1.5q7 0 29 1.5t47.5 3t48 2.5t30.5 1q2 1 10.5 1.5t18 1t17.5 1t10 0.5t4.5 -0.5t2.5 -5.5z" />
    <glyph glyph-name="emdash" unicode="&#x2014;" horiz-adv-x="672" 
d="M526 81q0 -11 -5 -14.5t-13 -3.5q-5 0 -34.5 0.5t-65.5 0.5q-85 0 -167.5 -4.5t-156.5 -4.5q-5 0 -5.5 1.5t-0.5 8.5t3.5 8.5t8.5 1.5q10 0 33.5 0.5t54 1.5t65 2t66 2t56 1.5t35.5 0.5q5 1 21.5 1.5t35.5 1t35 1t20 0.5q3 0 8.5 -0.5t5.5 -5.5z" />
    <glyph glyph-name="quotedblleft" unicode="&#x201c;" horiz-adv-x="382" 
d="M382 521q0 -3 -4 -3q-2 0 -17 -1.5t-32.5 -8t-31.5 -18.5t-14 -33q0 -5 1 -8.5t1 -7.5q0 -9 -6.5 -15t-13.5 -6q-16 0 -19.5 6.5t-3.5 11.5q0 14 12.5 30t32 29.5t43 22t46.5 8.5q6 -4 6 -7zM270 521q0 -3 -4 -3q-2 0 -17 -1.5t-32.5 -8t-31.5 -18.5t-14 -33q0 -5 1 -8.5
t1 -7.5q0 -9 -6.5 -15t-13.5 -6q-16 0 -19.5 6.5t-3.5 11.5q0 14 12.5 30t32 29.5t43 22t46.5 8.5q6 -4 6 -7z" />
    <glyph glyph-name="quotedblright" unicode="&#x201d;" horiz-adv-x="479" 
d="M386 510q0 -14 -12.5 -30t-32 -29.5t-43 -22t-46.5 -8.5q-6 4 -6 7t4 3q2 0 17 1.5t32.5 8t31.5 18.5t14 33q0 5 -1 8.5t-1 7.5q0 9 6.5 15t13.5 6q16 0 19.5 -6.5t3.5 -11.5zM274 510q0 -14 -12.5 -30t-32 -29.5t-43 -22t-46.5 -8.5q-6 4 -6 7t4 3q2 0 17 1.5t32.5 8
t31.5 18.5t14 33q0 5 -1 8.5t-1 7.5q0 9 6.5 15t13.5 6q16 0 19.5 -6.5t3.5 -11.5z" />
    <glyph glyph-name="quoteleft" unicode="&#x2018;" horiz-adv-x="270" 
d="M270 521q0 -3 -4 -3q-2 0 -17 -1.5t-32.5 -8t-31.5 -18.5t-14 -33q0 -5 1 -8.5t1 -7.5q0 -9 -6.5 -15t-13.5 -6q-16 0 -19.5 6.5t-3.5 11.5q0 14 12.5 30t32 29.5t43 22t46.5 8.5q6 -4 6 -7z" />
    <glyph glyph-name="quoteright" unicode="&#x2019;" horiz-adv-x="367" 
d="M274 510q0 -14 -12.5 -30t-32 -29.5t-43 -22t-46.5 -8.5q-6 4 -6 7t4 3q2 0 17 1.5t32.5 8t31.5 18.5t14 33q0 5 -1 8.5t-1 7.5q0 9 6.5 15t13.5 6q16 0 19.5 -6.5t3.5 -11.5z" />
    <glyph glyph-name="ydieresis" unicode="&#xff;" horiz-adv-x="293" 
d="M218 280q0 -8 -8 -18t-16 -10q-9 0 -9 10q0 8 8.5 17.5t17.5 9.5q7 0 7 -9zM128 280q0 -8 -8 -18t-16 -10q-9 0 -9 10q0 8 8.5 17.5t17.5 9.5q7 0 7 -9zM295 84q-15 -16 -48 -37q-53 -31 -106.5 -61.5t-105.5 -62.5q-30 -39 -64.5 -80.5t-70 -81.5t-70.5 -76t-66.5 -63
t-58 -43t-44.5 -16q-20 0 -28 8t-8 21q0 31 30 68.5t82 80t122.5 89t150.5 95.5q19 24 35 44.5t27 35.5q13 18 24 31l4 5.5t8 12t7 12l3 5.5q0 3 -2 3q-1 0 -17 -10.5t-38.5 -23.5t-46.5 -23.5t-39 -10.5q-22 0 -22 20q0 14 10 33.5t23.5 37t27 30t21.5 12.5q5 0 9.5 -2.5
t4.5 -4.5q0 -1 -5 -6l-17 -17t-21.5 -24t-18.5 -26.5t-8 -24.5q0 -7 11 -7q20 0 48.5 15.5t55.5 35.5t48.5 39.5t28.5 26.5q17 18 25 18q5 0 7.5 -3.5t2.5 -8.5q0 -6 -10 -19t-22 -27t-23 -26.5t-14 -16.5q-11 -18 -31.5 -45t-46.5 -62q42 25 84 49t86 50q17 10 31 21t25 21
zM-15 -108q-69 -43 -130 -84t-106.5 -79t-72 -71t-26.5 -59q0 -18 25 -18q20 0 56 29.5t79 75.5t89 101t86 105z" />
    <glyph glyph-name="Ydieresis" unicode="&#x178;" horiz-adv-x="495" 
d="M635 787q0 -8 -8 -18t-16 -10q-9 0 -9 10q0 8 8.5 17.5t17.5 9.5q7 0 7 -9zM545 787q0 -8 -8 -18t-16 -10q-9 0 -9 10q0 8 8.5 17.5t17.5 9.5q7 0 7 -9zM697 665q0 -7 -6.5 -15t-15.5 -19q-17 -18 -48.5 -63t-74 -109t-94.5 -143t-109 -166q79 43 162 77q1 0 3 -1
q3 -1 3 -6q0 -6 -8 -9q-84 -30 -172 -80q-61 -93 -126 -189t-130 -186t-127 -169t-117.5 -138.5t-102 -93.5t-79.5 -34q-32 0 -47 14t-15 40q0 35 25.5 88t72 117t111.5 135t143 142t167 138.5t183 123.5q44 66 84 127.5t75 114t63.5 95t49.5 69.5q0 3 -2 3q-4 0 -6 -4
q-21 -25 -56.5 -59.5t-78.5 -71.5t-90.5 -73.5t-93 -65.5t-85.5 -47t-68 -18q-26 0 -37 10.5t-11 28.5q0 25 18 62t45.5 78.5t60 83.5t61 76.5t49 58.5t23.5 29q2 2 2 5q0 2 -2 2t-3 -1q-16 -11 -47 -29.5t-73 -40t-92.5 -44t-103.5 -40t-107 -29t-104 -11.5q-51 0 -84 7.5
t-52 17.5t-26.5 20.5t-7.5 15.5q0 13 10 13q8 0 20.5 -8.5t33 -18.5t51.5 -18.5t76 -8.5q61 0 124 15t123 38t113 50.5t95 53.5t70 46t36 27q14 12 23 12q5 0 8.5 -3t3.5 -8q0 -7 -8 -15q-15 -17 -44 -50.5t-63 -75.5t-69.5 -88t-64.5 -88.5t-47.5 -78t-18.5 -56.5
q0 -23 25 -23q20 0 52 14.5t71.5 38.5t83 56.5t87 68.5t84 73.5t72.5 72.5q21 23 40.5 45.5t34.5 40.5t24.5 30t10.5 14q5 7 12.5 14.5t15.5 7.5q6 0 11 -5t5 -10zM281 97q-84 -52 -165.5 -116.5t-155.5 -132.5t-137 -137t-109 -130.5t-72 -111.5t-26 -82q0 -44 51 -44
q26 0 65.5 32t89 87t106 128.5t116 157.5t120 173.5t117.5 175.5z" />
    <glyph glyph-name="fraction" unicode="&#x2044;" horiz-adv-x="147" 
d="M200 274q0 -5 -4 -11q-54 -77 -101.5 -145.5t-90.5 -145.5q-3 -6 -7.5 -12t-9.5 -6q-7 0 -8.5 2.5t-1.5 4.5q0 5 6 13l195 298q6 8 13 8q3 0 6 -2t3 -4z" />
    <glyph glyph-name="guilsinglleft" unicode="&#x2039;" horiz-adv-x="397" 
d="M295 136q0 -8 -20 -16l-180 -76l175 -54q3 -1 5.5 -4.5t2.5 -5.5t-2 -2q-5 0 -23 4t-41.5 10.5t-50 14t-49 14t-38 11.5t-17.5 6q0 1 -1 2q-2 2 -2 5q0 6 7 10l222 90q3 0 6 -2q6 -4 6 -7z" />
    <glyph glyph-name="guilsinglright" unicode="&#x203a;" horiz-adv-x="397" 
d="M291 53q0 -7 -5 -10q-3 -2 -6 -3q-2 -1 -19.5 -6t-43.5 -11.5l-56 -14t-57 -14t-47.5 -10.5t-25.5 -4q0 2 1 4q2 3 11 8l205 54l-138 76q-14 7 -14 13q0 5 9 9q4 2 9 3l174 -90q3 -1 3 -4z" />
    <glyph glyph-name="fi" unicode="&#xfb01;" horiz-adv-x="463" 
d="M430 280q0 -8 -8 -18t-16 -10q-9 0 -9 10q0 8 8.5 17.5t17.5 9.5q7 0 7 -9zM464 83q-10 -11 -31.5 -26t-47.5 -28.5t-54 -23t-51 -9.5q-17 0 -23.5 8t-6.5 21q0 15 8 34q-15 -11 -35 -22t-41 -20t-41.5 -14.5t-38.5 -5.5q-13 0 -20 4q-15 -45 -39 -93t-53 -94t-60 -87.5
t-60 -72.5t-53 -49t-39 -18q-8 0 -14 4.5t-6 10.5q0 12 18 46t46 79.5t62 97.5t67 101.5t61 90.5t43 64q2 12 7.5 21t15.5 14q12 18 26 40t27 41t21.5 33t9.5 15t1 3t-2 2q-1 0 -3 -2q-8 -13 -29 -36.5t-45.5 -49.5t-49.5 -50t-41 -36h-23q6 5 11 9.5t11 9.5
q56 51 96.5 92.5t66.5 70.5q31 34 52 62q2 2 13.5 19.5t29 43t37 55t37.5 56.5t31 47t17 26q12 19 23 19q5 0 8.5 -3.5t3.5 -8.5q0 -3 -14.5 -26t-36.5 -56.5t-48.5 -72.5t-50 -73t-40.5 -58.5t-20 -29.5q-3 -4 -13.5 -20t-25 -37.5t-30 -45.5t-28.5 -44q0 -19 -2 -40.5
t-9 -44.5q13 -8 31 -8t39.5 7t42.5 18t39.5 24t31.5 25q12 20 24.5 35t18.5 15q4 0 7 -4q2 -4 2 -7q0 -4 -7.5 -15.5t-16.5 -26t-16.5 -29.5t-7.5 -26q0 -17 21 -17q18 0 40 7.5t44 18.5t41 25t31 26zM81 82q-2 -2 -2.5 -4.5t-2.5 -4.5t-3 -4q-2 -2 -2 -3q0 -8 2 -13.5
t4 -10.5q2 10 3 20t1 20zM69 11q-11 12 -14 33q-16 -24 -42.5 -63.5t-56.5 -85t-60.5 -93.5t-55.5 -88t-40.5 -68.5t-15.5 -35.5q0 -2 2 -2q10 0 31 17t48.5 46.5t57.5 69t58.5 84.5t51.5 92.5t36 93.5z" />
    <glyph glyph-name="fl" unicode="&#xfb02;" horiz-adv-x="545" 
d="M726 606q0 -23 -22.5 -63t-58.5 -88.5t-82 -102t-94 -103.5t-93.5 -92t-79.5 -68v-10q0 -35 17 -54.5t57 -19.5q17 0 40.5 9.5t47 23t45 29.5t33.5 28l10 -11q-10 -11 -32 -28t-49 -32.5t-55.5 -26.5t-51.5 -11q-46 0 -66 22.5t-21 61.5q-14 -12 -35 -24.5t-44 -23.5
t-46.5 -18t-43.5 -7q-13 0 -20 4q-15 -45 -39 -93t-53 -94t-60 -87.5t-60 -72.5t-53 -49t-39 -18q-8 0 -14 4.5t-6 10.5q0 12 18 46t46 79.5t62 97.5t67 101.5t61 90.5t43 64q2 12 7.5 21t15.5 14q12 18 26 40t27 41t21.5 33t9.5 15t1 3t-2 2q-1 0 -3 -2q-8 -13 -29 -36.5
t-45.5 -49.5t-49.5 -50t-41 -36h-23q6 5 11 9.5t11 9.5q56 51 96.5 92.5t66.5 70.5q31 34 52 62q2 2 13.5 19.5t29 43t37 55t37.5 56.5t31 47t17 26q12 19 23 19q5 0 8.5 -3.5t3.5 -8.5q0 -3 -14.5 -26t-36.5 -56.5t-48.5 -72.5t-50 -73t-40.5 -58.5t-20 -29.5
q-3 -4 -13.5 -20t-25 -37.5t-30 -45.5t-28.5 -44q1 -5 1 -14q0 -17 -3.5 -34t-8.5 -37q13 -8 31 -8t39 7t41.5 17.5t39.5 23.5t32 25q4 46 27 103.5t58 117.5t79 117.5t89.5 102t90 72t81.5 27.5q29 0 29 -25zM703 600q0 17 -17 17q-25 0 -61.5 -25.5t-77 -67t-81.5 -94.5
t-75.5 -109.5t-59 -111t-32.5 -98.5q32 23 74 62.5t87 87.5t88.5 99.5t78 98.5t55.5 84.5t21 56.5zM81 82q-2 -2 -2.5 -4.5t-2.5 -4.5t-3 -4q-2 -2 -2 -3q0 -8 2 -13.5t4 -10.5q2 10 3 20t1 20zM69 11q-11 12 -14 33q-16 -24 -42.5 -63.5t-56.5 -85t-60.5 -93.5t-55.5 -88
t-40.5 -68.5t-15.5 -35.5q0 -2 2 -2q10 0 31 17t48.5 46.5t57.5 69t58.5 84.5t51.5 92.5t36 93.5z" />
    <glyph glyph-name="periodcentered" unicode="&#xb7;" horiz-adv-x="291" 
d="M127 89q0 -9 -7.5 -19.5t-18.5 -10.5q-8 0 -12 4.5t-4 10.5q0 10 8 20t21 10t13 -15z" />
    <glyph glyph-name="quotesinglbase" unicode="&#x201a;" horiz-adv-x="182" 
d="M70 20q0 -14 -12.5 -30t-32 -29.5t-43 -22t-46.5 -8.5q-6 4 -6 7t4 3q2 0 17 1.5t32.5 8t31.5 18.5t14 33q0 5 -1 8.5t-1 7.5q0 9 6.5 15t13.5 6q16 0 19.5 -6.5t3.5 -11.5z" />
    <glyph glyph-name="quotedblbase" unicode="&#x201e;" horiz-adv-x="294" 
d="M182 21q0 -14 -12.5 -30t-32 -29.5t-43 -22t-46.5 -8.5q-6 4 -6 7t4 3q2 0 17 1.5t32.5 8t31.5 18.5t14 33q0 5 -1 8.5t-1 7.5q0 9 6.5 15t13.5 6q16 0 19.5 -6.5t3.5 -11.5zM70 21q0 -14 -12.5 -30t-32 -29.5t-43 -22t-46.5 -8.5q-6 4 -6 7t4 3q2 0 17 1.5t32.5 8
t31.5 18.5t14 33q0 5 -1 8.5t-1 7.5q0 9 6.5 15t13.5 6q16 0 19.5 -6.5t3.5 -11.5z" />
    <glyph glyph-name="perthousand" unicode="&#x2030;" horiz-adv-x="495" 
d="M447 100q0 -15 -8.5 -33.5t-23.5 -34.5t-35 -26.5t-43 -10.5q-18 0 -26 8.5t-8 22.5q0 15 9 34t24 35t34.5 27t41.5 11q18 0 26.5 -9.5t8.5 -23.5zM299 100q0 -15 -8.5 -33.5t-23.5 -34.5t-35 -26.5t-43 -10.5q-18 0 -26 8.5t-8 22.5q0 15 9 34t24 35t34.5 27t41.5 11
q18 0 26.5 -9.5t8.5 -23.5zM268 274q0 -5 -4 -11q-54 -77 -101.5 -145.5t-90.5 -145.5q-3 -6 -7.5 -12t-9.5 -6q-7 0 -8.5 2.5t-1.5 4.5q0 5 6 13l195 298q6 8 13 8q3 0 6 -2t3 -4zM135 168q0 -15 -8.5 -33.5t-23.5 -34.5t-35 -26.5t-43 -10.5q-18 0 -26 8.5t-8 22.5
q0 15 9 34t24 35t34.5 27t41.5 11q18 0 26.5 -9.5t8.5 -23.5zM427 103q0 20 -18 20q-15 0 -30.5 -11t-27.5 -26.5t-20 -33t-8 -29.5q0 -18 17 -18t32.5 10.5t27.5 25.5t19.5 32t7.5 30zM279 103q0 20 -18 20q-15 0 -30.5 -11t-27.5 -26.5t-20 -33t-8 -29.5q0 -18 17 -18
t32.5 10.5t27.5 25.5t19.5 32t7.5 30zM115 171q0 20 -18 20q-15 0 -30.5 -11t-27.5 -26.5t-20 -33t-8 -29.5q0 -18 17 -18t32.5 10.5t27.5 25.5t19.5 32t7.5 30z" />
    <glyph glyph-name="Acircumflex" unicode="&#xc2;" horiz-adv-x="598" 
d="M755 776q0 -2 -2 -3.5t-4 -1.5q-3 0 -9.5 6.5t-13.5 14.5q-8 9 -16 20q-12 -8 -27 -15.5t-28.5 -13t-24 -9t-13.5 -3.5q-4 0 -4 4q0 1 9 6.5t22.5 13t28.5 16.5t27 18q6 5 9 6t8 1q3 0 6.5 -5.5t8 -14.5t10.5 -19.5t13 -20.5zM733 692q0 -8 -6 -8q-12 4 -25 5.5t-27 1.5
q-60 0 -131.5 -30t-143.5 -80t-140 -115t-120 -134t-83.5 -138.5t-31.5 -127.5q0 -42 15 -60t42 -18q31 0 74.5 22t94 59t104 86t105 103.5t98 111.5t81.5 109q7 11 16.5 17t14.5 6q8 0 8 -8q0 -5 -3.5 -12.5t-13.5 -21.5q-55 -78 -91.5 -141t-58.5 -112.5t-31 -86.5t-9 -64
q0 -38 14 -57.5t31 -26.5q3 -2 3 -4q0 -3 -2 -5t-4 -2q-10 0 -21 7.5t-20 21t-14.5 31.5t-5.5 38q0 43 17 93.5t38 95.5q25 52 55 105q-86 -103 -160.5 -177t-136.5 -120.5t-110.5 -68.5t-83.5 -22q-40 0 -60.5 26t-20.5 74q0 38 17.5 86t48.5 101t74 108.5t94.5 107.5
t109 97.5t118.5 79.5t123 54t122 20q20 0 28 -9.5t8 -17.5z" />
    <glyph glyph-name="Ecircumflex" unicode="&#xca;" horiz-adv-x="709" 
d="M811 774q0 -2 -2 -3.5t-4 -1.5q-3 0 -9.5 6.5t-13.5 14.5q-8 9 -16 20q-12 -8 -27 -15.5t-28.5 -13t-24 -9t-13.5 -3.5q-4 0 -4 4q0 1 9 6.5t22.5 13t28.5 16.5t27 18q6 5 9 6t8 1q3 0 6.5 -5.5t8 -14.5t10.5 -19.5t13 -20.5zM805 704q0 -3 -2.5 -6t-7.5 -3q-8 1 -14.5 1
h-11.5q-45 0 -91 -20.5t-84 -50.5t-62 -64t-24 -62q0 -24 21.5 -39.5t71.5 -15.5q32 0 57 9.5t33 9.5q9 0 9 -11q0 -7 -11 -9q-69 -12 -136 -50t-120.5 -88.5t-86 -105t-32.5 -99.5q0 -56 38 -82.5t95 -26.5q60 0 128.5 26.5t125.5 77.5l11 -10q-73 -63 -142 -89.5
t-126 -26.5q-36 0 -66 9t-51 25.5t-33 39t-12 48.5q0 44 28.5 94.5t73.5 97.5t100 86t109 59q-66 0 -93.5 18t-27.5 46q0 26 21 57.5t54.5 61t77 54.5t88.5 38q6 2 6 5q0 2 -5 2.5t-19 0.5q-81 0 -154 -45t-144.5 -115.5t-144.5 -156.5t-154.5 -168.5t-174.5 -151.5
t-204 -105q-2 -1 -4 -1t-2 3q0 4 3.5 9.5t5.5 6.5q69 18 134 59t126.5 96.5t120.5 120t117.5 129t116 124t117 106t120.5 74t126 27.5q35 0 55.5 -2t31.5 -4.5t14.5 -6t3.5 -6.5z" />
    <glyph glyph-name="Aacute" unicode="&#xc1;" horiz-adv-x="598" 
d="M767 827q0 -5 -9.5 -11.5t-24 -13.5t-31.5 -13t-31 -11q-6 2 -6 3q0 3 8 7.5t20 11.5t26.5 16.5t28.5 21.5q3 3 6 3q5 0 9 -4.5t4 -9.5zM733 692q0 -8 -6 -8q-12 4 -25 5.5t-27 1.5q-60 0 -131.5 -30t-143.5 -80t-140 -115t-120 -134t-83.5 -138.5t-31.5 -127.5
q0 -42 15 -60t42 -18q31 0 74.5 22t94 59t104 86t105 103.5t98 111.5t81.5 109q7 11 16.5 17t14.5 6q8 0 8 -8q0 -5 -3.5 -12.5t-13.5 -21.5q-55 -78 -91.5 -141t-58.5 -112.5t-31 -86.5t-9 -64q0 -38 14 -57.5t31 -26.5q3 -2 3 -4q0 -3 -2 -5t-4 -2q-10 0 -21 7.5t-20 21
t-14.5 31.5t-5.5 38q0 43 17 93.5t38 95.5q25 52 55 105q-86 -103 -160.5 -177t-136.5 -120.5t-110.5 -68.5t-83.5 -22q-40 0 -60.5 26t-20.5 74q0 38 17.5 86t48.5 101t74 108.5t94.5 107.5t109 97.5t118.5 79.5t123 54t122 20q20 0 28 -9.5t8 -17.5z" />
    <glyph glyph-name="Edieresis" unicode="&#xcb;" horiz-adv-x="709" 
d="M789 813q0 -8 -8 -18t-16 -10q-9 0 -9 10q0 8 8.5 17.5t17.5 9.5q7 0 7 -9zM699 813q0 -8 -8 -18t-16 -10q-9 0 -9 10q0 8 8.5 17.5t17.5 9.5q7 0 7 -9zM805 704q0 -3 -2.5 -6t-7.5 -3q-8 1 -14.5 1h-11.5q-45 0 -91 -20.5t-84 -50.5t-62 -64t-24 -62q0 -24 21.5 -39.5
t71.5 -15.5q32 0 57 9.5t33 9.5q9 0 9 -11q0 -7 -11 -9q-69 -12 -136 -50t-120.5 -88.5t-86 -105t-32.5 -99.5q0 -56 38 -82.5t95 -26.5q60 0 128.5 26.5t125.5 77.5l11 -10q-73 -63 -142 -89.5t-126 -26.5q-36 0 -66 9t-51 25.5t-33 39t-12 48.5q0 44 28.5 94.5t73.5 97.5
t100 86t109 59q-66 0 -93.5 18t-27.5 46q0 26 21 57.5t54.5 61t77 54.5t88.5 38q6 2 6 5q0 2 -5 2.5t-19 0.5q-81 0 -154 -45t-144.5 -115.5t-144.5 -156.5t-154.5 -168.5t-174.5 -151.5t-204 -105q-2 -1 -4 -1t-2 3q0 4 3.5 9.5t5.5 6.5q69 18 134 59t126.5 96.5t120.5 120
t117.5 129t116 124t117 106t120.5 74t126 27.5q35 0 55.5 -2t31.5 -4.5t14.5 -6t3.5 -6.5z" />
    <glyph glyph-name="Egrave" unicode="&#xc8;" horiz-adv-x="709" 
d="M825 782q0 -1 -6 -3q-14 5 -31 11t-31.5 13t-24 13.5t-9.5 11.5t4 9.5t9 4.5q3 0 6 -3q14 -12 28.5 -21.5t26.5 -16.5t20 -11.5t8 -7.5zM805 704q0 -3 -2.5 -6t-7.5 -3q-8 1 -14.5 1h-11.5q-45 0 -91 -20.5t-84 -50.5t-62 -64t-24 -62q0 -24 21.5 -39.5t71.5 -15.5
q32 0 57 9.5t33 9.5q9 0 9 -11q0 -7 -11 -9q-69 -12 -136 -50t-120.5 -88.5t-86 -105t-32.5 -99.5q0 -56 38 -82.5t95 -26.5q60 0 128.5 26.5t125.5 77.5l11 -10q-73 -63 -142 -89.5t-126 -26.5q-36 0 -66 9t-51 25.5t-33 39t-12 48.5q0 44 28.5 94.5t73.5 97.5t100 86
t109 59q-66 0 -93.5 18t-27.5 46q0 26 21 57.5t54.5 61t77 54.5t88.5 38q6 2 6 5q0 2 -5 2.5t-19 0.5q-81 0 -154 -45t-144.5 -115.5t-144.5 -156.5t-154.5 -168.5t-174.5 -151.5t-204 -105q-2 -1 -4 -1t-2 3q0 4 3.5 9.5t5.5 6.5q69 18 134 59t126.5 96.5t120.5 120
t117.5 129t116 124t117 106t120.5 74t126 27.5q35 0 55.5 -2t31.5 -4.5t14.5 -6t3.5 -6.5z" />
    <glyph glyph-name="Iacute" unicode="&#xcd;" horiz-adv-x="753" 
d="M1075 815q0 -5 -9.5 -11.5t-24 -13.5t-31.5 -13t-31 -11q-6 2 -6 3q0 3 8 7.5t20 11.5t26.5 16.5t28.5 21.5q3 3 6 3q5 0 9 -4.5t4 -9.5zM1018 686q0 -25 -22 -70.5t-62 -103t-95.5 -122.5t-121.5 -128t-141.5 -119.5t-154.5 -98.5v-1q32 -5 64 -8.5t63 -3.5
q57 0 107.5 14t90.5 49q1 1 3 1q4 0 5.5 -5t1.5 -7q-45 -39 -100.5 -55t-116.5 -16q-31 0 -61.5 3t-62.5 8q-11 -37 -18 -72.5t-9 -69.5q-1 -17 -6 -17q-6 0 -8 6q-1 3 -1 7q0 35 5.5 72.5t16.5 77.5q-2 1 -5 1q-64 -30 -128.5 -47.5t-128.5 -17.5q-28 0 -58 7t-55.5 22.5
t-43.5 41t-22 62.5q0 17 8 29.5t22 12.5q36 0 83 -10t100 -24t110.5 -29.5t115.5 -26.5l9 5q22 74 58.5 151.5t83 151t101 138t112 113t117 76.5t115.5 28q10 0 19.5 -5.5t9.5 -19.5zM1003 683q0 14 -20 14q-38 0 -86.5 -26t-101 -70.5t-106 -105.5t-102 -130.5
t-89.5 -145.5t-68 -151q75 43 146 101t135 120.5t117.5 125.5t92.5 117t60.5 94t21.5 57zM364 34q-54 12 -106.5 26.5t-100 28t-89 22.5t-73.5 9q-11 0 -13.5 -10.5t-2.5 -22.5q0 -24 13 -43.5t36.5 -33.5t55.5 -21.5t70 -7.5q51 0 103.5 14t106.5 39z" />
    <glyph glyph-name="Icircumflex" unicode="&#xce;" horiz-adv-x="753" 
d="M1060 760q0 -2 -2 -3.5t-4 -1.5q-3 0 -9.5 6.5t-13.5 14.5q-8 9 -16 20q-12 -8 -27 -15.5t-28.5 -13t-24 -9t-13.5 -3.5q-4 0 -4 4q0 1 9 6.5t22.5 13t28.5 16.5t27 18q6 5 9 6t8 1q3 0 6.5 -5.5t8 -14.5t10.5 -19.5t13 -20.5zM1018 686q0 -25 -22 -70.5t-62 -103
t-95.5 -122.5t-121.5 -128t-141.5 -119.5t-154.5 -98.5v-1q32 -5 64 -8.5t63 -3.5q57 0 107.5 14t90.5 49q1 1 3 1q4 0 5.5 -5t1.5 -7q-45 -39 -100.5 -55t-116.5 -16q-31 0 -61.5 3t-62.5 8q-11 -37 -18 -72.5t-9 -69.5q-1 -17 -6 -17q-6 0 -8 6q-1 3 -1 7q0 35 5.5 72.5
t16.5 77.5q-2 1 -5 1q-64 -30 -128.5 -47.5t-128.5 -17.5q-28 0 -58 7t-55.5 22.5t-43.5 41t-22 62.5q0 17 8 29.5t22 12.5q36 0 83 -10t100 -24t110.5 -29.5t115.5 -26.5l9 5q22 74 58.5 151.5t83 151t101 138t112 113t117 76.5t115.5 28q10 0 19.5 -5.5t9.5 -19.5z
M1003 683q0 14 -20 14q-38 0 -86.5 -26t-101 -70.5t-106 -105.5t-102 -130.5t-89.5 -145.5t-68 -151q75 43 146 101t135 120.5t117.5 125.5t92.5 117t60.5 94t21.5 57zM364 34q-54 12 -106.5 26.5t-100 28t-89 22.5t-73.5 9q-11 0 -13.5 -10.5t-2.5 -22.5q0 -24 13 -43.5
t36.5 -33.5t55.5 -21.5t70 -7.5q51 0 103.5 14t106.5 39z" />
    <glyph glyph-name="Idieresis" unicode="&#xcf;" horiz-adv-x="753" 
d="M1065 784q0 -8 -8 -18t-16 -10q-9 0 -9 10q0 8 8.5 17.5t17.5 9.5q7 0 7 -9zM975 784q0 -8 -8 -18t-16 -10q-9 0 -9 10q0 8 8.5 17.5t17.5 9.5q7 0 7 -9zM1018 686q0 -25 -22 -70.5t-62 -103t-95.5 -122.5t-121.5 -128t-141.5 -119.5t-154.5 -98.5v-1q32 -5 64 -8.5
t63 -3.5q57 0 107.5 14t90.5 49q1 1 3 1q4 0 5.5 -5t1.5 -7q-45 -39 -100.5 -55t-116.5 -16q-31 0 -61.5 3t-62.5 8q-11 -37 -18 -72.5t-9 -69.5q-1 -17 -6 -17q-6 0 -8 6q-1 3 -1 7q0 35 5.5 72.5t16.5 77.5q-2 1 -5 1q-64 -30 -128.5 -47.5t-128.5 -17.5q-28 0 -58 7
t-55.5 22.5t-43.5 41t-22 62.5q0 17 8 29.5t22 12.5q36 0 83 -10t100 -24t110.5 -29.5t115.5 -26.5l9 5q22 74 58.5 151.5t83 151t101 138t112 113t117 76.5t115.5 28q10 0 19.5 -5.5t9.5 -19.5zM1003 683q0 14 -20 14q-38 0 -86.5 -26t-101 -70.5t-106 -105.5t-102 -130.5
t-89.5 -145.5t-68 -151q75 43 146 101t135 120.5t117.5 125.5t92.5 117t60.5 94t21.5 57zM364 34q-54 12 -106.5 26.5t-100 28t-89 22.5t-73.5 9q-11 0 -13.5 -10.5t-2.5 -22.5q0 -24 13 -43.5t36.5 -33.5t55.5 -21.5t70 -7.5q51 0 103.5 14t106.5 39z" />
    <glyph glyph-name="Igrave" unicode="&#xcc;" horiz-adv-x="753" 
d="M1056 767q0 -1 -6 -3q-14 5 -31 11t-31.5 13t-24 13.5t-9.5 11.5t4 9.5t9 4.5q3 0 6 -3q14 -12 28.5 -21.5t26.5 -16.5t20 -11.5t8 -7.5zM1018 686q0 -25 -22 -70.5t-62 -103t-95.5 -122.5t-121.5 -128t-141.5 -119.5t-154.5 -98.5v-1q32 -5 64 -8.5t63 -3.5
q57 0 107.5 14t90.5 49q1 1 3 1q4 0 5.5 -5t1.5 -7q-45 -39 -100.5 -55t-116.5 -16q-31 0 -61.5 3t-62.5 8q-11 -37 -18 -72.5t-9 -69.5q-1 -17 -6 -17q-6 0 -8 6q-1 3 -1 7q0 35 5.5 72.5t16.5 77.5q-2 1 -5 1q-64 -30 -128.5 -47.5t-128.5 -17.5q-28 0 -58 7t-55.5 22.5
t-43.5 41t-22 62.5q0 17 8 29.5t22 12.5q36 0 83 -10t100 -24t110.5 -29.5t115.5 -26.5l9 5q22 74 58.5 151.5t83 151t101 138t112 113t117 76.5t115.5 28q10 0 19.5 -5.5t9.5 -19.5zM1003 683q0 14 -20 14q-38 0 -86.5 -26t-101 -70.5t-106 -105.5t-102 -130.5
t-89.5 -145.5t-68 -151q75 43 146 101t135 120.5t117.5 125.5t92.5 117t60.5 94t21.5 57zM364 34q-54 12 -106.5 26.5t-100 28t-89 22.5t-73.5 9q-11 0 -13.5 -10.5t-2.5 -22.5q0 -24 13 -43.5t36.5 -33.5t55.5 -21.5t70 -7.5q51 0 103.5 14t106.5 39z" />
    <glyph glyph-name="Oacute" unicode="&#xd3;" horiz-adv-x="513" 
d="M781 827q0 -5 -9.5 -11.5t-24 -13.5t-31.5 -13t-31 -11q-6 2 -6 3q0 3 8 7.5t20 11.5t26.5 16.5t28.5 21.5q3 3 6 3q5 0 9 -4.5t4 -9.5zM758 665q0 -21 -8.5 -52.5t-25 -69.5t-40 -81.5t-53.5 -88.5q2 -20 6 -37.5t12 -33.5q1 -2 1 -7q0 -6 -3 -6t-8 8q-13 24 -19 59
q-47 -70 -106.5 -137.5t-127 -120.5t-141 -86t-149.5 -33q-55 0 -80 26t-25 70q0 50 28 116.5t76.5 137.5t113 140t136.5 123.5t148 88t148 33.5q15 0 19 -1t4 -5q0 -6 -2 -8.5t-10 -2.5q-62 0 -134 -33.5t-143.5 -87.5t-137.5 -121.5t-116.5 -137t-81 -133.5t-30.5 -110
q0 -37 22 -58.5t72 -21.5q70 0 141 36.5t138 94t127 129.5t107 143v9q0 4 -0.5 8t-0.5 6q0 48 9.5 98t26 90.5t37.5 66.5t45 26q25 0 25 -36zM743 668q0 21 -14 21q-13 0 -29.5 -24.5t-31.5 -63.5t-25.5 -87t-12.5 -95q53 82 83 149.5t30 99.5z" />
    <glyph glyph-name="Ocircumflex" unicode="&#xd4;" horiz-adv-x="513" 
d="M787 773q0 -2 -2 -3.5t-4 -1.5q-3 0 -9.5 6.5t-13.5 14.5q-8 9 -16 20q-12 -8 -27 -15.5t-28.5 -13t-24 -9t-13.5 -3.5q-4 0 -4 4q0 1 9 6.5t22.5 13t28.5 16.5t27 18q6 5 9 6t8 1q3 0 6.5 -5.5t8 -14.5t10.5 -19.5t13 -20.5zM758 665q0 -21 -8.5 -52.5t-25 -69.5
t-40 -81.5t-53.5 -88.5q2 -20 6 -37.5t12 -33.5q1 -2 1 -7q0 -6 -3 -6t-8 8q-13 24 -19 59q-47 -70 -106.5 -137.5t-127 -120.5t-141 -86t-149.5 -33q-55 0 -80 26t-25 70q0 50 28 116.5t76.5 137.5t113 140t136.5 123.5t148 88t148 33.5q15 0 19 -1t4 -5q0 -6 -2 -8.5
t-10 -2.5q-62 0 -134 -33.5t-143.5 -87.5t-137.5 -121.5t-116.5 -137t-81 -133.5t-30.5 -110q0 -37 22 -58.5t72 -21.5q70 0 141 36.5t138 94t127 129.5t107 143v9q0 4 -0.5 8t-0.5 6q0 48 9.5 98t26 90.5t37.5 66.5t45 26q25 0 25 -36zM743 668q0 21 -14 21
q-13 0 -29.5 -24.5t-31.5 -63.5t-25.5 -87t-12.5 -95q53 82 83 149.5t30 99.5z" />
    <glyph glyph-name="apple" unicode="&#xf8ff;" horiz-adv-x="799" 
d="M435 699q-9 1 -18 1.5t-18 0.5q-7 0 -17.5 -0.5t-17.5 -1.5l-113 108h74l74 -77l75 77h74zM799 258q0 -83 -31.5 -155.5t-85.5 -126.5t-127 -85.5t-156 -31.5q-82 0 -155 31.5t-127 85.5t-85.5 126.5t-31.5 155.5t31.5 155.5t85.5 126.5t127 85.5t155 31.5
q83 0 156 -31.5t127 -85.5t85.5 -126.5t31.5 -155.5zM742 258q0 71 -27 133t-73.5 108.5t-109 73.5t-133.5 27t-133 -27t-108.5 -73.5t-73.5 -108.5t-27 -133t27 -133t73.5 -108.5t108.5 -73.5t133 -27t133.5 27t109 73.5t73.5 108.5t27 133zM579 131q0 -35 -16.5 -61
t-43.5 -42.5t-62 -24.5t-73 -8q-46 0 -87.5 16t-76.5 33l12 60q45 -28 86 -40t75 -12q51 0 82.5 21t31.5 53q0 26 -20.5 46t-51 37.5t-66.5 35t-66.5 38t-51 46.5t-20.5 61q0 38 16 63t40 40t53.5 21.5t56.5 6.5q26 0 49 -6.5t42.5 -15t35 -17.5t26.5 -15l-13 -55
q-32 28 -67.5 40.5t-69.5 12.5q-45 0 -72.5 -19.5t-27.5 -50.5q0 -26 20.5 -44.5t51.5 -33.5t67.5 -30t67.5 -35.5t51.5 -49.5t20.5 -71z" />
    <glyph glyph-name="Ograve" unicode="&#xd2;" horiz-adv-x="513" 
d="M769 789q0 -1 -6 -3q-14 5 -31 11t-31.5 13t-24 13.5t-9.5 11.5t4 9.5t9 4.5q3 0 6 -3q14 -12 28.5 -21.5t26.5 -16.5t20 -11.5t8 -7.5zM758 665q0 -21 -8.5 -52.5t-25 -69.5t-40 -81.5t-53.5 -88.5q2 -20 6 -37.5t12 -33.5q1 -2 1 -7q0 -6 -3 -6t-8 8q-13 24 -19 59
q-47 -70 -106.5 -137.5t-127 -120.5t-141 -86t-149.5 -33q-55 0 -80 26t-25 70q0 50 28 116.5t76.5 137.5t113 140t136.5 123.5t148 88t148 33.5q15 0 19 -1t4 -5q0 -6 -2 -8.5t-10 -2.5q-62 0 -134 -33.5t-143.5 -87.5t-137.5 -121.5t-116.5 -137t-81 -133.5t-30.5 -110
q0 -37 22 -58.5t72 -21.5q70 0 141 36.5t138 94t127 129.5t107 143v9q0 4 -0.5 8t-0.5 6q0 48 9.5 98t26 90.5t37.5 66.5t45 26q25 0 25 -36zM743 668q0 21 -14 21q-13 0 -29.5 -24.5t-31.5 -63.5t-25.5 -87t-12.5 -95q53 82 83 149.5t30 99.5z" />
    <glyph glyph-name="Uacute" unicode="&#xda;" horiz-adv-x="651" 
d="M785 770q0 -5 -9.5 -11.5t-24 -13.5t-31.5 -13t-31 -11q-6 2 -6 3q0 3 8 7.5t20 11.5t26.5 16.5t28.5 21.5q3 3 6 3q5 0 9 -4.5t4 -9.5zM749 468q0 -4 -7 -15q-12 -17 -34.5 -48.5t-49 -71t-54 -83.5t-50 -86.5t-37 -80.5t-14.5 -64v-8t1 -11q0 -4 -1 -7.5t-5 -3.5
q-7 0 -8.5 7t-1.5 18q0 42 14 84.5t35.5 83.5t46.5 80t47 73l-1 1q-2 0 -13 -11q-4 -5 -33.5 -32.5t-73.5 -66t-97.5 -82.5t-106 -80.5t-99 -61t-76.5 -24.5q-20 0 -30.5 12t-10.5 39q0 34 16 77.5t42.5 92t60.5 99t69 99t69 91.5t60.5 75.5t42.5 53t16 22.5t-2 2
q-4 0 -9 -4q-5 -5 -31.5 -22t-68.5 -39.5t-96 -48t-113 -46.5t-120.5 -35t-117.5 -14q-18 0 -45.5 3.5t-53.5 10.5t-45 18t-19 26q0 13 11 13q4 0 6 -1t3 -1q13 -6 27.5 -14t34 -14.5t45.5 -11t63 -4.5q46 0 99 10.5t107.5 28.5t108.5 41.5t102.5 50t89.5 53.5t70 52
q5 5 13 5q9 0 9 -10q0 -7 -6 -14q-27 -35 -69 -88.5t-88.5 -115.5t-93 -127.5t-84 -124.5t-61 -107t-23.5 -74q0 -40 33 -40q27 0 71.5 24.5t96 62t105.5 82.5t101 87t81.5 75.5t46.5 46.5q16 17 30 32.5t25 27.5t18.5 20.5t8.5 9.5q9 10 15 10q8 0 8 -7z" />
    <glyph glyph-name="Ucircumflex" unicode="&#xdb;" horiz-adv-x="651" 
d="M788 715q0 -2 -2 -3.5t-4 -1.5q-3 0 -9.5 6.5t-13.5 14.5q-8 9 -16 20q-12 -8 -27 -15.5t-28.5 -13t-24 -9t-13.5 -3.5q-4 0 -4 4q0 1 9 6.5t22.5 13t28.5 16.5t27 18q6 5 9 6t8 1q3 0 6.5 -5.5t8 -14.5t10.5 -19.5t13 -20.5zM749 468q0 -4 -7 -15q-12 -17 -34.5 -48.5
t-49 -71t-54 -83.5t-50 -86.5t-37 -80.5t-14.5 -64v-8t1 -11q0 -4 -1 -7.5t-5 -3.5q-7 0 -8.5 7t-1.5 18q0 42 14 84.5t35.5 83.5t46.5 80t47 73l-1 1q-2 0 -13 -11q-4 -5 -33.5 -32.5t-73.5 -66t-97.5 -82.5t-106 -80.5t-99 -61t-76.5 -24.5q-20 0 -30.5 12t-10.5 39
q0 34 16 77.5t42.5 92t60.5 99t69 99t69 91.5t60.5 75.5t42.5 53t16 22.5t-2 2q-4 0 -9 -4q-5 -5 -31.5 -22t-68.5 -39.5t-96 -48t-113 -46.5t-120.5 -35t-117.5 -14q-18 0 -45.5 3.5t-53.5 10.5t-45 18t-19 26q0 13 11 13q4 0 6 -1t3 -1q13 -6 27.5 -14t34 -14.5t45.5 -11
t63 -4.5q46 0 99 10.5t107.5 28.5t108.5 41.5t102.5 50t89.5 53.5t70 52q5 5 13 5q9 0 9 -10q0 -7 -6 -14q-27 -35 -69 -88.5t-88.5 -115.5t-93 -127.5t-84 -124.5t-61 -107t-23.5 -74q0 -40 33 -40q27 0 71.5 24.5t96 62t105.5 82.5t101 87t81.5 75.5t46.5 46.5
q16 17 30 32.5t25 27.5t18.5 20.5t8.5 9.5q9 10 15 10q8 0 8 -7z" />
    <glyph glyph-name="Ugrave" unicode="&#xd9;" horiz-adv-x="651" 
d="M758 699q0 -1 -6 -3q-14 5 -31 11t-31.5 13t-24 13.5t-9.5 11.5t4 9.5t9 4.5q3 0 6 -3q14 -12 28.5 -21.5t26.5 -16.5t20 -11.5t8 -7.5zM749 468q0 -4 -7 -15q-12 -17 -34.5 -48.5t-49 -71t-54 -83.5t-50 -86.5t-37 -80.5t-14.5 -64v-8t1 -11q0 -4 -1 -7.5t-5 -3.5
q-7 0 -8.5 7t-1.5 18q0 42 14 84.5t35.5 83.5t46.5 80t47 73l-1 1q-2 0 -13 -11q-4 -5 -33.5 -32.5t-73.5 -66t-97.5 -82.5t-106 -80.5t-99 -61t-76.5 -24.5q-20 0 -30.5 12t-10.5 39q0 34 16 77.5t42.5 92t60.5 99t69 99t69 91.5t60.5 75.5t42.5 53t16 22.5t-2 2
q-4 0 -9 -4q-5 -5 -31.5 -22t-68.5 -39.5t-96 -48t-113 -46.5t-120.5 -35t-117.5 -14q-18 0 -45.5 3.5t-53.5 10.5t-45 18t-19 26q0 13 11 13q4 0 6 -1t3 -1q13 -6 27.5 -14t34 -14.5t45.5 -11t63 -4.5q46 0 99 10.5t107.5 28.5t108.5 41.5t102.5 50t89.5 53.5t70 52
q5 5 13 5q9 0 9 -10q0 -7 -6 -14q-27 -35 -69 -88.5t-88.5 -115.5t-93 -127.5t-84 -124.5t-61 -107t-23.5 -74q0 -40 33 -40q27 0 71.5 24.5t96 62t105.5 82.5t101 87t81.5 75.5t46.5 46.5q16 17 30 32.5t25 27.5t18.5 20.5t8.5 9.5q9 10 15 10q8 0 8 -7z" />
    <glyph glyph-name="dotlessi" unicode="&#x131;" horiz-adv-x="179" 
d="M180 83q-10 -11 -31.5 -26t-47.5 -28.5t-54 -23t-51 -9.5q-17 0 -23.5 8t-6.5 21q0 16 8.5 36.5t19.5 38.5t22 30t16 12q4 0 7 -4q2 -4 2 -7q0 -4 -7.5 -15.5t-16.5 -26t-16.5 -29.5t-7.5 -26q0 -17 21 -17q18 0 40 7.5t44 18.5t41 25t31 26z" />
    <glyph glyph-name="circumflex" unicode="&#x2c6;" horiz-adv-x="392" 
d="M272 237q0 -2 -2 -3.5t-4 -1.5q-3 0 -9.5 6.5t-13.5 14.5q-8 9 -16 20q-12 -8 -27 -15.5t-28.5 -13t-24 -9t-13.5 -3.5q-4 0 -4 4q0 1 9 6.5t22.5 13t28.5 16.5t27 18q6 5 9 6t8 1q3 0 6.5 -5.5t8 -14.5t10.5 -19.5t13 -20.5z" />
    <glyph glyph-name="tilde" unicode="&#x2dc;" horiz-adv-x="377" 
d="M301 257q0 -9 -14 -17.5t-27 -8.5q-16 0 -26 5t-18 10.5t-16.5 10.5t-20.5 5t-18 -8.5t-11 -8.5t-5 5q0 8 13 18.5t27 10.5q13 0 23.5 -5t20 -11.5t18 -11.5t17.5 -5q12 0 19 9.5t12 9.5q3 0 4.5 -3t1.5 -5z" />
    <glyph glyph-name="macron" unicode="&#xaf;" 
d="M227 221q0 -10 -2 -13t-6 -3q-2 0 -15 0.5t-29 0.5q-38 0 -74.5 -4t-69.5 -4q-2 0 -2 1.5v7.5t1.5 7t3.5 1q6 0 25.5 1t42 2.5t43 2.5t27.5 1q2 1 9 1.5t15.5 1t16 1t8.5 0.5q2 0 4 -0.5t2 -4.5z" />
    <glyph glyph-name="dotaccent" unicode="&#x2d9;" 
d="M171 237q0 -9 -7.5 -19.5t-18.5 -10.5q-8 0 -12 4.5t-4 10.5q0 10 8 20t21 10t13 -15z" />
    <glyph glyph-name="ring" unicode="&#x2da;" horiz-adv-x="500" 
d="M301 264q0 -9 -4.5 -17.5t-12 -16t-16.5 -12t-18 -4.5q-14 0 -21 8.5t-7 19.5q0 6 3 15t9.5 17.5t16 14.5t21.5 6q14 0 21.5 -9t7.5 -22zM284 260q0 8 -4 13t-12 5q-14 0 -21.5 -11.5t-7.5 -19.5q0 -5 4.5 -10.5t12.5 -5.5q11 0 19.5 9t8.5 20z" />
    <glyph glyph-name="cedilla" unicode="&#xb8;" horiz-adv-x="243" 
d="M161 -45q0 -12 -8 -22.5t-21 -18t-29 -12t-32 -4.5q-7 0 -7 5q0 4 4 4q11 0 23 3t22.5 8t17.5 13t7 18v2q0 11 -13 15q-4 0 -4 5q0 2 2.5 7t16.5 22q0 2 2 3q4 2 7 2q4 0 10 -2l-18 -26q6 -2 10 -5q4 -2 7 -6.5t3 -10.5z" />
    <glyph glyph-name="caron" unicode="&#x2c7;" horiz-adv-x="392" 
d="M272 294q0 -1 -9 -6.5t-22.5 -13t-28.5 -16.5t-27 -18q-6 -5 -9 -6t-8 -1q-3 0 -6.5 5.5t-8 14.5t-10 19.5t-13.5 20.5q0 2 2 3.5t4 1.5q4 0 10 -6t13 -14q8 -9 16 -21q12 8 27 15.5t28.5 13t24 9t13.5 3.5q4 0 4 -4z" />
    <glyph glyph-name="Eth" unicode="&#xd0;" horiz-adv-x="735" 
d="M761 210q0 -3 -4.5 -7.5t-9.5 -5.5q-8 -1 -15.5 -1h-15.5h-26q-28 -61 -69.5 -106.5t-89.5 -74.5t-97.5 -43.5t-93.5 -14.5q-30 0 -55 6.5t-44 19t-29.5 31t-10.5 42.5v8.5t1 8.5q-34 -28 -67 -51q-28 -20 -56.5 -36t-46.5 -16q-13 0 -22 7t-9 23q0 23 10.5 52.5t29 63.5
t43.5 71t54 75q-20 -2 -38.5 -3t-35.5 -3q-2 0 -3 2t-1 11q0 7 2 9.5t4 2.5q19 2 43 4t50 4q37 48 76.5 93.5t76.5 86.5q-17 56 -17 106q0 46 11 79.5t30 55t45 32t55 10.5q48 0 100 -25.5t95.5 -72t71.5 -111.5t28 -144q0 -56 -9.5 -103t-26.5 -88h7q23 0 38 2t20 2
q1 -1 1 -2zM703 383q0 81 -26.5 145.5t-67 109.5t-88.5 68.5t-91 23.5q-49 0 -82.5 -32.5t-33.5 -100.5q0 -52 19 -105q42 45 73.5 76.5t43.5 42.5q4 4 12 4t15 -5q2 -1 2 -4q0 -5 -5 -10.5t-10 -10.5q-18 -16 -49.5 -48t-70.5 -75q20 -45 50.5 -88t72 -78t92 -58t110.5 -29
q16 38 25 81t9 93zM664 198q-67 7 -122 29t-97.5 54.5t-73 73.5t-48.5 84q-31 -34 -63 -71.5t-64 -75.5q13 1 27 2q12 1 27.5 1.5t29.5 0.5q3 0 5.5 -1t2.5 -7q-1 -14 -3 -17t-5 -3q-24 0 -51 -1t-55 -3q-33 -41 -61.5 -80t-50 -73t-34 -61t-12.5 -44q0 -10 6.5 -14t14.5 -4
q25 0 54.5 19t56.5 41.5t48 41.5t29 19q3 0 3.5 -10t0.5 -21q0 -54 34.5 -80.5t86.5 -26.5q39 0 83.5 14.5t87 43t80.5 71t63 98.5z" />
    <glyph glyph-name="Euro" unicode="&#x20ac;" horiz-adv-x="225" 
d="M248 175q0 -5 -4.5 -7.5t-8.5 -2.5q-5 0 -5 4q0 8 -7 10.5t-18 2.5q-28 0 -58.5 -20.5t-56.5 -47.5h53q5 0 5 -3t-2 -6t-3 -3q-17 -1 -32.5 -1h-31.5q-2 -3 -5.5 -7t-5.5 -7h61q5 0 5 -3t-2 -6t-3 -3q-18 -1 -36 -0.5t-35 -1.5q-11 -16 -17 -30t-6 -25q0 -19 21 -19
q17 0 39 9.5t36 20.5q1 1 5 1q8 0 8 -5q0 -3 -9 -10t-22.5 -14t-29 -12t-28.5 -5q-17 0 -28.5 9t-11.5 27q0 22 17 53h-28q-1 1 -1 2q0 10 3 10t8.5 0.5t11.5 0.5h14q4 6 10 14h-32q-1 1 -1 2q0 10 3 10q2 0 8.5 0.5t14.5 0.5h18q28 33 67 57.5t81 24.5q39 0 39 -20z" />
    <glyph glyph-name="currency" unicode="&#xa4;" horiz-adv-x="225" 
d="M248 175q0 -5 -4.5 -7.5t-8.5 -2.5q-5 0 -5 4q0 8 -7 10.5t-18 2.5q-28 0 -58.5 -20.5t-56.5 -47.5h53q5 0 5 -3t-2 -6t-3 -3q-17 -1 -32.5 -1h-31.5q-2 -3 -5.5 -7t-5.5 -7h61q5 0 5 -3t-2 -6t-3 -3q-18 -1 -36 -0.5t-35 -1.5q-11 -16 -17 -30t-6 -25q0 -19 21 -19
q17 0 39 9.5t36 20.5q1 1 5 1q8 0 8 -5q0 -3 -9 -10t-22.5 -14t-29 -12t-28.5 -5q-17 0 -28.5 9t-11.5 27q0 22 17 53h-28q-1 1 -1 2q0 10 3 10t8.5 0.5t11.5 0.5h14q4 6 10 14h-32q-1 1 -1 2q0 10 3 10q2 0 8.5 0.5t14.5 0.5h18q28 33 67 57.5t81 24.5q39 0 39 -20z" />
    <glyph glyph-name="onequarter" unicode="&#xbc;" horiz-adv-x="285" 
d="M206 150q0 -10 -7 -17q-18 -20 -43.5 -51.5t-56.5 -70.5q24 8 47.5 16t34.5 8q7 0 7 -6q0 -5 -7 -10.5t-14 -8.5q-24 -7 -47 -14.5t-46 -16.5q-34 -44 -71.5 -91.5t-76 -94t-76.5 -88t-72 -73.5t-63 -50.5t-50 -18.5q-17 0 -28 9t-11 30q0 36 20 74t54 75.5t79 73.5
t94 68t99.5 59.5t95.5 46.5q33 44 48 71q0 3 -1 3h-2q-29 -18 -55 -33q-23 -13 -46 -23.5t-37 -10.5q-22 0 -22 20q0 14 10 33.5t23.5 37t27 30t21.5 12.5q5 0 9.5 -2.5t4.5 -4.5t-11 -12.5t-24 -24.5t-24 -30.5t-11 -30.5q0 -7 11 -7q20 0 48.5 15.5t55.5 35.5t48.5 39.5
t28.5 26.5q17 18 25 18q5 0 7.5 -3.5t2.5 -8.5zM45 -32q-85 -36 -158 -81.5t-126 -94t-83.5 -95.5t-30.5 -84q0 -14 6 -22.5t19 -8.5q14 0 39.5 18t57.5 48t68.5 69.5t73 82.5t71.5 86.5t63 81.5z" />
    <glyph glyph-name="onehalf" unicode="&#xbd;" horiz-adv-x="178" 
d="M351 295q0 -9 -5 -14t-22 -5q-7 1 -12.5 3t-17.5 3.5t-35 2.5t-67 1h-40q-31 -40 -61.5 -80.5t-55 -75t-39.5 -60t-15 -36.5q0 -22 16 -22q18 0 43 8.5t49.5 21t46.5 27t34 26.5l10 -11q-10 -11 -31.5 -26t-47.5 -28.5t-54 -23t-51 -9.5q-14 0 -24 6.5t-10 22.5
q0 15 13.5 42.5t36 62t51 75t58.5 80.5q-44 -1 -78.5 -1h-57.5q-11 0 -22 3.5t-11 9.5q1 4 4.5 6t7.5 3t10 1h32t55 -1q33 -1 75 -2q31 42 59.5 80.5t49.5 69.5q11 17 19 21t12 4q3 0 6 -2t3 -6q0 -7 -7 -18q-17 -26 -47 -65.5t-64 -83.5h32.5t55.5 -1q34 -1 76 -1
q8 0 14 -1.5t6 -6.5z" />
    <glyph glyph-name="threequarters" unicode="&#xbe;" horiz-adv-x="356" 
d="M638 295q0 -9 -5 -14t-22 -5q-5 1 -31.5 2t-66 2t-87.5 2t-97 2q-31 -40 -61.5 -80.5t-54.5 -74.5t-39 -59t-15 -36q0 -22 16 -22q18 0 43 8.5t49.5 21t46.5 27t34 26.5l10 -11q-10 -11 -31.5 -26t-47.5 -28.5t-54 -23t-51 -9.5q-14 0 -24 6.5t-10 22.5q0 11 8 30
q-15 -10 -34.5 -21t-39.5 -19t-40 -13.5t-37 -5.5q-14 0 -24 6.5t-10 22.5q0 15 13.5 42.5t36.5 62t51.5 75t58.5 80.5q-65 0 -116 -0.5t-82 -0.5q-11 0 -22 3.5t-11 9.5q1 4 4.5 6t7.5 3t10 1h14h27t36 -0.5t40 -0.5q48 -1 107 -1q30 42 58.5 80t49.5 69q11 17 19 21t12 4
q3 0 6 -2t3 -6q0 -7 -7 -18q-17 -26 -47 -65t-62 -83h88q27 0 56 -1q31 42 59.5 80.5t49.5 69.5q11 17 19 21t12 4q3 0 6 -2t3 -6q0 -7 -7 -18q-17 -26 -47 -65.5t-64 -83.5h20.5h34.5t44 -0.5t48 -0.5q57 -1 126 -1q8 0 14 -1.5t6 -6.5zM298 284q-42 1 -79 1.5t-65 0.5
q-31 -40 -62 -80.5t-55.5 -75t-39.5 -60t-15 -36.5q0 -22 16 -22q17 0 40 7.5t46.5 18.5t45 25t35.5 26q22 39 57.5 90.5t75.5 104.5z" />
    <glyph glyph-name="plusminus" unicode="&#xb1;" horiz-adv-x="664" 
d="M667 84q-46 -39 -100.5 -50t-111.5 -11h-34.5t-33.5 2q-45 -26 -94 -42.5t-100 -16.5q-37 0 -74 8t-66.5 21.5t-47.5 32.5t-18 41q0 29 46 29q15 0 49 -7.5t81 -17t103.5 -19t117.5 -14.5q43 28 77.5 63.5t59 73t38 73.5t13.5 64q0 29 -14.5 46.5t-46.5 17.5
q-12 0 -26.5 -4t-31 -8.5t-34 -8.5t-33.5 -4q-39 0 -57.5 24.5t-21.5 64.5q-7 -7 -14 -13.5t-14 -12.5q-2 0 -5 1q-6 2 -6 7t6 11l33 32q2 35 12.5 75t28 80t41.5 77t52.5 65t60 45t64.5 17q26 0 26 -22q0 -19 -19 -53.5t-53.5 -79t-82.5 -97t-105 -108.5q-1 -5 -1 -10v-10
q0 -35 16 -56.5t51 -21.5q16 0 33 3.5t33.5 8t30.5 8t24 3.5q49 0 71 -20.5t22 -53.5q0 -29 -15.5 -65.5t-42.5 -74t-64.5 -74t-81.5 -65.5q14 -1 27 -1h27q55 0 105.5 13t89.5 45q1 1 3 1q4 0 5.5 -5t1.5 -7zM562 799q0 13 -13 13q-26 0 -59 -31t-63.5 -78t-55.5 -102.5
t-35 -104.5q52 53 94 101t71 87.5t45 69t16 45.5zM363 26q-62 5 -114.5 14.5t-95 18.5t-74 16t-51.5 7q-17 0 -17 -11q0 -10 14 -25.5t38 -30.5t57 -25.5t71 -10.5q47 0 90.5 13t81.5 34z" />
    <glyph glyph-name="twosuperior" unicode="&#xb2;" horiz-adv-x="481" 
d="M602 715q0 -13 -27 -34.5t-73 -47t-107 -52.5t-128 -50q-12 -22 -12 -42q0 -23 21.5 -39.5t61.5 -16.5q17 0 34 4.5t32.5 10.5t29 10.5t22.5 4.5t9 -6q0 -8 -9.5 -12t-18.5 -6q-76 -20 -140.5 -59t-111 -86.5t-72.5 -98.5t-26 -95q0 -56 38 -82.5t95 -26.5
q60 0 128.5 26.5t125.5 77.5l11 -10q-73 -63 -142 -89.5t-126 -26.5q-36 0 -66 9t-51 25.5t-33 39t-12 48.5q0 36 18 78.5t54 86t89.5 85.5t124.5 77q2 2 2 4q0 1 -7 1q-56 0 -80 16t-24 42q0 17 11 41q-82 -27 -165 -44.5t-154 -17.5q-50 0 -77.5 7.5t-38.5 12.5q-5 3 -5 7
q0 5 4 9l3.5 3.5t4.5 1.5q1 0 7 -2q2 -1 17.5 -4t36.5 -7t43.5 -7t38.5 -3q63 0 140 17.5t154 43.5q20 33 56.5 68t80.5 63.5t92 46.5t91 18q12 0 21 -4.5t9 -15.5zM566 706q0 6 -8 8t-13 2q-34 0 -73.5 -15.5t-76.5 -39.5t-68.5 -54t-49.5 -59q58 21 110.5 44.5t92 45.5
t63 40t23.5 28z" />
    <glyph glyph-name="threesuperior" unicode="&#xb3;" horiz-adv-x="242" 
d="M142 2q0 -5 -7 -10.5t-14 -8.5q-72 -20 -137 -48q-12 -45 -38.5 -89.5t-61 -86t-74 -77.5t-77 -62.5t-69.5 -41.5t-52 -15q-17 0 -28 9t-11 30q0 39 33.5 85t89 92t126 89.5t144.5 77.5q1 6 1.5 11.5t0.5 10.5q0 21 -4 36v9q22 1 46 14.5t43 31.5t31.5 36.5t12.5 30.5
t-14 12q-11 0 -29 -12.5t-38 -29.5l-23 -20h-23q41 38 73 62.5t52 24.5q25 0 25 -23q0 -15 -12 -36.5t-30.5 -42.5t-41 -38t-44.5 -23v-10q0 -16 -3 -34q38 17 74.5 30t71.5 22q5 0 6 -3q1 -2 1 -3zM-38 -75q-77 -35 -144.5 -78t-117 -86t-78 -82t-28.5 -66q0 -14 6 -22.5
t19 -8.5q23 0 55 15.5t66.5 41.5t70 60.5t65.5 72.5t53 77.5t33 75.5z" />
    </font>
</defs>
</svg>
